<svg width="552" height="457" viewBox="0 0 552 457" fill="none" xmlns="http://www.w3.org/2000/svg">
<g filter="url(#filter0_d_145_8595)">
<path d="M36 24.2817C36 17.6543 41.3726 12.2817 48 12.2817H504C510.627 12.2817 516 17.6543 516 24.2817V384.282C516 390.909 510.627 396.282 504 396.282H48C41.3726 396.282 36 390.909 36 384.282V24.2817Z" fill="white"/>
<path d="M36.5 24.2817C36.5 17.9305 41.6487 12.7817 48 12.7817H504C510.351 12.7817 515.5 17.9305 515.5 24.2817V384.282C515.5 390.633 510.351 395.782 504 395.782H48C41.6487 395.782 36.5 390.633 36.5 384.282V24.2817Z" stroke="#E4E7EC"/>
<path d="M77.5433 52.1908H79.9148V60.7434C79.9148 61.6809 79.6932 62.5055 79.25 63.2171C78.8111 63.9288 78.1932 64.4849 77.3963 64.8854C76.5994 65.2817 75.6683 65.4799 74.603 65.4799C73.5334 65.4799 72.6001 65.2817 71.8033 64.8854C71.0064 64.4849 70.3885 63.9288 69.9496 63.2171C69.5107 62.5055 69.2912 61.6809 69.2912 60.7434V52.1908H71.6626V60.5452C71.6626 61.0907 71.782 61.5765 72.0206 62.0026C72.2635 62.4288 72.6044 62.7633 73.0433 63.0062C73.4822 63.2448 74.0021 63.3641 74.603 63.3641C75.2038 63.3641 75.7237 63.2448 76.1626 63.0062C76.6058 62.7633 76.9467 62.4288 77.1854 62.0026C77.424 61.5765 77.5433 61.0907 77.5433 60.5452V52.1908ZM90.15 58.0587L88.0407 58.2888C87.981 58.0758 87.8766 57.8755 87.7275 57.688C87.5826 57.5005 87.3865 57.3492 87.1394 57.2342C86.8922 57.1191 86.5897 57.0616 86.2317 57.0616C85.7502 57.0616 85.3453 57.166 85.0172 57.3748C84.6934 57.5836 84.5336 57.8542 84.5378 58.1866C84.5336 58.4721 84.638 58.7043 84.851 58.8833C85.0684 59.0623 85.4263 59.2093 85.9249 59.3244L87.5996 59.6823C88.5286 59.8826 89.2189 60.2001 89.6706 60.6347C90.1266 61.0694 90.3567 61.6383 90.361 62.3414C90.3567 62.9593 90.1756 63.5047 89.8176 63.9778C89.464 64.4465 88.9718 64.813 88.3411 65.0772C87.7104 65.3414 86.986 65.4735 86.1678 65.4735C84.9661 65.4735 83.9988 65.2221 83.2658 64.7192C82.5328 64.2121 82.0961 63.5069 81.9554 62.6035L84.2118 62.3861C84.3141 62.8293 84.5314 63.1638 84.8638 63.3897C85.1962 63.6155 85.6287 63.7285 86.1614 63.7285C86.7111 63.7285 87.1522 63.6155 87.4846 63.3897C87.8212 63.1638 87.9895 62.8847 87.9895 62.5523C87.9895 62.2711 87.8809 62.0388 87.6635 61.8556C87.4505 61.6724 87.1181 61.5317 86.6664 61.4337L84.9917 61.0822C84.0499 60.8861 83.3532 60.5559 82.9015 60.0914C82.4498 59.6226 82.226 59.0303 82.2303 58.3144C82.226 57.7093 82.3901 57.1851 82.7225 56.742C83.0591 56.2945 83.5257 55.9494 84.1223 55.7065C84.7232 55.4593 85.4157 55.3357 86.1998 55.3357C87.3503 55.3357 88.2559 55.5807 88.9164 56.0708C89.5811 56.5609 89.9924 57.2235 90.15 58.0587ZM96.6156 65.4735C95.6312 65.4735 94.7811 65.269 94.0652 64.8599C93.3535 64.4465 92.8059 63.8627 92.4224 63.1084C92.0389 62.3499 91.8471 61.4572 91.8471 60.4302C91.8471 59.4202 92.0389 58.5339 92.4224 57.7711C92.8102 57.004 93.3514 56.4074 94.046 55.9813C94.7406 55.5509 95.5566 55.3357 96.4941 55.3357C97.0993 55.3357 97.6703 55.4337 98.2072 55.6297C98.7484 55.8215 99.2257 56.1198 99.639 56.5246C100.057 56.9295 100.385 57.4451 100.623 58.0715C100.862 58.6937 100.981 59.4351 100.981 60.2959V61.0055H92.9338V59.4458H98.7633C98.7591 59.0026 98.6632 58.6084 98.4757 58.2633C98.2882 57.9138 98.0261 57.639 97.6895 57.4387C97.3571 57.2384 96.9693 57.1383 96.5261 57.1383C96.0531 57.1383 95.6376 57.2533 95.2797 57.4834C94.9217 57.7093 94.6426 58.0076 94.4423 58.3783C94.2463 58.7448 94.1461 59.1475 94.1419 59.5864V60.9479C94.1419 61.519 94.2463 62.009 94.4551 62.4181C94.6639 62.8229 94.9558 63.134 95.3308 63.3513C95.7058 63.5644 96.1447 63.6709 96.6476 63.6709C96.9842 63.6709 97.2889 63.6241 97.5616 63.5303C97.8343 63.4323 98.0708 63.2896 98.2711 63.1021C98.4714 62.9146 98.6227 62.6823 98.725 62.4053L100.885 62.6482C100.749 63.2192 100.489 63.7178 100.106 64.144C99.7264 64.5658 99.2406 64.894 98.6483 65.1283C98.0559 65.3584 97.3784 65.4735 96.6156 65.4735ZM102.939 65.2817V55.4636H105.183V57.0999H105.285C105.464 56.5332 105.771 56.0964 106.205 55.7896C106.644 55.4785 107.145 55.3229 107.707 55.3229C107.835 55.3229 107.978 55.3293 108.136 55.3421C108.298 55.3506 108.432 55.3655 108.538 55.3869V57.5154C108.44 57.4813 108.285 57.4515 108.072 57.4259C107.863 57.3961 107.661 57.3812 107.464 57.3812C107.043 57.3812 106.663 57.4728 106.327 57.656C105.994 57.835 105.732 58.0843 105.54 58.4039C105.349 58.7235 105.253 59.0921 105.253 59.5097V65.2817H102.939ZM117.836 58.0587L115.726 58.2888C115.667 58.0758 115.562 57.8755 115.413 57.688C115.268 57.5005 115.072 57.3492 114.825 57.2342C114.578 57.1191 114.275 57.0616 113.917 57.0616C113.436 57.0616 113.031 57.166 112.703 57.3748C112.379 57.5836 112.219 57.8542 112.223 58.1866C112.219 58.4721 112.324 58.7043 112.537 58.8833C112.754 59.0623 113.112 59.2093 113.61 59.3244L115.285 59.6823C116.214 59.8826 116.904 60.2001 117.356 60.6347C117.812 61.0694 118.042 61.6383 118.047 62.3414C118.042 62.9593 117.861 63.5047 117.503 63.9778C117.15 64.4465 116.657 64.813 116.027 65.0772C115.396 65.3414 114.672 65.4735 113.853 65.4735C112.652 65.4735 111.684 65.2221 110.951 64.7192C110.218 64.2121 109.782 63.5069 109.641 62.6035L111.897 62.3861C112 62.8293 112.217 63.1638 112.549 63.3897C112.882 63.6155 113.314 63.7285 113.847 63.7285C114.397 63.7285 114.838 63.6155 115.17 63.3897C115.507 63.1638 115.675 62.8847 115.675 62.5523C115.675 62.2711 115.566 62.0388 115.349 61.8556C115.136 61.6724 114.804 61.5317 114.352 61.4337L112.677 61.0822C111.735 60.8861 111.039 60.5559 110.587 60.0914C110.135 59.6226 109.912 59.0303 109.916 58.3144C109.912 57.7093 110.076 57.1851 110.408 56.742C110.745 56.2945 111.211 55.9494 111.808 55.7065C112.409 55.4593 113.101 55.3357 113.885 55.3357C115.036 55.3357 115.941 55.5807 116.602 56.0708C117.267 56.5609 117.678 57.2235 117.836 58.0587ZM128.702 65.4735C127.743 65.4735 126.912 65.2626 126.209 64.8407C125.506 64.4188 124.961 63.8286 124.573 63.0701C124.189 62.3116 123.998 61.4252 123.998 60.411C123.998 59.3968 124.189 58.5083 124.573 57.7455C124.961 56.9827 125.506 56.3904 126.209 55.9685C126.912 55.5467 127.743 55.3357 128.702 55.3357C129.661 55.3357 130.492 55.5467 131.195 55.9685C131.898 56.3904 132.441 56.9827 132.825 57.7455C133.213 58.5083 133.407 59.3968 133.407 60.411C133.407 61.4252 133.213 62.3116 132.825 63.0701C132.441 63.8286 131.898 64.4188 131.195 64.8407C130.492 65.2626 129.661 65.4735 128.702 65.4735ZM128.715 63.6198C129.235 63.6198 129.669 63.4771 130.019 63.1915C130.368 62.9018 130.628 62.514 130.799 62.0282C130.973 61.5424 131.061 61.0012 131.061 60.4046C131.061 59.8038 130.973 59.2604 130.799 58.7746C130.628 58.2846 130.368 57.8947 130.019 57.6049C129.669 57.3151 129.235 57.1702 128.715 57.1702C128.182 57.1702 127.739 57.3151 127.385 57.6049C127.036 57.8947 126.774 58.2846 126.599 58.7746C126.429 59.2604 126.343 59.8038 126.343 60.4046C126.343 61.0012 126.429 61.5424 126.599 62.0282C126.774 62.514 127.036 62.9018 127.385 63.1915C127.739 63.4771 128.182 63.6198 128.715 63.6198ZM143.806 55.4636L140.31 65.2817H137.753L134.257 55.4636H136.724L138.98 62.7569H139.083L141.346 55.4636H143.806ZM149.42 65.4735C148.436 65.4735 147.586 65.269 146.87 64.8599C146.158 64.4465 145.611 63.8627 145.227 63.1084C144.844 62.3499 144.652 61.4572 144.652 60.4302C144.652 59.4202 144.844 58.5339 145.227 57.7711C145.615 57.004 146.156 56.4074 146.851 55.9813C147.545 55.5509 148.361 55.3357 149.299 55.3357C149.904 55.3357 150.475 55.4337 151.012 55.6297C151.553 55.8215 152.03 56.1198 152.444 56.5246C152.861 56.9295 153.189 57.4451 153.428 58.0715C153.667 58.6937 153.786 59.4351 153.786 60.2959V61.0055H145.738V59.4458H151.568C151.564 59.0026 151.468 58.6084 151.28 58.2633C151.093 57.9138 150.831 57.639 150.494 57.4387C150.162 57.2384 149.774 57.1383 149.331 57.1383C148.858 57.1383 148.442 57.2533 148.084 57.4834C147.726 57.7093 147.447 58.0076 147.247 58.3783C147.051 58.7448 146.951 59.1475 146.947 59.5864V60.9479C146.947 61.519 147.051 62.009 147.26 62.4181C147.469 62.8229 147.76 63.134 148.135 63.3513C148.51 63.5644 148.949 63.6709 149.452 63.6709C149.789 63.6709 150.094 63.6241 150.366 63.5303C150.639 63.4323 150.876 63.2896 151.076 63.1021C151.276 62.9146 151.427 62.6823 151.53 62.4053L153.69 62.6482C153.554 63.2192 153.294 63.7178 152.91 64.144C152.531 64.5658 152.045 64.894 151.453 65.1283C150.861 65.3584 150.183 65.4735 149.42 65.4735ZM155.744 65.2817V55.4636H157.987V57.0999H158.089C158.268 56.5332 158.575 56.0964 159.01 55.7896C159.449 55.4785 159.95 55.3229 160.512 55.3229C160.64 55.3229 160.783 55.3293 160.94 55.3421C161.102 55.3506 161.237 55.3655 161.343 55.3869V57.5154C161.245 57.4813 161.089 57.4515 160.876 57.4259C160.668 57.3961 160.465 57.3812 160.269 57.3812C159.847 57.3812 159.468 57.4728 159.131 57.656C158.799 57.835 158.537 58.0843 158.345 58.4039C158.153 58.7235 158.058 59.0921 158.058 59.5097V65.2817H155.744ZM172.248 55.4636V57.2533H166.604V55.4636H172.248ZM167.997 53.1113H170.311V62.3286C170.311 62.6397 170.358 62.8783 170.452 63.0445C170.55 63.2065 170.678 63.3172 170.835 63.3769C170.993 63.4366 171.168 63.4664 171.359 63.4664C171.504 63.4664 171.636 63.4557 171.756 63.4344C171.879 63.4131 171.973 63.394 172.037 63.3769L172.427 65.1859C172.303 65.2285 172.126 65.2753 171.896 65.3265C171.67 65.3776 171.393 65.4074 171.065 65.416C170.486 65.433 169.964 65.3457 169.499 65.1539C169.035 64.9579 168.666 64.6553 168.393 64.2462C168.125 63.8371 167.993 63.3258 167.997 62.7121V53.1113ZM174.183 65.2817V55.4636H176.497V65.2817H174.183ZM175.346 54.0701C174.98 54.0701 174.665 53.9486 174.4 53.7057C174.136 53.4586 174.004 53.1624 174.004 52.8172C174.004 52.4678 174.136 52.1717 174.4 51.9288C174.665 51.6816 174.98 51.558 175.346 51.558C175.717 51.558 176.032 51.6816 176.292 51.9288C176.557 52.1717 176.689 52.4678 176.689 52.8172C176.689 53.1624 176.557 53.4586 176.292 53.7057C176.032 53.9486 175.717 54.0701 175.346 54.0701ZM178.876 65.2817V55.4636H181.088V57.1319H181.203C181.408 56.5694 181.746 56.1305 182.219 55.8151C182.692 55.4955 183.257 55.3357 183.913 55.3357C184.578 55.3357 185.138 55.4976 185.594 55.8215C186.055 56.1411 186.379 56.5779 186.566 57.1319H186.668C186.886 56.5864 187.252 56.1518 187.768 55.8279C188.288 55.4998 188.903 55.3357 189.615 55.3357C190.518 55.3357 191.256 55.6212 191.827 56.1922C192.398 56.7633 192.683 57.5964 192.683 58.6915V65.2817H190.363V59.0495C190.363 58.4401 190.201 57.9948 189.877 57.7136C189.553 57.428 189.157 57.2853 188.688 57.2853C188.13 57.2853 187.693 57.46 187.378 57.8094C187.067 58.1546 186.911 58.6042 186.911 59.1582V65.2817H184.642V58.9536C184.642 58.4465 184.489 58.0417 184.182 57.7391C183.879 57.4366 183.483 57.2853 182.993 57.2853C182.661 57.2853 182.358 57.3705 182.085 57.541C181.813 57.7072 181.595 57.9437 181.433 58.2505C181.271 58.553 181.19 58.9067 181.19 59.3116V65.2817H178.876ZM199.377 65.4735C198.393 65.4735 197.543 65.269 196.827 64.8599C196.115 64.4465 195.568 63.8627 195.184 63.1084C194.801 62.3499 194.609 61.4572 194.609 60.4302C194.609 59.4202 194.801 58.5339 195.184 57.7711C195.572 57.004 196.113 56.4074 196.808 55.9813C197.502 55.5509 198.318 55.3357 199.256 55.3357C199.861 55.3357 200.432 55.4337 200.969 55.6297C201.51 55.8215 201.987 56.1198 202.401 56.5246C202.818 56.9295 203.146 57.4451 203.385 58.0715C203.624 58.6937 203.743 59.4351 203.743 60.2959V61.0055H195.695V59.4458H201.525C201.521 59.0026 201.425 58.6084 201.237 58.2633C201.05 57.9138 200.788 57.639 200.451 57.4387C200.119 57.2384 199.731 57.1383 199.288 57.1383C198.815 57.1383 198.399 57.2533 198.041 57.4834C197.683 57.7093 197.404 58.0076 197.204 58.3783C197.008 58.7448 196.908 59.1475 196.904 59.5864V60.9479C196.904 61.519 197.008 62.009 197.217 62.4181C197.426 62.8229 197.718 63.134 198.093 63.3513C198.468 63.5644 198.906 63.6709 199.409 63.6709C199.746 63.6709 200.051 63.6241 200.323 63.5303C200.596 63.4323 200.833 63.2896 201.033 63.1021C201.233 62.9146 201.384 62.6823 201.487 62.4053L203.647 62.6482C203.511 63.2192 203.251 63.7178 202.867 64.144C202.488 64.5658 202.002 64.894 201.41 65.1283C200.818 65.3584 200.14 65.4735 199.377 65.4735Z" fill="#101828"/>
<line x1="68.5" y1="98.7817" x2="483.5" y2="98.7817" stroke="#F2F4F7" stroke-linecap="round"/>
<line x1="68.5" y1="148.482" x2="483.5" y2="148.482" stroke="#F2F4F7" stroke-linecap="round"/>
<line x1="68.5" y1="195.682" x2="483.5" y2="195.682" stroke="#F2F4F7" stroke-linecap="round"/>
<line x1="68.5" y1="242.882" x2="483.5" y2="242.882" stroke="#F2F4F7" stroke-linecap="round"/>
<line x1="68.5" y1="290.082" x2="483.5" y2="290.082" stroke="#F2F4F7" stroke-linecap="round"/>
<line x1="68.5" y1="337.282" x2="483.5" y2="337.282" stroke="#F2F4F7" stroke-linecap="round"/>
<path d="M81.1009 350.554H82.1577V356.793C82.1577 357.35 82.0554 357.823 81.8509 358.212C81.6463 358.601 81.358 358.897 80.9858 359.098C80.6136 359.3 80.1747 359.401 79.669 359.401C79.1918 359.401 78.767 359.314 78.3949 359.141C78.0227 358.965 77.7301 358.715 77.517 358.391C77.304 358.067 77.1974 357.682 77.1974 357.236H78.2372C78.2372 357.483 78.2983 357.699 78.4205 357.884C78.5455 358.066 78.7159 358.208 78.9318 358.31C79.1477 358.412 79.3935 358.464 79.669 358.464C79.973 358.464 80.2315 358.4 80.4446 358.272C80.6577 358.144 80.8196 357.956 80.9304 357.709C81.044 357.459 81.1009 357.154 81.1009 356.793V350.554ZM86.0653 359.435C85.6506 359.435 85.2741 359.357 84.9361 359.201C84.598 359.042 84.3295 358.813 84.1307 358.515C83.9318 358.214 83.8324 357.85 83.8324 357.424C83.8324 357.049 83.9063 356.745 84.054 356.512C84.2017 356.276 84.3991 356.091 84.6463 355.958C84.8935 355.824 85.1662 355.725 85.4645 355.66C85.7656 355.591 86.0682 355.537 86.3722 355.498C86.7699 355.447 87.0923 355.408 87.3395 355.383C87.5895 355.354 87.7713 355.307 87.8849 355.242C88.0014 355.177 88.0597 355.063 88.0597 354.901V354.867C88.0597 354.447 87.9446 354.12 87.7145 353.887C87.4872 353.654 87.142 353.537 86.679 353.537C86.1989 353.537 85.8224 353.643 85.5497 353.853C85.277 354.063 85.0852 354.287 84.9744 354.526L84.0199 354.185C84.1903 353.787 84.4176 353.478 84.7017 353.256C84.9886 353.032 85.3011 352.875 85.6392 352.787C85.9801 352.697 86.3153 352.651 86.6449 352.651C86.8551 352.651 87.0966 352.677 87.3693 352.728C87.6449 352.776 87.9105 352.877 88.1662 353.03C88.4247 353.184 88.6392 353.415 88.8097 353.725C88.9801 354.035 89.0653 354.449 89.0653 354.969V359.282H88.0597V358.395H88.0085C87.9403 358.537 87.8267 358.689 87.6676 358.851C87.5085 359.013 87.2969 359.151 87.0327 359.265C86.7685 359.378 86.446 359.435 86.0653 359.435ZM86.2188 358.532C86.6165 358.532 86.9517 358.454 87.2244 358.297C87.5 358.141 87.7074 357.939 87.8466 357.692C87.9886 357.445 88.0597 357.185 88.0597 356.912V355.992C88.017 356.043 87.9233 356.09 87.7784 356.133C87.6364 356.172 87.4716 356.208 87.2841 356.239C87.0994 356.268 86.919 356.293 86.7429 356.316C86.5696 356.336 86.429 356.353 86.321 356.367C86.0597 356.401 85.8153 356.456 85.5881 356.533C85.3636 356.607 85.1818 356.719 85.0426 356.87C84.9063 357.018 84.8381 357.219 84.8381 357.475C84.8381 357.824 84.9673 358.089 85.2259 358.268C85.4872 358.444 85.8182 358.532 86.2188 358.532ZM91.9066 355.344V359.282H90.9009V352.736H91.8725V353.759H91.9577C92.1112 353.427 92.3441 353.16 92.6566 352.958C92.9691 352.753 93.3725 352.651 93.8668 352.651C94.31 352.651 94.6978 352.742 95.0302 352.924C95.3626 353.103 95.6211 353.375 95.8058 353.742C95.9904 354.106 96.0827 354.566 96.0827 355.123V359.282H95.0771V355.191C95.0771 354.677 94.9435 354.276 94.6765 353.989C94.4094 353.699 94.043 353.554 93.5771 353.554C93.256 353.554 92.9691 353.624 92.7163 353.763C92.4663 353.902 92.2688 354.106 92.1239 354.373C91.979 354.64 91.9066 354.964 91.9066 355.344Z" fill="#475467"/>
<path d="M139.488 350.554H140.749L143.715 357.799H143.818L146.783 350.554H148.045V359.282H147.056V352.651H146.971L144.244 359.282H143.289L140.562 352.651H140.477V359.282H139.488V350.554ZM151.954 359.435C151.539 359.435 151.162 359.357 150.824 359.201C150.486 359.042 150.218 358.813 150.019 358.515C149.82 358.214 149.721 357.85 149.721 357.424C149.721 357.049 149.794 356.745 149.942 356.512C150.09 356.276 150.287 356.091 150.534 355.958C150.782 355.824 151.054 355.725 151.353 355.66C151.654 355.591 151.956 355.537 152.26 355.498C152.658 355.447 152.981 355.408 153.228 355.383C153.478 355.354 153.659 355.307 153.773 355.242C153.89 355.177 153.948 355.063 153.948 354.901V354.867C153.948 354.447 153.833 354.12 153.603 353.887C153.375 353.654 153.03 353.537 152.567 353.537C152.087 353.537 151.711 353.643 151.438 353.853C151.165 354.063 150.973 354.287 150.863 354.526L149.908 354.185C150.079 353.787 150.306 353.478 150.59 353.256C150.877 353.032 151.189 352.875 151.527 352.787C151.868 352.697 152.204 352.651 152.533 352.651C152.743 352.651 152.985 352.677 153.258 352.728C153.533 352.776 153.799 352.877 154.054 353.03C154.313 353.184 154.527 353.415 154.698 353.725C154.868 354.035 154.954 354.449 154.954 354.969V359.282H153.948V358.395H153.897C153.829 358.537 153.715 358.689 153.556 358.851C153.397 359.013 153.185 359.151 152.921 359.265C152.657 359.378 152.334 359.435 151.954 359.435ZM152.107 358.532C152.505 358.532 152.84 358.454 153.113 358.297C153.388 358.141 153.596 357.939 153.735 357.692C153.877 357.445 153.948 357.185 153.948 356.912V355.992C153.905 356.043 153.811 356.09 153.667 356.133C153.525 356.172 153.36 356.208 153.172 356.239C152.988 356.268 152.807 356.293 152.631 356.316C152.458 356.336 152.317 356.353 152.209 356.367C151.948 356.401 151.704 356.456 151.476 356.533C151.252 356.607 151.07 356.719 150.931 356.87C150.794 357.018 150.726 357.219 150.726 357.475C150.726 357.824 150.856 358.089 151.114 358.268C151.375 358.444 151.706 358.532 152.107 358.532ZM156.789 359.282V352.736H157.761V353.725H157.829C157.948 353.401 158.164 353.138 158.477 352.937C158.789 352.735 159.141 352.634 159.533 352.634C159.607 352.634 159.7 352.635 159.81 352.638C159.921 352.641 160.005 352.645 160.062 352.651V353.674C160.028 353.665 159.95 353.652 159.827 353.635C159.708 353.616 159.582 353.606 159.448 353.606C159.13 353.606 158.846 353.672 158.596 353.806C158.349 353.937 158.153 354.118 158.008 354.351C157.866 354.581 157.795 354.844 157.795 355.14V359.282H156.789Z" fill="#475467"/>
<path d="M202.841 350.554H204.102L207.068 357.799H207.17L210.136 350.554H211.397V359.282H210.409V352.651H210.323L207.596 359.282H206.642L203.914 352.651H203.829V359.282H202.841V350.554ZM215.306 359.435C214.891 359.435 214.515 359.357 214.177 359.201C213.839 359.042 213.57 358.813 213.371 358.515C213.173 358.214 213.073 357.85 213.073 357.424C213.073 357.049 213.147 356.745 213.295 356.512C213.442 356.276 213.64 356.091 213.887 355.958C214.134 355.824 214.407 355.725 214.705 355.66C215.006 355.591 215.309 355.537 215.613 355.498C216.011 355.447 216.333 355.408 216.58 355.383C216.83 355.354 217.012 355.307 217.126 355.242C217.242 355.177 217.3 355.063 217.3 354.901V354.867C217.3 354.447 217.185 354.12 216.955 353.887C216.728 353.654 216.383 353.537 215.92 353.537C215.44 353.537 215.063 353.643 214.79 353.853C214.518 354.063 214.326 354.287 214.215 354.526L213.261 354.185C213.431 353.787 213.658 353.478 213.942 353.256C214.229 353.032 214.542 352.875 214.88 352.787C215.221 352.697 215.556 352.651 215.886 352.651C216.096 352.651 216.337 352.677 216.61 352.728C216.886 352.776 217.151 352.877 217.407 353.03C217.665 353.184 217.88 353.415 218.05 353.725C218.221 354.035 218.306 354.449 218.306 354.969V359.282H217.3V358.395H217.249C217.181 358.537 217.067 358.689 216.908 358.851C216.749 359.013 216.538 359.151 216.273 359.265C216.009 359.378 215.687 359.435 215.306 359.435ZM215.459 358.532C215.857 358.532 216.192 358.454 216.465 358.297C216.741 358.141 216.948 357.939 217.087 357.692C217.229 357.445 217.3 357.185 217.3 356.912V355.992C217.258 356.043 217.164 356.09 217.019 356.133C216.877 356.172 216.712 356.208 216.525 356.239C216.34 356.268 216.16 356.293 215.984 356.316C215.81 356.336 215.67 356.353 215.562 356.367C215.3 356.401 215.056 356.456 214.829 356.533C214.604 356.607 214.423 356.719 214.283 356.87C214.147 357.018 214.079 357.219 214.079 357.475C214.079 357.824 214.208 358.089 214.467 358.268C214.728 358.444 215.059 358.532 215.459 358.532ZM220.555 361.736C220.385 361.736 220.233 361.722 220.099 361.694C219.966 361.668 219.873 361.643 219.822 361.617L220.078 360.731C220.322 360.793 220.538 360.816 220.725 360.799C220.913 360.782 221.079 360.698 221.224 360.547C221.372 360.4 221.507 360.16 221.629 359.827L221.816 359.316L219.396 352.736H220.487L222.294 357.952H222.362L224.169 352.736H225.26L222.481 360.236C222.356 360.574 222.201 360.854 222.017 361.076C221.832 361.3 221.617 361.466 221.373 361.574C221.132 361.682 220.859 361.736 220.555 361.736Z" fill="#475467"/>
<path d="M272.062 350.554H273.119V356.793C273.119 357.35 273.016 357.823 272.812 358.212C272.607 358.601 272.319 358.897 271.947 359.098C271.575 359.3 271.136 359.401 270.63 359.401C270.153 359.401 269.728 359.314 269.356 359.141C268.984 358.965 268.691 358.715 268.478 358.391C268.265 358.067 268.158 357.682 268.158 357.236H269.198C269.198 357.483 269.259 357.699 269.381 357.884C269.506 358.066 269.677 358.208 269.893 358.31C270.109 358.412 270.354 358.464 270.63 358.464C270.934 358.464 271.192 358.4 271.406 358.272C271.619 358.144 271.781 357.956 271.891 357.709C272.005 357.459 272.062 357.154 272.062 356.793V350.554ZM279.225 356.606V352.736H280.231V359.282H279.225V358.174H279.157C279.004 358.506 278.765 358.789 278.441 359.022C278.117 359.252 277.708 359.367 277.214 359.367C276.805 359.367 276.441 359.277 276.123 359.098C275.805 358.917 275.555 358.644 275.373 358.28C275.191 357.914 275.1 357.452 275.1 356.895V352.736H276.106V356.827C276.106 357.304 276.239 357.685 276.506 357.969C276.776 358.253 277.12 358.395 277.538 358.395C277.788 358.395 278.042 358.331 278.3 358.204C278.562 358.076 278.781 357.88 278.957 357.616C279.136 357.351 279.225 357.015 279.225 356.606ZM283.078 350.554V359.282H282.073V350.554H283.078Z" fill="#475467"/>
<path d="M331.214 352.736C331.163 352.304 330.955 351.969 330.592 351.731C330.228 351.492 329.782 351.373 329.254 351.373C328.867 351.373 328.529 351.435 328.239 351.56C327.952 351.685 327.728 351.857 327.566 352.076C327.407 352.295 327.327 352.543 327.327 352.822C327.327 353.054 327.383 353.255 327.494 353.422C327.607 353.587 327.752 353.725 327.928 353.836C328.104 353.944 328.289 354.033 328.482 354.104C328.675 354.172 328.853 354.228 329.015 354.27L329.901 354.509C330.129 354.569 330.381 354.651 330.66 354.756C330.941 354.861 331.21 355.005 331.465 355.187C331.724 355.366 331.937 355.596 332.104 355.877C332.272 356.158 332.356 356.503 332.356 356.912C332.356 357.384 332.232 357.81 331.985 358.191C331.741 358.572 331.383 358.874 330.911 359.098C330.443 359.323 329.873 359.435 329.202 359.435C328.577 359.435 328.036 359.334 327.579 359.133C327.124 358.931 326.766 358.65 326.505 358.289C326.246 357.928 326.1 357.509 326.066 357.032H327.157C327.185 357.361 327.296 357.634 327.489 357.85C327.685 358.063 327.933 358.222 328.231 358.327C328.532 358.429 328.856 358.481 329.202 358.481C329.606 358.481 329.968 358.415 330.289 358.285C330.61 358.151 330.864 357.966 331.052 357.731C331.239 357.492 331.333 357.214 331.333 356.895C331.333 356.606 331.252 356.37 331.09 356.188C330.928 356.006 330.715 355.858 330.451 355.745C330.187 355.631 329.901 355.532 329.595 355.447L328.521 355.14C327.839 354.944 327.299 354.664 326.901 354.3C326.504 353.937 326.305 353.461 326.305 352.873C326.305 352.384 326.437 351.958 326.701 351.594C326.968 351.228 327.326 350.944 327.775 350.742C328.227 350.537 328.731 350.435 329.288 350.435C329.85 350.435 330.35 350.536 330.788 350.738C331.225 350.937 331.572 351.209 331.827 351.556C332.086 351.902 332.222 352.296 332.237 352.736H331.214ZM336.701 359.418C336.071 359.418 335.527 359.279 335.069 359C334.615 358.719 334.264 358.327 334.017 357.824C333.772 357.319 333.65 356.731 333.65 356.06C333.65 355.39 333.772 354.799 334.017 354.287C334.264 353.773 334.608 353.373 335.048 353.086C335.491 352.796 336.008 352.651 336.599 352.651C336.94 352.651 337.277 352.708 337.609 352.822C337.941 352.935 338.244 353.12 338.517 353.375C338.789 353.628 339.007 353.964 339.169 354.381C339.331 354.799 339.412 355.313 339.412 355.924V356.35H334.366V355.481H338.389C338.389 355.111 338.315 354.782 338.167 354.492C338.022 354.202 337.815 353.973 337.545 353.806C337.278 353.638 336.963 353.554 336.599 353.554C336.199 353.554 335.852 353.654 335.559 353.853C335.27 354.049 335.047 354.304 334.89 354.62C334.734 354.935 334.656 355.273 334.656 355.634V356.214C334.656 356.708 334.741 357.127 334.912 357.471C335.085 357.812 335.325 358.072 335.632 358.25C335.939 358.427 336.295 358.515 336.701 358.515C336.966 358.515 337.204 358.478 337.417 358.404C337.633 358.327 337.819 358.214 337.976 358.063C338.132 357.91 338.253 357.719 338.338 357.492L339.309 357.765C339.207 358.094 339.035 358.384 338.794 358.634C338.552 358.881 338.254 359.074 337.899 359.214C337.544 359.35 337.145 359.418 336.701 359.418ZM340.941 361.736V352.736H341.913V353.776H342.032C342.106 353.662 342.208 353.518 342.339 353.341C342.473 353.162 342.663 353.003 342.91 352.864C343.16 352.722 343.498 352.651 343.924 352.651C344.476 352.651 344.961 352.789 345.382 353.064C345.802 353.34 346.13 353.731 346.366 354.236C346.602 354.742 346.72 355.339 346.72 356.026C346.72 356.719 346.602 357.32 346.366 357.829C346.13 358.334 345.804 358.726 345.386 359.005C344.968 359.28 344.487 359.418 343.941 359.418C343.521 359.418 343.184 359.348 342.932 359.209C342.679 359.067 342.484 358.907 342.348 358.728C342.211 358.546 342.106 358.395 342.032 358.276H341.947V361.736H340.941ZM341.93 356.009C341.93 356.503 342.003 356.939 342.147 357.317C342.292 357.692 342.504 357.986 342.782 358.199C343.061 358.41 343.402 358.515 343.805 358.515C344.226 358.515 344.576 358.404 344.858 358.182C345.142 357.958 345.355 357.657 345.497 357.279C345.642 356.898 345.714 356.475 345.714 356.009C345.714 355.549 345.643 355.134 345.501 354.765C345.362 354.393 345.15 354.098 344.866 353.883C344.585 353.664 344.231 353.554 343.805 353.554C343.396 353.554 343.052 353.658 342.774 353.866C342.495 354.07 342.285 354.357 342.143 354.726C342.001 355.093 341.93 355.52 341.93 356.009Z" fill="#475467"/>
<path d="M397.003 350.554V359.282H395.98L391.225 352.429H391.14V359.282H390.083V350.554H391.105L395.878 357.424H395.963V350.554H397.003ZM401.641 359.418C401.05 359.418 400.531 359.277 400.085 358.996C399.642 358.715 399.295 358.322 399.045 357.816C398.798 357.31 398.675 356.719 398.675 356.043C398.675 355.361 398.798 354.766 399.045 354.258C399.295 353.749 399.642 353.354 400.085 353.073C400.531 352.792 401.05 352.651 401.641 352.651C402.231 352.651 402.749 352.792 403.192 353.073C403.638 353.354 403.984 353.749 404.231 354.258C404.481 354.766 404.606 355.361 404.606 356.043C404.606 356.719 404.481 357.31 404.231 357.816C403.984 358.322 403.638 358.715 403.192 358.996C402.749 359.277 402.231 359.418 401.641 359.418ZM401.641 358.515C402.089 358.515 402.459 358.4 402.749 358.17C403.038 357.939 403.253 357.637 403.392 357.262C403.531 356.887 403.601 356.481 403.601 356.043C403.601 355.606 403.531 355.198 403.392 354.82C403.253 354.442 403.038 354.137 402.749 353.904C402.459 353.671 402.089 353.554 401.641 353.554C401.192 353.554 400.822 353.671 400.533 353.904C400.243 354.137 400.028 354.442 399.889 354.82C399.75 355.198 399.68 355.606 399.68 356.043C399.68 356.481 399.75 356.887 399.889 357.262C400.028 357.637 400.243 357.939 400.533 358.17C400.822 358.4 401.192 358.515 401.641 358.515ZM411.26 352.736L408.839 359.282H407.816L405.396 352.736H406.487L408.294 357.952H408.362L410.169 352.736H411.26Z" fill="#475467"/>
<path d="M457.438 359.282H454.744V350.554H457.557C458.403 350.554 459.128 350.729 459.73 351.079C460.332 351.425 460.794 351.924 461.115 352.574C461.436 353.222 461.597 353.998 461.597 354.901C461.597 355.81 461.435 356.593 461.111 357.249C460.787 357.902 460.315 358.405 459.696 358.758C459.077 359.107 458.324 359.282 457.438 359.282ZM455.801 358.344H457.369C458.091 358.344 458.689 358.205 459.163 357.927C459.638 357.648 459.991 357.252 460.224 356.738C460.457 356.223 460.574 355.611 460.574 354.901C460.574 354.197 460.459 353.59 460.229 353.081C459.999 352.57 459.655 352.178 459.197 351.905C458.74 351.63 458.17 351.492 457.489 351.492H455.801V358.344ZM465.977 359.418C465.347 359.418 464.803 359.279 464.345 359C463.891 358.719 463.54 358.327 463.293 357.824C463.048 357.319 462.926 356.731 462.926 356.06C462.926 355.39 463.048 354.799 463.293 354.287C463.54 353.773 463.884 353.373 464.324 353.086C464.767 352.796 465.284 352.651 465.875 352.651C466.216 352.651 466.553 352.708 466.885 352.822C467.217 352.935 467.52 353.12 467.793 353.375C468.065 353.628 468.283 353.964 468.445 354.381C468.607 354.799 468.688 355.313 468.688 355.924V356.35H463.642V355.481H467.665C467.665 355.111 467.591 354.782 467.443 354.492C467.298 354.202 467.091 353.973 466.821 353.806C466.554 353.638 466.239 353.554 465.875 353.554C465.474 353.554 465.128 353.654 464.835 353.853C464.545 354.049 464.322 354.304 464.166 354.62C464.01 354.935 463.932 355.273 463.932 355.634V356.214C463.932 356.708 464.017 357.127 464.188 357.471C464.361 357.812 464.601 358.072 464.908 358.25C465.214 358.427 465.571 358.515 465.977 358.515C466.241 358.515 466.48 358.478 466.693 358.404C466.909 358.327 467.095 358.214 467.251 358.063C467.408 357.91 467.528 357.719 467.614 357.492L468.585 357.765C468.483 358.094 468.311 358.384 468.07 358.634C467.828 358.881 467.53 359.074 467.175 359.214C466.82 359.35 466.42 359.418 465.977 359.418ZM472.876 359.418C472.263 359.418 471.734 359.273 471.291 358.983C470.848 358.694 470.507 358.295 470.268 357.786C470.03 357.277 469.911 356.697 469.911 356.043C469.911 355.378 470.033 354.792 470.277 354.283C470.524 353.772 470.868 353.373 471.308 353.086C471.751 352.796 472.268 352.651 472.859 352.651C473.32 352.651 473.734 352.736 474.104 352.907C474.473 353.077 474.776 353.316 475.011 353.623C475.247 353.929 475.393 354.287 475.45 354.697H474.445C474.368 354.398 474.197 354.134 473.933 353.904C473.672 353.671 473.32 353.554 472.876 353.554C472.484 353.554 472.141 353.657 471.845 353.861C471.553 354.063 471.324 354.348 471.159 354.718C470.997 355.084 470.916 355.515 470.916 356.009C470.916 356.515 470.996 356.955 471.155 357.33C471.317 357.705 471.544 357.996 471.837 358.204C472.132 358.411 472.479 358.515 472.876 358.515C473.138 358.515 473.375 358.469 473.588 358.378C473.801 358.287 473.982 358.157 474.129 357.986C474.277 357.816 474.382 357.611 474.445 357.373H475.45C475.393 357.759 475.253 358.107 475.028 358.417C474.807 358.723 474.513 358.968 474.146 359.15C473.783 359.329 473.359 359.418 472.876 359.418Z" fill="#475467"/>
<mask id="mask0_145_8595" style="mask-type:alpha" maskUnits="userSpaceOnUse" x="68" y="134" width="416" height="204">
<rect width="416" height="203" transform="translate(68 134.282)" fill="url(#paint0_linear_145_8595)"/>
</mask>
<g mask="url(#mask0_145_8595)">
<path opacity="0.1" d="M77.4278 194.352L68 198.516V337.282H484V147.938L475.161 154.853H465.734L461.314 161.329H455.422C453.851 162.408 450.59 164.566 450.119 164.566C449.648 164.566 446.584 165.861 445.11 166.509L432.442 168.451L425.076 171.041L413.292 168.451L407.105 166.509L398.266 171.041H389.133L381.473 166.509C378.527 165.861 372.517 164.566 372.045 164.566C371.574 164.566 367.724 163.271 365.858 162.624H361.144L349.949 164.566L340.227 166.509L335.807 171.041L322.55 172.984L315.773 174.927L308.113 178.164L300.748 185.935H297.507L288.669 183.992L280.125 178.164L272.759 174.927H268.34L260.68 172.984L249.779 174.927H239.467L229.156 178.164L218.844 182.049L211.184 185.935L202.935 187.877L191.739 185.935L182.901 187.877L174.062 189.82L165.813 187.877L154.618 192.41L145.19 189.82L135.762 192.41H126.629L116.907 194.352H106.89L96.8725 196.295L87.1501 192.41L77.4278 194.352Z" fill="#16B364"/>
</g>
<path d="M68 198.516L77.4278 194.352L87.1501 192.41L96.8725 196.295L106.89 194.352H116.907L126.629 192.41H135.762L145.19 189.82L154.618 192.41L165.813 187.877L174.062 189.82L182.901 187.877L191.739 185.935L202.935 187.877L211.184 185.935L218.844 182.049L229.156 178.164L239.467 174.927H249.779L260.68 172.984L268.34 174.927H272.759L280.125 178.164L288.669 183.992L297.507 185.935H300.748L308.113 178.164L315.773 174.927L322.55 172.984L335.807 171.041L340.227 166.509L349.949 164.566L361.144 162.624H365.858C367.724 163.271 371.574 164.566 372.045 164.566C372.517 164.566 378.527 165.861 381.473 166.509L389.133 171.041H398.266L407.105 166.509L413.292 168.451L425.076 171.041L432.442 168.451L445.11 166.509C446.584 165.861 449.648 164.566 450.119 164.566C450.59 164.566 453.851 162.408 455.422 161.329H461.314L465.734 154.853H475.161L484 147.938" stroke="#16B364" stroke-width="2" stroke-linecap="round" stroke-linejoin="round"/>
<path d="M68 248.89L77.4278 246.238L87.1501 245L96.8725 247.475L106.89 246.238H116.907L126.629 245H135.762L145.19 243.35L154.618 245L165.813 242.113L174.062 243.35L182.901 242.113L191.739 240.876L202.935 242.113L211.184 240.876L218.844 238.401L229.156 235.926L239.467 233.864H249.779L260.68 232.626L268.34 233.864H272.759L280.125 235.926L288.669 239.638L297.507 240.876H300.748L308.113 235.926L315.773 233.864L322.55 232.626L335.807 231.389L340.227 228.502L349.949 227.264L361.144 226.027H365.858C367.724 226.439 371.574 227.264 372.045 227.264C372.517 227.264 378.527 228.089 381.473 228.502L389.133 231.389H398.266L407.105 228.502L413.292 229.739L425.076 231.389L432.442 229.739L445.11 228.502C446.584 228.089 449.648 227.264 450.119 227.264C450.59 227.264 453.851 225.889 455.422 225.202H461.314L465.734 221.077H475.161L484 216.672" stroke="#099250" stroke-width="2" stroke-linecap="round" stroke-linejoin="round"/>
<path d="M68 312.641L77.4278 305.595L87.1501 302.307L96.8725 308.882L106.89 305.595H116.907L126.629 302.307H135.762L145.19 297.924L154.618 302.307L165.813 294.637L174.062 297.924L182.901 294.637L191.739 291.349L202.935 294.637L211.184 291.349L218.844 284.774L229.156 278.199L239.467 272.72H249.779L260.68 269.433L268.34 272.72H272.759L280.125 278.199L288.669 288.062L297.507 291.349H300.748L308.113 278.199L315.773 272.72L322.55 269.433L335.807 266.146L340.227 258.475L349.949 255.187L361.144 251.9H365.858C367.724 252.996 371.574 255.187 372.045 255.187C372.517 255.187 378.527 257.379 381.473 258.475L389.133 266.146H398.266L407.105 258.475L413.292 261.762L425.076 266.146L432.442 261.762L445.11 258.475C446.584 257.379 449.648 255.187 450.119 255.187C450.59 255.187 453.851 251.535 455.422 249.708H461.314L465.734 238.75H475.161L484 227.047" stroke="#087443" stroke-width="2" stroke-linecap="round" stroke-linejoin="round"/>
</g>
<defs>
<filter id="filter0_d_145_8595" x="0" y="0.281738" width="552" height="456" filterUnits="userSpaceOnUse" color-interpolation-filters="sRGB">
<feFlood flood-opacity="0" result="BackgroundImageFix"/>
<feColorMatrix in="SourceAlpha" type="matrix" values="0 0 0 0 0 0 0 0 0 0 0 0 0 0 0 0 0 0 127 0" result="hardAlpha"/>
<feMorphology radius="12" operator="erode" in="SourceAlpha" result="effect1_dropShadow_145_8595"/>
<feOffset dy="24"/>
<feGaussianBlur stdDeviation="24"/>
<feComposite in2="hardAlpha" operator="out"/>
<feColorMatrix type="matrix" values="0 0 0 0 0.0627451 0 0 0 0 0.0941176 0 0 0 0 0.156863 0 0 0 0.18 0"/>
<feBlend mode="normal" in2="BackgroundImageFix" result="effect1_dropShadow_145_8595"/>
<feBlend mode="normal" in="SourceGraphic" in2="effect1_dropShadow_145_8595" result="shape"/>
</filter>
<linearGradient id="paint0_linear_145_8595" x1="208" y1="0" x2="208" y2="203" gradientUnits="userSpaceOnUse">
<stop/>
<stop offset="1" stop-opacity="0"/>
</linearGradient>
</defs>
</svg>
