<svg width="232" height="229" viewBox="0 0 232 229" fill="none" xmlns="http://www.w3.org/2000/svg">
<g filter="url(#filter0_b_145_8637)">
<path d="M0 116.282C0 52.2167 51.935 0.281738 116 0.281738C180.065 0.281738 232 52.2167 232 116.282C232 180.347 180.065 232.282 116 232.282C51.935 232.282 0 180.347 0 116.282Z" fill="white" fill-opacity="0.9"/>
<path d="M116 22.2817C128.344 22.2817 140.568 24.7131 151.972 29.4371C163.377 34.161 173.739 41.085 182.468 49.8137C191.197 58.5424 198.121 68.9049 202.845 80.3095C207.569 91.7141 210 103.937 210 116.282C210 128.626 207.569 140.849 202.845 152.254C198.121 163.659 191.197 174.021 182.468 182.75C173.739 191.478 163.377 198.402 151.972 203.126C140.568 207.85 128.344 210.282 116 210.282C103.656 210.282 91.4323 207.85 80.0277 203.126C68.6231 198.402 58.2606 191.478 49.5319 182.75C40.8032 174.021 33.8792 163.659 29.1553 152.254C24.4314 140.849 22 128.626 22 116.282C22 103.937 24.4314 91.7141 29.1553 80.3094C33.8793 68.9048 40.8033 58.5424 49.532 49.8137C58.2607 41.085 68.6232 34.161 80.0278 29.437C91.4324 24.7131 103.656 22.2817 116 22.2817L116 22.2817Z" stroke="#F2F4F7" stroke-width="12" stroke-linecap="round" stroke-linejoin="round"/>
<path d="M116 22.2817C137.515 22.2817 158.379 29.6623 175.108 43.1912C191.837 56.7201 203.419 75.5784 207.92 96.6174C212.421 117.656 209.568 139.603 199.838 158.792C190.109 177.981 174.09 193.252 154.459 202.054C134.827 210.857 112.769 212.658 91.969 207.158C71.1689 201.658 52.8852 189.189 40.1705 171.833C27.4559 154.476 21.0799 133.284 22.1072 111.793C23.1345 90.3029 31.5029 69.8152 45.8152 53.751" stroke="#16B364" stroke-width="12" stroke-linecap="round" stroke-linejoin="round"/>
<path d="M117 40.2817C127.112 40.2817 137.125 42.2734 146.467 46.143C155.809 50.0126 164.297 55.6844 171.447 62.8345C178.597 69.9846 184.269 78.4731 188.139 87.8151C192.008 97.1572 194 107.17 194 117.282C194 127.394 192.008 137.406 188.139 146.748C184.269 156.09 178.597 164.579 171.447 171.729C164.297 178.879 155.809 184.551 146.467 188.42C137.125 192.29 127.112 194.282 117 194.282C106.888 194.282 96.8754 192.29 87.5333 188.42C78.1913 184.551 69.7029 178.879 62.5528 171.729C55.4026 164.579 49.7309 156.09 45.8613 146.748C41.9917 137.406 40 127.393 40 117.282C40 107.17 41.9917 97.1571 45.8613 87.8151C49.7309 78.473 55.4027 69.9846 62.5528 62.8345C69.7029 55.6844 78.1913 50.0126 87.5334 46.143C96.8755 42.2734 106.888 40.2817 117 40.2817L117 40.2817Z" stroke="#F2F4F7" stroke-width="12" stroke-linecap="round" stroke-linejoin="round"/>
<path d="M117 40.2817C132.728 40.2817 148.078 45.0979 160.987 54.0824C173.896 63.067 183.744 75.7891 189.206 90.5376C194.669 105.286 195.484 121.354 191.543 136.579C187.601 151.805 179.091 165.459 167.158 175.704C155.225 185.949 140.441 192.294 124.794 193.886C109.148 195.478 93.3884 192.241 79.6364 184.609C65.8845 176.977 54.7993 165.317 47.8718 151.198C40.9443 137.078 38.5067 121.175 40.8869 105.629" stroke="#099250" stroke-width="12" stroke-linecap="round" stroke-linejoin="round"/>
<path d="M117 56.2817C125.011 56.2817 132.943 57.8596 140.344 60.9251C147.745 63.9906 154.469 68.4839 160.134 74.1482C165.798 79.8126 170.291 86.5372 173.357 93.9381C176.422 101.339 178 109.271 178 117.282C178 125.292 176.422 133.225 173.357 140.625C170.291 148.026 165.798 154.751 160.134 160.415C154.469 166.08 147.745 170.573 140.344 173.638C132.943 176.704 125.011 178.282 117 178.282C108.989 178.282 101.057 176.704 93.6563 173.638C86.2554 170.573 79.5308 166.08 73.8665 160.415C68.2021 154.751 63.7089 148.026 60.6433 140.625C57.5778 133.225 56 125.292 56 117.282C56 109.271 57.5778 101.339 60.6434 93.938C63.7089 86.5372 68.2021 79.8126 73.8665 74.1482C79.5309 68.4838 86.2555 63.9906 93.6563 60.9251C101.057 57.8595 108.989 56.2817 117 56.2817L117 56.2817Z" stroke="#F2F4F7" stroke-width="12" stroke-linecap="round" stroke-linejoin="round"/>
<path d="M117 56.2817C127.612 56.2817 138.041 59.0503 147.256 64.314C156.471 69.5777 164.153 77.1543 169.544 86.2955C174.935 95.4366 177.847 105.826 177.994 116.437C178.141 127.049 175.517 137.515 170.382 146.801C165.246 156.088 157.776 163.875 148.711 169.392C139.645 174.908 129.297 177.965 118.689 178.258C108.081 178.552 97.5792 176.073 88.2221 171.067C78.865 166.06 70.9759 158.699 65.3342 149.711" stroke="#087443" stroke-width="12" stroke-linecap="round" stroke-linejoin="round"/>
<path d="M81.6941 102.282H80.2963L83.437 93.5545H84.9583L88.0989 102.282H86.7012L84.2338 95.1397H84.1657L81.6941 102.282ZM81.9284 98.8641H86.4625V99.9721H81.9284V98.8641ZM91.9086 102.414C91.275 102.414 90.7296 102.27 90.2722 101.983C89.8176 101.694 89.4682 101.295 89.2239 100.786C88.9796 100.277 88.8574 99.6951 88.8574 99.0388C88.8574 98.3741 88.9824 97.7874 89.2324 97.2789C89.4824 96.7675 89.8347 96.3684 90.2892 96.0815C90.7438 95.7945 91.2793 95.6511 91.8958 95.6511C92.3929 95.6511 92.8361 95.7434 93.2253 95.928C93.6145 96.1099 93.9284 96.3655 94.1671 96.6951C94.4086 97.0246 94.552 97.4096 94.5975 97.8499H93.3574C93.2892 97.5431 93.133 97.2789 92.8887 97.0573C92.6472 96.8357 92.3233 96.7249 91.9171 96.7249C91.562 96.7249 91.2509 96.8187 90.9838 97.0062C90.7196 97.1908 90.5137 97.455 90.3659 97.7988C90.2182 98.1397 90.1444 98.5431 90.1444 99.009C90.1444 99.4863 90.2168 99.8982 90.3617 100.245C90.5066 100.591 90.7111 100.86 90.9753 101.05C91.2424 101.241 91.5563 101.336 91.9171 101.336C92.1586 101.336 92.3773 101.292 92.5733 101.204C92.7722 101.113 92.9384 100.983 93.0719 100.816C93.2083 100.648 93.3034 100.447 93.3574 100.211H94.5975C94.552 100.634 94.4142 101.012 94.1841 101.344C93.954 101.677 93.6458 101.938 93.2594 102.128C92.8759 102.319 92.4256 102.414 91.9086 102.414ZM99.0154 95.7363V96.759H95.4402V95.7363H99.0154ZM96.399 94.1681H97.6731V100.36C97.6731 100.607 97.71 100.793 97.7839 100.918C97.8578 101.04 97.9529 101.124 98.0694 101.17C98.1887 101.212 98.318 101.233 98.4572 101.233C98.5595 101.233 98.649 101.226 98.7257 101.212C98.8024 101.198 98.862 101.187 98.9047 101.178L99.1348 102.231C99.0609 102.259 98.9558 102.287 98.8194 102.316C98.6831 102.347 98.5126 102.364 98.3081 102.367C97.9728 102.373 97.6603 102.313 97.3706 102.188C97.0808 102.063 96.8464 101.87 96.6674 101.608C96.4885 101.347 96.399 101.019 96.399 100.624V94.1681ZM100.425 102.282V95.7363H101.699V102.282H100.425ZM101.068 94.7263C100.847 94.7263 100.656 94.6525 100.497 94.5047C100.341 94.3542 100.263 94.1752 100.263 93.9678C100.263 93.7576 100.341 93.5786 100.497 93.4309C100.656 93.2803 100.847 93.205 101.068 93.205C101.29 93.205 101.479 93.2803 101.635 93.4309C101.794 93.5786 101.874 93.7576 101.874 93.9678C101.874 94.1752 101.794 94.3542 101.635 94.5047C101.479 94.6525 101.29 94.7263 101.068 94.7263ZM109.013 95.7363L106.639 102.282H105.275L102.898 95.7363H104.265L105.923 100.773H105.991L107.645 95.7363H109.013ZM112.808 102.414C112.164 102.414 111.608 102.276 111.142 102C110.679 101.722 110.321 101.331 110.068 100.829C109.818 100.323 109.693 99.7306 109.693 99.0516C109.693 98.3812 109.818 97.7903 110.068 97.2789C110.321 96.7675 110.673 96.3684 111.125 96.0815C111.58 95.7945 112.111 95.6511 112.719 95.6511C113.088 95.6511 113.446 95.7121 113.793 95.8343C114.139 95.9565 114.45 96.1482 114.726 96.4096C115.002 96.6709 115.219 97.0104 115.378 97.428C115.537 97.8428 115.617 98.3471 115.617 98.9408V99.3925H110.414V98.438H114.368C114.368 98.1028 114.3 97.8059 114.164 97.5474C114.027 97.286 113.835 97.08 113.588 96.9295C113.344 96.7789 113.057 96.7036 112.727 96.7036C112.369 96.7036 112.057 96.7917 111.79 96.9678C111.526 97.1411 111.321 97.3684 111.176 97.6496C111.034 97.928 110.963 98.2306 110.963 98.5573V99.303C110.963 99.7405 111.04 100.113 111.193 100.42C111.35 100.726 111.567 100.961 111.845 101.123C112.124 101.282 112.449 101.361 112.821 101.361C113.063 101.361 113.283 101.327 113.482 101.259C113.681 101.188 113.852 101.083 113.997 100.944C114.142 100.804 114.253 100.633 114.33 100.428L115.536 100.645C115.439 101 115.266 101.312 115.016 101.579C114.769 101.843 114.458 102.049 114.083 102.197C113.71 102.341 113.286 102.414 112.808 102.414ZM124.352 99.5672V95.7363H125.631V102.282H124.378V101.148H124.31C124.159 101.498 123.918 101.789 123.585 102.022C123.256 102.252 122.845 102.367 122.354 102.367C121.933 102.367 121.561 102.275 121.237 102.09C120.916 101.902 120.664 101.625 120.479 101.259C120.297 100.893 120.206 100.439 120.206 99.8996V95.7363H121.48V99.7462C121.48 100.192 121.604 100.547 121.851 100.812C122.098 101.076 122.419 101.208 122.814 101.208C123.053 101.208 123.29 101.148 123.526 101.029C123.764 100.91 123.962 100.729 124.118 100.488C124.277 100.246 124.355 99.9394 124.352 99.5672ZM132.248 97.3343L131.093 97.5388C131.045 97.3911 130.968 97.2505 130.863 97.117C130.76 96.9834 130.621 96.8741 130.445 96.7888C130.269 96.7036 130.049 96.661 129.785 96.661C129.424 96.661 129.123 96.742 128.881 96.9039C128.64 97.063 128.519 97.269 128.519 97.5218C128.519 97.7405 128.6 97.9167 128.762 98.0502C128.924 98.1837 129.185 98.2931 129.546 98.3783L130.586 98.617C131.188 98.7562 131.637 98.9707 131.932 99.2604C132.228 99.5502 132.376 99.9266 132.376 100.39C132.376 100.782 132.262 101.131 132.035 101.438C131.81 101.742 131.496 101.981 131.093 102.154C130.692 102.327 130.228 102.414 129.699 102.414C128.966 102.414 128.368 102.258 127.905 101.945C127.442 101.63 127.158 101.182 127.053 100.603L128.285 100.415C128.361 100.736 128.519 100.979 128.758 101.144C128.996 101.306 129.307 101.387 129.691 101.387C130.108 101.387 130.442 101.3 130.692 101.127C130.942 100.951 131.067 100.736 131.067 100.483C131.067 100.279 130.991 100.107 130.837 99.9678C130.687 99.8286 130.455 99.7235 130.143 99.6525L129.035 99.4096C128.424 99.2704 127.972 99.0488 127.68 98.7448C127.39 98.4408 127.245 98.0559 127.245 97.59C127.245 97.2036 127.353 96.8655 127.569 96.5758C127.785 96.286 128.083 96.0601 128.464 95.8982C128.844 95.7334 129.28 95.6511 129.772 95.6511C130.479 95.6511 131.036 95.8045 131.442 96.1113C131.849 96.4153 132.117 96.8229 132.248 97.3343ZM136.597 102.414C135.953 102.414 135.397 102.276 134.931 102C134.468 101.722 134.11 101.331 133.857 100.829C133.607 100.323 133.482 99.7306 133.482 99.0516C133.482 98.3812 133.607 97.7903 133.857 97.2789C134.11 96.7675 134.463 96.3684 134.914 96.0815C135.369 95.7945 135.9 95.6511 136.508 95.6511C136.877 95.6511 137.235 95.7121 137.582 95.8343C137.928 95.9565 138.24 96.1482 138.515 96.4096C138.791 96.6709 139.008 97.0104 139.167 97.428C139.326 97.8428 139.406 98.3471 139.406 98.9408V99.3925H134.203V98.438H138.157C138.157 98.1028 138.089 97.8059 137.953 97.5474C137.816 97.286 137.624 97.08 137.377 96.9295C137.133 96.7789 136.846 96.7036 136.517 96.7036C136.159 96.7036 135.846 96.7917 135.579 96.9678C135.315 97.1411 135.11 97.3684 134.965 97.6496C134.823 97.928 134.752 98.2306 134.752 98.5573V99.303C134.752 99.7405 134.829 100.113 134.982 100.42C135.139 100.726 135.356 100.961 135.634 101.123C135.913 101.282 136.238 101.361 136.61 101.361C136.852 101.361 137.072 101.327 137.271 101.259C137.47 101.188 137.642 101.083 137.786 100.944C137.931 100.804 138.042 100.633 138.119 100.428L139.325 100.645C139.228 101 139.055 101.312 138.805 101.579C138.558 101.843 138.247 102.049 137.872 102.197C137.499 102.341 137.075 102.414 136.597 102.414ZM140.819 102.282V95.7363H142.051V96.7761H142.119C142.238 96.4238 142.449 96.1468 142.75 95.9451C143.054 95.7405 143.398 95.6383 143.781 95.6383C143.861 95.6383 143.954 95.6411 144.062 95.6468C144.173 95.6525 144.26 95.6596 144.322 95.6681V96.8869C144.271 96.8726 144.18 96.857 144.05 96.84C143.919 96.8201 143.788 96.8101 143.657 96.8101C143.356 96.8101 143.088 96.8741 142.852 97.0019C142.619 97.1269 142.434 97.3016 142.298 97.5261C142.162 97.7476 142.094 98.0005 142.094 98.2846V102.282H140.819ZM150.33 97.3343L149.175 97.5388C149.127 97.3911 149.05 97.2505 148.945 97.117C148.843 96.9834 148.703 96.8741 148.527 96.7888C148.351 96.7036 148.131 96.661 147.867 96.661C147.506 96.661 147.205 96.742 146.963 96.9039C146.722 97.063 146.601 97.269 146.601 97.5218C146.601 97.7405 146.682 97.9167 146.844 98.0502C147.006 98.1837 147.267 98.2931 147.628 98.3783L148.668 98.617C149.27 98.7562 149.719 98.9707 150.014 99.2604C150.31 99.5502 150.458 99.9266 150.458 100.39C150.458 100.782 150.344 101.131 150.117 101.438C149.892 101.742 149.578 101.981 149.175 102.154C148.774 102.327 148.31 102.414 147.781 102.414C147.048 102.414 146.45 102.258 145.987 101.945C145.524 101.63 145.24 101.182 145.135 100.603L146.367 100.415C146.443 100.736 146.601 100.979 146.84 101.144C147.078 101.306 147.389 101.387 147.773 101.387C148.191 101.387 148.524 101.3 148.774 101.127C149.024 100.951 149.149 100.736 149.149 100.483C149.149 100.279 149.073 100.107 148.919 99.9678C148.769 99.8286 148.537 99.7235 148.225 99.6525L147.117 99.4096C146.506 99.2704 146.054 99.0488 145.762 98.7448C145.472 98.4408 145.327 98.0559 145.327 97.59C145.327 97.2036 145.435 96.8655 145.651 96.5758C145.867 96.286 146.165 96.0601 146.546 95.8982C146.926 95.7334 147.362 95.6511 147.854 95.6511C148.561 95.6511 149.118 95.8045 149.524 96.1113C149.931 96.4153 150.199 96.8229 150.33 97.3343Z" fill="#475467"/>
<path d="M92.6545 115.827V133.282H89.4925V118.904H89.3903L85.3079 121.512V118.614L89.646 115.827H92.6545ZM99.7816 130.895L99.6708 131.833C99.5913 132.549 99.4492 133.276 99.2447 134.015C99.0458 134.759 98.8356 135.444 98.614 136.069C98.3924 136.694 98.2134 137.185 98.0771 137.543H95.9975C96.0771 137.197 96.185 136.725 96.3214 136.128C96.4634 135.532 96.5998 134.861 96.7305 134.117C96.8612 133.373 96.9492 132.617 96.9947 131.85L97.0543 130.895H99.7816ZM108.975 133.614C107.572 133.614 106.368 133.259 105.362 132.549C104.362 131.833 103.592 130.802 103.052 129.455C102.518 128.103 102.251 126.475 102.251 124.572C102.257 122.668 102.527 121.049 103.061 119.714C103.6 118.373 104.37 117.35 105.37 116.645C106.376 115.941 107.578 115.589 108.975 115.589C110.373 115.589 111.575 115.941 112.581 116.645C113.586 117.35 114.356 118.373 114.89 119.714C115.43 121.054 115.7 122.674 115.7 124.572C115.7 126.481 115.43 128.111 114.89 129.464C114.356 130.81 113.586 131.839 112.581 132.549C111.581 133.259 110.379 133.614 108.975 133.614ZM108.975 130.947C110.066 130.947 110.927 130.41 111.558 129.336C112.194 128.256 112.512 126.668 112.512 124.572C112.512 123.185 112.368 122.02 112.078 121.077C111.788 120.134 111.379 119.424 110.85 118.947C110.322 118.464 109.697 118.222 108.975 118.222C107.89 118.222 107.032 118.762 106.402 119.841C105.771 120.915 105.453 122.492 105.447 124.572C105.441 125.964 105.581 127.134 105.865 128.083C106.154 129.032 106.564 129.748 107.092 130.231C107.62 130.708 108.248 130.947 108.975 130.947ZM124.983 133.614C123.58 133.614 122.375 133.259 121.37 132.549C120.37 131.833 119.6 130.802 119.06 129.455C118.526 128.103 118.259 126.475 118.259 124.572C118.265 122.668 118.534 121.049 119.069 119.714C119.608 118.373 120.378 117.35 121.378 116.645C122.384 115.941 123.586 115.589 124.983 115.589C126.381 115.589 127.583 115.941 128.588 116.645C129.594 117.35 130.364 118.373 130.898 119.714C131.438 121.054 131.708 122.674 131.708 124.572C131.708 126.481 131.438 128.111 130.898 129.464C130.364 130.81 129.594 131.839 128.588 132.549C127.588 133.259 126.387 133.614 124.983 133.614ZM124.983 130.947C126.074 130.947 126.935 130.41 127.566 129.336C128.202 128.256 128.52 126.668 128.52 124.572C128.52 123.185 128.375 122.02 128.086 121.077C127.796 120.134 127.387 119.424 126.858 118.947C126.33 118.464 125.705 118.222 124.983 118.222C123.898 118.222 123.04 118.762 122.409 119.841C121.779 120.915 121.461 122.492 121.455 124.572C121.449 125.964 121.588 127.134 121.873 128.083C122.162 129.032 122.571 129.748 123.1 130.231C123.628 130.708 124.256 130.947 124.983 130.947ZM140.991 133.614C139.588 133.614 138.383 133.259 137.377 132.549C136.377 131.833 135.608 130.802 135.068 129.455C134.534 128.103 134.267 126.475 134.267 124.572C134.272 122.668 134.542 121.049 135.076 119.714C135.616 118.373 136.386 117.35 137.386 116.645C138.392 115.941 139.593 115.589 140.991 115.589C142.389 115.589 143.591 115.941 144.596 116.645C145.602 117.35 146.372 118.373 146.906 119.714C147.446 121.054 147.716 122.674 147.716 124.572C147.716 126.481 147.446 128.111 146.906 129.464C146.372 130.81 145.602 131.839 144.596 132.549C143.596 133.259 142.395 133.614 140.991 133.614ZM140.991 130.947C142.082 130.947 142.943 130.41 143.574 129.336C144.21 128.256 144.528 126.668 144.528 124.572C144.528 123.185 144.383 122.02 144.093 121.077C143.804 120.134 143.395 119.424 142.866 118.947C142.338 118.464 141.713 118.222 140.991 118.222C139.906 118.222 139.048 118.762 138.417 119.841C137.787 120.915 137.468 122.492 137.463 124.572C137.457 125.964 137.596 127.134 137.88 128.083C138.17 129.032 138.579 129.748 139.108 130.231C139.636 130.708 140.264 130.947 140.991 130.947Z" fill="#101828"/>
</g>
<defs>
<filter id="filter0_b_145_8637" x="-8" y="-7.71826" width="248" height="248" filterUnits="userSpaceOnUse" color-interpolation-filters="sRGB">
<feFlood flood-opacity="0" result="BackgroundImageFix"/>
<feGaussianBlur in="BackgroundImageFix" stdDeviation="4"/>
<feComposite in2="SourceAlpha" operator="in" result="effect1_backgroundBlur_145_8637"/>
<feBlend mode="normal" in="SourceGraphic" in2="effect1_backgroundBlur_145_8637" result="shape"/>
</filter>
</defs>
</svg>
