<svg width="21" height="25" viewBox="0 0 21 25" fill="none" xmlns="http://www.w3.org/2000/svg">
<path d="M17.2458 13.6124C17.2696 11.7633 18.2627 10.0137 19.838 9.04515C18.8442 7.6258 17.1796 6.72589 15.4477 6.6717C13.6006 6.47782 11.8098 7.77702 10.8685 7.77702C9.90905 7.77702 8.4598 6.69095 6.89919 6.72306C4.86502 6.78878 2.96865 7.9453 1.97898 9.72372C-0.148418 13.407 1.43843 18.8201 3.4763 21.7974C4.49589 23.2553 5.6875 24.8838 7.2467 24.826C8.77246 24.7628 9.34231 23.8531 11.184 23.8531C13.0087 23.8531 13.5433 24.826 15.1341 24.7893C16.7714 24.7627 17.8029 23.325 18.7867 21.8533C19.5193 20.8145 20.083 19.6664 20.457 18.4515C18.5329 17.6377 17.248 15.7015 17.2458 13.6124Z" fill="white"/>
<path d="M14.241 4.71371C15.1336 3.64208 15.5734 2.26468 15.4669 0.874023C14.1031 1.01727 12.8433 1.66908 11.9386 2.69959C11.0539 3.70646 10.5935 5.05962 10.6805 6.39712C12.0448 6.41117 13.386 5.77702 14.241 4.71371Z" fill="white"/>
</svg>
