<svg width="52" height="53" viewBox="0 0 52 53" fill="none" xmlns="http://www.w3.org/2000/svg">
<g filter="url(#filter0_dii_145_7319)">
<path d="M2 11.2817C2 5.75883 6.47715 1.28168 12 1.28168H40C45.5229 1.28168 50 5.75883 50 11.2817V39.2817C50 44.8045 45.5228 49.2817 40 49.2817H12C6.47715 49.2817 2 44.8045 2 39.2817V11.2817Z" fill="white"/>
<path d="M2.5 11.2817C2.5 6.03497 6.75329 1.78168 12 1.78168H40C45.2467 1.78168 49.5 6.03497 49.5 11.2817V39.2817C49.5 44.5284 45.2467 48.7817 40 48.7817H12C6.75329 48.7817 2.5 44.5284 2.5 39.2817V11.2817Z" stroke="#E4E7EC"/>
<path d="M20.0944 24.5105C20.0322 24.1099 20 23.6995 20 23.2817C20 18.8634 23.6052 15.2817 28.0526 15.2817C32.4999 15.2817 36.1052 18.8634 36.1052 23.2817C36.1052 24.2797 35.9213 25.2351 35.5852 26.1162C35.5154 26.2992 35.4804 26.3907 35.4646 26.4621C35.4489 26.5329 35.4428 26.5827 35.4411 26.6551C35.4394 26.7283 35.4493 26.8089 35.4692 26.97L35.8717 30.2402C35.9153 30.5942 35.9371 30.7712 35.8782 30.8999C35.8266 31.0126 35.735 31.1022 35.6211 31.1512C35.4911 31.2071 35.3146 31.1812 34.9617 31.1295L31.7765 30.6626C31.6101 30.6382 31.527 30.626 31.4512 30.6264C31.3763 30.6269 31.3245 30.6324 31.2511 30.6478C31.177 30.6634 31.0823 30.6989 30.893 30.7698C30.0097 31.1007 29.0524 31.2817 28.0526 31.2817C27.6344 31.2817 27.2237 31.25 26.8227 31.189M21.6316 35.2817C24.5965 35.2817 27 32.8192 27 29.7817C27 26.7441 24.5965 24.2817 21.6316 24.2817C18.6667 24.2817 16.2632 26.7441 16.2632 29.7817C16.2632 30.3923 16.3603 30.9796 16.5395 31.5284C16.6153 31.7604 16.6532 31.8764 16.6657 31.9556C16.6786 32.0383 16.6809 32.0848 16.6761 32.1684C16.6714 32.2485 16.6514 32.339 16.6113 32.52L16 35.2817L18.9948 34.8727C19.1583 34.8504 19.24 34.8392 19.3114 34.8397C19.3865 34.8402 19.4264 34.8443 19.5001 34.8589C19.5701 34.8729 19.6742 34.9096 19.8823 34.9831C20.4306 35.1766 21.0191 35.2817 21.6316 35.2817Z" stroke="#344054" stroke-width="2" stroke-linecap="round" stroke-linejoin="round"/>
</g>
<defs>
<filter id="filter0_dii_145_7319" x="0" y="0.281677" width="52" height="52" filterUnits="userSpaceOnUse" color-interpolation-filters="sRGB">
<feFlood flood-opacity="0" result="BackgroundImageFix"/>
<feColorMatrix in="SourceAlpha" type="matrix" values="0 0 0 0 0 0 0 0 0 0 0 0 0 0 0 0 0 0 127 0" result="hardAlpha"/>
<feOffset dy="1"/>
<feGaussianBlur stdDeviation="1"/>
<feComposite in2="hardAlpha" operator="out"/>
<feColorMatrix type="matrix" values="0 0 0 0 0.0627451 0 0 0 0 0.0941176 0 0 0 0 0.156863 0 0 0 0.05 0"/>
<feBlend mode="normal" in2="BackgroundImageFix" result="effect1_dropShadow_145_7319"/>
<feBlend mode="normal" in="SourceGraphic" in2="effect1_dropShadow_145_7319" result="shape"/>
<feColorMatrix in="SourceAlpha" type="matrix" values="0 0 0 0 0 0 0 0 0 0 0 0 0 0 0 0 0 0 127 0" result="hardAlpha"/>
<feOffset dy="-2"/>
<feComposite in2="hardAlpha" operator="arithmetic" k2="-1" k3="1"/>
<feColorMatrix type="matrix" values="0 0 0 0 0.0627451 0 0 0 0 0.0941176 0 0 0 0 0.156863 0 0 0 0.05 0"/>
<feBlend mode="normal" in2="shape" result="effect2_innerShadow_145_7319"/>
<feColorMatrix in="SourceAlpha" type="matrix" values="0 0 0 0 0 0 0 0 0 0 0 0 0 0 0 0 0 0 127 0" result="hardAlpha"/>
<feMorphology radius="1" operator="erode" in="SourceAlpha" result="effect3_innerShadow_145_7319"/>
<feOffset/>
<feComposite in2="hardAlpha" operator="arithmetic" k2="-1" k3="1"/>
<feColorMatrix type="matrix" values="0 0 0 0 0.0627451 0 0 0 0 0.0941176 0 0 0 0 0.156863 0 0 0 0.18 0"/>
<feBlend mode="normal" in2="effect2_innerShadow_145_7319" result="effect3_innerShadow_145_7319"/>
</filter>
</defs>
</svg>
