<svg width="28" height="29" viewBox="0 0 28 29" fill="none" xmlns="http://www.w3.org/2000/svg">
<g clip-path="url(#clip0_145_8492)">
<path d="M8.75016 14.7817L12.2502 18.2817L19.2502 11.2817M25.6668 14.7817C25.6668 21.225 20.4435 26.4483 14.0002 26.4483C7.55684 26.4483 2.3335 21.225 2.3335 14.7817C2.3335 8.33833 7.55684 3.11499 14.0002 3.11499C20.4435 3.11499 25.6668 8.33833 25.6668 14.7817Z" stroke="#079455" stroke-width="2.33333" stroke-linecap="round" stroke-linejoin="round"/>
</g>
<defs>
<clipPath id="clip0_145_8492">
<path d="M0 14.7817C0 7.04975 6.26801 0.781738 14 0.781738C21.732 0.781738 28 7.04975 28 14.7817C28 22.5137 21.732 28.7817 14 28.7817C6.26801 28.7817 0 22.5137 0 14.7817Z" fill="white"/>
</clipPath>
</defs>
</svg>
