<svg width="52" height="53" viewBox="0 0 52 53" fill="none" xmlns="http://www.w3.org/2000/svg">
<g filter="url(#filter0_dii_145_8334)">
<path d="M2 11.2817C2 5.75883 6.47715 1.28168 12 1.28168H40C45.5229 1.28168 50 5.75883 50 11.2817V39.2817C50 44.8045 45.5228 49.2817 40 49.2817H12C6.47715 49.2817 2 44.8045 2 39.2817V11.2817Z" fill="white"/>
<path d="M2.5 11.2817C2.5 6.03497 6.75329 1.78168 12 1.78168H40C45.2467 1.78168 49.5 6.03497 49.5 11.2817V39.2817C49.5 44.5284 45.2467 48.7817 40 48.7817H12C6.75329 48.7817 2.5 44.5284 2.5 39.2817V11.2817Z" stroke="#E4E7EC"/>
<path d="M23 22.2817V19.2817C23 17.6248 21.6569 16.2817 20 16.2817C18.3431 16.2817 17 17.6248 17 19.2817C17 20.9385 18.3431 22.2817 20 22.2817H23ZM23 22.2817V28.2817M23 22.2817H29M23 28.2817V31.2817C23 32.9385 21.6569 34.2817 20 34.2817C18.3431 34.2817 17 32.9385 17 31.2817C17 29.6248 18.3431 28.2817 20 28.2817H23ZM23 28.2817H29M29 28.2817H32C33.6569 28.2817 35 29.6248 35 31.2817C35 32.9385 33.6569 34.2817 32 34.2817C30.3431 34.2817 29 32.9385 29 31.2817V28.2817ZM29 28.2817V22.2817M29 22.2817V19.2817C29 17.6248 30.3431 16.2817 32 16.2817C33.6569 16.2817 35 17.6248 35 19.2817C35 20.9385 33.6569 22.2817 32 22.2817H29Z" stroke="#344054" stroke-width="2" stroke-linecap="round" stroke-linejoin="round"/>
</g>
<defs>
<filter id="filter0_dii_145_8334" x="0" y="0.281677" width="52" height="52" filterUnits="userSpaceOnUse" color-interpolation-filters="sRGB">
<feFlood flood-opacity="0" result="BackgroundImageFix"/>
<feColorMatrix in="SourceAlpha" type="matrix" values="0 0 0 0 0 0 0 0 0 0 0 0 0 0 0 0 0 0 127 0" result="hardAlpha"/>
<feOffset dy="1"/>
<feGaussianBlur stdDeviation="1"/>
<feComposite in2="hardAlpha" operator="out"/>
<feColorMatrix type="matrix" values="0 0 0 0 0.0627451 0 0 0 0 0.0941176 0 0 0 0 0.156863 0 0 0 0.05 0"/>
<feBlend mode="normal" in2="BackgroundImageFix" result="effect1_dropShadow_145_8334"/>
<feBlend mode="normal" in="SourceGraphic" in2="effect1_dropShadow_145_8334" result="shape"/>
<feColorMatrix in="SourceAlpha" type="matrix" values="0 0 0 0 0 0 0 0 0 0 0 0 0 0 0 0 0 0 127 0" result="hardAlpha"/>
<feOffset dy="-2"/>
<feComposite in2="hardAlpha" operator="arithmetic" k2="-1" k3="1"/>
<feColorMatrix type="matrix" values="0 0 0 0 0.0627451 0 0 0 0 0.0941176 0 0 0 0 0.156863 0 0 0 0.05 0"/>
<feBlend mode="normal" in2="shape" result="effect2_innerShadow_145_8334"/>
<feColorMatrix in="SourceAlpha" type="matrix" values="0 0 0 0 0 0 0 0 0 0 0 0 0 0 0 0 0 0 127 0" result="hardAlpha"/>
<feMorphology radius="1" operator="erode" in="SourceAlpha" result="effect3_innerShadow_145_8334"/>
<feOffset/>
<feComposite in2="hardAlpha" operator="arithmetic" k2="-1" k3="1"/>
<feColorMatrix type="matrix" values="0 0 0 0 0.0627451 0 0 0 0 0.0941176 0 0 0 0 0.156863 0 0 0 0.18 0"/>
<feBlend mode="normal" in2="effect2_innerShadow_145_8334" result="effect3_innerShadow_145_8334"/>
</filter>
</defs>
</svg>
