<svg width="33" height="33" viewBox="0 0 33 33" fill="none" xmlns="http://www.w3.org/2000/svg">
<path d="M8.9375 11C10.0766 11 11 10.0766 11 8.9375C11 7.79841 10.0766 6.875 8.9375 6.875C7.79841 6.875 6.875 7.79841 6.875 8.9375C6.875 10.0766 7.79841 11 8.9375 11Z" fill="white"/>
<path d="M6.875 13.75C6.875 12.9906 7.49062 12.375 8.25 12.375H9.625C10.3844 12.375 11 12.9906 11 13.75V24.75C11 25.5094 10.3844 26.125 9.625 26.125H8.25C7.49062 26.125 6.875 25.5094 6.875 24.75V13.75Z" fill="white"/>
<path d="M15.125 26.125H16.5C17.2594 26.125 17.875 25.5094 17.875 24.75V18.5625C17.875 16.5 22 15.125 22 17.875V24.7505C22 25.51 22.6156 26.125 23.375 26.125H24.75C25.5094 26.125 26.125 25.5094 26.125 24.75V16.5C26.125 13.75 24.0625 12.375 21.3125 12.375C18.5625 12.375 17.875 14.4375 17.875 14.4375V13.75C17.875 12.9906 17.2594 12.375 16.5 12.375H15.125C14.3656 12.375 13.75 12.9906 13.75 13.75V24.75C13.75 25.5094 14.3656 26.125 15.125 26.125Z" fill="white"/>
<path fill-rule="evenodd" clip-rule="evenodd" d="M27.5 1.375C29.7782 1.375 31.625 3.22183 31.625 5.5V27.5C31.625 29.7782 29.7782 31.625 27.5 31.625H5.5C3.22183 31.625 1.375 29.7782 1.375 27.5V5.5C1.375 3.22183 3.22183 1.375 5.5 1.375H27.5ZM27.5 4.125C28.2594 4.125 28.875 4.74062 28.875 5.5V27.5C28.875 28.2594 28.2594 28.875 27.5 28.875H5.5C4.74062 28.875 4.125 28.2594 4.125 27.5V5.5C4.125 4.74062 4.74062 4.125 5.5 4.125H27.5Z" fill="white"/>
</svg>
