<svg width="60" height="60" viewBox="0 0 60 60" fill="none" xmlns="http://www.w3.org/2000/svg">
<g filter="url(#filter0_dii_832_705)">
<path d="M2 13C2 6.37258 7.37258 1 14 1H46C52.6274 1 58 6.37258 58 13V45C58 51.6274 52.6274 57 46 57H14C7.37258 57 2 51.6274 2 45V13Z" fill="white"/>
<path d="M2.5 13C2.5 6.64873 7.64873 1.5 14 1.5H46C52.3513 1.5 57.5 6.64873 57.5 13V45C57.5 51.3513 52.3513 56.5 46 56.5H14C7.64873 56.5 2.5 51.3513 2.5 45V13Z" stroke="#E4E7EC"/>
<path d="M39.9166 23.4908L30 29M30 29L20.0833 23.4908M30 29L30 40.0834M40.5 33.735V24.2651C40.5 23.8653 40.5 23.6655 40.4411 23.4872C40.389 23.3295 40.3038 23.1847 40.1913 23.0626C40.064 22.9245 39.8893 22.8275 39.5399 22.6333L30.9065 17.837C30.5757 17.6532 30.4102 17.5613 30.235 17.5253C30.08 17.4934 29.92 17.4934 29.765 17.5253C29.5898 17.5613 29.4243 17.6532 29.0935 17.837L20.4601 22.6333C20.1107 22.8275 19.936 22.9245 19.8087 23.0626C19.6962 23.1847 19.611 23.3295 19.5589 23.4872C19.5 23.6655 19.5 23.8653 19.5 24.2651V33.735C19.5 34.1348 19.5 34.3347 19.5589 34.5129C19.611 34.6706 19.6962 34.8154 19.8087 34.9375C19.936 35.0756 20.1107 35.1727 20.4601 35.3668L29.0935 40.1631C29.4243 40.3469 29.5898 40.4388 29.765 40.4749C29.92 40.5067 30.08 40.5067 30.235 40.4749C30.4102 40.4388 30.5757 40.3469 30.9065 40.1631L39.5399 35.3668C39.8893 35.1727 40.064 35.0756 40.1913 34.9375C40.3038 34.8154 40.389 34.6706 40.4411 34.5129C40.5 34.3347 40.5 34.1348 40.5 33.735Z" stroke="#344054" stroke-width="2" stroke-linecap="round" stroke-linejoin="round"/>
<path d="M35.25 26.0833L24.75 20.25" stroke="black" stroke-width="2" stroke-linecap="round" stroke-linejoin="round"/>
</g>
<defs>
<filter id="filter0_dii_832_705" x="0" y="0" width="60" height="60" filterUnits="userSpaceOnUse" color-interpolation-filters="sRGB">
<feFlood flood-opacity="0" result="BackgroundImageFix"/>
<feColorMatrix in="SourceAlpha" type="matrix" values="0 0 0 0 0 0 0 0 0 0 0 0 0 0 0 0 0 0 127 0" result="hardAlpha"/>
<feOffset dy="1"/>
<feGaussianBlur stdDeviation="1"/>
<feComposite in2="hardAlpha" operator="out"/>
<feColorMatrix type="matrix" values="0 0 0 0 0.0627451 0 0 0 0 0.0941176 0 0 0 0 0.156863 0 0 0 0.05 0"/>
<feBlend mode="normal" in2="BackgroundImageFix" result="effect1_dropShadow_832_705"/>
<feBlend mode="normal" in="SourceGraphic" in2="effect1_dropShadow_832_705" result="shape"/>
<feColorMatrix in="SourceAlpha" type="matrix" values="0 0 0 0 0 0 0 0 0 0 0 0 0 0 0 0 0 0 127 0" result="hardAlpha"/>
<feOffset dy="-2"/>
<feComposite in2="hardAlpha" operator="arithmetic" k2="-1" k3="1"/>
<feColorMatrix type="matrix" values="0 0 0 0 0.0627451 0 0 0 0 0.0941176 0 0 0 0 0.156863 0 0 0 0.05 0"/>
<feBlend mode="normal" in2="shape" result="effect2_innerShadow_832_705"/>
<feColorMatrix in="SourceAlpha" type="matrix" values="0 0 0 0 0 0 0 0 0 0 0 0 0 0 0 0 0 0 127 0" result="hardAlpha"/>
<feMorphology radius="1" operator="erode" in="SourceAlpha" result="effect3_innerShadow_832_705"/>
<feOffset/>
<feComposite in2="hardAlpha" operator="arithmetic" k2="-1" k3="1"/>
<feColorMatrix type="matrix" values="0 0 0 0 0.0627451 0 0 0 0 0.0941176 0 0 0 0 0.156863 0 0 0 0.18 0"/>
<feBlend mode="normal" in2="effect2_innerShadow_832_705" result="effect3_innerShadow_832_705"/>
</filter>
</defs>
</svg>
