<svg width="52" height="52" viewBox="0 0 52 52" fill="none" xmlns="http://www.w3.org/2000/svg">
<g filter="url(#filter0_dii_45_22205)">
<path d="M2 11C2 5.47715 6.47715 1 12 1H40C45.5229 1 50 5.47715 50 11V39C50 44.5229 45.5228 49 40 49H12C6.47715 49 2 44.5228 2 39V11Z" fill="white"/>
<path d="M2.5 11C2.5 5.75329 6.75329 1.5 12 1.5H40C45.2467 1.5 49.5 5.75329 49.5 11V39C49.5 44.2467 45.2467 48.5 40 48.5H12C6.75329 48.5 2.5 44.2467 2.5 39V11Z" stroke="#E4E7EC"/>
<path d="M17.4135 23.4627C16.8181 23.2312 16.5204 23.1155 16.4335 22.9487C16.3582 22.8041 16.3581 22.6318 16.4333 22.4871C16.52 22.3202 16.8175 22.2041 17.4126 21.9719L34.3003 15.3815C34.8375 15.1719 35.1061 15.0671 35.2777 15.1244C35.4268 15.1742 35.5437 15.2912 35.5935 15.4402C35.6509 15.6119 35.5461 15.8805 35.3364 16.4176L28.7461 33.3054C28.5139 33.9005 28.3977 34.198 28.2308 34.2847C28.0862 34.3599 27.9139 34.3598 27.7693 34.2844C27.6025 34.1975 27.4867 33.8998 27.2552 33.3045L24.6271 26.5465C24.5801 26.4257 24.5566 26.3652 24.5203 26.3143C24.4881 26.2692 24.4487 26.2298 24.4036 26.1976C24.3527 26.1613 24.2923 26.1378 24.1715 26.0909L17.4135 23.4627Z" stroke="#344054" stroke-width="2" stroke-linecap="round" stroke-linejoin="round"/>
</g>
<defs>
<filter id="filter0_dii_45_22205" x="0" y="0" width="52" height="52" filterUnits="userSpaceOnUse" color-interpolation-filters="sRGB">
<feFlood flood-opacity="0" result="BackgroundImageFix"/>
<feColorMatrix in="SourceAlpha" type="matrix" values="0 0 0 0 0 0 0 0 0 0 0 0 0 0 0 0 0 0 127 0" result="hardAlpha"/>
<feOffset dy="1"/>
<feGaussianBlur stdDeviation="1"/>
<feComposite in2="hardAlpha" operator="out"/>
<feColorMatrix type="matrix" values="0 0 0 0 0.0627451 0 0 0 0 0.0941176 0 0 0 0 0.156863 0 0 0 0.05 0"/>
<feBlend mode="normal" in2="BackgroundImageFix" result="effect1_dropShadow_45_22205"/>
<feBlend mode="normal" in="SourceGraphic" in2="effect1_dropShadow_45_22205" result="shape"/>
<feColorMatrix in="SourceAlpha" type="matrix" values="0 0 0 0 0 0 0 0 0 0 0 0 0 0 0 0 0 0 127 0" result="hardAlpha"/>
<feOffset dy="-2"/>
<feComposite in2="hardAlpha" operator="arithmetic" k2="-1" k3="1"/>
<feColorMatrix type="matrix" values="0 0 0 0 0.0627451 0 0 0 0 0.0941176 0 0 0 0 0.156863 0 0 0 0.05 0"/>
<feBlend mode="normal" in2="shape" result="effect2_innerShadow_45_22205"/>
<feColorMatrix in="SourceAlpha" type="matrix" values="0 0 0 0 0 0 0 0 0 0 0 0 0 0 0 0 0 0 127 0" result="hardAlpha"/>
<feMorphology radius="1" operator="erode" in="SourceAlpha" result="effect3_innerShadow_45_22205"/>
<feOffset/>
<feComposite in2="hardAlpha" operator="arithmetic" k2="-1" k3="1"/>
<feColorMatrix type="matrix" values="0 0 0 0 0.0627451 0 0 0 0 0.0941176 0 0 0 0 0.156863 0 0 0 0.18 0"/>
<feBlend mode="normal" in2="effect2_innerShadow_45_22205" result="effect3_innerShadow_45_22205"/>
</filter>
</defs>
</svg>
