<svg width="27" height="29" viewBox="0 0 27 29" fill="none" xmlns="http://www.w3.org/2000/svg">
<g filter="url(#filter0_ii_266_11356)">
<path d="M1.48 0.573464C1.1599 0.912264 0.970703 1.43806 0.970703 2.11896V26.4466C0.970703 27.1286 1.1599 27.6533 1.48 27.9921L1.5614 28.0713L15.1893 14.4434V14.2828V14.1222L1.5614 0.493164L1.48 0.573464Z" fill="url(#paint0_linear_266_11356)"/>
<path d="M19.7314 18.9874L15.1895 14.4433V14.2827V14.1221L19.7325 9.5791L19.8348 9.6374L25.2171 12.6954C26.7538 13.5688 26.7538 14.9977 25.2171 15.8722L19.8348 18.9302L19.7314 18.9874Z" fill="url(#paint1_linear_266_11356)"/>
<g filter="url(#filter1_i_266_11356)">
<path d="M19.8351 18.9296L15.1887 14.2832L1.48047 27.9925C1.98647 28.5293 2.82357 28.5953 3.76627 28.0607L19.8351 18.9296Z" fill="url(#paint2_linear_266_11356)"/>
</g>
<path d="M19.8351 9.6364L3.76627 0.506402C2.82357 -0.0292985 1.98647 0.0378018 1.48047 0.574602L15.1898 14.2839L19.8351 9.6364Z" fill="url(#paint3_linear_266_11356)"/>
</g>
<defs>
<filter id="filter0_ii_266_11356" x="0.970703" y="0.136719" width="25.3984" height="28.293" filterUnits="userSpaceOnUse" color-interpolation-filters="sRGB">
<feFlood flood-opacity="0" result="BackgroundImageFix"/>
<feBlend mode="normal" in="SourceGraphic" in2="BackgroundImageFix" result="shape"/>
<feColorMatrix in="SourceAlpha" type="matrix" values="0 0 0 0 0 0 0 0 0 0 0 0 0 0 0 0 0 0 127 0" result="hardAlpha"/>
<feOffset dy="-0.15"/>
<feComposite in2="hardAlpha" operator="arithmetic" k2="-1" k3="1"/>
<feColorMatrix type="matrix" values="0 0 0 0 0 0 0 0 0 0 0 0 0 0 0 0 0 0 0.12 0"/>
<feBlend mode="normal" in2="shape" result="effect1_innerShadow_266_11356"/>
<feColorMatrix in="SourceAlpha" type="matrix" values="0 0 0 0 0 0 0 0 0 0 0 0 0 0 0 0 0 0 127 0" result="hardAlpha"/>
<feOffset dy="0.15"/>
<feComposite in2="hardAlpha" operator="arithmetic" k2="-1" k3="1"/>
<feColorMatrix type="matrix" values="0 0 0 0 1 0 0 0 0 1 0 0 0 0 1 0 0 0 0.25 0"/>
<feBlend mode="normal" in2="effect1_innerShadow_266_11356" result="effect2_innerShadow_266_11356"/>
</filter>
<filter id="filter1_i_266_11356" x="1.48047" y="14.2832" width="18.3545" height="14.1465" filterUnits="userSpaceOnUse" color-interpolation-filters="sRGB">
<feFlood flood-opacity="0" result="BackgroundImageFix"/>
<feBlend mode="normal" in="SourceGraphic" in2="BackgroundImageFix" result="shape"/>
<feColorMatrix in="SourceAlpha" type="matrix" values="0 0 0 0 0 0 0 0 0 0 0 0 0 0 0 0 0 0 127 0" result="hardAlpha"/>
<feOffset dy="-0.15"/>
<feComposite in2="hardAlpha" operator="arithmetic" k2="-1" k3="1"/>
<feColorMatrix type="matrix" values="0 0 0 0 0 0 0 0 0 0 0 0 0 0 0 0 0 0 0.08 0"/>
<feBlend mode="normal" in2="shape" result="effect1_innerShadow_266_11356"/>
</filter>
<linearGradient id="paint0_linear_266_11356" x1="13.9813" y1="1.86156" x2="-4.47891" y2="20.3218" gradientUnits="userSpaceOnUse">
<stop stop-color="#00A0FF"/>
<stop offset="0.0066" stop-color="#00A1FF"/>
<stop offset="0.2601" stop-color="#00BEFF"/>
<stop offset="0.5122" stop-color="#00D2FF"/>
<stop offset="0.7604" stop-color="#00DFFF"/>
<stop offset="1" stop-color="#00E3FF"/>
</linearGradient>
<linearGradient id="paint1_linear_266_11356" x1="27.2174" y1="14.2827" x2="0.601914" y2="14.2827" gradientUnits="userSpaceOnUse">
<stop stop-color="#FFE000"/>
<stop offset="0.4087" stop-color="#FFBD00"/>
<stop offset="0.7754" stop-color="#FFA500"/>
<stop offset="1" stop-color="#FF9C00"/>
</linearGradient>
<linearGradient id="paint2_linear_266_11356" x1="17.3118" y1="16.8065" x2="-7.72256" y2="41.8408" gradientUnits="userSpaceOnUse">
<stop stop-color="#FF3A44"/>
<stop offset="1" stop-color="#C31162"/>
</linearGradient>
<linearGradient id="paint3_linear_266_11356" x1="-1.97199" y1="-7.52382" x2="9.20654" y2="3.65471" gradientUnits="userSpaceOnUse">
<stop stop-color="#32A071"/>
<stop offset="0.0685" stop-color="#2DA771"/>
<stop offset="0.4762" stop-color="#15CF74"/>
<stop offset="0.8009" stop-color="#06E775"/>
<stop offset="1" stop-color="#00F076"/>
</linearGradient>
</defs>
</svg>
