<svg width="60" height="60" viewBox="0 0 60 60" fill="none" xmlns="http://www.w3.org/2000/svg">
<g filter="url(#filter0_dii_832_91)">
<path d="M2 13C2 6.37258 7.37258 1 14 1H46C52.6274 1 58 6.37258 58 13V45C58 51.6274 52.6274 57 46 57H14C7.37258 57 2 51.6274 2 45V13Z" fill="white"/>
<path d="M2.5 13C2.5 6.64873 7.64873 1.5 14 1.5H46C52.3513 1.5 57.5 6.64873 57.5 13V45C57.5 51.3513 52.3513 56.5 46 56.5H14C7.64873 56.5 2.5 51.3513 2.5 45V13Z" stroke="#E4E7EC"/>
<path d="M26.4998 27.25L28.8332 29.5833L34.0832 24.3333M39.3332 39.5V24.1C39.3332 22.1398 39.3332 21.1597 38.9517 20.411C38.6161 19.7525 38.0807 19.217 37.4221 18.8815C36.6734 18.5 35.6934 18.5 33.7332 18.5H26.2665C24.3063 18.5 23.3262 18.5 22.5775 18.8815C21.919 19.217 21.3835 19.7525 21.048 20.411C20.6665 21.1597 20.6665 22.1398 20.6665 24.1V39.5L23.8748 37.1667L26.7915 39.5L29.9998 37.1667L33.2082 39.5L36.1248 37.1667L39.3332 39.5Z" stroke="#344054" stroke-width="2" stroke-linecap="round" stroke-linejoin="round"/>
</g>
<defs>
<filter id="filter0_dii_832_91" x="0" y="0" width="60" height="60" filterUnits="userSpaceOnUse" color-interpolation-filters="sRGB">
<feFlood flood-opacity="0" result="BackgroundImageFix"/>
<feColorMatrix in="SourceAlpha" type="matrix" values="0 0 0 0 0 0 0 0 0 0 0 0 0 0 0 0 0 0 127 0" result="hardAlpha"/>
<feOffset dy="1"/>
<feGaussianBlur stdDeviation="1"/>
<feComposite in2="hardAlpha" operator="out"/>
<feColorMatrix type="matrix" values="0 0 0 0 0.0627451 0 0 0 0 0.0941176 0 0 0 0 0.156863 0 0 0 0.05 0"/>
<feBlend mode="normal" in2="BackgroundImageFix" result="effect1_dropShadow_832_91"/>
<feBlend mode="normal" in="SourceGraphic" in2="effect1_dropShadow_832_91" result="shape"/>
<feColorMatrix in="SourceAlpha" type="matrix" values="0 0 0 0 0 0 0 0 0 0 0 0 0 0 0 0 0 0 127 0" result="hardAlpha"/>
<feOffset dy="-2"/>
<feComposite in2="hardAlpha" operator="arithmetic" k2="-1" k3="1"/>
<feColorMatrix type="matrix" values="0 0 0 0 0.0627451 0 0 0 0 0.0941176 0 0 0 0 0.156863 0 0 0 0.05 0"/>
<feBlend mode="normal" in2="shape" result="effect2_innerShadow_832_91"/>
<feColorMatrix in="SourceAlpha" type="matrix" values="0 0 0 0 0 0 0 0 0 0 0 0 0 0 0 0 0 0 127 0" result="hardAlpha"/>
<feMorphology radius="1" operator="erode" in="SourceAlpha" result="effect3_innerShadow_832_91"/>
<feOffset/>
<feComposite in2="hardAlpha" operator="arithmetic" k2="-1" k3="1"/>
<feColorMatrix type="matrix" values="0 0 0 0 0.0627451 0 0 0 0 0.0941176 0 0 0 0 0.156863 0 0 0 0.18 0"/>
<feBlend mode="normal" in2="effect2_innerShadow_832_91" result="effect3_innerShadow_832_91"/>
</filter>
</defs>
</svg>
