<svg width="52" height="53" viewBox="0 0 52 53" fill="none" xmlns="http://www.w3.org/2000/svg">
<g filter="url(#filter0_dii_145_8115)">
<path d="M2 11.2817C2 5.75883 6.47715 1.28168 12 1.28168H40C45.5229 1.28168 50 5.75883 50 11.2817V39.2817C50 44.8045 45.5228 49.2817 40 49.2817H12C6.47715 49.2817 2 44.8045 2 39.2817V11.2817Z" fill="white"/>
<path d="M2.5 11.2817C2.5 6.03497 6.75329 1.78168 12 1.78168H40C45.2467 1.78168 49.5 6.03497 49.5 11.2817V39.2817C49.5 44.5284 45.2467 48.7817 40 48.7817H12C6.75329 48.7817 2.5 44.5284 2.5 39.2817V11.2817Z" stroke="#E4E7EC"/>
<path d="M25 16.2817H21.8C20.1198 16.2817 19.2798 16.2817 18.638 16.6087C18.0735 16.8963 17.6146 17.3552 17.327 17.9197C17 18.5614 17 19.4015 17 21.0817V29.4817C17 31.1618 17 32.0019 17.327 32.6436C17.6146 33.2081 18.0735 33.6671 18.638 33.9547C19.2798 34.2817 20.1198 34.2817 21.8 34.2817H30.2C31.8802 34.2817 32.7202 34.2817 33.362 33.9547C33.9265 33.6671 34.3854 33.2081 34.673 32.6436C35 32.0019 35 31.1618 35 29.4817V26.2817M26 21.2817H30V25.2817M29.5 16.7817V15.2817M33.4393 17.8423L34.5 16.7817M34.5103 21.7817H36.0103M17 26.6288C17.6519 26.7294 18.3199 26.7817 19 26.7817C23.3864 26.7817 27.2653 24.6093 29.6197 21.2817" stroke="#344054" stroke-width="2" stroke-linecap="round" stroke-linejoin="round"/>
</g>
<defs>
<filter id="filter0_dii_145_8115" x="0" y="0.281677" width="52" height="52" filterUnits="userSpaceOnUse" color-interpolation-filters="sRGB">
<feFlood flood-opacity="0" result="BackgroundImageFix"/>
<feColorMatrix in="SourceAlpha" type="matrix" values="0 0 0 0 0 0 0 0 0 0 0 0 0 0 0 0 0 0 127 0" result="hardAlpha"/>
<feOffset dy="1"/>
<feGaussianBlur stdDeviation="1"/>
<feComposite in2="hardAlpha" operator="out"/>
<feColorMatrix type="matrix" values="0 0 0 0 0.0627451 0 0 0 0 0.0941176 0 0 0 0 0.156863 0 0 0 0.05 0"/>
<feBlend mode="normal" in2="BackgroundImageFix" result="effect1_dropShadow_145_8115"/>
<feBlend mode="normal" in="SourceGraphic" in2="effect1_dropShadow_145_8115" result="shape"/>
<feColorMatrix in="SourceAlpha" type="matrix" values="0 0 0 0 0 0 0 0 0 0 0 0 0 0 0 0 0 0 127 0" result="hardAlpha"/>
<feOffset dy="-2"/>
<feComposite in2="hardAlpha" operator="arithmetic" k2="-1" k3="1"/>
<feColorMatrix type="matrix" values="0 0 0 0 0.0627451 0 0 0 0 0.0941176 0 0 0 0 0.156863 0 0 0 0.05 0"/>
<feBlend mode="normal" in2="shape" result="effect2_innerShadow_145_8115"/>
<feColorMatrix in="SourceAlpha" type="matrix" values="0 0 0 0 0 0 0 0 0 0 0 0 0 0 0 0 0 0 127 0" result="hardAlpha"/>
<feMorphology radius="1" operator="erode" in="SourceAlpha" result="effect3_innerShadow_145_8115"/>
<feOffset/>
<feComposite in2="hardAlpha" operator="arithmetic" k2="-1" k3="1"/>
<feColorMatrix type="matrix" values="0 0 0 0 0.0627451 0 0 0 0 0.0941176 0 0 0 0 0.156863 0 0 0 0.18 0"/>
<feBlend mode="normal" in2="effect2_innerShadow_145_8115" result="effect3_innerShadow_145_8115"/>
</filter>
</defs>
</svg>
