<svg width="118" height="48" viewBox="0 0 118 48" fill="none" xmlns="http://www.w3.org/2000/svg">
    <path fill-rule="evenodd" clip-rule="evenodd" d="M30.3826 19.2945C33.1414 20.0323 35.2964 22.1836 36.0354 24.9379C36.7744 27.6921 35.9851 30.6308 33.9649 32.6465L22.5904 44.0023C21.9308 44.6123 21.002 44.8527 20.1215 44.6294C19.1746 44.389 18.4348 43.6504 18.1943 42.705C17.9535 41.7595 18.2501 40.7583 18.9673 40.0956C18.9236 40.0991 30.3134 28.7287 30.3316 28.7402C30.9044 28.0767 31.1159 27.1696 30.8866 26.3156C30.6403 25.3976 29.9222 24.6805 29.0028 24.4347C28.0832 24.1888 27.1022 24.451 26.4291 25.1229C17.6369 33.9004 13.241 38.289 13.241 38.289C9.46655 34.521 7.57956 32.637 7.57956 32.637C5.56249 30.6179 4.77809 27.6779 5.52184 24.9248C6.26533 22.1718 8.42413 20.0238 11.1844 19.2908C13.3742 18.7093 15.6785 19.0884 17.544 20.2787C18.0526 20.6147 18.421 21.1078 18.6051 21.668L15.2412 25.023C16.3969 25.4032 17.7026 24.9512 18.3561 23.8665C18.7711 23.1776 18.8369 22.3764 18.6051 21.668L15.2414 25.0228C14.2205 24.6878 13.8921 24.0822 12.562 24.4317C11.6415 24.674 10.9203 25.3879 10.6702 26.3049C10.42 27.2218 10.6788 28.2025 11.3492 28.877C11.3492 28.877 11.9797 29.5065 13.241 30.7656C13.241 30.7656 16.3809 27.631 22.6609 21.3615C24.6801 19.3448 27.6237 18.5567 30.3826 19.2945ZM20.7471 1.06001C24.3245 1.06001 27.2513 3.98197 27.2513 7.55338C27.2513 7.84603 27.4891 8.08336 27.7823 8.08336C28.0754 8.08336 28.3131 7.84603 28.3131 7.55338C28.3131 3.39885 24.9085 0 20.7471 0C16.5857 0 13.181 3.39885 13.181 7.55338C13.181 7.84603 13.4188 8.08336 13.7119 8.08336C14.0051 8.08336 14.2428 7.84603 14.2428 7.55338C14.2428 3.98197 17.1697 1.06001 20.7471 1.06001ZM1.59484 48H39.9575C40.3798 48.0001 40.785 47.8325 41.0837 47.5343C41.3825 47.2361 41.5503 46.8316 41.5502 46.4099L41.5537 46.4113L39.9574 11.0071C39.8167 10.2927 39.1969 9.75001 38.4458 9.72633L26.3939 9.72602C25.5383 9.72282 25.5408 9.72499 24.0018 11.2927L20.7767 14.4672L17.5517 11.2927C16.0148 9.72757 16.0152 9.72282 15.1638 9.72602L3.17963 9.72633C2.7574 9.72633 2.35215 9.89377 2.05342 10.192C1.75469 10.4901 1.58702 10.8946 1.58702 11.3163L1.58251 11.3128L0 46.4113L0.00212261 46.4099C0.00181192 46.8317 0.169534 47.2364 0.468266 47.5346C0.7671 47.8329 1.1724 48.0003 1.59484 48ZM28.3131 13.059C29.7846 13.059 30.9775 14.2499 30.9775 15.7189C30.9775 17.1878 29.7846 18.3786 28.3131 18.3786C26.8416 18.3786 25.6488 17.1878 25.6488 15.7189C25.6488 14.2499 26.8416 13.059 28.3131 13.059ZM13.241 13.0591C14.7124 13.0591 15.9052 14.2499 15.9052 15.719C15.9052 17.188 14.7124 18.3788 13.241 18.3788C11.7695 18.3788 10.5765 17.188 10.5765 15.719C10.5765 14.2499 11.7695 13.0591 13.241 13.0591Z" fill="#D92D20"/>
    <path fill-rule="evenodd" clip-rule="evenodd" d="M51.8014 21.04C55.0743 21.04 56.9649 19.5991 56.9649 17.5697C56.9649 13.2672 50.358 15.0734 50.358 13.2063C50.358 12.6381 50.9679 12.1916 52.3909 12.1916C53.199 12.1916 54.0606 12.3252 54.9323 12.7007L54.9328 12.7009L54.9861 12.7242C55.7641 13.0433 56.7309 12.475 56.7309 11.5795C56.7309 11.0803 56.435 10.6425 55.9867 10.4499C54.9711 10.0296 53.6262 9.79688 52.3909 9.79688C49.1993 9.79688 47.3291 11.2581 47.3291 13.3282C47.3291 17.6914 53.9359 15.8615 53.9359 17.6508C53.9359 18.2597 53.387 18.6453 51.9234 18.6453C51.0363 18.6453 50.0871 18.4589 49.2636 18.1509L49.2637 18.151L49.2623 18.1503C49.212 18.1315 49.1621 18.1122 49.1127 18.0925C48.3527 17.8574 47.4551 18.4288 47.4551 19.2874C47.4551 19.7876 47.7521 20.2263 48.2021 20.4183H48.202C49.2148 20.7939 50.513 21.04 51.8014 21.04ZM85.0556 10.719C84.3137 8.93352 81.5737 9.98184 82.2567 11.8171L85.4808 19.4795L85.5761 19.7058C85.7675 20.1279 86.0839 20.481 86.478 20.7176C87.1947 21.1469 88.09 21.1469 88.8068 20.7176C89.1631 20.5037 89.4558 20.1946 89.6502 19.8253L93.0199 11.8171C93.7029 9.98184 90.9629 8.93352 90.221 10.719L87.6384 16.8396L85.0556 10.719ZM111.948 21.04C115.425 21.04 117.945 18.7062 117.945 15.4185C117.945 12.1308 115.425 9.79688 111.948 9.79688C108.472 9.79688 105.931 12.1308 105.931 15.4185C105.931 18.7062 108.472 21.04 111.948 21.04ZM111.948 18.4423C110.363 18.4423 109.143 17.3058 109.143 15.4185C109.143 13.5311 110.363 12.3946 111.948 12.3946C113.534 12.3946 114.733 13.5311 114.733 15.4185C114.733 17.3058 113.534 18.4423 111.948 18.4423ZM101.839 11.3797V14.6879C101.839 16.6969 100.782 17.6305 99.3186 17.6305C97.9159 17.6305 97.1028 16.8187 97.1028 14.972V11.3798C97.1028 10.5056 96.3928 9.79688 95.5172 9.79688C94.6415 9.79688 93.9315 10.5056 93.9315 11.3798V15.4388C93.9315 18.8279 95.8627 20.35 98.6071 20.35C99.8674 20.35 101.006 19.9238 101.839 19.0917V19.4571C101.839 21.4256 100.925 22.42 98.7901 22.42C97.8141 22.42 96.8069 22.1804 95.9778 21.7683L95.9779 21.7684C95.2856 21.5524 94.6962 21.8992 94.4219 22.4134C94.1483 22.9262 94.1882 23.6056 94.7524 24.0592C95.9493 24.668 97.4832 24.9771 99.0543 24.9771C102.876 24.9771 105.011 23.11 105.011 19.0512V11.3798C105.011 10.5056 104.301 9.79688 103.425 9.79688C102.549 9.79688 101.839 10.5056 101.839 11.3798L101.839 11.3797ZM73.3207 10.719C72.5789 8.93352 69.8389 9.98184 70.5219 11.8171L73.746 19.4795L73.8412 19.7058C74.0326 20.1279 74.349 20.481 74.7431 20.7176C75.4599 21.1469 76.3552 21.1469 77.072 20.7176C77.4282 20.5037 77.721 20.1946 77.9154 19.8253L81.2851 11.8171C81.968 9.98184 79.228 8.93352 78.4862 10.719L75.9035 16.8396L73.3207 10.719ZM66.4192 10.9213V11.116C65.6263 10.2231 64.4879 9.79688 63.1462 9.79688C60.0563 9.79688 57.6778 11.9887 57.6778 15.4185C57.6778 18.8482 60.0563 21.04 63.1462 21.04C64.6099 21.04 65.7687 20.5732 66.5615 19.6194V19.9107L66.5616 19.9105C67.0533 21.412 69.0909 21.4184 69.5904 19.9191V10.9213C69.0735 9.42229 66.9361 9.42229 66.4192 10.9213ZM63.6951 18.4423C62.1095 18.4423 60.8898 17.3058 60.8898 15.4185C60.8898 13.5311 62.1095 12.3946 63.6951 12.3946C65.2604 12.3946 66.4801 13.5311 66.4801 15.4185C66.4801 17.3058 65.2604 18.4423 63.6951 18.4423Z" fill="#101828"/>
    <path d="M57.3339 32.5653L57.3274 28.0309H56.6332L54.8606 31.0365L53.0547 28.0309H52.3603V32.5653H53.165V29.5984L54.6584 32.0471H55.0358L56.5293 29.5596L56.5358 32.5653H57.3339ZM59.8889 32.6106C60.966 32.6106 61.7382 31.8722 61.7382 30.8357C61.7382 29.7993 60.966 29.0673 59.8889 29.0673C58.8247 29.0673 58.0461 29.7993 58.0461 30.8357C58.0461 31.8722 58.8247 32.6106 59.8889 32.6106ZM59.8889 31.9175C59.3049 31.9175 58.8637 31.4964 58.8637 30.8357C58.8637 30.175 59.3049 29.7539 59.8889 29.7539C60.4794 29.7539 60.9206 30.175 60.9206 30.8357C60.9206 31.4964 60.4794 31.9175 59.8889 31.9175ZM63.1415 29.6114V29.1061H62.3693V32.5653H63.1804V30.8875C63.1804 30.1815 63.5697 29.8187 64.1861 29.8187C64.2446 29.8187 64.3029 29.8251 64.3743 29.8381V29.0673C63.7968 29.0673 63.3751 29.2486 63.1415 29.6114ZM68.1394 30.8552C68.1394 29.7733 67.3997 29.0673 66.3874 29.0673C65.3558 29.0673 64.5965 29.8058 64.5965 30.8357C64.5965 31.8656 65.3493 32.6106 66.5107 32.6106C67.1077 32.6106 67.5944 32.4163 67.9058 32.0471L67.471 31.5482C67.2245 31.8009 66.9195 31.924 66.5302 31.924C65.9268 31.924 65.505 31.6001 65.4077 31.0948H68.1264C68.1329 31.0171 68.1394 30.9199 68.1394 30.8552ZM66.3874 29.715C66.9195 29.715 67.3024 30.0584 67.3672 30.5571H65.4012C65.4791 30.0519 65.8619 29.715 66.3874 29.715ZM72.0473 32.6301C73.2931 32.6301 73.8836 32.0082 73.8836 31.2816C73.8836 29.619 71.1908 30.2473 71.1908 29.2821C71.1908 28.9377 71.4763 28.6657 72.177 28.6657C72.5729 28.6657 73.0206 28.7822 73.4294 29.0219L73.6954 28.3677C73.2997 28.1086 72.7286 27.9661 72.1836 27.9661C70.9377 27.9661 70.3537 28.5879 70.3537 29.321C70.3537 31.0031 73.053 30.3628 73.053 31.3409C73.053 31.6778 72.7546 31.9304 72.0473 31.9304C71.4893 31.9304 70.9118 31.7232 70.5484 31.4317L70.2564 32.0859C70.6328 32.4098 71.34 32.6301 72.0473 32.6301ZM75.8189 29.0673C75.2609 29.0673 74.7223 29.2098 74.3524 29.4949L74.6704 30.0843C74.9299 29.8705 75.3323 29.741 75.7216 29.741C76.2991 29.741 76.5846 30.0195 76.5846 30.4924V30.5442H75.6891C74.6379 30.5442 74.2486 30.9977 74.2486 31.5742C74.2486 32.1766 74.7483 32.6106 75.5399 32.6106C76.059 32.6106 76.4353 32.4422 76.63 32.1443V32.5653H77.3957V30.5378C77.3957 29.5401 76.8182 29.0673 75.8189 29.0673ZM75.7086 32.0211C75.2933 32.0211 75.0468 31.8333 75.0468 31.5418C75.0468 31.2891 75.196 31.0818 75.7476 31.0818H76.5846V31.4835C76.4483 31.8398 76.1044 32.0211 75.7086 32.0211ZM80.6871 29.1061L79.5775 31.6714L78.5004 29.1061H77.6569L79.1428 32.5653H79.9798L81.4657 29.1061H80.6871ZM82.2331 28.5361C82.5381 28.5361 82.7522 28.3158 82.7522 28.0309C82.7522 27.7652 82.5316 27.5645 82.2331 27.5645C81.9346 27.5645 81.714 27.7782 81.714 28.0502C81.714 28.3223 81.9346 28.5361 82.2331 28.5361ZM81.8243 32.5653H82.6354V29.1061H81.8243V32.5653ZM85.518 29.0673C85.012 29.0673 84.5901 29.2357 84.3241 29.5531V29.1061H83.5519V32.5653H84.363V30.8162C84.363 30.1232 84.7523 29.7733 85.3299 29.7733C85.849 29.7733 86.1539 30.0714 86.1539 30.6867V32.5653H86.965V30.5831C86.965 29.5401 86.3486 29.0673 85.518 29.0673ZM90.5485 29.1061V29.566C90.2629 29.2228 89.8346 29.0673 89.3481 29.0673C88.3553 29.0673 87.5961 29.728 87.5961 30.7321C87.5961 31.7361 88.3553 32.4098 89.3481 32.4098C89.8152 32.4098 90.224 32.2609 90.5095 31.9499V32.1313C90.5095 32.8309 90.1722 33.1807 89.4065 33.1807C88.9263 33.1807 88.4332 33.0187 88.1282 32.7661L87.7648 33.375C88.1606 33.6989 88.803 33.8673 89.4519 33.8673C90.6652 33.8673 91.3206 33.2973 91.3206 32.0406V29.1061H90.5485ZM89.4713 31.7232C88.8549 31.7232 88.4137 31.3216 88.4137 30.7321C88.4137 30.1491 88.8549 29.7539 89.4713 29.7539C90.0813 29.7539 90.5225 30.1491 90.5225 30.7321C90.5225 31.3216 90.0813 31.7232 89.4713 31.7232ZM53.2817 40.2596H54.1253V36.4377H55.6307V35.7251H51.7764V36.4377H53.2817V40.2596ZM57.2415 40.305C58.3186 40.305 59.0908 39.5665 59.0908 38.5301C59.0908 37.4936 58.3186 36.7616 57.2415 36.7616C56.1773 36.7616 55.3987 37.4936 55.3987 38.5301C55.3987 39.5665 56.1773 40.305 57.2415 40.305ZM57.2415 39.6118C56.6575 39.6118 56.2163 39.1908 56.2163 38.5301C56.2163 37.8693 56.6575 37.4483 57.2415 37.4483C57.832 37.4483 58.2732 37.8693 58.2732 38.5301C58.2732 39.1908 57.832 39.6118 57.2415 39.6118ZM62.3887 36.8005V37.2604C62.1032 36.9171 61.6749 36.7616 61.1883 36.7616C60.1956 36.7616 59.4363 37.4223 59.4363 38.4264C59.4363 39.4304 60.1956 40.1041 61.1883 40.1041C61.6555 40.1041 62.0643 39.9552 62.3498 39.6442V39.8256C62.3498 40.5252 62.0124 40.875 61.2468 40.875C60.7666 40.875 60.2734 40.713 59.9685 40.4605L59.6051 41.0693C60.0009 41.3932 60.6433 41.5617 61.2922 41.5617C62.5055 41.5617 63.1608 40.9916 63.1608 39.7349V36.8005H62.3887ZM61.3116 39.4175C60.6952 39.4175 60.254 39.0159 60.254 38.4264C60.254 37.8434 60.6952 37.4483 61.3116 37.4483C61.9215 37.4483 62.3628 37.8434 62.3628 38.4264C62.3628 39.0159 61.9215 39.4175 61.3116 39.4175ZM67.3348 38.5495C67.3348 37.4677 66.5951 36.7616 65.5828 36.7616C64.5512 36.7616 63.792 37.5 63.792 38.5301C63.792 39.56 64.5447 40.305 65.7061 40.305C66.3032 40.305 66.7898 40.1107 67.1012 39.7414L66.6665 39.2426C66.4199 39.4952 66.115 39.6183 65.7256 39.6183C65.1222 39.6183 64.7004 39.2944 64.6031 38.7892H67.3218C67.3284 38.7114 67.3348 38.6143 67.3348 38.5495ZM65.5828 37.4094C66.1149 37.4094 66.4978 37.7527 66.5627 38.2515H64.5966C64.6745 37.7462 65.0573 37.4094 65.5828 37.4094ZM69.8217 39.4952C69.6984 39.5924 69.5363 39.6377 69.3675 39.6377C69.0561 39.6377 68.8874 39.4564 68.8874 39.1196V37.4741H69.8152V36.8264H68.8874V36.036H68.0762V36.8264H67.5052V37.4741H68.0762V39.139C68.0762 39.9034 68.511 40.305 69.2702 40.305C69.5621 40.305 69.8541 40.2272 70.0488 40.0717L69.8217 39.4952ZM72.5356 36.7616C72.0555 36.7616 71.6467 36.9171 71.3807 37.2021V35.4531H70.5696V40.2596H71.3807V38.5106C71.3807 37.8175 71.77 37.4677 72.3475 37.4677C72.8666 37.4677 73.1716 37.7657 73.1716 38.381V40.2596H73.9827V38.2774C73.9827 37.2344 73.3662 36.7616 72.5356 36.7616ZM78.1565 38.5495C78.1565 37.4677 77.4169 36.7616 76.4046 36.7616C75.3729 36.7616 74.6137 37.5 74.6137 38.5301C74.6137 39.56 75.3665 40.305 76.5279 40.305C77.1249 40.305 77.6115 40.1107 77.9229 39.7414L77.4882 39.2426C77.2416 39.4952 76.9367 39.6183 76.5473 39.6183C75.9439 39.6183 75.5221 39.2944 75.4248 38.7892H78.1435C78.1501 38.7114 78.1565 38.6143 78.1565 38.5495ZM76.4046 37.4094C76.9367 37.4094 77.3195 37.7527 77.3844 38.2515H75.4183C75.4962 37.7462 75.879 37.4094 76.4046 37.4094ZM79.5599 37.3057V36.8005H78.7876V40.2596H79.5988V38.5819C79.5988 37.8758 79.9881 37.513 80.6045 37.513C80.6629 37.513 80.7213 37.5195 80.7927 37.5325V36.7616C80.2152 36.7616 79.7934 36.943 79.5599 37.3057ZM57.3339 47.9539L57.3274 43.4195H56.6332L54.8606 46.4252L53.0547 43.4195H52.3603V47.9539H53.165V44.9871L54.6584 47.4357H55.0358L56.5293 44.9483L56.5358 47.9539H57.3339ZM59.8889 47.9993C60.966 47.9993 61.7382 47.2609 61.7382 46.2244C61.7382 45.1879 60.966 44.4559 59.8889 44.4559C58.8247 44.4559 58.0461 45.1879 58.0461 46.2244C58.0461 47.2609 58.8247 47.9993 59.8889 47.9993ZM59.8889 47.3061C59.3049 47.3061 58.8637 46.8851 58.8637 46.2244C58.8637 45.5636 59.3049 45.1426 59.8889 45.1426C60.4794 45.1426 60.9206 45.5636 60.9206 46.2244C60.9206 46.8851 60.4794 47.3061 59.8889 47.3061ZM63.1415 45.0001V44.4948H62.3693V47.9539H63.1804V46.2762C63.1804 45.5701 63.5697 45.2074 64.1861 45.2074C64.2446 45.2074 64.3029 45.2138 64.3743 45.2268V44.4559C63.7968 44.4559 63.3751 44.6373 63.1415 45.0001ZM68.1394 46.2438C68.1394 45.162 67.3997 44.4559 66.3874 44.4559C65.3558 44.4559 64.5965 45.1944 64.5965 46.2244C64.5965 47.2544 65.3493 47.9993 66.5107 47.9993C67.1077 47.9993 67.5944 47.805 67.9058 47.4357L67.471 46.9369C67.2245 47.1896 66.9195 47.3127 66.5302 47.3127C65.9268 47.3127 65.505 46.9888 65.4077 46.4835H68.1264C68.1329 46.4058 68.1394 46.3086 68.1394 46.2438ZM66.3874 45.1037C66.9195 45.1037 67.3024 45.447 67.3672 45.9458H65.4012C65.4791 45.4405 65.8619 45.1037 66.3874 45.1037ZM73.955 44.1256V43.4195H70.6393V47.9539H71.4828V46.2179H73.676V45.5054H71.4828V44.1256H73.955ZM76.9934 44.4948V46.2438C76.9934 46.9369 76.6106 47.2867 76.046 47.2867C75.5335 47.2867 75.2349 46.9888 75.2349 46.3604V44.4948H74.4239V46.4705C74.4239 47.5134 75.0273 47.9993 75.9163 47.9993C76.364 47.9993 76.7729 47.8309 77.0324 47.5134V47.9539H77.8045V44.4948H76.9934ZM80.6871 44.4559C80.1811 44.4559 79.7592 44.6243 79.4932 44.9418V44.4948H78.7211V47.9539H79.5321V46.2049C79.5321 45.5118 79.9214 45.162 80.499 45.162C81.0181 45.162 81.323 45.46 81.323 46.0753V47.9539H82.1341V45.9717C82.1341 44.9288 81.5177 44.4559 80.6871 44.4559Z" fill="#101828"/>
    <path fill-rule="evenodd" clip-rule="evenodd" d="M48.5992 29.3477C49.3007 29.3477 49.8693 29.9153 49.8693 30.6156C49.8693 31.3159 49.3007 31.8836 48.5992 31.8836C47.8977 31.8836 47.3291 31.3159 47.3291 30.6156C47.3291 29.9153 47.8977 29.3477 48.5992 29.3477Z" fill="#D92D20"/>
    <path fill-rule="evenodd" clip-rule="evenodd" d="M48.5992 36.9238C49.3007 36.9238 49.8693 37.4915 49.8693 38.1918C49.8693 38.8921 49.3007 39.4597 48.5992 39.4597C47.8977 39.4597 47.3291 38.8921 47.3291 38.1918C47.3291 37.4915 47.8977 36.9238 48.5992 36.9238Z" fill="#D92D20"/>
    <path fill-rule="evenodd" clip-rule="evenodd" d="M48.5992 44.5C49.3007 44.5 49.8693 45.0677 49.8693 45.7679C49.8693 46.4682 49.3007 47.0359 48.5992 47.0359C47.8977 47.0359 47.3291 46.4682 47.3291 45.7679C47.3291 45.0677 47.8977 44.5 48.5992 44.5Z" fill="#D92D20"/>
</svg>
