<svg width="183" height="75" viewBox="0 0 183 75" fill="none" xmlns="http://www.w3.org/2000/svg">
<path fill-rule="evenodd" clip-rule="evenodd" d="M47.0181 30.1407C51.2875 31.2825 54.6224 34.6116 55.766 38.874C56.9097 43.1363 55.6881 47.6839 52.5619 50.8034L34.9595 68.3768C33.9386 69.3209 32.5013 69.6929 31.1387 69.3473C29.6734 68.9753 28.5285 67.8322 28.1563 66.3692C27.7837 64.906 28.2427 63.3566 29.3526 62.3311C29.285 62.3365 46.911 44.7405 46.9392 44.7581C47.8256 43.7314 48.153 42.3276 47.7981 41.006C47.417 39.5854 46.3056 38.4757 44.8829 38.0953C43.4598 37.7148 41.9415 38.1205 40.9 39.1604C27.2938 52.7437 20.4909 59.5353 20.4909 59.5353C14.6498 53.7041 11.7296 50.7887 11.7296 50.7887C8.60815 47.6641 7.39427 43.1143 8.54524 38.8538C9.69582 34.5933 13.0366 31.2693 17.3082 30.1349C20.6971 29.235 24.2631 29.8217 27.1499 31.6637C27.937 32.1837 28.5072 32.9468 28.792 33.8137L23.5864 39.0057C25.3747 39.5941 27.3953 38.8945 28.4067 37.216C29.0489 36.1499 29.1507 34.9101 28.792 33.8137L23.5866 39.0053C22.0067 38.4869 21.4984 37.5497 19.4401 38.0906C18.0156 38.4657 16.8995 39.5704 16.5126 40.9895C16.1253 42.4084 16.5259 43.9261 17.5634 44.9699C17.5634 44.9699 18.539 45.9441 20.4909 47.8925C20.4909 47.8925 25.35 43.0417 35.0685 33.3394C38.1933 30.2185 42.7486 28.9989 47.0181 30.1407ZM32.1068 1.92214C37.6429 1.92214 42.1724 6.44398 42.1724 11.9709C42.1724 12.4237 42.5403 12.791 42.994 12.791C43.4477 12.791 43.8156 12.4237 43.8156 11.9709C43.8156 5.54158 38.5467 0.281738 32.1069 0.281738C25.6669 0.281738 20.398 5.54158 20.398 11.9709C20.398 12.4237 20.766 12.791 21.2196 12.791C21.6733 12.791 22.0412 12.4237 22.0412 11.9709C22.0412 6.44398 26.5707 1.92214 32.1068 1.92214ZM2.46807 74.5634H61.8357C62.4892 74.5636 63.1161 74.3042 63.5785 73.8427C64.0408 73.3813 64.3005 72.7553 64.3003 72.1026L64.3058 72.1048L61.8355 17.3156C61.6177 16.21 60.6585 15.3702 59.4962 15.3336L40.8454 15.3331C39.5215 15.3281 39.5253 15.3315 37.1436 17.7576L32.1526 22.6703L27.1619 17.7576C24.7835 15.3355 24.784 15.3281 23.4666 15.3331L4.92059 15.3336C4.26717 15.3336 3.64004 15.5927 3.17774 16.0542C2.71544 16.5156 2.45597 17.1415 2.45597 17.7941L2.44899 17.7886L0 72.1048L0.00328482 72.1026C0.00280401 72.7554 0.26236 73.3817 0.724657 73.8433C1.18711 74.3048 1.81433 74.5639 2.46807 74.5634ZM43.8156 20.4909C46.0927 20.4909 47.9387 22.3339 47.9387 24.6073C47.9387 26.8805 46.0927 28.7233 43.8156 28.7233C41.5384 28.7233 39.6924 26.8805 39.6924 24.6073C39.6924 22.3339 41.5384 20.4909 43.8156 20.4909ZM20.4909 20.4911C22.7679 20.4911 24.6139 22.3339 24.6139 24.6075C24.6139 26.8807 22.7679 28.7236 20.4909 28.7236C18.2136 28.7236 16.3674 26.8807 16.3674 24.6075C16.3674 22.3339 18.2136 20.4911 20.4909 20.4911Z" fill="#F40009"/>
<path fill-rule="evenodd" clip-rule="evenodd" d="M80.1638 32.8417C85.2287 32.8417 88.1544 30.6119 88.1544 27.4712C88.1544 20.813 77.9301 23.6081 77.9301 20.7187C77.9301 19.8395 78.8739 19.1485 81.076 19.1485C82.3266 19.1485 83.6599 19.3551 85.0089 19.9363L85.0097 19.9366L85.0922 19.9726C86.2961 20.4664 87.7923 19.5871 87.7923 18.2012C87.7923 17.4287 87.3344 16.7511 86.6406 16.4531C85.0689 15.8026 82.9877 15.4425 81.076 15.4425C76.1369 15.4425 73.2427 17.7038 73.2427 20.9073C73.2427 27.6596 83.467 24.8278 83.467 27.5967C83.467 28.539 82.6176 29.1357 80.3525 29.1357C78.9798 29.1357 77.5108 28.8473 76.2364 28.3706L76.2365 28.3707L76.2344 28.3698C76.1565 28.3407 76.0793 28.3108 76.0028 28.2803C74.8268 27.9164 73.4376 28.8007 73.4376 30.1294C73.4376 30.9035 73.8973 31.5823 74.5937 31.8795H74.5935C76.1609 32.4608 78.1699 32.8417 80.1638 32.8417ZM131.626 16.8695C130.478 14.1064 126.237 15.7287 127.294 18.5689L132.284 30.4267L132.431 30.7769C132.727 31.4301 133.217 31.9765 133.827 32.3427C134.936 33.0071 136.322 33.0071 137.431 32.3427C137.982 32.0117 138.435 31.5333 138.736 30.9619L143.951 18.5689C145.008 15.7287 140.767 14.1064 139.619 16.8695L135.623 26.3413L131.626 16.8695ZM173.243 32.8417C178.623 32.8417 182.524 29.2299 182.524 24.1421C182.524 19.0543 178.623 15.4425 173.243 15.4425C167.864 15.4425 163.931 19.0543 163.931 24.1421C163.931 29.2299 167.864 32.8417 173.243 32.8417ZM173.243 28.8216C170.789 28.8216 168.902 27.0629 168.902 24.1421C168.902 21.2213 170.789 19.4626 173.243 19.4626C175.697 19.4626 177.553 21.2213 177.553 24.1421C177.553 27.0629 175.697 28.8216 173.243 28.8216ZM157.599 17.892V23.0115C157.599 26.1206 155.963 27.5654 153.698 27.5654C151.528 27.5654 150.269 26.3091 150.269 23.4511V17.8922C150.269 16.5393 149.171 15.4425 147.815 15.4425C146.46 15.4425 145.362 16.5393 145.362 17.8922V24.1735C145.362 29.4183 148.35 31.7739 152.597 31.7739C154.548 31.7739 156.309 31.1143 157.599 29.8266V30.392C157.599 33.4384 156.183 34.9772 152.88 34.9772C151.37 34.9772 149.811 34.6064 148.528 33.9687L148.528 33.9688C147.457 33.6347 146.545 34.1713 146.12 34.9671C145.697 35.7606 145.759 36.8119 146.632 37.514C148.484 38.456 150.858 38.9345 153.289 38.9345C159.204 38.9345 162.507 36.0451 162.507 29.7639V17.8922C162.507 16.5393 161.408 15.4425 160.053 15.4425C158.698 15.4425 157.599 16.5393 157.599 17.8922L157.599 17.892ZM113.466 16.8695C112.318 14.1064 108.077 15.7287 109.134 18.5689L114.124 30.4267L114.271 30.7769C114.567 31.4301 115.057 31.9765 115.667 32.3427C116.776 33.0071 118.162 33.0071 119.271 32.3427C119.822 32.0117 120.275 31.5333 120.576 30.9619L125.791 18.5689C126.848 15.7287 122.607 14.1064 121.459 16.8695L117.463 26.3413L113.466 16.8695ZM102.785 17.1827V17.4839C101.558 16.1021 99.7965 15.4425 97.7202 15.4425C92.9384 15.4425 89.2577 18.8344 89.2577 24.1421C89.2577 29.4498 92.9384 32.8417 97.7202 32.8417C99.9853 32.8417 101.779 32.1193 103.005 30.6431V31.0939L103.006 31.0936C103.767 33.4173 106.92 33.4271 107.693 31.107V17.1827C106.893 14.8628 103.585 14.8628 102.785 17.1827ZM98.5696 28.8216C96.1158 28.8216 94.2283 27.0629 94.2283 24.1421C94.2283 21.2213 96.1158 19.4626 98.5696 19.4626C100.992 19.4626 102.88 21.2213 102.88 24.1421C102.88 27.0629 100.992 28.8216 98.5696 28.8216Z" fill="#D2D2D2"/>
<path d="M88.7255 50.6784L88.7154 43.6612H87.6411L84.898 48.3126L82.1032 43.6612H81.0287V50.6784H82.2739V46.0871L84.5851 49.8765H85.1691L87.4803 46.0271L87.4903 50.6784H88.7255ZM92.6795 50.7486C94.3463 50.7486 95.5412 49.6059 95.5412 48.0019C95.5412 46.3979 94.3463 45.2651 92.6795 45.2651C91.0326 45.2651 89.8276 46.3979 89.8276 48.0019C89.8276 49.6059 91.0326 50.7486 92.6795 50.7486ZM92.6795 49.6759C91.7757 49.6759 91.0929 49.0243 91.0929 48.0019C91.0929 46.9793 91.7757 46.3278 92.6795 46.3278C93.5932 46.3278 94.276 46.9793 94.276 48.0019C94.276 49.0243 93.5932 49.6759 92.6795 49.6759ZM97.7129 46.1072V45.3252H96.5179V50.6784H97.7731V48.082C97.7731 46.9894 98.3756 46.428 99.3295 46.428C99.42 46.428 99.5102 46.4379 99.6208 46.458V45.2651C98.7271 45.2651 98.0744 45.5458 97.7129 46.1072ZM105.447 48.0319C105.447 46.3578 104.303 45.2651 102.736 45.2651C101.14 45.2651 99.9647 46.4079 99.9647 48.0019C99.9647 49.5957 101.13 50.7486 102.927 50.7486C103.851 50.7486 104.604 50.4479 105.086 49.8765L104.413 49.1045C104.032 49.4955 103.56 49.686 102.957 49.686C102.023 49.686 101.37 49.1848 101.22 48.4028H105.427C105.437 48.2825 105.447 48.1322 105.447 48.0319ZM102.736 46.2675C103.56 46.2675 104.152 46.7989 104.252 47.5707H101.21C101.33 46.7888 101.923 46.2675 102.736 46.2675ZM111.495 50.7787C113.423 50.7787 114.337 49.8163 114.337 48.6919C114.337 46.1189 110.17 47.0913 110.17 45.5976C110.17 45.0647 110.611 44.6436 111.696 44.6436C112.308 44.6436 113.001 44.824 113.634 45.195L114.045 44.1825C113.433 43.7815 112.549 43.561 111.706 43.561C109.778 43.561 108.874 44.5233 108.874 45.6578C108.874 48.2608 113.051 47.27 113.051 48.7837C113.051 49.305 112.59 49.6959 111.495 49.6959C110.631 49.6959 109.738 49.3752 109.175 48.9241L108.724 49.9366C109.306 50.4378 110.4 50.7787 111.495 50.7787ZM117.332 45.2651C116.468 45.2651 115.635 45.4857 115.062 45.9268L115.554 46.8391C115.956 46.5082 116.579 46.3077 117.181 46.3077C118.075 46.3077 118.517 46.7387 118.517 47.4705V47.5507H117.131C115.504 47.5507 114.902 48.2525 114.902 49.1447C114.902 50.077 115.675 50.7486 116.9 50.7486C117.703 50.7486 118.286 50.4879 118.587 50.0269V50.6784H119.772V47.5407C119.772 45.9969 118.878 45.2651 117.332 45.2651ZM117.161 49.8363C116.518 49.8363 116.137 49.5456 116.137 49.0946C116.137 48.7035 116.368 48.3827 117.221 48.3827H118.517V49.0043C118.306 49.5557 117.773 49.8363 117.161 49.8363ZM124.865 45.3252L123.148 49.2951L121.481 45.3252H120.176L122.475 50.6784H123.771L126.07 45.3252H124.865ZM127.258 44.4431C127.73 44.4431 128.061 44.1023 128.061 43.6612C128.061 43.2502 127.72 42.9395 127.258 42.9395C126.796 42.9395 126.454 43.2703 126.454 43.6912C126.454 44.1123 126.796 44.4431 127.258 44.4431ZM126.625 50.6784H127.88V45.3252H126.625V50.6784ZM132.341 45.2651C131.558 45.2651 130.905 45.5257 130.494 46.017V45.3252H129.299V50.6784H130.554V47.9717C130.554 46.8991 131.156 46.3578 132.05 46.3578C132.854 46.3578 133.325 46.819 133.325 47.7712V50.6784H134.581V47.6109C134.581 45.9969 133.627 45.2651 132.341 45.2651ZM140.126 45.3252V46.037C139.684 45.5058 139.022 45.2651 138.268 45.2651C136.732 45.2651 135.557 46.2876 135.557 47.8415C135.557 49.3953 136.732 50.4378 138.268 50.4378C138.991 50.4378 139.624 50.2073 140.066 49.726V50.0068C140.066 51.0895 139.544 51.6308 138.359 51.6308C137.616 51.6308 136.853 51.3801 136.381 50.9892L135.818 51.9315C136.431 52.4327 137.425 52.6934 138.429 52.6934C140.307 52.6934 141.321 51.8112 141.321 49.8664V45.3252H140.126ZM138.459 49.3752C137.505 49.3752 136.823 48.7537 136.823 47.8415C136.823 46.9393 137.505 46.3278 138.459 46.3278C139.403 46.3278 140.086 46.9393 140.086 47.8415C140.086 48.7537 139.403 49.3752 138.459 49.3752ZM82.4546 62.5857H83.76V56.6711H86.0897V55.5684H80.125V56.6711H82.4546V62.5857ZM88.5825 62.6559C90.2494 62.6559 91.4443 61.5131 91.4443 59.9091C91.4443 58.3052 90.2494 57.1724 88.5825 57.1724C86.9356 57.1724 85.7307 58.3052 85.7307 59.9091C85.7307 61.5131 86.9356 62.6559 88.5825 62.6559ZM88.5825 61.5831C87.6787 61.5831 86.996 60.9316 86.996 59.9091C86.996 58.8866 87.6787 58.235 88.5825 58.235C89.4963 58.235 90.179 58.8866 90.179 59.9091C90.179 60.9316 89.4963 61.5831 88.5825 61.5831ZM96.548 57.2325V57.9443C96.1062 57.413 95.4434 57.1724 94.6904 57.1724C93.154 57.1724 91.9791 58.1948 91.9791 59.7487C91.9791 61.3025 93.154 62.3451 94.6904 62.3451C95.4133 62.3451 96.0459 62.1145 96.4878 61.6333V61.914C96.4878 62.9967 95.9656 63.538 94.7807 63.538C94.0377 63.538 93.2745 63.2873 92.8025 62.8965L92.2402 63.8387C92.8528 64.3399 93.8469 64.6007 94.851 64.6007C96.7287 64.6007 97.7429 63.7184 97.7429 61.7736V57.2325H96.548ZM94.8812 61.2824C93.9272 61.2824 93.2444 60.6609 93.2444 59.7487C93.2444 58.8465 93.9272 58.235 94.8812 58.235C95.825 58.235 96.5079 58.8465 96.5079 59.7487C96.5079 60.6609 95.825 61.2824 94.8812 61.2824ZM104.202 59.9392C104.202 58.2651 103.058 57.1724 101.491 57.1724C99.8945 57.1724 98.7195 58.3151 98.7195 59.9091C98.7195 61.503 99.8845 62.6559 101.682 62.6559C102.606 62.6559 103.359 62.3551 103.841 61.7838L103.168 61.0118C102.786 61.4027 102.314 61.5932 101.712 61.5932C100.778 61.5932 100.125 61.092 99.9748 60.3101H104.182C104.192 60.1898 104.202 60.0395 104.202 59.9392ZM101.491 58.1748C102.314 58.1748 102.907 58.7062 103.007 59.478H99.9647C100.085 58.696 100.678 58.1748 101.491 58.1748ZM108.051 61.4027C107.86 61.5531 107.609 61.6233 107.348 61.6233C106.866 61.6233 106.605 61.3427 106.605 60.8214V58.2751H108.041V57.2727H106.605V56.0495H105.35V57.2727H104.466V58.2751H105.35V60.8515C105.35 62.0343 106.022 62.6559 107.197 62.6559C107.649 62.6559 108.101 62.5355 108.402 62.2949L108.051 61.4027ZM112.251 57.1724C111.508 57.1724 110.875 57.413 110.463 57.854V55.1474H109.208V62.5857H110.463V59.879C110.463 58.8064 111.066 58.2651 111.96 58.2651C112.763 58.2651 113.235 58.7262 113.235 59.6785V62.5857H114.49V59.5182C114.49 57.9041 113.536 57.1724 112.251 57.1724ZM120.949 59.9392C120.949 58.2651 119.805 57.1724 118.238 57.1724C116.641 57.1724 115.467 58.3151 115.467 59.9091C115.467 61.503 116.631 62.6559 118.429 62.6559C119.353 62.6559 120.106 62.3551 120.588 61.7838L119.915 61.0118C119.533 61.4027 119.061 61.5932 118.459 61.5932C117.525 61.5932 116.872 61.092 116.722 60.3101H120.929C120.939 60.1898 120.949 60.0395 120.949 59.9392ZM118.238 58.1748C119.061 58.1748 119.654 58.7062 119.754 59.478H116.712C116.832 58.696 117.425 58.1748 118.238 58.1748ZM123.121 58.0144V57.2325H121.926V62.5857H123.181V59.9893C123.181 58.8967 123.784 58.3352 124.738 58.3352C124.828 58.3352 124.918 58.3452 125.029 58.3653V57.1724C124.135 57.1724 123.482 57.4531 123.121 58.0144ZM88.7255 74.4929L88.7154 67.4757H87.6411L84.898 72.1271L82.1032 67.4757H81.0287V74.4929H82.2739V69.9016L84.5851 73.691H85.1691L87.4803 69.8415L87.4903 74.4929H88.7255ZM92.6795 74.5631C94.3463 74.5631 95.5412 73.4203 95.5412 71.8163C95.5412 70.2124 94.3463 69.0796 92.6795 69.0796C91.0326 69.0796 89.8276 70.2124 89.8276 71.8163C89.8276 73.4203 91.0326 74.5631 92.6795 74.5631ZM92.6795 73.4904C91.7757 73.4904 91.0929 72.8388 91.0929 71.8163C91.0929 70.7938 91.7757 70.1423 92.6795 70.1423C93.5932 70.1423 94.276 70.7938 94.276 71.8163C94.276 72.8388 93.5932 73.4904 92.6795 73.4904ZM97.7129 69.9217V69.1397H96.5179V74.4929H97.7731V71.8966C97.7731 70.8039 98.3756 70.2425 99.3295 70.2425C99.42 70.2425 99.5102 70.2525 99.6208 70.2725V69.0796C98.7271 69.0796 98.0744 69.3603 97.7129 69.9217ZM105.447 71.8464C105.447 70.1723 104.303 69.0796 102.736 69.0796C101.14 69.0796 99.9647 70.2224 99.9647 71.8163C99.9647 73.4103 101.13 74.5631 102.927 74.5631C103.851 74.5631 104.604 74.2624 105.086 73.691L104.413 72.919C104.032 73.31 103.56 73.5005 102.957 73.5005C102.023 73.5005 101.37 72.9993 101.22 72.2173H105.427C105.437 72.0971 105.447 71.9467 105.447 71.8464ZM102.736 70.082C103.56 70.082 104.152 70.6134 104.252 71.3852H101.21C101.33 70.6033 101.923 70.082 102.736 70.082ZM114.447 68.5683V67.4757H109.316V74.4929H110.621V71.8063H114.015V70.7036H110.621V68.5683H114.447ZM119.149 69.1397V71.8464C119.149 72.919 118.557 73.4603 117.683 73.4603C116.89 73.4603 116.428 72.9993 116.428 72.0268V69.1397H115.173V72.1973C115.173 73.8112 116.107 74.5631 117.482 74.5631C118.175 74.5631 118.808 74.3024 119.21 73.8112V74.4929H120.404V69.1397H119.149ZM124.865 69.0796C124.082 69.0796 123.429 69.3402 123.018 69.8315V69.1397H121.823V74.4929H123.078V71.7862C123.078 70.7136 123.68 70.1723 124.574 70.1723C125.378 70.1723 125.849 70.6335 125.849 71.5857V74.4929H127.105V71.4254C127.105 69.8114 126.151 69.0796 124.865 69.0796Z" fill="#D2D2D2"/>
<path fill-rule="evenodd" clip-rule="evenodd" d="M75.2085 45.6987C76.294 45.6987 77.1739 46.5772 77.1739 47.6609C77.1739 48.7447 76.294 49.6231 75.2085 49.6231C74.1229 49.6231 73.2429 48.7447 73.2429 47.6609C73.2429 46.5772 74.1229 45.6987 75.2085 45.6987Z" fill="#F40009"/>
<path fill-rule="evenodd" clip-rule="evenodd" d="M75.2085 57.423C76.294 57.423 77.1739 58.3015 77.1739 59.3852C77.1739 60.4689 76.294 61.3474 75.2085 61.3474C74.1229 61.3474 73.2429 60.4689 73.2429 59.3852C73.2429 58.3015 74.1229 57.423 75.2085 57.423Z" fill="#F40009"/>
<path fill-rule="evenodd" clip-rule="evenodd" d="M75.2085 69.1473C76.294 69.1473 77.1739 70.0258 77.1739 71.1095C77.1739 72.1933 76.294 73.0717 75.2085 73.0717C74.1229 73.0717 73.2429 72.1933 73.2429 71.1095C73.2429 70.0258 74.1229 69.1473 75.2085 69.1473Z" fill="#F40009"/>
</svg>
