<svg width="183" height="75" viewBox="0 0 183 75" fill="none" xmlns="http://www.w3.org/2000/svg">
    <path fill-rule="evenodd" clip-rule="evenodd" d="M47.2563 29.859C51.5258 31.0007 54.8606 34.3298 56.0043 38.5922C57.148 42.8546 55.9264 47.4022 52.8002 50.5217L35.1978 68.095C34.1769 69.0391 32.7396 69.4111 31.377 69.0655C29.9117 68.6935 28.7668 67.5505 28.3946 66.0874C28.0219 64.6242 28.4809 63.0749 29.5909 62.0494C29.5233 62.0547 47.1493 44.4587 47.1775 44.4764C48.0639 43.4497 48.3913 42.0458 48.0364 40.7242C47.6552 39.3037 46.5439 38.194 45.1212 37.8135C43.698 37.433 42.1798 37.8388 41.1383 38.8786C27.5321 52.462 20.7292 59.2535 20.7292 59.2535C14.8881 53.4224 11.9679 50.507 11.9679 50.507C8.84643 47.3823 7.63255 42.8326 8.78352 38.5721C9.9341 34.3116 13.2749 30.9875 17.5465 29.8531C20.9354 28.9533 24.5014 29.5399 27.3882 31.3819C28.1753 31.9019 28.7455 32.665 29.0303 33.5319L23.8246 38.7239C25.613 39.3123 27.6336 38.6128 28.645 36.9342C29.2872 35.8682 29.389 34.6283 29.0303 33.5319L23.8249 38.7236C22.245 38.2052 21.7367 37.268 19.6784 37.8089C18.2539 38.1839 17.1378 39.2886 16.7508 40.7078C16.3635 42.1266 16.7641 43.6443 17.8016 44.6882C17.8016 44.6882 18.7773 45.6624 20.7292 47.6108C20.7292 47.6108 25.5882 42.7599 35.3068 33.0577C38.4316 29.9368 42.9868 28.7172 47.2563 29.859ZM32.3451 1.6404C37.8812 1.6404 42.4107 6.16224 42.4107 11.6891C42.4107 12.142 42.7786 12.5093 43.2323 12.5093C43.6859 12.5093 44.0538 12.142 44.0538 11.6891C44.0538 5.25984 38.785 0 32.3452 0C25.9052 0 20.6363 5.25984 20.6363 11.6891C20.6363 12.142 21.0043 12.5093 21.4579 12.5093C21.9116 12.5093 22.2795 12.142 22.2795 11.6891C22.2795 6.16224 26.8089 1.6404 32.3451 1.6404ZM2.70635 74.2817H62.074C62.7275 74.2818 63.3544 74.0225 63.8168 73.561C64.2791 73.0995 64.5388 72.4735 64.5386 71.8209L64.5441 71.823L62.0738 17.0338C61.856 15.9282 60.8968 15.0885 59.7345 15.0518L41.0837 15.0514C39.7597 15.0464 39.7636 15.0498 37.3819 17.4758L32.3909 22.3886L27.4002 17.4758C25.0218 15.0538 25.0223 15.0464 23.7048 15.0514L5.15887 15.0518C4.50545 15.0518 3.87832 15.311 3.41602 15.7725C2.95373 16.2338 2.69425 16.8598 2.69425 17.5124L2.68728 17.5069L0.238281 71.823L0.241566 71.8209C0.241085 72.4737 0.500642 73.0999 0.962939 73.5615C1.4254 74.023 2.05261 74.2822 2.70635 74.2817ZM44.0538 20.2092C46.331 20.2092 48.177 22.0522 48.177 24.3255C48.177 26.5987 46.331 28.4416 44.0538 28.4416C41.7767 28.4416 39.9307 26.5987 39.9307 24.3255C39.9307 22.0522 41.7767 20.2092 44.0538 20.2092ZM20.7292 20.2094C23.0062 20.2094 24.8522 22.0522 24.8522 24.3258C24.8522 26.599 23.0062 28.4418 20.7292 28.4418C18.4519 28.4418 16.6057 26.599 16.6057 24.3258C16.6057 22.0522 18.4519 20.2094 20.7292 20.2094Z" fill="#F40009"/>
    <path fill-rule="evenodd" clip-rule="evenodd" d="M80.402 32.56C85.4669 32.56 88.3927 30.3301 88.3927 27.1895C88.3927 20.5312 78.1684 23.3264 78.1684 20.437C78.1684 19.5577 79.1122 18.8668 81.3143 18.8668C82.5649 18.8668 83.8982 19.0734 85.2471 19.6545L85.2479 19.6548L85.3305 19.6908C86.5343 20.1847 88.0305 19.3053 88.0305 17.9195C88.0305 17.1469 87.5727 16.4693 86.8788 16.1713C85.3072 15.5208 83.226 15.1608 81.3143 15.1608C76.3752 15.1608 73.481 17.422 73.481 20.6256C73.481 27.3779 83.7053 24.546 83.7053 27.315C83.7053 28.2572 82.8558 28.854 80.5908 28.854C79.218 28.854 77.7491 28.5656 76.4747 28.0888L76.4748 28.089L76.4727 28.088C76.3948 28.0589 76.3176 28.0291 76.2411 27.9985C75.0651 27.6347 73.6759 28.5189 73.6759 29.8476C73.6759 30.6218 74.1356 31.3006 74.8319 31.5977H74.8318C76.3991 32.1791 78.4082 32.56 80.402 32.56ZM131.864 16.5877C130.716 13.8247 126.476 15.447 127.533 18.2872L132.522 30.1449L132.669 30.4952C132.966 31.1484 133.455 31.6948 134.065 32.061C135.174 32.7254 136.56 32.7254 137.669 32.061C138.22 31.73 138.674 31.2516 138.974 30.6801L144.189 18.2872C145.246 15.447 141.006 13.8247 139.858 16.5877L135.861 26.0596L131.864 16.5877ZM173.482 32.56C178.861 32.56 182.762 28.9482 182.762 23.8604C182.762 18.7725 178.861 15.1608 173.482 15.1608C168.102 15.1608 164.17 18.7725 164.17 23.8604C164.17 28.9482 168.102 32.56 173.482 32.56ZM173.482 28.5399C171.028 28.5399 169.14 26.7812 169.14 23.8604C169.14 20.9396 171.028 19.1808 173.482 19.1808C175.935 19.1808 177.791 20.9396 177.791 23.8604C177.791 26.7812 175.935 28.5399 173.482 28.5399ZM157.837 17.6103V22.7297C157.837 25.8388 156.202 27.2836 153.937 27.2836C151.766 27.2836 150.507 26.0273 150.507 23.1694V17.6104C150.507 16.2576 149.409 15.1608 148.054 15.1608C146.698 15.1608 145.6 16.2576 145.6 17.6104V23.8918C145.6 29.1365 148.588 31.4921 152.835 31.4921C154.786 31.4921 156.548 30.8325 157.837 29.5448V30.1103C157.837 33.1567 156.422 34.6955 153.119 34.6955C151.608 34.6955 150.05 34.3247 148.767 33.687L148.767 33.6871C147.695 33.3529 146.783 33.8896 146.359 34.6853C145.935 35.4788 145.997 36.5302 146.87 37.2323C148.722 38.1743 151.096 38.6528 153.527 38.6528C159.442 38.6528 162.745 35.7633 162.745 29.4821V17.6104C162.745 16.2576 161.646 15.1608 160.291 15.1608C158.936 15.1608 157.837 16.2576 157.837 17.6104L157.837 17.6103ZM113.704 16.5877C112.556 13.8247 108.316 15.447 109.373 18.2872L114.362 30.1449L114.509 30.4952C114.806 31.1484 115.295 31.6948 115.905 32.061C117.014 32.7254 118.4 32.7254 119.509 32.061C120.06 31.73 120.514 31.2516 120.814 30.6801L126.029 18.2872C127.086 15.447 122.846 13.8247 121.698 16.5877L117.701 26.0596L113.704 16.5877ZM103.023 16.9009V17.2022C101.797 15.8204 100.035 15.1608 97.9585 15.1608C93.1767 15.1608 89.496 18.5527 89.496 23.8604C89.496 29.168 93.1767 32.56 97.9585 32.56C100.224 32.56 102.017 31.8376 103.244 30.3614V30.8122L103.244 30.8119C104.005 33.1356 107.158 33.1454 107.931 30.8252V16.9009C107.131 14.5811 103.823 14.5811 103.023 16.9009ZM98.8079 28.5399C96.3541 28.5399 94.4665 26.7812 94.4665 23.8604C94.4665 20.9396 96.3541 19.1808 98.8079 19.1808C101.23 19.1808 103.118 20.9396 103.118 23.8604C103.118 26.7812 101.23 28.5399 98.8079 28.5399Z" fill="#101828"/>
    <path d="M88.9632 50.3967L88.9532 43.3795H87.8789L85.1358 48.0308L82.341 43.3795H81.2665V50.3967H82.5117V45.8054L84.8229 49.5948H85.4069L87.7181 45.7453L87.7281 50.3967H88.9632ZM92.9173 50.4668C94.5841 50.4668 95.779 49.3241 95.779 47.7201C95.779 46.1162 94.5841 44.9834 92.9173 44.9834C91.2704 44.9834 90.0654 46.1162 90.0654 47.7201C90.0654 49.3241 91.2704 50.4668 92.9173 50.4668ZM92.9173 49.3942C92.0135 49.3942 91.3307 48.7426 91.3307 47.7201C91.3307 46.6976 92.0135 46.046 92.9173 46.046C93.831 46.046 94.5138 46.6976 94.5138 47.7201C94.5138 48.7426 93.831 49.3942 92.9173 49.3942ZM97.9507 45.8255V45.0435H96.7557V50.3967H98.0109V47.8003C98.0109 46.7076 98.6134 46.1463 99.5673 46.1463C99.6578 46.1463 99.748 46.1562 99.8586 46.1763V44.9834C98.9649 44.9834 98.3122 45.264 97.9507 45.8255ZM105.685 47.7502C105.685 46.076 104.54 44.9834 102.974 44.9834C101.377 44.9834 100.202 46.1262 100.202 47.7201C100.202 49.314 101.367 50.4668 103.165 50.4668C104.089 50.4668 104.842 50.1661 105.324 49.5948L104.651 48.8228C104.269 49.2137 103.797 49.4043 103.195 49.4043C102.261 49.4043 101.608 48.9031 101.458 48.1211H105.665C105.675 48.0008 105.685 47.8504 105.685 47.7502ZM102.974 45.9858C103.797 45.9858 104.39 46.5172 104.49 47.289H101.448C101.568 46.5071 102.161 45.9858 102.974 45.9858ZM111.733 50.4969C113.661 50.4969 114.575 49.5345 114.575 48.4101C114.575 45.8372 110.407 46.8096 110.407 45.3159C110.407 44.7829 110.849 44.3619 111.934 44.3619C112.546 44.3619 113.239 44.5423 113.872 44.9132L114.283 43.9008C113.671 43.4998 112.787 43.2792 111.944 43.2792C110.016 43.2792 109.112 44.2416 109.112 45.376C109.112 47.9791 113.289 46.9883 113.289 48.502C113.289 49.0232 112.827 49.4142 111.733 49.4142C110.869 49.4142 109.976 49.0935 109.413 48.6424L108.961 49.6548C109.544 50.156 110.638 50.4969 111.733 50.4969ZM117.569 44.9834C116.706 44.9834 115.872 45.204 115.3 45.6451L115.792 46.5573C116.194 46.2264 116.816 46.026 117.419 46.026C118.312 46.026 118.754 46.4569 118.754 47.1888V47.2689H117.369C115.742 47.2689 115.139 47.9708 115.139 48.8629C115.139 49.7952 115.913 50.4668 117.138 50.4668C117.941 50.4668 118.523 50.2062 118.825 49.7452V50.3967H120.01V47.259C120.01 45.7152 119.116 44.9834 117.569 44.9834ZM117.399 49.5546C116.756 49.5546 116.375 49.2639 116.375 48.8128C116.375 48.4218 116.605 48.101 117.459 48.101H118.754V48.7225C118.543 49.274 118.011 49.5546 117.399 49.5546ZM125.103 45.0435L123.386 49.0133L121.719 45.0435H120.414L122.713 50.3967H124.009L126.308 45.0435H125.103ZM127.496 44.1613C127.968 44.1613 128.299 43.8205 128.299 43.3795C128.299 42.9684 127.958 42.6577 127.496 42.6577C127.034 42.6577 126.692 42.9885 126.692 43.4095C126.692 43.8305 127.034 44.1613 127.496 44.1613ZM126.863 50.3967H128.118V45.0435H126.863V50.3967ZM132.579 44.9834C131.796 44.9834 131.143 45.244 130.732 45.7352V45.0435H129.537V50.3967H130.792V47.69C130.792 46.6174 131.394 46.076 132.288 46.076C133.091 46.076 133.563 46.5372 133.563 47.4895V50.3967H134.818V47.3292C134.818 45.7152 133.864 44.9834 132.579 44.9834ZM140.364 45.0435V45.7552C139.922 45.224 139.259 44.9834 138.506 44.9834C136.97 44.9834 135.795 46.0059 135.795 47.5597C135.795 49.1136 136.97 50.156 138.506 50.156C139.229 50.156 139.862 49.9256 140.304 49.4443V49.7251C140.304 50.8077 139.782 51.3491 138.597 51.3491C137.854 51.3491 137.09 51.0984 136.618 50.7075L136.056 51.6498C136.669 52.151 137.663 52.4116 138.667 52.4116C140.545 52.4116 141.559 51.5295 141.559 49.5847V45.0435H140.364ZM138.697 49.0935C137.743 49.0935 137.06 48.472 137.06 47.5597C137.06 46.6576 137.743 46.046 138.697 46.046C139.641 46.046 140.324 46.6576 140.324 47.5597C140.324 48.472 139.641 49.0935 138.697 49.0935ZM82.6924 62.304H83.9978V56.3893H86.3275V55.2867H80.3628V56.3893H82.6924V62.304ZM88.8203 62.3741C90.4872 62.3741 91.6821 61.2313 91.6821 59.6274C91.6821 58.0235 90.4872 56.8907 88.8203 56.8907C87.1734 56.8907 85.9685 58.0235 85.9685 59.6274C85.9685 61.2313 87.1734 62.3741 88.8203 62.3741ZM88.8203 61.3014C87.9165 61.3014 87.2338 60.6499 87.2338 59.6274C87.2338 58.6048 87.9165 57.9532 88.8203 57.9532C89.7341 57.9532 90.4168 58.6048 90.4168 59.6274C90.4168 60.6499 89.7341 61.3014 88.8203 61.3014ZM96.7858 56.9508V57.6625C96.344 57.1312 95.6812 56.8907 94.9282 56.8907C93.3918 56.8907 92.2169 57.9131 92.2169 59.4669C92.2169 61.0208 93.3918 62.0633 94.9282 62.0633C95.6511 62.0633 96.2837 61.8328 96.7256 61.3516V61.6323C96.7256 62.715 96.2034 63.2563 95.0185 63.2563C94.2755 63.2563 93.5123 63.0056 93.0403 62.6148L92.478 63.557C93.0906 64.0582 94.0847 64.3189 95.0888 64.3189C96.9665 64.3189 97.9806 63.4367 97.9806 61.4919V56.9508H96.7858ZM95.119 61.0007C94.1649 61.0007 93.4822 60.3792 93.4822 59.4669C93.4822 58.5648 94.1649 57.9532 95.119 57.9532C96.0628 57.9532 96.7457 58.5648 96.7457 59.4669C96.7457 60.3792 96.0628 61.0007 95.119 61.0007ZM104.44 59.6575C104.44 57.9833 103.295 56.8907 101.729 56.8907C100.132 56.8907 98.9573 58.0334 98.9573 59.6274C98.9573 61.2212 100.122 62.3741 101.92 62.3741C102.844 62.3741 103.597 62.0734 104.078 61.502L103.406 60.73C103.024 61.121 102.552 61.3115 101.95 61.3115C101.016 61.3115 100.363 60.8103 100.213 60.0284H104.42C104.43 59.908 104.44 59.7577 104.44 59.6575ZM101.729 57.8931C102.552 57.8931 103.145 58.4244 103.245 59.1963H100.203C100.323 58.4143 100.915 57.8931 101.729 57.8931ZM108.289 61.121C108.098 61.2714 107.847 61.3416 107.586 61.3416C107.104 61.3416 106.843 61.0609 106.843 60.5396V57.9933H108.279V56.9909H106.843V55.7678H105.587V56.9909H104.704V57.9933H105.587V60.5697C105.587 61.7526 106.26 62.3741 107.435 62.3741C107.887 62.3741 108.339 62.2538 108.64 62.0132L108.289 61.121ZM112.488 56.8907C111.745 56.8907 111.113 57.1312 110.701 57.5723V54.8656H109.446V62.304H110.701V59.5972C110.701 58.5247 111.304 57.9833 112.197 57.9833C113.001 57.9833 113.473 58.4444 113.473 59.3968V62.304H114.728V59.2364C114.728 57.6224 113.774 56.8907 112.488 56.8907ZM121.187 59.6575C121.187 57.9833 120.042 56.8907 118.476 56.8907C116.879 56.8907 115.704 58.0334 115.704 59.6274C115.704 61.2212 116.869 62.3741 118.667 62.3741C119.59 62.3741 120.344 62.0734 120.826 61.502L120.153 60.73C119.771 61.121 119.299 61.3115 118.697 61.3115C117.763 61.3115 117.11 60.8103 116.96 60.0284H121.167C121.177 59.908 121.187 59.7577 121.187 59.6575ZM118.476 57.8931C119.299 57.8931 119.892 58.4244 119.992 59.1963H116.95C117.07 58.4143 117.663 57.8931 118.476 57.8931ZM123.359 57.7327V56.9508H122.164V62.304H123.419V59.7076C123.419 58.6149 124.021 58.0535 124.975 58.0535C125.066 58.0535 125.156 58.0635 125.267 58.0836V56.8907C124.373 56.8907 123.72 57.1713 123.359 57.7327ZM88.9632 74.2112L88.9532 67.194H87.8789L85.1358 71.8453L82.341 67.194H81.2665V74.2112H82.5117V69.6199L84.8229 73.4092H85.4069L87.7181 69.5598L87.7281 74.2112H88.9632ZM92.9173 74.2813C94.5841 74.2813 95.779 73.1386 95.779 71.5346C95.779 69.9307 94.5841 68.7979 92.9173 68.7979C91.2704 68.7979 90.0654 69.9307 90.0654 71.5346C90.0654 73.1386 91.2704 74.2813 92.9173 74.2813ZM92.9173 73.2087C92.0135 73.2087 91.3307 72.5571 91.3307 71.5346C91.3307 70.512 92.0135 69.8605 92.9173 69.8605C93.831 69.8605 94.5138 70.512 94.5138 71.5346C94.5138 72.5571 93.831 73.2087 92.9173 73.2087ZM97.9507 69.64V68.858H96.7557V74.2112H98.0109V71.6148C98.0109 70.5221 98.6134 69.9608 99.5673 69.9608C99.6578 69.9608 99.748 69.9708 99.8586 69.9908V68.7979C98.9649 68.7979 98.3122 69.0785 97.9507 69.64ZM105.685 71.5647C105.685 69.8905 104.54 68.7979 102.974 68.7979C101.377 68.7979 100.202 69.9407 100.202 71.5346C100.202 73.1285 101.367 74.2813 103.165 74.2813C104.089 74.2813 104.842 73.9807 105.324 73.4092L104.651 72.6372C104.269 73.0283 103.797 73.2188 103.195 73.2188C102.261 73.2188 101.608 72.7176 101.458 71.9356H105.665C105.675 71.8153 105.685 71.6649 105.685 71.5647ZM102.974 69.8003C103.797 69.8003 104.39 70.3316 104.49 71.1035H101.448C101.568 70.3216 102.161 69.8003 102.974 69.8003ZM114.685 68.2866V67.194H109.554V74.2112H110.859V71.5245H114.253V70.4219H110.859V68.2866H114.685ZM119.387 68.858V71.5647C119.387 72.6372 118.795 73.1786 117.921 73.1786C117.128 73.1786 116.666 72.7176 116.666 71.7451V68.858H115.411V71.9156C115.411 73.5295 116.344 74.2813 117.72 74.2813C118.413 74.2813 119.046 74.0207 119.447 73.5295V74.2112H120.642V68.858H119.387ZM125.103 68.7979C124.32 68.7979 123.667 69.0584 123.256 69.5497V68.858H122.061V74.2112H123.316V71.5044C123.316 70.4319 123.918 69.8905 124.812 69.8905C125.615 69.8905 126.087 70.3517 126.087 71.304V74.2112H127.342V71.1436C127.342 69.5296 126.388 68.7979 125.103 68.7979Z" fill="#101828"/>
    <path fill-rule="evenodd" clip-rule="evenodd" d="M75.4465 45.417C76.532 45.417 77.412 46.2955 77.412 47.3792C77.412 48.4629 76.532 49.3414 75.4465 49.3414C74.3609 49.3414 73.481 48.4629 73.481 47.3792C73.481 46.2955 74.3609 45.417 75.4465 45.417Z" fill="#F40009"/>
    <path fill-rule="evenodd" clip-rule="evenodd" d="M75.4465 57.1412C76.532 57.1412 77.412 58.0197 77.412 59.1035C77.412 60.1872 76.532 61.0656 75.4465 61.0656C74.3609 61.0656 73.481 60.1872 73.481 59.1035C73.481 58.0197 74.3609 57.1412 75.4465 57.1412Z" fill="#F40009"/>
    <path fill-rule="evenodd" clip-rule="evenodd" d="M75.4465 68.8656C76.532 68.8656 77.412 69.7441 77.412 70.8278C77.412 71.9115 76.532 72.79 75.4465 72.79C74.3609 72.79 73.481 71.9115 73.481 70.8278C73.481 69.7441 74.3609 68.8656 75.4465 68.8656Z" fill="#F40009"/>
</svg>
