<svg width="1024" height="456" viewBox="0 0 1024 456" fill="none" xmlns="http://www.w3.org/2000/svg">
<g filter="url(#filter0_d_789_10330)">
<path d="M32 24C32 17.3726 37.3726 12 44 12H981C987.627 12 993 17.3726 993 24V384C993 390.627 987.627 396 981 396H44C37.3726 396 32 390.627 32 384V24Z" fill="white"/>
<path d="M32.5 24C32.5 17.6487 37.6487 12.5 44 12.5H981C987.351 12.5 992.5 17.6487 992.5 24V384C992.5 390.351 987.351 395.5 981 395.5H44C37.6487 395.5 32.5 390.351 32.5 384V24Z" stroke="#E4E7EC"/>
<path d="M73.5433 51.9091H75.9148V60.4616C75.9148 61.3991 75.6932 62.2237 75.25 62.9354C74.8111 63.647 74.1932 64.2031 73.3963 64.6037C72.5994 65 71.6683 65.1982 70.603 65.1982C69.5334 65.1982 68.6001 65 67.8033 64.6037C67.0064 64.2031 66.3885 63.647 65.9496 62.9354C65.5107 62.2237 65.2912 61.3991 65.2912 60.4616V51.9091H67.6626V60.2635C67.6626 60.8089 67.782 61.2947 68.0206 61.7209C68.2635 62.147 68.6044 62.4815 69.0433 62.7244C69.4822 62.9631 70.0021 63.0824 70.603 63.0824C71.2038 63.0824 71.7237 62.9631 72.1626 62.7244C72.6058 62.4815 72.9467 62.147 73.1854 61.7209C73.424 61.2947 73.5433 60.8089 73.5433 60.2635V51.9091ZM86.15 57.777L84.0407 58.0071C83.981 57.794 83.8766 57.5938 83.7275 57.4062C83.5826 57.2188 83.3865 57.0675 83.1394 56.9524C82.8922 56.8374 82.5897 56.7798 82.2317 56.7798C81.7502 56.7798 81.3453 56.8842 81.0172 57.093C80.6934 57.3018 80.5336 57.5724 80.5378 57.9048C80.5336 58.1903 80.638 58.4226 80.851 58.6016C81.0684 58.7805 81.4263 58.9276 81.9249 59.0426L83.5996 59.4006C84.5286 59.6009 85.2189 59.9183 85.6706 60.353C86.1266 60.7876 86.3567 61.3565 86.361 62.0597C86.3567 62.6776 86.1756 63.223 85.8176 63.696C85.464 64.1648 84.9718 64.5312 84.3411 64.7955C83.7104 65.0597 82.986 65.1918 82.1678 65.1918C80.9661 65.1918 79.9988 64.9403 79.2658 64.4375C78.5328 63.9304 78.0961 63.2251 77.9554 62.3217L80.2118 62.1044C80.3141 62.5476 80.5314 62.8821 80.8638 63.108C81.1962 63.3338 81.6287 63.4467 82.1614 63.4467C82.7111 63.4467 83.1522 63.3338 83.4846 63.108C83.8212 62.8821 83.9895 62.603 83.9895 62.2706C83.9895 61.9893 83.8809 61.7571 83.6635 61.5739C83.4505 61.3906 83.1181 61.25 82.6664 61.152L80.9917 60.8004C80.0499 60.6044 79.3532 60.2741 78.9015 59.8097C78.4498 59.3409 78.226 58.7486 78.2303 58.0327C78.226 57.4276 78.3901 56.9034 78.7225 56.4602C79.0591 56.0128 79.5257 55.6676 80.1223 55.4247C80.7232 55.1776 81.4157 55.054 82.1998 55.054C83.3503 55.054 84.2559 55.299 84.9164 55.7891C85.5811 56.2791 85.9924 56.9418 86.15 57.777ZM92.6156 65.1918C91.6312 65.1918 90.7811 64.9872 90.0652 64.5781C89.3535 64.1648 88.8059 63.581 88.4224 62.8267C88.0389 62.0682 87.8471 61.1754 87.8471 60.1484C87.8471 59.1385 88.0389 58.2521 88.4224 57.4893C88.8102 56.7223 89.3514 56.1257 90.046 55.6996C90.7406 55.2692 91.5566 55.054 92.4941 55.054C93.0993 55.054 93.6703 55.152 94.2072 55.348C94.7484 55.5398 95.2257 55.8381 95.639 56.2429C96.0566 56.6477 96.3848 57.1634 96.6234 57.7898C96.862 58.4119 96.9814 59.1534 96.9814 60.0142V60.7237H88.9338V59.1641H94.7633C94.7591 58.7209 94.6632 58.3267 94.4757 57.9815C94.2882 57.6321 94.0261 57.3572 93.6895 57.157C93.3571 56.9567 92.9693 56.8565 92.5261 56.8565C92.0531 56.8565 91.6376 56.9716 91.2797 57.2017C90.9217 57.4276 90.6426 57.7259 90.4423 58.0966C90.2463 58.4631 90.1461 58.8658 90.1419 59.3047V60.6662C90.1419 61.2372 90.2463 61.7273 90.4551 62.1364C90.6639 62.5412 90.9558 62.8523 91.3308 63.0696C91.7058 63.2827 92.1447 63.3892 92.6476 63.3892C92.9842 63.3892 93.2889 63.3423 93.5616 63.2486C93.8343 63.1506 94.0708 63.0078 94.2711 62.8203C94.4714 62.6328 94.6227 62.4006 94.725 62.1236L96.8855 62.3665C96.7491 62.9375 96.4892 63.4361 96.1056 63.8622C95.7264 64.2841 95.2406 64.6122 94.6483 64.8466C94.0559 65.0767 93.3784 65.1918 92.6156 65.1918ZM98.9389 65V55.1818H101.183V56.8182H101.285C101.464 56.2514 101.771 55.8146 102.205 55.5078C102.644 55.1967 103.145 55.0412 103.707 55.0412C103.835 55.0412 103.978 55.0476 104.136 55.0604C104.298 55.0689 104.432 55.0838 104.538 55.1051V57.2337C104.44 57.1996 104.285 57.1697 104.072 57.1442C103.863 57.1143 103.661 57.0994 103.464 57.0994C103.043 57.0994 102.663 57.1911 102.327 57.3743C101.994 57.5533 101.732 57.8026 101.54 58.1222C101.349 58.4418 101.253 58.8104 101.253 59.228V65H98.9389ZM113.836 57.777L111.726 58.0071C111.667 57.794 111.562 57.5938 111.413 57.4062C111.268 57.2188 111.072 57.0675 110.825 56.9524C110.578 56.8374 110.275 56.7798 109.917 56.7798C109.436 56.7798 109.031 56.8842 108.703 57.093C108.379 57.3018 108.219 57.5724 108.223 57.9048C108.219 58.1903 108.324 58.4226 108.537 58.6016C108.754 58.7805 109.112 58.9276 109.61 59.0426L111.285 59.4006C112.214 59.6009 112.904 59.9183 113.356 60.353C113.812 60.7876 114.042 61.3565 114.047 62.0597C114.042 62.6776 113.861 63.223 113.503 63.696C113.15 64.1648 112.657 64.5312 112.027 64.7955C111.396 65.0597 110.672 65.1918 109.853 65.1918C108.652 65.1918 107.684 64.9403 106.951 64.4375C106.218 63.9304 105.782 63.2251 105.641 62.3217L107.897 62.1044C108 62.5476 108.217 62.8821 108.549 63.108C108.882 63.3338 109.314 63.4467 109.847 63.4467C110.397 63.4467 110.838 63.3338 111.17 63.108C111.507 62.8821 111.675 62.603 111.675 62.2706C111.675 61.9893 111.566 61.7571 111.349 61.5739C111.136 61.3906 110.804 61.25 110.352 61.152L108.677 60.8004C107.735 60.6044 107.039 60.2741 106.587 59.8097C106.135 59.3409 105.912 58.7486 105.916 58.0327C105.912 57.4276 106.076 56.9034 106.408 56.4602C106.745 56.0128 107.211 55.6676 107.808 55.4247C108.409 55.1776 109.101 55.054 109.885 55.054C111.036 55.054 111.941 55.299 112.602 55.7891C113.267 56.2791 113.678 56.9418 113.836 57.777ZM124.702 65.1918C123.743 65.1918 122.912 64.9808 122.209 64.5589C121.506 64.1371 120.961 63.5469 120.573 62.7884C120.189 62.0298 119.998 61.1435 119.998 60.1293C119.998 59.1151 120.189 58.2266 120.573 57.4638C120.961 56.701 121.506 56.1087 122.209 55.6868C122.912 55.2649 123.743 55.054 124.702 55.054C125.661 55.054 126.492 55.2649 127.195 55.6868C127.898 56.1087 128.441 56.701 128.825 57.4638C129.213 58.2266 129.407 59.1151 129.407 60.1293C129.407 61.1435 129.213 62.0298 128.825 62.7884C128.441 63.5469 127.898 64.1371 127.195 64.5589C126.492 64.9808 125.661 65.1918 124.702 65.1918ZM124.715 63.3381C125.235 63.3381 125.669 63.1953 126.019 62.9098C126.368 62.62 126.628 62.2322 126.799 61.7464C126.973 61.2607 127.061 60.7195 127.061 60.1229C127.061 59.522 126.973 58.9787 126.799 58.4929C126.628 58.0028 126.368 57.6129 126.019 57.3232C125.669 57.0334 125.235 56.8885 124.715 56.8885C124.182 56.8885 123.739 57.0334 123.385 57.3232C123.036 57.6129 122.774 58.0028 122.599 58.4929C122.429 58.9787 122.343 59.522 122.343 60.1229C122.343 60.7195 122.429 61.2607 122.599 61.7464C122.774 62.2322 123.036 62.62 123.385 62.9098C123.739 63.1953 124.182 63.3381 124.715 63.3381ZM139.806 55.1818L136.31 65H133.753L130.257 55.1818H132.724L134.98 62.4751H135.083L137.346 55.1818H139.806ZM145.42 65.1918C144.436 65.1918 143.586 64.9872 142.87 64.5781C142.158 64.1648 141.611 63.581 141.227 62.8267C140.844 62.0682 140.652 61.1754 140.652 60.1484C140.652 59.1385 140.844 58.2521 141.227 57.4893C141.615 56.7223 142.156 56.1257 142.851 55.6996C143.545 55.2692 144.361 55.054 145.299 55.054C145.904 55.054 146.475 55.152 147.012 55.348C147.553 55.5398 148.03 55.8381 148.444 56.2429C148.861 56.6477 149.189 57.1634 149.428 57.7898C149.667 58.4119 149.786 59.1534 149.786 60.0142V60.7237H141.738V59.1641H147.568C147.564 58.7209 147.468 58.3267 147.28 57.9815C147.093 57.6321 146.831 57.3572 146.494 57.157C146.162 56.9567 145.774 56.8565 145.331 56.8565C144.858 56.8565 144.442 56.9716 144.084 57.2017C143.726 57.4276 143.447 57.7259 143.247 58.0966C143.051 58.4631 142.951 58.8658 142.947 59.3047V60.6662C142.947 61.2372 143.051 61.7273 143.26 62.1364C143.469 62.5412 143.76 62.8523 144.135 63.0696C144.51 63.2827 144.949 63.3892 145.452 63.3892C145.789 63.3892 146.094 63.3423 146.366 63.2486C146.639 63.1506 146.876 63.0078 147.076 62.8203C147.276 62.6328 147.427 62.4006 147.53 62.1236L149.69 62.3665C149.554 62.9375 149.294 63.4361 148.91 63.8622C148.531 64.2841 148.045 64.6122 147.453 64.8466C146.861 65.0767 146.183 65.1918 145.42 65.1918ZM151.744 65V55.1818H153.987V56.8182H154.089C154.268 56.2514 154.575 55.8146 155.01 55.5078C155.449 55.1967 155.95 55.0412 156.512 55.0412C156.64 55.0412 156.783 55.0476 156.94 55.0604C157.102 55.0689 157.237 55.0838 157.343 55.1051V57.2337C157.245 57.1996 157.089 57.1697 156.876 57.1442C156.668 57.1143 156.465 57.0994 156.269 57.0994C155.847 57.0994 155.468 57.1911 155.131 57.3743C154.799 57.5533 154.537 57.8026 154.345 58.1222C154.153 58.4418 154.058 58.8104 154.058 59.228V65H151.744ZM168.248 55.1818V56.9716H162.604V55.1818H168.248ZM163.997 52.8295H166.311V62.0469C166.311 62.358 166.358 62.5966 166.452 62.7628C166.55 62.9247 166.678 63.0355 166.835 63.0952C166.993 63.1548 167.168 63.1847 167.359 63.1847C167.504 63.1847 167.636 63.174 167.756 63.1527C167.879 63.1314 167.973 63.1122 168.037 63.0952L168.427 64.9041C168.303 64.9467 168.126 64.9936 167.896 65.0447C167.67 65.0959 167.393 65.1257 167.065 65.1342C166.486 65.1513 165.964 65.0639 165.499 64.8722C165.035 64.6761 164.666 64.3736 164.393 63.9645C164.125 63.5554 163.993 63.044 163.997 62.4304V52.8295ZM170.183 65V55.1818H172.497V65H170.183ZM171.346 53.7884C170.98 53.7884 170.665 53.6669 170.4 53.424C170.136 53.1768 170.004 52.8807 170.004 52.5355C170.004 52.1861 170.136 51.8899 170.4 51.647C170.665 51.3999 170.98 51.2763 171.346 51.2763C171.717 51.2763 172.032 51.3999 172.292 51.647C172.557 51.8899 172.689 52.1861 172.689 52.5355C172.689 52.8807 172.557 53.1768 172.292 53.424C172.032 53.6669 171.717 53.7884 171.346 53.7884ZM174.876 65V55.1818H177.088V56.8501H177.203C177.408 56.2876 177.746 55.8487 178.219 55.5334C178.692 55.2138 179.257 55.054 179.913 55.054C180.578 55.054 181.138 55.2159 181.594 55.5398C182.055 55.8594 182.379 56.2962 182.566 56.8501H182.668C182.886 56.3047 183.252 55.87 183.768 55.5462C184.288 55.218 184.903 55.054 185.615 55.054C186.518 55.054 187.256 55.3395 187.827 55.9105C188.398 56.4815 188.683 57.3146 188.683 58.4098V65H186.363V58.7678C186.363 58.1584 186.201 57.7131 185.877 57.4318C185.553 57.1463 185.157 57.0036 184.688 57.0036C184.13 57.0036 183.693 57.1783 183.378 57.5277C183.067 57.8729 182.911 58.3224 182.911 58.8764V65H180.642V58.6719C180.642 58.1648 180.489 57.7599 180.182 57.4574C179.879 57.1548 179.483 57.0036 178.993 57.0036C178.661 57.0036 178.358 57.0888 178.085 57.2592C177.813 57.4254 177.595 57.6619 177.433 57.9688C177.271 58.2713 177.19 58.625 177.19 59.0298V65H174.876ZM195.377 65.1918C194.393 65.1918 193.543 64.9872 192.827 64.5781C192.115 64.1648 191.568 63.581 191.184 62.8267C190.801 62.0682 190.609 61.1754 190.609 60.1484C190.609 59.1385 190.801 58.2521 191.184 57.4893C191.572 56.7223 192.113 56.1257 192.808 55.6996C193.502 55.2692 194.318 55.054 195.256 55.054C195.861 55.054 196.432 55.152 196.969 55.348C197.51 55.5398 197.987 55.8381 198.401 56.2429C198.818 56.6477 199.146 57.1634 199.385 57.7898C199.624 58.4119 199.743 59.1534 199.743 60.0142V60.7237H191.695V59.1641H197.525C197.521 58.7209 197.425 58.3267 197.237 57.9815C197.05 57.6321 196.788 57.3572 196.451 57.157C196.119 56.9567 195.731 56.8565 195.288 56.8565C194.815 56.8565 194.399 56.9716 194.041 57.2017C193.683 57.4276 193.404 57.7259 193.204 58.0966C193.008 58.4631 192.908 58.8658 192.904 59.3047V60.6662C192.904 61.2372 193.008 61.7273 193.217 62.1364C193.426 62.5412 193.718 62.8523 194.093 63.0696C194.468 63.2827 194.906 63.3892 195.409 63.3892C195.746 63.3892 196.051 63.3423 196.323 63.2486C196.596 63.1506 196.833 63.0078 197.033 62.8203C197.233 62.6328 197.384 62.4006 197.487 62.1236L199.647 62.3665C199.511 62.9375 199.251 63.4361 198.867 63.8622C198.488 64.2841 198.002 64.6122 197.41 64.8466C196.818 65.0767 196.14 65.1918 195.377 65.1918Z" fill="#101828"/>
<line x1="64.5" y1="98.5" x2="960.5" y2="98.5" stroke="#F2F4F7" stroke-linecap="round"/>
<line x1="64.5" y1="148.2" x2="960.5" y2="148.2" stroke="#F2F4F7" stroke-linecap="round"/>
<line x1="64.5" y1="195.4" x2="960.5" y2="195.4" stroke="#F2F4F7" stroke-linecap="round"/>
<line x1="64.5" y1="242.6" x2="960.5" y2="242.6" stroke="#F2F4F7" stroke-linecap="round"/>
<line x1="64.5" y1="289.8" x2="960.5" y2="289.8" stroke="#F2F4F7" stroke-linecap="round"/>
<line x1="64.5" y1="337" x2="960.5" y2="337" stroke="#F2F4F7" stroke-linecap="round"/>
<path d="M77.1009 350.273H78.1577V356.511C78.1577 357.068 78.0554 357.541 77.8509 357.93C77.6463 358.32 77.358 358.615 76.9858 358.817C76.6136 359.018 76.1747 359.119 75.669 359.119C75.1918 359.119 74.767 359.033 74.3949 358.859C74.0227 358.683 73.7301 358.433 73.517 358.109C73.304 357.786 73.1974 357.401 73.1974 356.955H74.2372C74.2372 357.202 74.2983 357.418 74.4205 357.602C74.5455 357.784 74.7159 357.926 74.9318 358.028C75.1477 358.131 75.3935 358.182 75.669 358.182C75.973 358.182 76.2315 358.118 76.4446 357.99C76.6577 357.862 76.8196 357.675 76.9304 357.428C77.044 357.178 77.1009 356.872 77.1009 356.511V350.273ZM82.0653 359.153C81.6506 359.153 81.2741 359.075 80.9361 358.919C80.598 358.76 80.3295 358.531 80.1307 358.233C79.9318 357.932 79.8324 357.568 79.8324 357.142C79.8324 356.767 79.9063 356.463 80.054 356.23C80.2017 355.994 80.3991 355.81 80.6463 355.676C80.8935 355.543 81.1662 355.443 81.4645 355.378C81.7656 355.31 82.0682 355.256 82.3722 355.216C82.7699 355.165 83.0923 355.126 83.3395 355.101C83.5895 355.072 83.7713 355.026 83.8849 354.96C84.0014 354.895 84.0597 354.781 84.0597 354.619V354.585C84.0597 354.165 83.9446 353.838 83.7145 353.605C83.4872 353.372 83.142 353.256 82.679 353.256C82.1989 353.256 81.8224 353.361 81.5497 353.571C81.277 353.781 81.0852 354.006 80.9744 354.244L80.0199 353.903C80.1903 353.506 80.4176 353.196 80.7017 352.974C80.9886 352.75 81.3011 352.594 81.6392 352.506C81.9801 352.415 82.3153 352.369 82.6449 352.369C82.8551 352.369 83.0966 352.395 83.3693 352.446C83.6449 352.494 83.9105 352.595 84.1662 352.749C84.4247 352.902 84.6392 353.134 84.8097 353.443C84.9801 353.753 85.0653 354.168 85.0653 354.688V359H84.0597V358.114H84.0085C83.9403 358.256 83.8267 358.408 83.6676 358.57C83.5085 358.732 83.2969 358.869 83.0327 358.983C82.7685 359.097 82.446 359.153 82.0653 359.153ZM82.2188 358.25C82.6165 358.25 82.9517 358.172 83.2244 358.016C83.5 357.859 83.7074 357.658 83.8466 357.411C83.9886 357.163 84.0597 356.903 84.0597 356.631V355.71C84.017 355.761 83.9233 355.808 83.7784 355.851C83.6364 355.891 83.4716 355.926 83.2841 355.957C83.0994 355.986 82.919 356.011 82.7429 356.034C82.5696 356.054 82.429 356.071 82.321 356.085C82.0597 356.119 81.8153 356.175 81.5881 356.251C81.3636 356.325 81.1818 356.437 81.0426 356.588C80.9063 356.736 80.8381 356.937 80.8381 357.193C80.8381 357.543 80.9673 357.807 81.2259 357.986C81.4872 358.162 81.8182 358.25 82.2188 358.25ZM87.9066 355.062V359H86.9009V352.455H87.8725V353.477H87.9577C88.1112 353.145 88.3441 352.878 88.6566 352.676C88.9691 352.472 89.3725 352.369 89.8668 352.369C90.31 352.369 90.6978 352.46 91.0302 352.642C91.3626 352.821 91.6211 353.094 91.8058 353.46C91.9904 353.824 92.0827 354.284 92.0827 354.841V359H91.0771V354.909C91.0771 354.395 90.9435 353.994 90.6765 353.707C90.4094 353.418 90.043 353.273 89.5771 353.273C89.256 353.273 88.9691 353.342 88.7163 353.482C88.4663 353.621 88.2688 353.824 88.1239 354.091C87.979 354.358 87.9066 354.682 87.9066 355.062Z" fill="#475467"/>
<path d="M215.654 350.273H216.916L219.882 357.517H219.984L222.95 350.273H224.211V359H223.223V352.369H223.137L220.41 359H219.456L216.728 352.369H216.643V359H215.654V350.273ZM228.12 359.153C227.705 359.153 227.329 359.075 226.991 358.919C226.653 358.76 226.384 358.531 226.185 358.233C225.987 357.932 225.887 357.568 225.887 357.142C225.887 356.767 225.961 356.463 226.109 356.23C226.256 355.994 226.454 355.81 226.701 355.676C226.948 355.543 227.221 355.443 227.519 355.378C227.82 355.31 228.123 355.256 228.427 355.216C228.825 355.165 229.147 355.126 229.394 355.101C229.644 355.072 229.826 355.026 229.94 354.96C230.056 354.895 230.114 354.781 230.114 354.619V354.585C230.114 354.165 229.999 353.838 229.769 353.605C229.542 353.372 229.197 353.256 228.734 353.256C228.254 353.256 227.877 353.361 227.604 353.571C227.332 353.781 227.14 354.006 227.029 354.244L226.075 353.903C226.245 353.506 226.472 353.196 226.756 352.974C227.043 352.75 227.356 352.594 227.694 352.506C228.035 352.415 228.37 352.369 228.7 352.369C228.91 352.369 229.151 352.395 229.424 352.446C229.7 352.494 229.965 352.595 230.221 352.749C230.479 352.902 230.694 353.134 230.864 353.443C231.035 353.753 231.12 354.168 231.12 354.688V359H230.114V358.114H230.063C229.995 358.256 229.881 358.408 229.722 358.57C229.563 358.732 229.352 358.869 229.087 358.983C228.823 359.097 228.501 359.153 228.12 359.153ZM228.273 358.25C228.671 358.25 229.006 358.172 229.279 358.016C229.555 357.859 229.762 357.658 229.901 357.411C230.043 357.163 230.114 356.903 230.114 356.631V355.71C230.072 355.761 229.978 355.808 229.833 355.851C229.691 355.891 229.526 355.926 229.339 355.957C229.154 355.986 228.974 356.011 228.798 356.034C228.624 356.054 228.484 356.071 228.376 356.085C228.114 356.119 227.87 356.175 227.643 356.251C227.418 356.325 227.237 356.437 227.097 356.588C226.961 356.736 226.893 356.937 226.893 357.193C226.893 357.543 227.022 357.807 227.281 357.986C227.542 358.162 227.873 358.25 228.273 358.25ZM232.956 359V352.455H233.927V353.443H233.995C234.115 353.119 234.331 352.857 234.643 352.655C234.956 352.453 235.308 352.352 235.7 352.352C235.774 352.352 235.866 352.354 235.977 352.357C236.088 352.359 236.172 352.364 236.228 352.369V353.392C236.194 353.384 236.116 353.371 235.994 353.354C235.875 353.334 235.748 353.324 235.615 353.324C235.297 353.324 235.012 353.391 234.762 353.524C234.515 353.655 234.319 353.837 234.174 354.07C234.032 354.3 233.961 354.562 233.961 354.858V359H232.956Z" fill="#475467"/>
<path d="M359.174 350.273H360.435L363.401 357.517H363.504L366.469 350.273H367.731V359H366.742V352.369H366.657L363.93 359H362.975L360.248 352.369H360.163V359H359.174V350.273ZM371.64 359.153C371.225 359.153 370.848 359.075 370.51 358.919C370.172 358.76 369.904 358.531 369.705 358.233C369.506 357.932 369.407 357.568 369.407 357.142C369.407 356.767 369.48 356.463 369.628 356.23C369.776 355.994 369.973 355.81 370.221 355.676C370.468 355.543 370.74 355.443 371.039 355.378C371.34 355.31 371.642 355.256 371.946 355.216C372.344 355.165 372.667 355.126 372.914 355.101C373.164 355.072 373.346 355.026 373.459 354.96C373.576 354.895 373.634 354.781 373.634 354.619V354.585C373.634 354.165 373.519 353.838 373.289 353.605C373.061 353.372 372.716 353.256 372.253 353.256C371.773 353.256 371.397 353.361 371.124 353.571C370.851 353.781 370.659 354.006 370.549 354.244L369.594 353.903C369.765 353.506 369.992 353.196 370.276 352.974C370.563 352.75 370.875 352.594 371.213 352.506C371.554 352.415 371.89 352.369 372.219 352.369C372.429 352.369 372.671 352.395 372.944 352.446C373.219 352.494 373.485 352.595 373.74 352.749C373.999 352.902 374.213 353.134 374.384 353.443C374.554 353.753 374.64 354.168 374.64 354.688V359H373.634V358.114H373.583C373.515 358.256 373.401 358.408 373.242 358.57C373.083 358.732 372.871 358.869 372.607 358.983C372.343 359.097 372.02 359.153 371.64 359.153ZM371.793 358.25C372.191 358.25 372.526 358.172 372.799 358.016C373.074 357.859 373.282 357.658 373.421 357.411C373.563 357.163 373.634 356.903 373.634 356.631V355.71C373.591 355.761 373.498 355.808 373.353 355.851C373.211 355.891 373.046 355.926 372.858 355.957C372.674 355.986 372.493 356.011 372.317 356.034C372.144 356.054 372.003 356.071 371.895 356.085C371.634 356.119 371.39 356.175 371.162 356.251C370.938 356.325 370.756 356.437 370.617 356.588C370.48 356.736 370.412 356.937 370.412 357.193C370.412 357.543 370.542 357.807 370.8 357.986C371.061 358.162 371.392 358.25 371.793 358.25ZM376.888 361.455C376.718 361.455 376.566 361.44 376.433 361.412C376.299 361.386 376.207 361.361 376.156 361.335L376.411 360.449C376.656 360.511 376.871 360.534 377.059 360.517C377.246 360.5 377.413 360.416 377.558 360.266C377.705 360.118 377.84 359.878 377.962 359.545L378.15 359.034L375.729 352.455H376.82L378.627 357.67H378.695L380.502 352.455H381.593L378.815 359.955C378.69 360.293 378.535 360.572 378.35 360.794C378.165 361.018 377.951 361.185 377.707 361.293C377.465 361.401 377.192 361.455 376.888 361.455Z" fill="#475467"/>
<path d="M508.562 350.273H509.619V356.511C509.619 357.068 509.516 357.541 509.312 357.93C509.107 358.32 508.819 358.615 508.447 358.817C508.075 359.018 507.636 359.119 507.13 359.119C506.653 359.119 506.228 359.033 505.856 358.859C505.484 358.683 505.191 358.433 504.978 358.109C504.765 357.786 504.658 357.401 504.658 356.955H505.698C505.698 357.202 505.759 357.418 505.881 357.602C506.006 357.784 506.177 357.926 506.393 358.028C506.609 358.131 506.854 358.182 507.13 358.182C507.434 358.182 507.692 358.118 507.906 357.99C508.119 357.862 508.281 357.675 508.391 357.428C508.505 357.178 508.562 356.872 508.562 356.511V350.273ZM515.725 356.324V352.455H516.731V359H515.725V357.892H515.657C515.504 358.224 515.265 358.507 514.941 358.74C514.617 358.97 514.208 359.085 513.714 359.085C513.305 359.085 512.941 358.996 512.623 358.817C512.305 358.635 512.055 358.362 511.873 357.999C511.691 357.632 511.6 357.17 511.6 356.614V352.455H512.606V356.545C512.606 357.023 512.739 357.403 513.006 357.688C513.276 357.972 513.62 358.114 514.038 358.114C514.288 358.114 514.542 358.05 514.8 357.922C515.062 357.794 515.281 357.598 515.457 357.334C515.636 357.07 515.725 356.733 515.725 356.324ZM519.578 350.273V359H518.573V350.273H519.578Z" fill="#475467"/>
<path d="M647.88 352.455C647.829 352.023 647.622 351.688 647.258 351.449C646.895 351.21 646.449 351.091 645.92 351.091C645.534 351.091 645.196 351.153 644.906 351.278C644.619 351.403 644.395 351.575 644.233 351.794C644.074 352.013 643.994 352.261 643.994 352.54C643.994 352.773 644.049 352.973 644.16 353.141C644.274 353.305 644.419 353.443 644.595 353.554C644.771 353.662 644.956 353.751 645.149 353.822C645.342 353.891 645.52 353.946 645.681 353.989L646.568 354.227C646.795 354.287 647.048 354.369 647.326 354.474C647.608 354.58 647.876 354.723 648.132 354.905C648.39 355.084 648.603 355.314 648.771 355.595C648.939 355.876 649.022 356.222 649.022 356.631C649.022 357.102 648.899 357.528 648.652 357.909C648.407 358.29 648.049 358.592 647.578 358.817C647.109 359.041 646.539 359.153 645.869 359.153C645.244 359.153 644.703 359.053 644.245 358.851C643.791 358.649 643.433 358.368 643.172 358.007C642.913 357.646 642.767 357.227 642.733 356.75H643.824C643.852 357.08 643.963 357.352 644.156 357.568C644.352 357.781 644.599 357.94 644.897 358.045C645.199 358.148 645.522 358.199 645.869 358.199C646.272 358.199 646.635 358.134 646.956 358.003C647.277 357.869 647.531 357.685 647.718 357.449C647.906 357.21 648 356.932 648 356.614C648 356.324 647.919 356.088 647.757 355.906C647.595 355.724 647.382 355.577 647.118 355.463C646.853 355.349 646.568 355.25 646.261 355.165L645.187 354.858C644.505 354.662 643.966 354.382 643.568 354.018C643.17 353.655 642.971 353.179 642.971 352.591C642.971 352.102 643.103 351.676 643.368 351.312C643.635 350.946 643.993 350.662 644.441 350.46C644.893 350.256 645.397 350.153 645.954 350.153C646.517 350.153 647.017 350.254 647.454 350.456C647.892 350.655 648.238 350.928 648.494 351.274C648.752 351.621 648.889 352.014 648.903 352.455H647.88ZM653.368 359.136C652.737 359.136 652.193 358.997 651.736 358.719C651.281 358.438 650.93 358.045 650.683 357.543C650.439 357.037 650.317 356.449 650.317 355.778C650.317 355.108 650.439 354.517 650.683 354.006C650.93 353.491 651.274 353.091 651.714 352.804C652.158 352.514 652.675 352.369 653.266 352.369C653.607 352.369 653.943 352.426 654.276 352.54C654.608 352.653 654.911 352.838 655.183 353.094C655.456 353.347 655.673 353.682 655.835 354.099C655.997 354.517 656.078 355.031 656.078 355.642V356.068H651.033V355.199H655.055C655.055 354.83 654.982 354.5 654.834 354.21C654.689 353.92 654.482 353.692 654.212 353.524C653.945 353.357 653.629 353.273 653.266 353.273C652.865 353.273 652.518 353.372 652.226 353.571C651.936 353.767 651.713 354.023 651.557 354.338C651.401 354.653 651.322 354.991 651.322 355.352V355.932C651.322 356.426 651.408 356.845 651.578 357.189C651.751 357.53 651.991 357.79 652.298 357.969C652.605 358.145 652.962 358.233 653.368 358.233C653.632 358.233 653.871 358.196 654.084 358.122C654.3 358.045 654.486 357.932 654.642 357.781C654.798 357.628 654.919 357.437 655.004 357.21L655.976 357.483C655.874 357.812 655.702 358.102 655.46 358.352C655.219 358.599 654.92 358.793 654.565 358.932C654.21 359.068 653.811 359.136 653.368 359.136ZM657.608 361.455V352.455H658.58V353.494H658.699C658.773 353.381 658.875 353.236 659.006 353.06C659.139 352.881 659.33 352.722 659.577 352.582C659.827 352.44 660.165 352.369 660.591 352.369C661.142 352.369 661.628 352.507 662.048 352.783C662.469 353.058 662.797 353.449 663.033 353.955C663.268 354.46 663.386 355.057 663.386 355.744C663.386 356.438 663.268 357.038 663.033 357.547C662.797 358.053 662.47 358.445 662.053 358.723C661.635 358.999 661.153 359.136 660.608 359.136C660.188 359.136 659.851 359.067 659.598 358.928C659.345 358.786 659.151 358.625 659.014 358.446C658.878 358.264 658.773 358.114 658.699 357.994H658.614V361.455H657.608ZM658.597 355.727C658.597 356.222 658.669 356.658 658.814 357.036C658.959 357.411 659.17 357.705 659.449 357.918C659.727 358.128 660.068 358.233 660.472 358.233C660.892 358.233 661.243 358.122 661.524 357.901C661.808 357.676 662.021 357.375 662.163 356.997C662.308 356.616 662.381 356.193 662.381 355.727C662.381 355.267 662.31 354.852 662.168 354.483C662.028 354.111 661.817 353.817 661.533 353.601C661.251 353.382 660.898 353.273 660.472 353.273C660.063 353.273 659.719 353.376 659.44 353.584C659.162 353.788 658.952 354.075 658.81 354.445C658.668 354.811 658.597 355.239 658.597 355.727Z" fill="#475467"/>
<path d="M793.837 350.273V359H792.814L788.058 352.148H787.973V359H786.916V350.273H787.939L792.712 357.142H792.797V350.273H793.837ZM798.474 359.136C797.883 359.136 797.365 358.996 796.919 358.714C796.475 358.433 796.129 358.04 795.879 357.534C795.632 357.028 795.508 356.437 795.508 355.761C795.508 355.08 795.632 354.484 795.879 353.976C796.129 353.467 796.475 353.072 796.919 352.791C797.365 352.51 797.883 352.369 798.474 352.369C799.065 352.369 799.582 352.51 800.025 352.791C800.471 353.072 800.818 353.467 801.065 353.976C801.315 354.484 801.44 355.08 801.44 355.761C801.44 356.437 801.315 357.028 801.065 357.534C800.818 358.04 800.471 358.433 800.025 358.714C799.582 358.996 799.065 359.136 798.474 359.136ZM798.474 358.233C798.923 358.233 799.292 358.118 799.582 357.888C799.872 357.658 800.086 357.355 800.225 356.98C800.365 356.605 800.434 356.199 800.434 355.761C800.434 355.324 800.365 354.916 800.225 354.538C800.086 354.161 799.872 353.855 799.582 353.622C799.292 353.389 798.923 353.273 798.474 353.273C798.025 353.273 797.656 353.389 797.366 353.622C797.076 353.855 796.862 354.161 796.723 354.538C796.583 354.916 796.514 355.324 796.514 355.761C796.514 356.199 796.583 356.605 796.723 356.98C796.862 357.355 797.076 357.658 797.366 357.888C797.656 358.118 798.025 358.233 798.474 358.233ZM808.093 352.455L805.673 359H804.65L802.229 352.455H803.32L805.127 357.67H805.195L807.002 352.455H808.093Z" fill="#475467"/>
<path d="M934.438 359H931.744V350.273H934.557C935.403 350.273 936.128 350.447 936.73 350.797C937.332 351.143 937.794 351.642 938.115 352.293C938.436 352.94 938.597 353.716 938.597 354.619C938.597 355.528 938.435 356.311 938.111 356.967C937.787 357.621 937.315 358.124 936.696 358.476C936.077 358.825 935.324 359 934.438 359ZM932.801 358.062H934.369C935.091 358.062 935.689 357.923 936.163 357.645C936.638 357.366 936.991 356.97 937.224 356.456C937.457 355.942 937.574 355.33 937.574 354.619C937.574 353.915 937.459 353.308 937.229 352.8C936.999 352.288 936.655 351.896 936.197 351.624C935.74 351.348 935.17 351.21 934.489 351.21H932.801V358.062ZM942.977 359.136C942.347 359.136 941.803 358.997 941.345 358.719C940.891 358.438 940.54 358.045 940.293 357.543C940.048 357.037 939.926 356.449 939.926 355.778C939.926 355.108 940.048 354.517 940.293 354.006C940.54 353.491 940.884 353.091 941.324 352.804C941.767 352.514 942.284 352.369 942.875 352.369C943.216 352.369 943.553 352.426 943.885 352.54C944.217 352.653 944.52 352.838 944.793 353.094C945.065 353.347 945.283 353.682 945.445 354.099C945.607 354.517 945.688 355.031 945.688 355.642V356.068H940.642V355.199H944.665C944.665 354.83 944.591 354.5 944.443 354.21C944.298 353.92 944.091 353.692 943.821 353.524C943.554 353.357 943.239 353.273 942.875 353.273C942.474 353.273 942.128 353.372 941.835 353.571C941.545 353.767 941.322 354.023 941.166 354.338C941.01 354.653 940.932 354.991 940.932 355.352V355.932C940.932 356.426 941.017 356.845 941.188 357.189C941.361 357.53 941.601 357.79 941.908 357.969C942.214 358.145 942.571 358.233 942.977 358.233C943.241 358.233 943.48 358.196 943.693 358.122C943.909 358.045 944.095 357.932 944.251 357.781C944.408 357.628 944.528 357.437 944.614 357.21L945.585 357.483C945.483 357.812 945.311 358.102 945.07 358.352C944.828 358.599 944.53 358.793 944.175 358.932C943.82 359.068 943.42 359.136 942.977 359.136ZM949.876 359.136C949.263 359.136 948.734 358.991 948.291 358.702C947.848 358.412 947.507 358.013 947.268 357.504C947.03 356.996 946.911 356.415 946.911 355.761C946.911 355.097 947.033 354.51 947.277 354.001C947.524 353.49 947.868 353.091 948.308 352.804C948.751 352.514 949.268 352.369 949.859 352.369C950.32 352.369 950.734 352.455 951.104 352.625C951.473 352.795 951.776 353.034 952.011 353.341C952.247 353.648 952.393 354.006 952.45 354.415H951.445C951.368 354.116 951.197 353.852 950.933 353.622C950.672 353.389 950.32 353.273 949.876 353.273C949.484 353.273 949.141 353.375 948.845 353.58C948.553 353.781 948.324 354.067 948.159 354.436C947.997 354.803 947.916 355.233 947.916 355.727C947.916 356.233 947.996 356.673 948.155 357.048C948.317 357.423 948.544 357.714 948.837 357.922C949.132 358.129 949.479 358.233 949.876 358.233C950.138 358.233 950.375 358.188 950.588 358.097C950.801 358.006 950.982 357.875 951.129 357.705C951.277 357.534 951.382 357.33 951.445 357.091H952.45C952.393 357.477 952.253 357.825 952.028 358.135C951.807 358.442 951.513 358.686 951.146 358.868C950.783 359.047 950.359 359.136 949.876 359.136Z" fill="#475467"/>
<mask id="mask0_789_10330" style="mask-type:alpha" maskUnits="userSpaceOnUse" x="64" y="134" width="897" height="203">
<rect width="897" height="203" transform="translate(64 134)" fill="url(#paint0_linear_789_10330)"/>
</mask>
<g mask="url(#mask0_789_10330)">
<path opacity="0.1" d="M84.3286 194.071L64 198.234V337H961V147.656L941.942 154.572H921.613L912.084 161.047H899.379C895.991 162.126 888.961 164.284 887.944 164.284C886.928 164.284 880.321 165.58 877.144 166.227L849.828 168.17L833.946 170.76L808.535 168.17L795.195 166.227L776.137 170.76H756.443L739.926 166.227C733.574 165.58 720.614 164.284 719.598 164.284C718.581 164.284 710.28 162.989 706.257 162.342H696.093L671.953 164.284L650.989 166.227L641.46 170.76L612.873 172.702L598.261 174.645L581.744 177.882L565.863 185.653H558.875L539.817 183.71L521.394 177.882L505.512 174.645H495.983L479.466 172.702L455.961 174.645H433.727L411.492 177.882L389.258 181.768L372.741 185.653L354.953 187.595L330.813 185.653L311.755 187.595L292.697 189.538L274.909 187.595L250.769 192.128L230.441 189.538L210.112 192.128H190.419L169.455 194.071H147.856L126.256 196.013L105.292 192.128L84.3286 194.071Z" fill="#16B364"/>
</g>
<path d="M64 198.234L84.3286 194.071L105.292 192.128L126.256 196.013L147.856 194.071H169.455L190.419 192.128H210.112L230.441 189.538L250.769 192.128L274.909 187.595L292.697 189.538L311.755 187.595L330.813 185.653L354.953 187.595L372.741 185.653L389.258 181.768L411.492 177.882L433.727 174.645H455.961L479.466 172.702L495.983 174.645H505.512L521.394 177.882L539.817 183.71L558.875 185.653H565.863L581.744 177.882L598.261 174.645L612.873 172.702L641.46 170.76L650.989 166.227L671.953 164.284L696.093 162.342H706.257C710.28 162.989 718.581 164.284 719.598 164.284C720.614 164.284 733.574 165.58 739.926 166.227L756.443 170.76H776.137L795.195 166.227L808.535 168.17L833.946 170.76L849.828 168.17L877.144 166.227C880.321 165.58 886.928 164.284 887.944 164.284C888.96 164.284 895.991 162.126 899.379 161.047H912.084L921.613 154.572H941.942L961 147.656" stroke="#16B364" stroke-width="2" stroke-linecap="round" stroke-linejoin="round"/>
<path d="M64 248.608L84.3286 245.956L105.292 244.719L126.256 247.193L147.856 245.956H169.455L190.419 244.719H210.112L230.441 243.069L250.769 244.719L274.909 241.831L292.697 243.069L311.755 241.831L330.813 240.594L354.953 241.831L372.741 240.594L389.258 238.119L411.492 235.644L433.727 233.582H455.961L479.466 232.345L495.983 233.582H505.512L521.394 235.644L539.817 239.357L558.875 240.594H565.863L581.744 235.644L598.261 233.582L612.873 232.345L641.46 231.107L650.989 228.22L671.953 226.983L696.093 225.745H706.257C710.28 226.158 718.581 226.983 719.598 226.983C720.614 226.983 733.574 227.808 739.926 228.22L756.443 231.107H776.137L795.195 228.22L808.535 229.457L833.946 231.107L849.828 229.457L877.144 228.22C880.321 227.808 886.928 226.983 887.944 226.983C888.96 226.983 895.991 225.608 899.379 224.92H912.084L921.613 220.796H941.942L961 216.391" stroke="#099250" stroke-width="2" stroke-linecap="round" stroke-linejoin="round"/>
<path d="M64 312.359L84.3286 305.313L105.292 302.026L126.256 308.6L147.856 305.313H169.455L190.419 302.026H210.112L230.441 297.642L250.769 302.026L274.909 294.355L292.697 297.642L311.755 294.355L330.813 291.067L354.953 294.355L372.741 291.067L389.258 284.493L411.492 277.918L433.727 272.439H455.961L479.466 269.151L495.983 272.439H505.512L521.394 277.918L539.817 287.78L558.875 291.067H565.863L581.744 277.918L598.261 272.439L612.873 269.151L641.46 265.864L650.989 258.193L671.953 254.906L696.093 251.618H706.257C710.28 252.714 718.581 254.906 719.598 254.906C720.614 254.906 733.574 257.097 739.926 258.193L756.443 265.864H776.137L795.195 258.193L808.535 261.481L833.946 265.864L849.828 261.481L877.144 258.193C880.321 257.097 886.928 254.906 887.944 254.906C888.96 254.906 895.991 251.253 899.379 249.427H912.084L921.613 238.469H941.942L961 226.766" stroke="#087443" stroke-width="2" stroke-linecap="round" stroke-linejoin="round"/>
</g>
<defs>
<filter id="filter0_d_789_10330" x="-4" y="0" width="1033" height="456" filterUnits="userSpaceOnUse" color-interpolation-filters="sRGB">
<feFlood flood-opacity="0" result="BackgroundImageFix"/>
<feColorMatrix in="SourceAlpha" type="matrix" values="0 0 0 0 0 0 0 0 0 0 0 0 0 0 0 0 0 0 127 0" result="hardAlpha"/>
<feMorphology radius="12" operator="erode" in="SourceAlpha" result="effect1_dropShadow_789_10330"/>
<feOffset dy="24"/>
<feGaussianBlur stdDeviation="24"/>
<feComposite in2="hardAlpha" operator="out"/>
<feColorMatrix type="matrix" values="0 0 0 0 0.0627451 0 0 0 0 0.0941176 0 0 0 0 0.156863 0 0 0 0.18 0"/>
<feBlend mode="normal" in2="BackgroundImageFix" result="effect1_dropShadow_789_10330"/>
<feBlend mode="normal" in="SourceGraphic" in2="effect1_dropShadow_789_10330" result="shape"/>
</filter>
<linearGradient id="paint0_linear_789_10330" x1="448.5" y1="0" x2="448.5" y2="203" gradientUnits="userSpaceOnUse">
<stop/>
<stop offset="1" stop-opacity="0"/>
</linearGradient>
</defs>
</svg>
