<svg width="144" height="192" viewBox="0 0 144 192" fill="none" xmlns="http://www.w3.org/2000/svg">
<g filter="url(#filter0_b_793_14518)">
<path d="M0 96C0 42.9807 42.9807 0 96 0C149.019 0 192 42.9807 192 96C192 149.019 149.019 192 96 192C42.9807 192 0 149.019 0 96Z" fill="white" fill-opacity="0.9"/>
<path d="M96 20C105.98 20 115.863 21.9658 125.084 25.7852C134.305 29.6045 142.683 35.2026 149.74 42.2599C156.797 49.3171 162.395 57.6953 166.215 66.9161C170.034 76.1368 172 86.0196 172 96C172 105.98 170.034 115.863 166.215 125.084C162.395 134.305 156.797 142.683 149.74 149.74C142.683 156.797 134.305 162.395 125.084 166.215C115.863 170.034 105.98 172 96 172C86.0195 172 76.1368 170.034 66.916 166.215C57.6953 162.395 49.3171 156.797 42.2599 149.74C35.2026 142.683 29.6045 134.305 25.7851 125.084C21.9658 115.863 20 105.98 20 96C20 86.0195 21.9658 76.1368 25.7852 66.916C29.6045 57.6953 35.2027 49.3171 42.2599 42.2599C49.3172 35.2026 57.6954 29.6045 66.9161 25.7851C76.1369 21.9658 86.0196 20 96.0001 20L96 20Z" stroke="#F2F4F7" stroke-width="8" stroke-linecap="round" stroke-linejoin="round"/>
<path d="M96 20C113.395 20 130.264 25.9673 143.79 36.9055C157.315 47.8438 166.679 63.0909 170.318 80.1012C173.957 97.1114 171.651 114.855 163.784 130.37C155.918 145.885 142.967 158.231 127.094 165.348C111.221 172.465 93.3878 173.922 76.5707 169.475C59.7536 165.027 44.971 154.946 34.6911 140.913C24.4111 126.881 19.2561 109.746 20.0867 92.3711C20.9173 74.9958 27.6832 58.4313 39.2548 45.4433" stroke="#16B364" stroke-width="8" stroke-linecap="round" stroke-linejoin="round"/>
<path d="M96 32C104.405 32 112.727 33.6554 120.492 36.8717C128.257 40.088 135.312 44.8022 141.255 50.7452C147.198 56.6881 151.912 63.7434 155.128 71.5083C158.345 79.2731 160 87.5954 160 96C160 104.405 158.345 112.727 155.128 120.492C151.912 128.257 147.198 135.312 141.255 141.255C135.312 147.198 128.257 151.912 120.492 155.128C112.727 158.345 104.405 160 96 160C87.5954 160 79.2731 158.345 71.5082 155.128C63.7434 151.912 56.6881 147.198 50.7451 141.255C44.8022 135.312 40.088 128.257 36.8717 120.492C33.6554 112.727 32 104.405 32 96C32 87.5954 33.6554 79.2731 36.8717 71.5082C40.088 63.7434 44.8022 56.6881 50.7452 50.7451C56.6881 44.8022 63.7435 40.088 71.5083 36.8717C79.2731 33.6554 87.5954 32 96 32L96 32Z" stroke="#F2F4F7" stroke-width="8" stroke-linecap="round" stroke-linejoin="round"/>
<path d="M96 32C109.072 32 121.831 36.003 132.561 43.4707C143.29 50.9384 151.475 61.5126 156.016 73.7711C160.556 86.0296 161.234 99.3845 157.957 112.04C154.681 124.695 147.608 136.043 137.69 144.559C127.772 153.074 115.484 158.348 102.478 159.671C89.4733 160.995 76.3747 158.304 64.9445 151.96C53.5144 145.617 44.3007 135.926 38.5428 124.19C32.7849 112.454 30.7588 99.2362 32.7371 86.3145" stroke="#099250" stroke-width="8" stroke-linecap="round" stroke-linejoin="round"/>
<path d="M96 44C102.829 44 109.591 45.345 115.9 47.9583C122.208 50.5715 127.941 54.4018 132.77 59.2305C137.598 64.0591 141.428 69.7915 144.042 76.1005C146.655 82.4094 148 89.1713 148 96C148 102.829 146.655 109.591 144.042 115.9C141.428 122.208 137.598 127.941 132.77 132.77C127.941 137.598 122.208 141.428 115.9 144.042C109.591 146.655 102.829 148 96 148C89.1712 148 82.4094 146.655 76.1004 144.042C69.7915 141.428 64.0591 137.598 59.2304 132.77C54.4018 127.941 50.5715 122.208 47.9583 115.9C45.345 109.591 44 102.829 44 96C44 89.1712 45.345 82.4094 47.9583 76.1004C50.5715 69.7915 54.4018 64.0591 59.2305 59.2304C64.0591 54.4018 69.7916 50.5715 76.1005 47.9583C82.4094 45.345 89.1713 44 96 44L96 44Z" stroke="#F2F4F7" stroke-width="8" stroke-linecap="round" stroke-linejoin="round"/>
<path d="M96 44C105.047 44 113.937 46.3601 121.792 50.8472C129.647 55.3342 136.196 61.793 140.791 69.5855C145.387 77.3779 147.87 86.2345 147.995 95.2801C148.12 104.326 145.883 113.248 141.506 121.164C137.128 129.081 130.76 135.719 123.032 140.421C115.304 145.124 106.483 147.73 97.4396 147.98C88.3965 148.231 79.4446 146.117 71.468 141.85C63.4915 137.582 56.7664 131.307 51.957 123.644" stroke="#087443" stroke-width="8" stroke-linecap="round" stroke-linejoin="round"/>
<path d="M61.6941 85H60.2963L63.437 76.2727H64.9583L68.0989 85H66.7012L64.2338 77.858H64.1657L61.6941 85ZM61.9284 81.5824H66.4625V82.6903H61.9284V81.5824ZM71.9086 85.1321C71.275 85.1321 70.7296 84.9886 70.2722 84.7017C69.8176 84.4119 69.4682 84.0128 69.2239 83.5043C68.9796 82.9957 68.8574 82.4134 68.8574 81.7571C68.8574 81.0923 68.9824 80.5057 69.2324 79.9972C69.4824 79.4858 69.8347 79.0866 70.2892 78.7997C70.7438 78.5128 71.2793 78.3693 71.8958 78.3693C72.3929 78.3693 72.8361 78.4616 73.2253 78.6463C73.6145 78.8281 73.9284 79.0838 74.1671 79.4134C74.4086 79.7429 74.552 80.1278 74.5975 80.5682H73.3574C73.2892 80.2614 73.133 79.9972 72.8887 79.7756C72.6472 79.554 72.3233 79.4432 71.9171 79.4432C71.562 79.4432 71.2509 79.5369 70.9838 79.7244C70.7196 79.9091 70.5137 80.1733 70.3659 80.517C70.2182 80.858 70.1444 81.2614 70.1444 81.7273C70.1444 82.2045 70.2168 82.6165 70.3617 82.9631C70.5066 83.3097 70.7111 83.5781 70.9753 83.7685C71.2424 83.9588 71.5563 84.054 71.9171 84.054C72.1586 84.054 72.3773 84.0099 72.5733 83.9219C72.7722 83.831 72.9384 83.7017 73.0719 83.5341C73.2083 83.3665 73.3034 83.1648 73.3574 82.929H74.5975C74.552 83.3523 74.4142 83.7301 74.1841 84.0625C73.954 84.3949 73.6458 84.6562 73.2594 84.8466C72.8759 85.0369 72.4256 85.1321 71.9086 85.1321ZM79.0154 78.4545V79.4773H75.4402V78.4545H79.0154ZM76.399 76.8864H77.6731V83.0781C77.6731 83.3253 77.71 83.5114 77.7839 83.6364C77.8578 83.7585 77.9529 83.8423 78.0694 83.8878C78.1887 83.9304 78.318 83.9517 78.4572 83.9517C78.5595 83.9517 78.649 83.9446 78.7257 83.9304C78.8024 83.9162 78.862 83.9048 78.9047 83.8963L79.1348 84.9489C79.0609 84.9773 78.9558 85.0057 78.8194 85.0341C78.6831 85.0653 78.5126 85.0824 78.3081 85.0852C77.9728 85.0909 77.6603 85.0312 77.3706 84.9062C77.0808 84.7812 76.8464 84.5881 76.6674 84.3267C76.4885 84.0653 76.399 83.7372 76.399 83.3423V76.8864ZM80.4249 85V78.4545H81.699V85H80.4249ZM81.0684 77.4446C80.8468 77.4446 80.6564 77.3707 80.4973 77.223C80.3411 77.0724 80.263 76.8935 80.263 76.6861C80.263 76.4759 80.3411 76.2969 80.4973 76.1491C80.6564 75.9986 80.8468 75.9233 81.0684 75.9233C81.29 75.9233 81.4789 75.9986 81.6351 76.1491C81.7942 76.2969 81.8738 76.4759 81.8738 76.6861C81.8738 76.8935 81.7942 77.0724 81.6351 77.223C81.4789 77.3707 81.29 77.4446 81.0684 77.4446ZM89.0126 78.4545L86.639 85H85.2754L82.8975 78.4545H84.2654L85.9231 83.4915H85.9913L87.6447 78.4545H89.0126ZM92.8084 85.1321C92.1635 85.1321 91.6081 84.9943 91.1422 84.7188C90.6792 84.4403 90.3212 84.0497 90.0684 83.5469C89.8184 83.0412 89.6934 82.4489 89.6934 81.7699C89.6934 81.0994 89.8184 80.5085 90.0684 79.9972C90.3212 79.4858 90.6735 79.0866 91.1252 78.7997C91.5797 78.5128 92.111 78.3693 92.7189 78.3693C93.0882 78.3693 93.4462 78.4304 93.7928 78.5526C94.1394 78.6747 94.4505 78.8665 94.726 79.1278C95.0016 79.3892 95.2189 79.7287 95.378 80.1463C95.5371 80.5611 95.6167 81.0653 95.6167 81.6591V82.1108H90.4135V81.1562H94.3681C94.3681 80.821 94.2999 80.5241 94.1635 80.2656C94.0272 80.0043 93.8354 79.7983 93.5882 79.6477C93.3439 79.4972 93.057 79.4219 92.7275 79.4219C92.3695 79.4219 92.057 79.5099 91.79 79.6861C91.5257 79.8594 91.3212 80.0866 91.1763 80.3679C91.0343 80.6463 90.9632 80.9489 90.9632 81.2756V82.0213C90.9632 82.4588 91.04 82.831 91.1934 83.1378C91.3496 83.4446 91.5669 83.679 91.8453 83.8409C92.1238 84 92.449 84.0795 92.8212 84.0795C93.0627 84.0795 93.2828 84.0455 93.4817 83.9773C93.6806 83.9062 93.8525 83.8011 93.9973 83.6619C94.1422 83.5227 94.253 83.3509 94.3297 83.1463L95.5357 83.3636C95.4391 83.7187 95.2658 84.0298 95.0158 84.2969C94.7686 84.5611 94.4576 84.767 94.0826 84.9148C93.7104 85.0597 93.2857 85.1321 92.8084 85.1321ZM104.352 82.2855V78.4545H105.631V85H104.378V83.8665H104.31C104.159 84.2159 103.918 84.5071 103.585 84.7401C103.256 84.9702 102.845 85.0852 102.354 85.0852C101.933 85.0852 101.561 84.9929 101.237 84.8082C100.916 84.6207 100.664 84.3438 100.479 83.9773C100.297 83.6108 100.206 83.1577 100.206 82.6179V78.4545H101.48V82.4645C101.48 82.9105 101.604 83.2656 101.851 83.5298C102.098 83.794 102.419 83.9261 102.814 83.9261C103.053 83.9261 103.29 83.8665 103.526 83.7472C103.764 83.6278 103.962 83.4474 104.118 83.206C104.277 82.9645 104.355 82.6577 104.352 82.2855ZM112.248 80.0526L111.093 80.2571C111.045 80.1094 110.968 79.9687 110.863 79.8352C110.76 79.7017 110.621 79.5923 110.445 79.5071C110.269 79.4219 110.049 79.3793 109.785 79.3793C109.424 79.3793 109.123 79.4602 108.881 79.6222C108.64 79.7812 108.519 79.9872 108.519 80.2401C108.519 80.4588 108.6 80.6349 108.762 80.7685C108.924 80.902 109.185 81.0114 109.546 81.0966L110.586 81.3352C111.188 81.4744 111.637 81.6889 111.932 81.9787C112.228 82.2685 112.376 82.6449 112.376 83.108C112.376 83.5 112.262 83.8494 112.035 84.1562C111.81 84.4602 111.496 84.6989 111.093 84.8722C110.692 85.0455 110.228 85.1321 109.699 85.1321C108.966 85.1321 108.368 84.9759 107.905 84.6634C107.442 84.348 107.158 83.9006 107.053 83.321L108.285 83.1335C108.361 83.4545 108.519 83.6974 108.758 83.8622C108.996 84.0241 109.307 84.1051 109.691 84.1051C110.108 84.1051 110.442 84.0185 110.692 83.8452C110.942 83.669 111.067 83.4545 111.067 83.2017C111.067 82.9972 110.991 82.8253 110.837 82.6861C110.687 82.5469 110.455 82.4418 110.143 82.3707L109.035 82.1278C108.424 81.9886 107.972 81.767 107.68 81.4631C107.39 81.1591 107.245 80.7741 107.245 80.3082C107.245 79.9219 107.353 79.5838 107.569 79.294C107.785 79.0043 108.083 78.7784 108.464 78.6165C108.844 78.4517 109.28 78.3693 109.772 78.3693C110.479 78.3693 111.036 78.5227 111.442 78.8295C111.849 79.1335 112.117 79.5412 112.248 80.0526ZM116.597 85.1321C115.953 85.1321 115.397 84.9943 114.931 84.7188C114.468 84.4403 114.11 84.0497 113.857 83.5469C113.607 83.0412 113.482 82.4489 113.482 81.7699C113.482 81.0994 113.607 80.5085 113.857 79.9972C114.11 79.4858 114.463 79.0866 114.914 78.7997C115.369 78.5128 115.9 78.3693 116.508 78.3693C116.877 78.3693 117.235 78.4304 117.582 78.5526C117.928 78.6747 118.24 78.8665 118.515 79.1278C118.791 79.3892 119.008 79.7287 119.167 80.1463C119.326 80.5611 119.406 81.0653 119.406 81.6591V82.1108H114.203V81.1562H118.157C118.157 80.821 118.089 80.5241 117.953 80.2656C117.816 80.0043 117.624 79.7983 117.377 79.6477C117.133 79.4972 116.846 79.4219 116.517 79.4219C116.159 79.4219 115.846 79.5099 115.579 79.6861C115.315 79.8594 115.11 80.0866 114.965 80.3679C114.823 80.6463 114.752 80.9489 114.752 81.2756V82.0213C114.752 82.4588 114.829 82.831 114.982 83.1378C115.139 83.4446 115.356 83.679 115.634 83.8409C115.913 84 116.238 84.0795 116.61 84.0795C116.852 84.0795 117.072 84.0455 117.271 83.9773C117.47 83.9062 117.642 83.8011 117.786 83.6619C117.931 83.5227 118.042 83.3509 118.119 83.1463L119.325 83.3636C119.228 83.7187 119.055 84.0298 118.805 84.2969C118.558 84.5611 118.247 84.767 117.872 84.9148C117.499 85.0597 117.075 85.1321 116.597 85.1321ZM120.819 85V78.4545H122.051V79.4943H122.119C122.238 79.142 122.449 78.8651 122.75 78.6634C123.054 78.4588 123.398 78.3565 123.781 78.3565C123.861 78.3565 123.954 78.3594 124.062 78.3651C124.173 78.3707 124.26 78.3778 124.322 78.3864V79.6051C124.271 79.5909 124.18 79.5753 124.05 79.5582C123.919 79.5384 123.788 79.5284 123.657 79.5284C123.356 79.5284 123.088 79.5923 122.852 79.7202C122.619 79.8452 122.434 80.0199 122.298 80.2443C122.162 80.4659 122.094 80.7187 122.094 81.0028V85H120.819ZM130.33 80.0526L129.175 80.2571C129.127 80.1094 129.05 79.9687 128.945 79.8352C128.843 79.7017 128.703 79.5923 128.527 79.5071C128.351 79.4219 128.131 79.3793 127.867 79.3793C127.506 79.3793 127.205 79.4602 126.963 79.6222C126.722 79.7812 126.601 79.9872 126.601 80.2401C126.601 80.4588 126.682 80.6349 126.844 80.7685C127.006 80.902 127.267 81.0114 127.628 81.0966L128.668 81.3352C129.27 81.4744 129.719 81.6889 130.014 81.9787C130.31 82.2685 130.458 82.6449 130.458 83.108C130.458 83.5 130.344 83.8494 130.117 84.1562C129.892 84.4602 129.578 84.6989 129.175 84.8722C128.774 85.0455 128.31 85.1321 127.781 85.1321C127.048 85.1321 126.45 84.9759 125.987 84.6634C125.524 84.348 125.24 83.9006 125.135 83.321L126.367 83.1335C126.443 83.4545 126.601 83.6974 126.84 83.8622C127.078 84.0241 127.389 84.1051 127.773 84.1051C128.191 84.1051 128.524 84.0185 128.774 83.8452C129.024 83.669 129.149 83.4545 129.149 83.2017C129.149 82.9972 129.073 82.8253 128.919 82.6861C128.769 82.5469 128.537 82.4418 128.225 82.3707L127.117 82.1278C126.506 81.9886 126.054 81.767 125.762 81.4631C125.472 81.1591 125.327 80.7741 125.327 80.3082C125.327 79.9219 125.435 79.5838 125.651 79.294C125.867 79.0043 126.165 78.7784 126.546 78.6165C126.926 78.4517 127.362 78.3693 127.854 78.3693C128.561 78.3693 129.118 78.5227 129.524 78.8295C129.931 79.1335 130.199 79.5412 130.33 80.0526Z" fill="#475467"/>
<path d="M76.6287 96.4545V111H73.9938V99.0185H73.9086L70.5066 101.192V98.777L74.1216 96.4545H76.6287ZM82.568 109.011L82.4757 109.793C82.4094 110.389 82.291 110.995 82.1206 111.611C81.9548 112.231 81.7797 112.802 81.595 113.322C81.4103 113.843 81.2612 114.253 81.1475 114.551H79.4146C79.4809 114.262 79.5708 113.869 79.6845 113.372C79.8029 112.875 79.9165 112.316 80.0254 111.696C80.1343 111.076 80.2077 110.446 80.2456 109.807L80.2953 109.011H82.568ZM90.2296 111.277C89.0601 111.277 88.0563 110.981 87.2182 110.389C86.3849 109.793 85.7433 108.933 85.2935 107.811C84.8484 106.684 84.6259 105.328 84.6259 103.741C84.6306 102.155 84.8555 100.806 85.3006 99.6932C85.7504 98.5758 86.392 97.7235 87.2253 97.1364C88.0634 96.5492 89.0648 96.2557 90.2296 96.2557C91.3944 96.2557 92.3958 96.5492 93.2338 97.1364C94.0719 97.7235 94.7135 98.5758 95.1586 99.6932C95.6084 100.811 95.8333 102.16 95.8333 103.741C95.8333 105.332 95.6084 106.691 95.1586 107.818C94.7135 108.94 94.0719 109.797 93.2338 110.389C92.4005 110.981 91.3991 111.277 90.2296 111.277ZM90.2296 109.054C91.1387 109.054 91.856 108.607 92.3816 107.712C92.9119 106.812 93.177 105.489 93.177 103.741C93.177 102.586 93.0563 101.616 92.8148 100.83C92.5733 100.044 92.2324 99.4517 91.7921 99.054C91.3517 98.6515 90.8309 98.4503 90.2296 98.4503C89.3252 98.4503 88.6103 98.9001 88.0847 99.7997C87.5591 100.695 87.294 102.009 87.2892 103.741C87.2845 104.902 87.4005 105.877 87.6373 106.668C87.8787 107.458 88.2196 108.055 88.66 108.457C89.1003 108.855 89.6235 109.054 90.2296 109.054ZM103.569 111.277C102.4 111.277 101.396 110.981 100.558 110.389C99.7247 109.793 99.0832 108.933 98.6333 107.811C98.1883 106.684 97.9657 105.328 97.9657 103.741C97.9705 102.155 98.1954 100.806 98.6404 99.6932C99.0903 98.5758 99.7318 97.7235 100.565 97.1364C101.403 96.5492 102.405 96.2557 103.569 96.2557C104.734 96.2557 105.736 96.5492 106.574 97.1364C107.412 97.7235 108.053 98.5758 108.498 99.6932C108.948 100.811 109.173 102.16 109.173 103.741C109.173 105.332 108.948 106.691 108.498 107.818C108.053 108.94 107.412 109.797 106.574 110.389C105.74 110.981 104.739 111.277 103.569 111.277ZM103.569 109.054C104.479 109.054 105.196 108.607 105.721 107.712C106.252 106.812 106.517 105.489 106.517 103.741C106.517 102.586 106.396 101.616 106.155 100.83C105.913 100.044 105.572 99.4517 105.132 99.054C104.692 98.6515 104.171 98.4503 103.569 98.4503C102.665 98.4503 101.95 98.9001 101.425 99.7997C100.899 100.695 100.634 102.009 100.629 103.741C100.624 104.902 100.74 105.877 100.977 106.668C101.219 107.458 101.559 108.055 102 108.457C102.44 108.855 102.963 109.054 103.569 109.054ZM116.909 111.277C115.74 111.277 114.736 110.981 113.898 110.389C113.065 109.793 112.423 108.933 111.973 107.811C111.528 106.684 111.306 105.328 111.306 103.741C111.31 102.155 111.535 100.806 111.98 99.6932C112.43 98.5758 113.072 97.7235 113.905 97.1364C114.743 96.5492 115.744 96.2557 116.909 96.2557C118.074 96.2557 119.075 96.5492 119.914 97.1364C120.752 97.7235 121.393 98.5758 121.838 99.6932C122.288 100.811 122.513 102.16 122.513 103.741C122.513 105.332 122.288 106.691 121.838 107.818C121.393 108.94 120.752 109.797 119.914 110.389C119.08 110.981 118.079 111.277 116.909 111.277ZM116.909 109.054C117.818 109.054 118.536 108.607 119.061 107.712C119.592 106.812 119.857 105.489 119.857 103.741C119.857 102.586 119.736 101.616 119.494 100.83C119.253 100.044 118.912 99.4517 118.472 99.054C118.031 98.6515 117.511 98.4503 116.909 98.4503C116.005 98.4503 115.29 98.9001 114.764 99.7997C114.239 100.695 113.974 102.009 113.969 103.741C113.964 104.902 114.08 105.877 114.317 106.668C114.558 107.458 114.899 108.055 115.34 108.457C115.78 108.855 116.303 109.054 116.909 109.054Z" fill="#101828"/>
</g>
<defs>
<filter id="filter0_b_793_14518" x="-8" y="-8" width="208" height="208" filterUnits="userSpaceOnUse" color-interpolation-filters="sRGB">
<feFlood flood-opacity="0" result="BackgroundImageFix"/>
<feGaussianBlur in="BackgroundImageFix" stdDeviation="4"/>
<feComposite in2="SourceAlpha" operator="in" result="effect1_backgroundBlur_793_14518"/>
<feBlend mode="normal" in="SourceGraphic" in2="effect1_backgroundBlur_793_14518" result="shape"/>
</filter>
</defs>
</svg>
