<svg width="1920" height="763" viewBox="0 0 1920 763" fill="none" xmlns="http://www.w3.org/2000/svg">
<g opacity="0.7" clip-path="url(#clip0_915_24758)">
<mask id="mask0_915_24758" style="mask-type:alpha" maskUnits="userSpaceOnUse" x="240" y="0" width="1440" height="1440">
<rect width="1440" height="1440" transform="translate(240)" fill="url(#paint0_radial_915_24758)"/>
</mask>
<g mask="url(#mask0_915_24758)">
<g clip-path="url(#clip1_915_24758)">
<mask id="path-3-inside-1_915_24758" fill="white">
<path d="M192 0H256V64H192V0Z"/>
</mask>
<path d="M256 64V65H257V64H256ZM255 0V64H257V0H255ZM256 63H192V65H256V63Z" fill="#D0D5DD" mask="url(#path-3-inside-1_915_24758)"/>
<mask id="path-5-inside-2_915_24758" fill="white">
<path d="M256 0H320V64H256V0Z"/>
</mask>
<path d="M320 64V65H321V64H320ZM319 0V64H321V0H319ZM320 63H256V65H320V63Z" fill="#D0D5DD" mask="url(#path-5-inside-2_915_24758)"/>
<mask id="path-7-inside-3_915_24758" fill="white">
<path d="M320 0H384V64H320V0Z"/>
</mask>
<path d="M384 64V65H385V64H384ZM383 0V64H385V0H383ZM384 63H320V65H384V63Z" fill="#D0D5DD" mask="url(#path-7-inside-3_915_24758)"/>
<mask id="path-9-inside-4_915_24758" fill="white">
<path d="M384 0H448V64H384V0Z"/>
</mask>
<path d="M448 64V65H449V64H448ZM447 0V64H449V0H447ZM448 63H384V65H448V63Z" fill="#D0D5DD" mask="url(#path-9-inside-4_915_24758)"/>
<mask id="path-11-inside-5_915_24758" fill="white">
<path d="M448 0H512V64H448V0Z"/>
</mask>
<path d="M512 64V65H513V64H512ZM511 0V64H513V0H511ZM512 63H448V65H512V63Z" fill="#D0D5DD" mask="url(#path-11-inside-5_915_24758)"/>
<mask id="path-13-inside-6_915_24758" fill="white">
<path d="M512 0H576V64H512V0Z"/>
</mask>
<path d="M576 64V65H577V64H576ZM575 0V64H577V0H575ZM576 63H512V65H576V63Z" fill="#D0D5DD" mask="url(#path-13-inside-6_915_24758)"/>
<mask id="path-15-inside-7_915_24758" fill="white">
<path d="M576 0H640V64H576V0Z"/>
</mask>
<path d="M640 64V65H641V64H640ZM639 0V64H641V0H639ZM640 63H576V65H640V63Z" fill="#D0D5DD" mask="url(#path-15-inside-7_915_24758)"/>
<mask id="path-17-inside-8_915_24758" fill="white">
<path d="M640 0H704V64H640V0Z"/>
</mask>
<path d="M704 64V65H705V64H704ZM703 0V64H705V0H703ZM704 63H640V65H704V63Z" fill="#D0D5DD" mask="url(#path-17-inside-8_915_24758)"/>
<mask id="path-19-inside-9_915_24758" fill="white">
<path d="M704 0H768V64H704V0Z"/>
</mask>
<path d="M768 64V65H769V64H768ZM767 0V64H769V0H767ZM768 63H704V65H768V63Z" fill="#D0D5DD" mask="url(#path-19-inside-9_915_24758)"/>
<mask id="path-21-inside-10_915_24758" fill="white">
<path d="M768 0H832V64H768V0Z"/>
</mask>
<path d="M832 64V65H833V64H832ZM831 0V64H833V0H831ZM832 63H768V65H832V63Z" fill="#D0D5DD" mask="url(#path-21-inside-10_915_24758)"/>
<mask id="path-23-inside-11_915_24758" fill="white">
<path d="M832 0H896V64H832V0Z"/>
</mask>
<path d="M896 64V65H897V64H896ZM895 0V64H897V0H895ZM896 63H832V65H896V63Z" fill="#D0D5DD" mask="url(#path-23-inside-11_915_24758)"/>
<mask id="path-25-inside-12_915_24758" fill="white">
<path d="M896 0H960V64H896V0Z"/>
</mask>
<path d="M960 64V65H961V64H960ZM959 0V64H961V0H959ZM960 63H896V65H960V63Z" fill="#D0D5DD" mask="url(#path-25-inside-12_915_24758)"/>
<mask id="path-27-inside-13_915_24758" fill="white">
<path d="M960 0H1024V64H960V0Z"/>
</mask>
<path d="M1024 64V65H1025V64H1024ZM1023 0V64H1025V0H1023ZM1024 63H960V65H1024V63Z" fill="#D0D5DD" mask="url(#path-27-inside-13_915_24758)"/>
<mask id="path-29-inside-14_915_24758" fill="white">
<path d="M1024 0H1088V64H1024V0Z"/>
</mask>
<path d="M1088 64V65H1089V64H1088ZM1087 0V64H1089V0H1087ZM1088 63H1024V65H1088V63Z" fill="#D0D5DD" mask="url(#path-29-inside-14_915_24758)"/>
<mask id="path-31-inside-15_915_24758" fill="white">
<path d="M1088 0H1152V64H1088V0Z"/>
</mask>
<path d="M1152 64V65H1153V64H1152ZM1151 0V64H1153V0H1151ZM1152 63H1088V65H1152V63Z" fill="#D0D5DD" mask="url(#path-31-inside-15_915_24758)"/>
<mask id="path-33-inside-16_915_24758" fill="white">
<path d="M1152 0H1216V64H1152V0Z"/>
</mask>
<path d="M1216 64V65H1217V64H1216ZM1215 0V64H1217V0H1215ZM1216 63H1152V65H1216V63Z" fill="#D0D5DD" mask="url(#path-33-inside-16_915_24758)"/>
<mask id="path-35-inside-17_915_24758" fill="white">
<path d="M1216 0H1280V64H1216V0Z"/>
</mask>
<path d="M1280 64V65H1281V64H1280ZM1279 0V64H1281V0H1279ZM1280 63H1216V65H1280V63Z" fill="#D0D5DD" mask="url(#path-35-inside-17_915_24758)"/>
<mask id="path-37-inside-18_915_24758" fill="white">
<path d="M1280 0H1344V64H1280V0Z"/>
</mask>
<path d="M1344 64V65H1345V64H1344ZM1343 0V64H1345V0H1343ZM1344 63H1280V65H1344V63Z" fill="#D0D5DD" mask="url(#path-37-inside-18_915_24758)"/>
<mask id="path-39-inside-19_915_24758" fill="white">
<path d="M1344 0H1408V64H1344V0Z"/>
</mask>
<path d="M1408 64V65H1409V64H1408ZM1407 0V64H1409V0H1407ZM1408 63H1344V65H1408V63Z" fill="#D0D5DD" mask="url(#path-39-inside-19_915_24758)"/>
<mask id="path-41-inside-20_915_24758" fill="white">
<path d="M1408 0H1472V64H1408V0Z"/>
</mask>
<path d="M1472 64V65H1473V64H1472ZM1471 0V64H1473V0H1471ZM1472 63H1408V65H1472V63Z" fill="#D0D5DD" mask="url(#path-41-inside-20_915_24758)"/>
<mask id="path-43-inside-21_915_24758" fill="white">
<path d="M1472 0H1536V64H1472V0Z"/>
</mask>
<path d="M1536 64V65H1537V64H1536ZM1535 0V64H1537V0H1535ZM1536 63H1472V65H1536V63Z" fill="#D0D5DD" mask="url(#path-43-inside-21_915_24758)"/>
<mask id="path-45-inside-22_915_24758" fill="white">
<path d="M1536 0H1600V64H1536V0Z"/>
</mask>
<path d="M1600 64V65H1601V64H1600ZM1599 0V64H1601V0H1599ZM1600 63H1536V65H1600V63Z" fill="#D0D5DD" mask="url(#path-45-inside-22_915_24758)"/>
<mask id="path-47-inside-23_915_24758" fill="white">
<path d="M1600 0H1664V64H1600V0Z"/>
</mask>
<path d="M1664 64V65H1665V64H1664ZM1663 0V64H1665V0H1663ZM1664 63H1600V65H1664V63Z" fill="#D0D5DD" mask="url(#path-47-inside-23_915_24758)"/>
<mask id="path-49-inside-24_915_24758" fill="white">
<path d="M1664 0H1728V64H1664V0Z"/>
</mask>
<path d="M1728 64V65H1729V64H1728ZM1727 0V64H1729V0H1727ZM1728 63H1664V65H1728V63Z" fill="#D0D5DD" mask="url(#path-49-inside-24_915_24758)"/>
<mask id="path-51-inside-25_915_24758" fill="white">
<path d="M192 64H256V128H192V64Z"/>
</mask>
<path d="M256 128V129H257V128H256ZM255 64V128H257V64H255ZM256 127H192V129H256V127Z" fill="#D0D5DD" mask="url(#path-51-inside-25_915_24758)"/>
<mask id="path-53-inside-26_915_24758" fill="white">
<path d="M256 64H320V128H256V64Z"/>
</mask>
<path d="M320 128V129H321V128H320ZM319 64V128H321V64H319ZM320 127H256V129H320V127Z" fill="#D0D5DD" mask="url(#path-53-inside-26_915_24758)"/>
<mask id="path-55-inside-27_915_24758" fill="white">
<path d="M320 64H384V128H320V64Z"/>
</mask>
<path d="M320 64H384V128H320V64Z" fill="#F2F4F7"/>
<path d="M384 128V129H385V128H384ZM383 64V128H385V64H383ZM384 127H320V129H384V127Z" fill="#D0D5DD" mask="url(#path-55-inside-27_915_24758)"/>
<mask id="path-57-inside-28_915_24758" fill="white">
<path d="M384 64H448V128H384V64Z"/>
</mask>
<path d="M448 128V129H449V128H448ZM447 64V128H449V64H447ZM448 127H384V129H448V127Z" fill="#D0D5DD" mask="url(#path-57-inside-28_915_24758)"/>
<mask id="path-59-inside-29_915_24758" fill="white">
<path d="M448 64H512V128H448V64Z"/>
</mask>
<path d="M512 128V129H513V128H512ZM511 64V128H513V64H511ZM512 127H448V129H512V127Z" fill="#D0D5DD" mask="url(#path-59-inside-29_915_24758)"/>
<mask id="path-61-inside-30_915_24758" fill="white">
<path d="M512 64H576V128H512V64Z"/>
</mask>
<path d="M576 128V129H577V128H576ZM575 64V128H577V64H575ZM576 127H512V129H576V127Z" fill="#D0D5DD" mask="url(#path-61-inside-30_915_24758)"/>
<mask id="path-63-inside-31_915_24758" fill="white">
<path d="M576 64H640V128H576V64Z"/>
</mask>
<path d="M576 64H640V128H576V64Z" fill="#F2F4F7"/>
<path d="M640 128V129H641V128H640ZM639 64V128H641V64H639ZM640 127H576V129H640V127Z" fill="#D0D5DD" mask="url(#path-63-inside-31_915_24758)"/>
<mask id="path-65-inside-32_915_24758" fill="white">
<path d="M640 64H704V128H640V64Z"/>
</mask>
<path d="M704 128V129H705V128H704ZM703 64V128H705V64H703ZM704 127H640V129H704V127Z" fill="#D0D5DD" mask="url(#path-65-inside-32_915_24758)"/>
<mask id="path-67-inside-33_915_24758" fill="white">
<path d="M704 64H768V128H704V64Z"/>
</mask>
<path d="M768 128V129H769V128H768ZM767 64V128H769V64H767ZM768 127H704V129H768V127Z" fill="#D0D5DD" mask="url(#path-67-inside-33_915_24758)"/>
<mask id="path-69-inside-34_915_24758" fill="white">
<path d="M768 64H832V128H768V64Z"/>
</mask>
<path d="M832 128V129H833V128H832ZM831 64V128H833V64H831ZM832 127H768V129H832V127Z" fill="#D0D5DD" mask="url(#path-69-inside-34_915_24758)"/>
<mask id="path-71-inside-35_915_24758" fill="white">
<path d="M832 64H896V128H832V64Z"/>
</mask>
<path d="M896 128V129H897V128H896ZM895 64V128H897V64H895ZM896 127H832V129H896V127Z" fill="#D0D5DD" mask="url(#path-71-inside-35_915_24758)"/>
<mask id="path-73-inside-36_915_24758" fill="white">
<path d="M896 64H960V128H896V64Z"/>
</mask>
<path d="M960 128V129H961V128H960ZM959 64V128H961V64H959ZM960 127H896V129H960V127Z" fill="#D0D5DD" mask="url(#path-73-inside-36_915_24758)"/>
<mask id="path-75-inside-37_915_24758" fill="white">
<path d="M960 64H1024V128H960V64Z"/>
</mask>
<path d="M1024 128V129H1025V128H1024ZM1023 64V128H1025V64H1023ZM1024 127H960V129H1024V127Z" fill="#D0D5DD" mask="url(#path-75-inside-37_915_24758)"/>
<mask id="path-77-inside-38_915_24758" fill="white">
<path d="M1024 64H1088V128H1024V64Z"/>
</mask>
<path d="M1088 128V129H1089V128H1088ZM1087 64V128H1089V64H1087ZM1088 127H1024V129H1088V127Z" fill="#D0D5DD" mask="url(#path-77-inside-38_915_24758)"/>
<mask id="path-79-inside-39_915_24758" fill="white">
<path d="M1088 64H1152V128H1088V64Z"/>
</mask>
<path d="M1152 128V129H1153V128H1152ZM1151 64V128H1153V64H1151ZM1152 127H1088V129H1152V127Z" fill="#D0D5DD" mask="url(#path-79-inside-39_915_24758)"/>
<mask id="path-81-inside-40_915_24758" fill="white">
<path d="M1152 64H1216V128H1152V64Z"/>
</mask>
<path d="M1216 128V129H1217V128H1216ZM1215 64V128H1217V64H1215ZM1216 127H1152V129H1216V127Z" fill="#D0D5DD" mask="url(#path-81-inside-40_915_24758)"/>
<mask id="path-83-inside-41_915_24758" fill="white">
<path d="M1216 64H1280V128H1216V64Z"/>
</mask>
<path d="M1280 128V129H1281V128H1280ZM1279 64V128H1281V64H1279ZM1280 127H1216V129H1280V127Z" fill="#D0D5DD" mask="url(#path-83-inside-41_915_24758)"/>
<mask id="path-85-inside-42_915_24758" fill="white">
<path d="M1280 64H1344V128H1280V64Z"/>
</mask>
<path d="M1280 64H1344V128H1280V64Z" fill="#F2F4F7"/>
<path d="M1344 128V129H1345V128H1344ZM1343 64V128H1345V64H1343ZM1344 127H1280V129H1344V127Z" fill="#D0D5DD" mask="url(#path-85-inside-42_915_24758)"/>
<mask id="path-87-inside-43_915_24758" fill="white">
<path d="M1344 64H1408V128H1344V64Z"/>
</mask>
<path d="M1408 128V129H1409V128H1408ZM1407 64V128H1409V64H1407ZM1408 127H1344V129H1408V127Z" fill="#D0D5DD" mask="url(#path-87-inside-43_915_24758)"/>
<mask id="path-89-inside-44_915_24758" fill="white">
<path d="M1408 64H1472V128H1408V64Z"/>
</mask>
<path d="M1472 128V129H1473V128H1472ZM1471 64V128H1473V64H1471ZM1472 127H1408V129H1472V127Z" fill="#D0D5DD" mask="url(#path-89-inside-44_915_24758)"/>
<mask id="path-91-inside-45_915_24758" fill="white">
<path d="M1472 64H1536V128H1472V64Z"/>
</mask>
<path d="M1536 128V129H1537V128H1536ZM1535 64V128H1537V64H1535ZM1536 127H1472V129H1536V127Z" fill="#D0D5DD" mask="url(#path-91-inside-45_915_24758)"/>
<mask id="path-93-inside-46_915_24758" fill="white">
<path d="M1536 64H1600V128H1536V64Z"/>
</mask>
<path d="M1600 128V129H1601V128H1600ZM1599 64V128H1601V64H1599ZM1600 127H1536V129H1600V127Z" fill="#D0D5DD" mask="url(#path-93-inside-46_915_24758)"/>
<mask id="path-95-inside-47_915_24758" fill="white">
<path d="M1600 64H1664V128H1600V64Z"/>
</mask>
<path d="M1664 128V129H1665V128H1664ZM1663 64V128H1665V64H1663ZM1664 127H1600V129H1664V127Z" fill="#D0D5DD" mask="url(#path-95-inside-47_915_24758)"/>
<mask id="path-97-inside-48_915_24758" fill="white">
<path d="M1664 64H1728V128H1664V64Z"/>
</mask>
<path d="M1728 128V129H1729V128H1728ZM1727 64V128H1729V64H1727ZM1728 127H1664V129H1728V127Z" fill="#D0D5DD" mask="url(#path-97-inside-48_915_24758)"/>
<mask id="path-99-inside-49_915_24758" fill="white">
<path d="M192 128H256V192H192V128Z"/>
</mask>
<path d="M256 192V193H257V192H256ZM255 128V192H257V128H255ZM256 191H192V193H256V191Z" fill="#D0D5DD" mask="url(#path-99-inside-49_915_24758)"/>
<mask id="path-101-inside-50_915_24758" fill="white">
<path d="M256 128H320V192H256V128Z"/>
</mask>
<path d="M320 192V193H321V192H320ZM319 128V192H321V128H319ZM320 191H256V193H320V191Z" fill="#D0D5DD" mask="url(#path-101-inside-50_915_24758)"/>
<mask id="path-103-inside-51_915_24758" fill="white">
<path d="M320 128H384V192H320V128Z"/>
</mask>
<path d="M384 192V193H385V192H384ZM383 128V192H385V128H383ZM384 191H320V193H384V191Z" fill="#D0D5DD" mask="url(#path-103-inside-51_915_24758)"/>
<mask id="path-105-inside-52_915_24758" fill="white">
<path d="M384 128H448V192H384V128Z"/>
</mask>
<path d="M448 192V193H449V192H448ZM447 128V192H449V128H447ZM448 191H384V193H448V191Z" fill="#D0D5DD" mask="url(#path-105-inside-52_915_24758)"/>
<mask id="path-107-inside-53_915_24758" fill="white">
<path d="M448 128H512V192H448V128Z"/>
</mask>
<path d="M512 192V193H513V192H512ZM511 128V192H513V128H511ZM512 191H448V193H512V191Z" fill="#D0D5DD" mask="url(#path-107-inside-53_915_24758)"/>
<mask id="path-109-inside-54_915_24758" fill="white">
<path d="M512 128H576V192H512V128Z"/>
</mask>
<path d="M576 192V193H577V192H576ZM575 128V192H577V128H575ZM576 191H512V193H576V191Z" fill="#D0D5DD" mask="url(#path-109-inside-54_915_24758)"/>
<mask id="path-111-inside-55_915_24758" fill="white">
<path d="M576 128H640V192H576V128Z"/>
</mask>
<path d="M640 192V193H641V192H640ZM639 128V192H641V128H639ZM640 191H576V193H640V191Z" fill="#D0D5DD" mask="url(#path-111-inside-55_915_24758)"/>
<mask id="path-113-inside-56_915_24758" fill="white">
<path d="M640 128H704V192H640V128Z"/>
</mask>
<path d="M704 192V193H705V192H704ZM703 128V192H705V128H703ZM704 191H640V193H704V191Z" fill="#D0D5DD" mask="url(#path-113-inside-56_915_24758)"/>
<mask id="path-115-inside-57_915_24758" fill="white">
<path d="M704 128H768V192H704V128Z"/>
</mask>
<path d="M704 128H768V192H704V128Z" fill="#F2F4F7"/>
<path d="M768 192V193H769V192H768ZM767 128V192H769V128H767ZM768 191H704V193H768V191Z" fill="#D0D5DD" mask="url(#path-115-inside-57_915_24758)"/>
<mask id="path-117-inside-58_915_24758" fill="white">
<path d="M768 128H832V192H768V128Z"/>
</mask>
<path d="M832 192V193H833V192H832ZM831 128V192H833V128H831ZM832 191H768V193H832V191Z" fill="#D0D5DD" mask="url(#path-117-inside-58_915_24758)"/>
<mask id="path-119-inside-59_915_24758" fill="white">
<path d="M832 128H896V192H832V128Z"/>
</mask>
<path d="M896 192V193H897V192H896ZM895 128V192H897V128H895ZM896 191H832V193H896V191Z" fill="#D0D5DD" mask="url(#path-119-inside-59_915_24758)"/>
<mask id="path-121-inside-60_915_24758" fill="white">
<path d="M896 128H960V192H896V128Z"/>
</mask>
<path d="M960 192V193H961V192H960ZM959 128V192H961V128H959ZM960 191H896V193H960V191Z" fill="#D0D5DD" mask="url(#path-121-inside-60_915_24758)"/>
<mask id="path-123-inside-61_915_24758" fill="white">
<path d="M960 128H1024V192H960V128Z"/>
</mask>
<path d="M1024 192V193H1025V192H1024ZM1023 128V192H1025V128H1023ZM1024 191H960V193H1024V191Z" fill="#D0D5DD" mask="url(#path-123-inside-61_915_24758)"/>
<mask id="path-125-inside-62_915_24758" fill="white">
<path d="M1024 128H1088V192H1024V128Z"/>
</mask>
<path d="M1024 128H1088V192H1024V128Z" fill="#F2F4F7"/>
<path d="M1088 192V193H1089V192H1088ZM1087 128V192H1089V128H1087ZM1088 191H1024V193H1088V191Z" fill="#D0D5DD" mask="url(#path-125-inside-62_915_24758)"/>
<mask id="path-127-inside-63_915_24758" fill="white">
<path d="M1088 128H1152V192H1088V128Z"/>
</mask>
<path d="M1152 192V193H1153V192H1152ZM1151 128V192H1153V128H1151ZM1152 191H1088V193H1152V191Z" fill="#D0D5DD" mask="url(#path-127-inside-63_915_24758)"/>
<mask id="path-129-inside-64_915_24758" fill="white">
<path d="M1152 128H1216V192H1152V128Z"/>
</mask>
<path d="M1216 192V193H1217V192H1216ZM1215 128V192H1217V128H1215ZM1216 191H1152V193H1216V191Z" fill="#D0D5DD" mask="url(#path-129-inside-64_915_24758)"/>
<mask id="path-131-inside-65_915_24758" fill="white">
<path d="M1216 128H1280V192H1216V128Z"/>
</mask>
<path d="M1280 192V193H1281V192H1280ZM1279 128V192H1281V128H1279ZM1280 191H1216V193H1280V191Z" fill="#D0D5DD" mask="url(#path-131-inside-65_915_24758)"/>
<mask id="path-133-inside-66_915_24758" fill="white">
<path d="M1280 128H1344V192H1280V128Z"/>
</mask>
<path d="M1344 192V193H1345V192H1344ZM1343 128V192H1345V128H1343ZM1344 191H1280V193H1344V191Z" fill="#D0D5DD" mask="url(#path-133-inside-66_915_24758)"/>
<mask id="path-135-inside-67_915_24758" fill="white">
<path d="M1344 128H1408V192H1344V128Z"/>
</mask>
<path d="M1408 192V193H1409V192H1408ZM1407 128V192H1409V128H1407ZM1408 191H1344V193H1408V191Z" fill="#D0D5DD" mask="url(#path-135-inside-67_915_24758)"/>
<mask id="path-137-inside-68_915_24758" fill="white">
<path d="M1408 128H1472V192H1408V128Z"/>
</mask>
<path d="M1472 192V193H1473V192H1472ZM1471 128V192H1473V128H1471ZM1472 191H1408V193H1472V191Z" fill="#D0D5DD" mask="url(#path-137-inside-68_915_24758)"/>
<mask id="path-139-inside-69_915_24758" fill="white">
<path d="M1472 128H1536V192H1472V128Z"/>
</mask>
<path d="M1536 192V193H1537V192H1536ZM1535 128V192H1537V128H1535ZM1536 191H1472V193H1536V191Z" fill="#D0D5DD" mask="url(#path-139-inside-69_915_24758)"/>
<mask id="path-141-inside-70_915_24758" fill="white">
<path d="M1536 128H1600V192H1536V128Z"/>
</mask>
<path d="M1600 192V193H1601V192H1600ZM1599 128V192H1601V128H1599ZM1600 191H1536V193H1600V191Z" fill="#D0D5DD" mask="url(#path-141-inside-70_915_24758)"/>
<mask id="path-143-inside-71_915_24758" fill="white">
<path d="M1600 128H1664V192H1600V128Z"/>
</mask>
<path d="M1664 192V193H1665V192H1664ZM1663 128V192H1665V128H1663ZM1664 191H1600V193H1664V191Z" fill="#D0D5DD" mask="url(#path-143-inside-71_915_24758)"/>
<mask id="path-145-inside-72_915_24758" fill="white">
<path d="M1664 128H1728V192H1664V128Z"/>
</mask>
<path d="M1664 128H1728V192H1664V128Z" fill="#F2F4F7"/>
<path d="M1728 192V193H1729V192H1728ZM1727 128V192H1729V128H1727ZM1728 191H1664V193H1728V191Z" fill="#D0D5DD" mask="url(#path-145-inside-72_915_24758)"/>
<mask id="path-147-inside-73_915_24758" fill="white">
<path d="M192 192H256V256H192V192Z"/>
</mask>
<path d="M192 192H256V256H192V192Z" fill="#F2F4F7"/>
<path d="M256 256V257H257V256H256ZM255 192V256H257V192H255ZM256 255H192V257H256V255Z" fill="#D0D5DD" mask="url(#path-147-inside-73_915_24758)"/>
<mask id="path-149-inside-74_915_24758" fill="white">
<path d="M256 192H320V256H256V192Z"/>
</mask>
<path d="M320 256V257H321V256H320ZM319 192V256H321V192H319ZM320 255H256V257H320V255Z" fill="#D0D5DD" mask="url(#path-149-inside-74_915_24758)"/>
<mask id="path-151-inside-75_915_24758" fill="white">
<path d="M320 192H384V256H320V192Z"/>
</mask>
<path d="M384 256V257H385V256H384ZM383 192V256H385V192H383ZM384 255H320V257H384V255Z" fill="#D0D5DD" mask="url(#path-151-inside-75_915_24758)"/>
<mask id="path-153-inside-76_915_24758" fill="white">
<path d="M384 192H448V256H384V192Z"/>
</mask>
<path d="M384 192H448V256H384V192Z" fill="#F2F4F7"/>
<path d="M448 256V257H449V256H448ZM447 192V256H449V192H447ZM448 255H384V257H448V255Z" fill="#D0D5DD" mask="url(#path-153-inside-76_915_24758)"/>
<mask id="path-155-inside-77_915_24758" fill="white">
<path d="M448 192H512V256H448V192Z"/>
</mask>
<path d="M512 256V257H513V256H512ZM511 192V256H513V192H511ZM512 255H448V257H512V255Z" fill="#D0D5DD" mask="url(#path-155-inside-77_915_24758)"/>
<mask id="path-157-inside-78_915_24758" fill="white">
<path d="M512 192H576V256H512V192Z"/>
</mask>
<path d="M576 256V257H577V256H576ZM575 192V256H577V192H575ZM576 255H512V257H576V255Z" fill="#D0D5DD" mask="url(#path-157-inside-78_915_24758)"/>
<mask id="path-159-inside-79_915_24758" fill="white">
<path d="M576 192H640V256H576V192Z"/>
</mask>
<path d="M640 256V257H641V256H640ZM639 192V256H641V192H639ZM640 255H576V257H640V255Z" fill="#D0D5DD" mask="url(#path-159-inside-79_915_24758)"/>
<mask id="path-161-inside-80_915_24758" fill="white">
<path d="M640 192H704V256H640V192Z"/>
</mask>
<path d="M704 256V257H705V256H704ZM703 192V256H705V192H703ZM704 255H640V257H704V255Z" fill="#D0D5DD" mask="url(#path-161-inside-80_915_24758)"/>
<mask id="path-163-inside-81_915_24758" fill="white">
<path d="M704 192H768V256H704V192Z"/>
</mask>
<path d="M768 256V257H769V256H768ZM767 192V256H769V192H767ZM768 255H704V257H768V255Z" fill="#D0D5DD" mask="url(#path-163-inside-81_915_24758)"/>
<mask id="path-165-inside-82_915_24758" fill="white">
<path d="M768 192H832V256H768V192Z"/>
</mask>
<path d="M832 256V257H833V256H832ZM831 192V256H833V192H831ZM832 255H768V257H832V255Z" fill="#D0D5DD" mask="url(#path-165-inside-82_915_24758)"/>
<mask id="path-167-inside-83_915_24758" fill="white">
<path d="M832 192H896V256H832V192Z"/>
</mask>
<path d="M896 256V257H897V256H896ZM895 192V256H897V192H895ZM896 255H832V257H896V255Z" fill="#D0D5DD" mask="url(#path-167-inside-83_915_24758)"/>
<mask id="path-169-inside-84_915_24758" fill="white">
<path d="M896 192H960V256H896V192Z"/>
</mask>
<path d="M960 256V257H961V256H960ZM959 192V256H961V192H959ZM960 255H896V257H960V255Z" fill="#D0D5DD" mask="url(#path-169-inside-84_915_24758)"/>
<mask id="path-171-inside-85_915_24758" fill="white">
<path d="M960 192H1024V256H960V192Z"/>
</mask>
<path d="M1024 256V257H1025V256H1024ZM1023 192V256H1025V192H1023ZM1024 255H960V257H1024V255Z" fill="#D0D5DD" mask="url(#path-171-inside-85_915_24758)"/>
<mask id="path-173-inside-86_915_24758" fill="white">
<path d="M1024 192H1088V256H1024V192Z"/>
</mask>
<path d="M1088 256V257H1089V256H1088ZM1087 192V256H1089V192H1087ZM1088 255H1024V257H1088V255Z" fill="#D0D5DD" mask="url(#path-173-inside-86_915_24758)"/>
<mask id="path-175-inside-87_915_24758" fill="white">
<path d="M1088 192H1152V256H1088V192Z"/>
</mask>
<path d="M1152 256V257H1153V256H1152ZM1151 192V256H1153V192H1151ZM1152 255H1088V257H1152V255Z" fill="#D0D5DD" mask="url(#path-175-inside-87_915_24758)"/>
<mask id="path-177-inside-88_915_24758" fill="white">
<path d="M1152 192H1216V256H1152V192Z"/>
</mask>
<path d="M1216 256V257H1217V256H1216ZM1215 192V256H1217V192H1215ZM1216 255H1152V257H1216V255Z" fill="#D0D5DD" mask="url(#path-177-inside-88_915_24758)"/>
<mask id="path-179-inside-89_915_24758" fill="white">
<path d="M1216 192H1280V256H1216V192Z"/>
</mask>
<path d="M1280 256V257H1281V256H1280ZM1279 192V256H1281V192H1279ZM1280 255H1216V257H1280V255Z" fill="#D0D5DD" mask="url(#path-179-inside-89_915_24758)"/>
<mask id="path-181-inside-90_915_24758" fill="white">
<path d="M1280 192H1344V256H1280V192Z"/>
</mask>
<path d="M1280 192H1344V256H1280V192Z" fill="#F2F4F7"/>
<path d="M1344 256V257H1345V256H1344ZM1343 192V256H1345V192H1343ZM1344 255H1280V257H1344V255Z" fill="#D0D5DD" mask="url(#path-181-inside-90_915_24758)"/>
<mask id="path-183-inside-91_915_24758" fill="white">
<path d="M1344 192H1408V256H1344V192Z"/>
</mask>
<path d="M1408 256V257H1409V256H1408ZM1407 192V256H1409V192H1407ZM1408 255H1344V257H1408V255Z" fill="#D0D5DD" mask="url(#path-183-inside-91_915_24758)"/>
<mask id="path-185-inside-92_915_24758" fill="white">
<path d="M1408 192H1472V256H1408V192Z"/>
</mask>
<path d="M1472 256V257H1473V256H1472ZM1471 192V256H1473V192H1471ZM1472 255H1408V257H1472V255Z" fill="#D0D5DD" mask="url(#path-185-inside-92_915_24758)"/>
<mask id="path-187-inside-93_915_24758" fill="white">
<path d="M1472 192H1536V256H1472V192Z"/>
</mask>
<path d="M1536 256V257H1537V256H1536ZM1535 192V256H1537V192H1535ZM1536 255H1472V257H1536V255Z" fill="#D0D5DD" mask="url(#path-187-inside-93_915_24758)"/>
<mask id="path-189-inside-94_915_24758" fill="white">
<path d="M1536 192H1600V256H1536V192Z"/>
</mask>
<path d="M1600 256V257H1601V256H1600ZM1599 192V256H1601V192H1599ZM1600 255H1536V257H1600V255Z" fill="#D0D5DD" mask="url(#path-189-inside-94_915_24758)"/>
<mask id="path-191-inside-95_915_24758" fill="white">
<path d="M1600 192H1664V256H1600V192Z"/>
</mask>
<path d="M1664 256V257H1665V256H1664ZM1663 192V256H1665V192H1663ZM1664 255H1600V257H1664V255Z" fill="#D0D5DD" mask="url(#path-191-inside-95_915_24758)"/>
<mask id="path-193-inside-96_915_24758" fill="white">
<path d="M1664 192H1728V256H1664V192Z"/>
</mask>
<path d="M1728 256V257H1729V256H1728ZM1727 192V256H1729V192H1727ZM1728 255H1664V257H1728V255Z" fill="#D0D5DD" mask="url(#path-193-inside-96_915_24758)"/>
<mask id="path-195-inside-97_915_24758" fill="white">
<path d="M192 256H256V320H192V256Z"/>
</mask>
<path d="M256 320V321H257V320H256ZM255 256V320H257V256H255ZM256 319H192V321H256V319Z" fill="#D0D5DD" mask="url(#path-195-inside-97_915_24758)"/>
<mask id="path-197-inside-98_915_24758" fill="white">
<path d="M256 256H320V320H256V256Z"/>
</mask>
<path d="M320 320V321H321V320H320ZM319 256V320H321V256H319ZM320 319H256V321H320V319Z" fill="#D0D5DD" mask="url(#path-197-inside-98_915_24758)"/>
<mask id="path-199-inside-99_915_24758" fill="white">
<path d="M320 256H384V320H320V256Z"/>
</mask>
<path d="M384 320V321H385V320H384ZM383 256V320H385V256H383ZM384 319H320V321H384V319Z" fill="#D0D5DD" mask="url(#path-199-inside-99_915_24758)"/>
<mask id="path-201-inside-100_915_24758" fill="white">
<path d="M384 256H448V320H384V256Z"/>
</mask>
<path d="M448 320V321H449V320H448ZM447 256V320H449V256H447ZM448 319H384V321H448V319Z" fill="#D0D5DD" mask="url(#path-201-inside-100_915_24758)"/>
<mask id="path-203-inside-101_915_24758" fill="white">
<path d="M448 256H512V320H448V256Z"/>
</mask>
<path d="M512 320V321H513V320H512ZM511 256V320H513V256H511ZM512 319H448V321H512V319Z" fill="#D0D5DD" mask="url(#path-203-inside-101_915_24758)"/>
<mask id="path-205-inside-102_915_24758" fill="white">
<path d="M512 256H576V320H512V256Z"/>
</mask>
<path d="M512 256H576V320H512V256Z" fill="#F2F4F7"/>
<path d="M576 320V321H577V320H576ZM575 256V320H577V256H575ZM576 319H512V321H576V319Z" fill="#D0D5DD" mask="url(#path-205-inside-102_915_24758)"/>
<mask id="path-207-inside-103_915_24758" fill="white">
<path d="M576 256H640V320H576V256Z"/>
</mask>
<path d="M640 320V321H641V320H640ZM639 256V320H641V256H639ZM640 319H576V321H640V319Z" fill="#D0D5DD" mask="url(#path-207-inside-103_915_24758)"/>
<mask id="path-209-inside-104_915_24758" fill="white">
<path d="M640 256H704V320H640V256Z"/>
</mask>
<path d="M704 320V321H705V320H704ZM703 256V320H705V256H703ZM704 319H640V321H704V319Z" fill="#D0D5DD" mask="url(#path-209-inside-104_915_24758)"/>
<mask id="path-211-inside-105_915_24758" fill="white">
<path d="M704 256H768V320H704V256Z"/>
</mask>
<path d="M768 320V321H769V320H768ZM767 256V320H769V256H767ZM768 319H704V321H768V319Z" fill="#D0D5DD" mask="url(#path-211-inside-105_915_24758)"/>
<mask id="path-213-inside-106_915_24758" fill="white">
<path d="M768 256H832V320H768V256Z"/>
</mask>
<path d="M832 320V321H833V320H832ZM831 256V320H833V256H831ZM832 319H768V321H832V319Z" fill="#D0D5DD" mask="url(#path-213-inside-106_915_24758)"/>
<mask id="path-215-inside-107_915_24758" fill="white">
<path d="M832 256H896V320H832V256Z"/>
</mask>
<path d="M832 256H896V320H832V256Z" fill="#F2F4F7"/>
<path d="M896 320V321H897V320H896ZM895 256V320H897V256H895ZM896 319H832V321H896V319Z" fill="#D0D5DD" mask="url(#path-215-inside-107_915_24758)"/>
<mask id="path-217-inside-108_915_24758" fill="white">
<path d="M896 256H960V320H896V256Z"/>
</mask>
<path d="M960 320V321H961V320H960ZM959 256V320H961V256H959ZM960 319H896V321H960V319Z" fill="#D0D5DD" mask="url(#path-217-inside-108_915_24758)"/>
<mask id="path-219-inside-109_915_24758" fill="white">
<path d="M960 256H1024V320H960V256Z"/>
</mask>
<path d="M1024 320V321H1025V320H1024ZM1023 256V320H1025V256H1023ZM1024 319H960V321H1024V319Z" fill="#D0D5DD" mask="url(#path-219-inside-109_915_24758)"/>
<mask id="path-221-inside-110_915_24758" fill="white">
<path d="M1024 256H1088V320H1024V256Z"/>
</mask>
<path d="M1088 320V321H1089V320H1088ZM1087 256V320H1089V256H1087ZM1088 319H1024V321H1088V319Z" fill="#D0D5DD" mask="url(#path-221-inside-110_915_24758)"/>
<mask id="path-223-inside-111_915_24758" fill="white">
<path d="M1088 256H1152V320H1088V256Z"/>
</mask>
<path d="M1152 320V321H1153V320H1152ZM1151 256V320H1153V256H1151ZM1152 319H1088V321H1152V319Z" fill="#D0D5DD" mask="url(#path-223-inside-111_915_24758)"/>
<mask id="path-225-inside-112_915_24758" fill="white">
<path d="M1152 256H1216V320H1152V256Z"/>
</mask>
<path d="M1216 320V321H1217V320H1216ZM1215 256V320H1217V256H1215ZM1216 319H1152V321H1216V319Z" fill="#D0D5DD" mask="url(#path-225-inside-112_915_24758)"/>
<mask id="path-227-inside-113_915_24758" fill="white">
<path d="M1216 256H1280V320H1216V256Z"/>
</mask>
<path d="M1280 320V321H1281V320H1280ZM1279 256V320H1281V256H1279ZM1280 319H1216V321H1280V319Z" fill="#D0D5DD" mask="url(#path-227-inside-113_915_24758)"/>
<mask id="path-229-inside-114_915_24758" fill="white">
<path d="M1280 256H1344V320H1280V256Z"/>
</mask>
<path d="M1344 320V321H1345V320H1344ZM1343 256V320H1345V256H1343ZM1344 319H1280V321H1344V319Z" fill="#D0D5DD" mask="url(#path-229-inside-114_915_24758)"/>
<mask id="path-231-inside-115_915_24758" fill="white">
<path d="M1344 256H1408V320H1344V256Z"/>
</mask>
<path d="M1408 320V321H1409V320H1408ZM1407 256V320H1409V256H1407ZM1408 319H1344V321H1408V319Z" fill="#D0D5DD" mask="url(#path-231-inside-115_915_24758)"/>
<mask id="path-233-inside-116_915_24758" fill="white">
<path d="M1408 256H1472V320H1408V256Z"/>
</mask>
<path d="M1472 320V321H1473V320H1472ZM1471 256V320H1473V256H1471ZM1472 319H1408V321H1472V319Z" fill="#D0D5DD" mask="url(#path-233-inside-116_915_24758)"/>
<mask id="path-235-inside-117_915_24758" fill="white">
<path d="M1472 256H1536V320H1472V256Z"/>
</mask>
<path d="M1536 320V321H1537V320H1536ZM1535 256V320H1537V256H1535ZM1536 319H1472V321H1536V319Z" fill="#D0D5DD" mask="url(#path-235-inside-117_915_24758)"/>
<mask id="path-237-inside-118_915_24758" fill="white">
<path d="M1536 256H1600V320H1536V256Z"/>
</mask>
<path d="M1536 256H1600V320H1536V256Z" fill="#F2F4F7"/>
<path d="M1600 320V321H1601V320H1600ZM1599 256V320H1601V256H1599ZM1600 319H1536V321H1600V319Z" fill="#D0D5DD" mask="url(#path-237-inside-118_915_24758)"/>
<mask id="path-239-inside-119_915_24758" fill="white">
<path d="M1600 256H1664V320H1600V256Z"/>
</mask>
<path d="M1664 320V321H1665V320H1664ZM1663 256V320H1665V256H1663ZM1664 319H1600V321H1664V319Z" fill="#D0D5DD" mask="url(#path-239-inside-119_915_24758)"/>
<mask id="path-241-inside-120_915_24758" fill="white">
<path d="M1664 256H1728V320H1664V256Z"/>
</mask>
<path d="M1728 320V321H1729V320H1728ZM1727 256V320H1729V256H1727ZM1728 319H1664V321H1728V319Z" fill="#D0D5DD" mask="url(#path-241-inside-120_915_24758)"/>
<mask id="path-243-inside-121_915_24758" fill="white">
<path d="M192 320H256V384H192V320Z"/>
</mask>
<path d="M256 384V385H257V384H256ZM255 320V384H257V320H255ZM256 383H192V385H256V383Z" fill="#D0D5DD" mask="url(#path-243-inside-121_915_24758)"/>
<mask id="path-245-inside-122_915_24758" fill="white">
<path d="M256 320H320V384H256V320Z"/>
</mask>
<path d="M320 384V385H321V384H320ZM319 320V384H321V320H319ZM320 383H256V385H320V383Z" fill="#D0D5DD" mask="url(#path-245-inside-122_915_24758)"/>
<mask id="path-247-inside-123_915_24758" fill="white">
<path d="M320 320H384V384H320V320Z"/>
</mask>
<path d="M384 384V385H385V384H384ZM383 320V384H385V320H383ZM384 383H320V385H384V383Z" fill="#D0D5DD" mask="url(#path-247-inside-123_915_24758)"/>
<mask id="path-249-inside-124_915_24758" fill="white">
<path d="M384 320H448V384H384V320Z"/>
</mask>
<path d="M448 384V385H449V384H448ZM447 320V384H449V320H447ZM448 383H384V385H448V383Z" fill="#D0D5DD" mask="url(#path-249-inside-124_915_24758)"/>
<mask id="path-251-inside-125_915_24758" fill="white">
<path d="M448 320H512V384H448V320Z"/>
</mask>
<path d="M512 384V385H513V384H512ZM511 320V384H513V320H511ZM512 383H448V385H512V383Z" fill="#D0D5DD" mask="url(#path-251-inside-125_915_24758)"/>
<mask id="path-253-inside-126_915_24758" fill="white">
<path d="M512 320H576V384H512V320Z"/>
</mask>
<path d="M576 384V385H577V384H576ZM575 320V384H577V320H575ZM576 383H512V385H576V383Z" fill="#D0D5DD" mask="url(#path-253-inside-126_915_24758)"/>
<mask id="path-255-inside-127_915_24758" fill="white">
<path d="M576 320H640V384H576V320Z"/>
</mask>
<path d="M640 384V385H641V384H640ZM639 320V384H641V320H639ZM640 383H576V385H640V383Z" fill="#D0D5DD" mask="url(#path-255-inside-127_915_24758)"/>
<mask id="path-257-inside-128_915_24758" fill="white">
<path d="M640 320H704V384H640V320Z"/>
</mask>
<path d="M704 384V385H705V384H704ZM703 320V384H705V320H703ZM704 383H640V385H704V383Z" fill="#D0D5DD" mask="url(#path-257-inside-128_915_24758)"/>
<mask id="path-259-inside-129_915_24758" fill="white">
<path d="M704 320H768V384H704V320Z"/>
</mask>
<path d="M704 320H768V384H704V320Z" fill="#F2F4F7"/>
<path d="M768 384V385H769V384H768ZM767 320V384H769V320H767ZM768 383H704V385H768V383Z" fill="#D0D5DD" mask="url(#path-259-inside-129_915_24758)"/>
<mask id="path-261-inside-130_915_24758" fill="white">
<path d="M768 320H832V384H768V320Z"/>
</mask>
<path d="M832 384V385H833V384H832ZM831 320V384H833V320H831ZM832 383H768V385H832V383Z" fill="#D0D5DD" mask="url(#path-261-inside-130_915_24758)"/>
<mask id="path-263-inside-131_915_24758" fill="white">
<path d="M832 320H896V384H832V320Z"/>
</mask>
<path d="M896 384V385H897V384H896ZM895 320V384H897V320H895ZM896 383H832V385H896V383Z" fill="#D0D5DD" mask="url(#path-263-inside-131_915_24758)"/>
<mask id="path-265-inside-132_915_24758" fill="white">
<path d="M896 320H960V384H896V320Z"/>
</mask>
<path d="M960 384V385H961V384H960ZM959 320V384H961V320H959ZM960 383H896V385H960V383Z" fill="#D0D5DD" mask="url(#path-265-inside-132_915_24758)"/>
<mask id="path-267-inside-133_915_24758" fill="white">
<path d="M960 320H1024V384H960V320Z"/>
</mask>
<path d="M1024 384V385H1025V384H1024ZM1023 320V384H1025V320H1023ZM1024 383H960V385H1024V383Z" fill="#D0D5DD" mask="url(#path-267-inside-133_915_24758)"/>
<mask id="path-269-inside-134_915_24758" fill="white">
<path d="M1024 320H1088V384H1024V320Z"/>
</mask>
<path d="M1088 384V385H1089V384H1088ZM1087 320V384H1089V320H1087ZM1088 383H1024V385H1088V383Z" fill="#D0D5DD" mask="url(#path-269-inside-134_915_24758)"/>
<mask id="path-271-inside-135_915_24758" fill="white">
<path d="M1088 320H1152V384H1088V320Z"/>
</mask>
<path d="M1088 320H1152V384H1088V320Z" fill="#F2F4F7"/>
<path d="M1152 384V385H1153V384H1152ZM1151 320V384H1153V320H1151ZM1152 383H1088V385H1152V383Z" fill="#D0D5DD" mask="url(#path-271-inside-135_915_24758)"/>
<mask id="path-273-inside-136_915_24758" fill="white">
<path d="M1152 320H1216V384H1152V320Z"/>
</mask>
<path d="M1216 384V385H1217V384H1216ZM1215 320V384H1217V320H1215ZM1216 383H1152V385H1216V383Z" fill="#D0D5DD" mask="url(#path-273-inside-136_915_24758)"/>
<mask id="path-275-inside-137_915_24758" fill="white">
<path d="M1216 320H1280V384H1216V320Z"/>
</mask>
<path d="M1280 384V385H1281V384H1280ZM1279 320V384H1281V320H1279ZM1280 383H1216V385H1280V383Z" fill="#D0D5DD" mask="url(#path-275-inside-137_915_24758)"/>
<mask id="path-277-inside-138_915_24758" fill="white">
<path d="M1280 320H1344V384H1280V320Z"/>
</mask>
<path d="M1280 320H1344V384H1280V320Z" fill="#F2F4F7"/>
<path d="M1344 384V385H1345V384H1344ZM1343 320V384H1345V320H1343ZM1344 383H1280V385H1344V383Z" fill="#D0D5DD" mask="url(#path-277-inside-138_915_24758)"/>
<mask id="path-279-inside-139_915_24758" fill="white">
<path d="M1344 320H1408V384H1344V320Z"/>
</mask>
<path d="M1408 384V385H1409V384H1408ZM1407 320V384H1409V320H1407ZM1408 383H1344V385H1408V383Z" fill="#D0D5DD" mask="url(#path-279-inside-139_915_24758)"/>
<mask id="path-281-inside-140_915_24758" fill="white">
<path d="M1408 320H1472V384H1408V320Z"/>
</mask>
<path d="M1472 384V385H1473V384H1472ZM1471 320V384H1473V320H1471ZM1472 383H1408V385H1472V383Z" fill="#D0D5DD" mask="url(#path-281-inside-140_915_24758)"/>
<mask id="path-283-inside-141_915_24758" fill="white">
<path d="M1472 320H1536V384H1472V320Z"/>
</mask>
<path d="M1536 384V385H1537V384H1536ZM1535 320V384H1537V320H1535ZM1536 383H1472V385H1536V383Z" fill="#D0D5DD" mask="url(#path-283-inside-141_915_24758)"/>
<mask id="path-285-inside-142_915_24758" fill="white">
<path d="M1536 320H1600V384H1536V320Z"/>
</mask>
<path d="M1600 384V385H1601V384H1600ZM1599 320V384H1601V320H1599ZM1600 383H1536V385H1600V383Z" fill="#D0D5DD" mask="url(#path-285-inside-142_915_24758)"/>
<mask id="path-287-inside-143_915_24758" fill="white">
<path d="M1600 320H1664V384H1600V320Z"/>
</mask>
<path d="M1664 384V385H1665V384H1664ZM1663 320V384H1665V320H1663ZM1664 383H1600V385H1664V383Z" fill="#D0D5DD" mask="url(#path-287-inside-143_915_24758)"/>
<mask id="path-289-inside-144_915_24758" fill="white">
<path d="M1664 320H1728V384H1664V320Z"/>
</mask>
<path d="M1728 384V385H1729V384H1728ZM1727 320V384H1729V320H1727ZM1728 383H1664V385H1728V383Z" fill="#D0D5DD" mask="url(#path-289-inside-144_915_24758)"/>
<mask id="path-291-inside-145_915_24758" fill="white">
<path d="M192 384H256V448H192V384Z"/>
</mask>
<path d="M256 448V449H257V448H256ZM255 384V448H257V384H255ZM256 447H192V449H256V447Z" fill="#D0D5DD" mask="url(#path-291-inside-145_915_24758)"/>
<mask id="path-293-inside-146_915_24758" fill="white">
<path d="M256 384H320V448H256V384Z"/>
</mask>
<path d="M320 448V449H321V448H320ZM319 384V448H321V384H319ZM320 447H256V449H320V447Z" fill="#D0D5DD" mask="url(#path-293-inside-146_915_24758)"/>
<mask id="path-295-inside-147_915_24758" fill="white">
<path d="M320 384H384V448H320V384Z"/>
</mask>
<path d="M384 448V449H385V448H384ZM383 384V448H385V384H383ZM384 447H320V449H384V447Z" fill="#D0D5DD" mask="url(#path-295-inside-147_915_24758)"/>
<mask id="path-297-inside-148_915_24758" fill="white">
<path d="M384 384H448V448H384V384Z"/>
</mask>
<path d="M448 448V449H449V448H448ZM447 384V448H449V384H447ZM448 447H384V449H448V447Z" fill="#D0D5DD" mask="url(#path-297-inside-148_915_24758)"/>
<mask id="path-299-inside-149_915_24758" fill="white">
<path d="M448 384H512V448H448V384Z"/>
</mask>
<path d="M448 384H512V448H448V384Z" fill="#F2F4F7"/>
<path d="M512 448V449H513V448H512ZM511 384V448H513V384H511ZM512 447H448V449H512V447Z" fill="#D0D5DD" mask="url(#path-299-inside-149_915_24758)"/>
<mask id="path-301-inside-150_915_24758" fill="white">
<path d="M512 384H576V448H512V384Z"/>
</mask>
<path d="M576 448V449H577V448H576ZM575 384V448H577V384H575ZM576 447H512V449H576V447Z" fill="#D0D5DD" mask="url(#path-301-inside-150_915_24758)"/>
<mask id="path-303-inside-151_915_24758" fill="white">
<path d="M576 384H640V448H576V384Z"/>
</mask>
<path d="M640 448V449H641V448H640ZM639 384V448H641V384H639ZM640 447H576V449H640V447Z" fill="#D0D5DD" mask="url(#path-303-inside-151_915_24758)"/>
<mask id="path-305-inside-152_915_24758" fill="white">
<path d="M640 384H704V448H640V384Z"/>
</mask>
<path d="M704 448V449H705V448H704ZM703 384V448H705V384H703ZM704 447H640V449H704V447Z" fill="#D0D5DD" mask="url(#path-305-inside-152_915_24758)"/>
<mask id="path-307-inside-153_915_24758" fill="white">
<path d="M704 384H768V448H704V384Z"/>
</mask>
<path d="M768 448V449H769V448H768ZM767 384V448H769V384H767ZM768 447H704V449H768V447Z" fill="#D0D5DD" mask="url(#path-307-inside-153_915_24758)"/>
<mask id="path-309-inside-154_915_24758" fill="white">
<path d="M768 384H832V448H768V384Z"/>
</mask>
<path d="M832 448V449H833V448H832ZM831 384V448H833V384H831ZM832 447H768V449H832V447Z" fill="#D0D5DD" mask="url(#path-309-inside-154_915_24758)"/>
<mask id="path-311-inside-155_915_24758" fill="white">
<path d="M832 384H896V448H832V384Z"/>
</mask>
<path d="M896 448V449H897V448H896ZM895 384V448H897V384H895ZM896 447H832V449H896V447Z" fill="#D0D5DD" mask="url(#path-311-inside-155_915_24758)"/>
<mask id="path-313-inside-156_915_24758" fill="white">
<path d="M896 384H960V448H896V384Z"/>
</mask>
<path d="M896 384H960V448H896V384Z" fill="#F2F4F7"/>
<path d="M960 448V449H961V448H960ZM959 384V448H961V384H959ZM960 447H896V449H960V447Z" fill="#D0D5DD" mask="url(#path-313-inside-156_915_24758)"/>
<mask id="path-315-inside-157_915_24758" fill="white">
<path d="M960 384H1024V448H960V384Z"/>
</mask>
<path d="M1024 448V449H1025V448H1024ZM1023 384V448H1025V384H1023ZM1024 447H960V449H1024V447Z" fill="#D0D5DD" mask="url(#path-315-inside-157_915_24758)"/>
<mask id="path-317-inside-158_915_24758" fill="white">
<path d="M1024 384H1088V448H1024V384Z"/>
</mask>
<path d="M1088 448V449H1089V448H1088ZM1087 384V448H1089V384H1087ZM1088 447H1024V449H1088V447Z" fill="#D0D5DD" mask="url(#path-317-inside-158_915_24758)"/>
<mask id="path-319-inside-159_915_24758" fill="white">
<path d="M1088 384H1152V448H1088V384Z"/>
</mask>
<path d="M1152 448V449H1153V448H1152ZM1151 384V448H1153V384H1151ZM1152 447H1088V449H1152V447Z" fill="#D0D5DD" mask="url(#path-319-inside-159_915_24758)"/>
<mask id="path-321-inside-160_915_24758" fill="white">
<path d="M1152 384H1216V448H1152V384Z"/>
</mask>
<path d="M1216 448V449H1217V448H1216ZM1215 384V448H1217V384H1215ZM1216 447H1152V449H1216V447Z" fill="#D0D5DD" mask="url(#path-321-inside-160_915_24758)"/>
<mask id="path-323-inside-161_915_24758" fill="white">
<path d="M1216 384H1280V448H1216V384Z"/>
</mask>
<path d="M1280 448V449H1281V448H1280ZM1279 384V448H1281V384H1279ZM1280 447H1216V449H1280V447Z" fill="#D0D5DD" mask="url(#path-323-inside-161_915_24758)"/>
<mask id="path-325-inside-162_915_24758" fill="white">
<path d="M1280 384H1344V448H1280V384Z"/>
</mask>
<path d="M1344 448V449H1345V448H1344ZM1343 384V448H1345V384H1343ZM1344 447H1280V449H1344V447Z" fill="#D0D5DD" mask="url(#path-325-inside-162_915_24758)"/>
<mask id="path-327-inside-163_915_24758" fill="white">
<path d="M1344 384H1408V448H1344V384Z"/>
</mask>
<path d="M1408 448V449H1409V448H1408ZM1407 384V448H1409V384H1407ZM1408 447H1344V449H1408V447Z" fill="#D0D5DD" mask="url(#path-327-inside-163_915_24758)"/>
<mask id="path-329-inside-164_915_24758" fill="white">
<path d="M1408 384H1472V448H1408V384Z"/>
</mask>
<path d="M1472 448V449H1473V448H1472ZM1471 384V448H1473V384H1471ZM1472 447H1408V449H1472V447Z" fill="#D0D5DD" mask="url(#path-329-inside-164_915_24758)"/>
<mask id="path-331-inside-165_915_24758" fill="white">
<path d="M1472 384H1536V448H1472V384Z"/>
</mask>
<path d="M1472 384H1536V448H1472V384Z" fill="#F2F4F7"/>
<path d="M1536 448V449H1537V448H1536ZM1535 384V448H1537V384H1535ZM1536 447H1472V449H1536V447Z" fill="#D0D5DD" mask="url(#path-331-inside-165_915_24758)"/>
<mask id="path-333-inside-166_915_24758" fill="white">
<path d="M1536 384H1600V448H1536V384Z"/>
</mask>
<path d="M1600 448V449H1601V448H1600ZM1599 384V448H1601V384H1599ZM1600 447H1536V449H1600V447Z" fill="#D0D5DD" mask="url(#path-333-inside-166_915_24758)"/>
<mask id="path-335-inside-167_915_24758" fill="white">
<path d="M1600 384H1664V448H1600V384Z"/>
</mask>
<path d="M1664 448V449H1665V448H1664ZM1663 384V448H1665V384H1663ZM1664 447H1600V449H1664V447Z" fill="#D0D5DD" mask="url(#path-335-inside-167_915_24758)"/>
<mask id="path-337-inside-168_915_24758" fill="white">
<path d="M1664 384H1728V448H1664V384Z"/>
</mask>
<path d="M1728 448V449H1729V448H1728ZM1727 384V448H1729V384H1727ZM1728 447H1664V449H1728V447Z" fill="#D0D5DD" mask="url(#path-337-inside-168_915_24758)"/>
<mask id="path-339-inside-169_915_24758" fill="white">
<path d="M192 448H256V512H192V448Z"/>
</mask>
<path d="M256 512V513H257V512H256ZM255 448V512H257V448H255ZM256 511H192V513H256V511Z" fill="#D0D5DD" mask="url(#path-339-inside-169_915_24758)"/>
<mask id="path-341-inside-170_915_24758" fill="white">
<path d="M256 448H320V512H256V448Z"/>
</mask>
<path d="M320 512V513H321V512H320ZM319 448V512H321V448H319ZM320 511H256V513H320V511Z" fill="#D0D5DD" mask="url(#path-341-inside-170_915_24758)"/>
<mask id="path-343-inside-171_915_24758" fill="white">
<path d="M320 448H384V512H320V448Z"/>
</mask>
<path d="M384 512V513H385V512H384ZM383 448V512H385V448H383ZM384 511H320V513H384V511Z" fill="#D0D5DD" mask="url(#path-343-inside-171_915_24758)"/>
<mask id="path-345-inside-172_915_24758" fill="white">
<path d="M384 448H448V512H384V448Z"/>
</mask>
<path d="M448 512V513H449V512H448ZM447 448V512H449V448H447ZM448 511H384V513H448V511Z" fill="#D0D5DD" mask="url(#path-345-inside-172_915_24758)"/>
<mask id="path-347-inside-173_915_24758" fill="white">
<path d="M448 448H512V512H448V448Z"/>
</mask>
<path d="M512 512V513H513V512H512ZM511 448V512H513V448H511ZM512 511H448V513H512V511Z" fill="#D0D5DD" mask="url(#path-347-inside-173_915_24758)"/>
<mask id="path-349-inside-174_915_24758" fill="white">
<path d="M512 448H576V512H512V448Z"/>
</mask>
<path d="M576 512V513H577V512H576ZM575 448V512H577V448H575ZM576 511H512V513H576V511Z" fill="#D0D5DD" mask="url(#path-349-inside-174_915_24758)"/>
<mask id="path-351-inside-175_915_24758" fill="white">
<path d="M576 448H640V512H576V448Z"/>
</mask>
<path d="M640 512V513H641V512H640ZM639 448V512H641V448H639ZM640 511H576V513H640V511Z" fill="#D0D5DD" mask="url(#path-351-inside-175_915_24758)"/>
<mask id="path-353-inside-176_915_24758" fill="white">
<path d="M640 448H704V512H640V448Z"/>
</mask>
<path d="M704 512V513H705V512H704ZM703 448V512H705V448H703ZM704 511H640V513H704V511Z" fill="#D0D5DD" mask="url(#path-353-inside-176_915_24758)"/>
<mask id="path-355-inside-177_915_24758" fill="white">
<path d="M704 448H768V512H704V448Z"/>
</mask>
<path d="M768 512V513H769V512H768ZM767 448V512H769V448H767ZM768 511H704V513H768V511Z" fill="#D0D5DD" mask="url(#path-355-inside-177_915_24758)"/>
<mask id="path-357-inside-178_915_24758" fill="white">
<path d="M768 448H832V512H768V448Z"/>
</mask>
<path d="M768 448H832V512H768V448Z" fill="#F2F4F7"/>
<path d="M832 512V513H833V512H832ZM831 448V512H833V448H831ZM832 511H768V513H832V511Z" fill="#D0D5DD" mask="url(#path-357-inside-178_915_24758)"/>
<mask id="path-359-inside-179_915_24758" fill="white">
<path d="M832 448H896V512H832V448Z"/>
</mask>
<path d="M896 512V513H897V512H896ZM895 448V512H897V448H895ZM896 511H832V513H896V511Z" fill="#D0D5DD" mask="url(#path-359-inside-179_915_24758)"/>
<mask id="path-361-inside-180_915_24758" fill="white">
<path d="M896 448H960V512H896V448Z"/>
</mask>
<path d="M960 512V513H961V512H960ZM959 448V512H961V448H959ZM960 511H896V513H960V511Z" fill="#D0D5DD" mask="url(#path-361-inside-180_915_24758)"/>
<mask id="path-363-inside-181_915_24758" fill="white">
<path d="M960 448H1024V512H960V448Z"/>
</mask>
<path d="M1024 512V513H1025V512H1024ZM1023 448V512H1025V448H1023ZM1024 511H960V513H1024V511Z" fill="#D0D5DD" mask="url(#path-363-inside-181_915_24758)"/>
<mask id="path-365-inside-182_915_24758" fill="white">
<path d="M1024 448H1088V512H1024V448Z"/>
</mask>
<path d="M1088 512V513H1089V512H1088ZM1087 448V512H1089V448H1087ZM1088 511H1024V513H1088V511Z" fill="#D0D5DD" mask="url(#path-365-inside-182_915_24758)"/>
<mask id="path-367-inside-183_915_24758" fill="white">
<path d="M1088 448H1152V512H1088V448Z"/>
</mask>
<path d="M1152 512V513H1153V512H1152ZM1151 448V512H1153V448H1151ZM1152 511H1088V513H1152V511Z" fill="#D0D5DD" mask="url(#path-367-inside-183_915_24758)"/>
<mask id="path-369-inside-184_915_24758" fill="white">
<path d="M1152 448H1216V512H1152V448Z"/>
</mask>
<path d="M1152 448H1216V512H1152V448Z" fill="#F2F4F7"/>
<path d="M1216 512V513H1217V512H1216ZM1215 448V512H1217V448H1215ZM1216 511H1152V513H1216V511Z" fill="#D0D5DD" mask="url(#path-369-inside-184_915_24758)"/>
<mask id="path-371-inside-185_915_24758" fill="white">
<path d="M1216 448H1280V512H1216V448Z"/>
</mask>
<path d="M1280 512V513H1281V512H1280ZM1279 448V512H1281V448H1279ZM1280 511H1216V513H1280V511Z" fill="#D0D5DD" mask="url(#path-371-inside-185_915_24758)"/>
<mask id="path-373-inside-186_915_24758" fill="white">
<path d="M1280 448H1344V512H1280V448Z"/>
</mask>
<path d="M1344 512V513H1345V512H1344ZM1343 448V512H1345V448H1343ZM1344 511H1280V513H1344V511Z" fill="#D0D5DD" mask="url(#path-373-inside-186_915_24758)"/>
<mask id="path-375-inside-187_915_24758" fill="white">
<path d="M1344 448H1408V512H1344V448Z"/>
</mask>
<path d="M1408 512V513H1409V512H1408ZM1407 448V512H1409V448H1407ZM1408 511H1344V513H1408V511Z" fill="#D0D5DD" mask="url(#path-375-inside-187_915_24758)"/>
<mask id="path-377-inside-188_915_24758" fill="white">
<path d="M1408 448H1472V512H1408V448Z"/>
</mask>
<path d="M1472 512V513H1473V512H1472ZM1471 448V512H1473V448H1471ZM1472 511H1408V513H1472V511Z" fill="#D0D5DD" mask="url(#path-377-inside-188_915_24758)"/>
<mask id="path-379-inside-189_915_24758" fill="white">
<path d="M1472 448H1536V512H1472V448Z"/>
</mask>
<path d="M1536 512V513H1537V512H1536ZM1535 448V512H1537V448H1535ZM1536 511H1472V513H1536V511Z" fill="#D0D5DD" mask="url(#path-379-inside-189_915_24758)"/>
<mask id="path-381-inside-190_915_24758" fill="white">
<path d="M1536 448H1600V512H1536V448Z"/>
</mask>
<path d="M1600 512V513H1601V512H1600ZM1599 448V512H1601V448H1599ZM1600 511H1536V513H1600V511Z" fill="#D0D5DD" mask="url(#path-381-inside-190_915_24758)"/>
<mask id="path-383-inside-191_915_24758" fill="white">
<path d="M1600 448H1664V512H1600V448Z"/>
</mask>
<path d="M1664 512V513H1665V512H1664ZM1663 448V512H1665V448H1663ZM1664 511H1600V513H1664V511Z" fill="#D0D5DD" mask="url(#path-383-inside-191_915_24758)"/>
<mask id="path-385-inside-192_915_24758" fill="white">
<path d="M1664 448H1728V512H1664V448Z"/>
</mask>
<path d="M1664 448H1728V512H1664V448Z" fill="#F2F4F7"/>
<path d="M1728 512V513H1729V512H1728ZM1727 448V512H1729V448H1727ZM1728 511H1664V513H1728V511Z" fill="#D0D5DD" mask="url(#path-385-inside-192_915_24758)"/>
<mask id="path-387-inside-193_915_24758" fill="white">
<path d="M192 512H256V576H192V512Z"/>
</mask>
<path d="M256 576V577H257V576H256ZM255 512V576H257V512H255ZM256 575H192V577H256V575Z" fill="#D0D5DD" mask="url(#path-387-inside-193_915_24758)"/>
<mask id="path-389-inside-194_915_24758" fill="white">
<path d="M256 512H320V576H256V512Z"/>
</mask>
<path d="M320 576V577H321V576H320ZM319 512V576H321V512H319ZM320 575H256V577H320V575Z" fill="#D0D5DD" mask="url(#path-389-inside-194_915_24758)"/>
<mask id="path-391-inside-195_915_24758" fill="white">
<path d="M320 512H384V576H320V512Z"/>
</mask>
<path d="M320 512H384V576H320V512Z" fill="#F2F4F7"/>
<path d="M384 576V577H385V576H384ZM383 512V576H385V512H383ZM384 575H320V577H384V575Z" fill="#D0D5DD" mask="url(#path-391-inside-195_915_24758)"/>
<mask id="path-393-inside-196_915_24758" fill="white">
<path d="M384 512H448V576H384V512Z"/>
</mask>
<path d="M448 576V577H449V576H448ZM447 512V576H449V512H447ZM448 575H384V577H448V575Z" fill="#D0D5DD" mask="url(#path-393-inside-196_915_24758)"/>
<mask id="path-395-inside-197_915_24758" fill="white">
<path d="M448 512H512V576H448V512Z"/>
</mask>
<path d="M512 576V577H513V576H512ZM511 512V576H513V512H511ZM512 575H448V577H512V575Z" fill="#D0D5DD" mask="url(#path-395-inside-197_915_24758)"/>
<mask id="path-397-inside-198_915_24758" fill="white">
<path d="M512 512H576V576H512V512Z"/>
</mask>
<path d="M576 576V577H577V576H576ZM575 512V576H577V512H575ZM576 575H512V577H576V575Z" fill="#D0D5DD" mask="url(#path-397-inside-198_915_24758)"/>
<mask id="path-399-inside-199_915_24758" fill="white">
<path d="M576 512H640V576H576V512Z"/>
</mask>
<path d="M640 576V577H641V576H640ZM639 512V576H641V512H639ZM640 575H576V577H640V575Z" fill="#D0D5DD" mask="url(#path-399-inside-199_915_24758)"/>
<mask id="path-401-inside-200_915_24758" fill="white">
<path d="M640 512H704V576H640V512Z"/>
</mask>
<path d="M640 512H704V576H640V512Z" fill="#F2F4F7"/>
<path d="M704 576V577H705V576H704ZM703 512V576H705V512H703ZM704 575H640V577H704V575Z" fill="#D0D5DD" mask="url(#path-401-inside-200_915_24758)"/>
<mask id="path-403-inside-201_915_24758" fill="white">
<path d="M704 512H768V576H704V512Z"/>
</mask>
<path d="M768 576V577H769V576H768ZM767 512V576H769V512H767ZM768 575H704V577H768V575Z" fill="#D0D5DD" mask="url(#path-403-inside-201_915_24758)"/>
<mask id="path-405-inside-202_915_24758" fill="white">
<path d="M768 512H832V576H768V512Z"/>
</mask>
<path d="M832 576V577H833V576H832ZM831 512V576H833V512H831ZM832 575H768V577H832V575Z" fill="#D0D5DD" mask="url(#path-405-inside-202_915_24758)"/>
<mask id="path-407-inside-203_915_24758" fill="white">
<path d="M832 512H896V576H832V512Z"/>
</mask>
<path d="M896 576V577H897V576H896ZM895 512V576H897V512H895ZM896 575H832V577H896V575Z" fill="#D0D5DD" mask="url(#path-407-inside-203_915_24758)"/>
<mask id="path-409-inside-204_915_24758" fill="white">
<path d="M896 512H960V576H896V512Z"/>
</mask>
<path d="M960 576V577H961V576H960ZM959 512V576H961V512H959ZM960 575H896V577H960V575Z" fill="#D0D5DD" mask="url(#path-409-inside-204_915_24758)"/>
<mask id="path-411-inside-205_915_24758" fill="white">
<path d="M960 512H1024V576H960V512Z"/>
</mask>
<path d="M1024 576V577H1025V576H1024ZM1023 512V576H1025V512H1023ZM1024 575H960V577H1024V575Z" fill="#D0D5DD" mask="url(#path-411-inside-205_915_24758)"/>
<mask id="path-413-inside-206_915_24758" fill="white">
<path d="M1024 512H1088V576H1024V512Z"/>
</mask>
<path d="M1088 576V577H1089V576H1088ZM1087 512V576H1089V512H1087ZM1088 575H1024V577H1088V575Z" fill="#D0D5DD" mask="url(#path-413-inside-206_915_24758)"/>
<mask id="path-415-inside-207_915_24758" fill="white">
<path d="M1088 512H1152V576H1088V512Z"/>
</mask>
<path d="M1152 576V577H1153V576H1152ZM1151 512V576H1153V512H1151ZM1152 575H1088V577H1152V575Z" fill="#D0D5DD" mask="url(#path-415-inside-207_915_24758)"/>
<mask id="path-417-inside-208_915_24758" fill="white">
<path d="M1152 512H1216V576H1152V512Z"/>
</mask>
<path d="M1216 576V577H1217V576H1216ZM1215 512V576H1217V512H1215ZM1216 575H1152V577H1216V575Z" fill="#D0D5DD" mask="url(#path-417-inside-208_915_24758)"/>
<mask id="path-419-inside-209_915_24758" fill="white">
<path d="M1216 512H1280V576H1216V512Z"/>
</mask>
<path d="M1280 576V577H1281V576H1280ZM1279 512V576H1281V512H1279ZM1280 575H1216V577H1280V575Z" fill="#D0D5DD" mask="url(#path-419-inside-209_915_24758)"/>
<mask id="path-421-inside-210_915_24758" fill="white">
<path d="M1280 512H1344V576H1280V512Z"/>
</mask>
<path d="M1344 576V577H1345V576H1344ZM1343 512V576H1345V512H1343ZM1344 575H1280V577H1344V575Z" fill="#D0D5DD" mask="url(#path-421-inside-210_915_24758)"/>
<mask id="path-423-inside-211_915_24758" fill="white">
<path d="M1344 512H1408V576H1344V512Z"/>
</mask>
<path d="M1344 512H1408V576H1344V512Z" fill="#F2F4F7"/>
<path d="M1408 576V577H1409V576H1408ZM1407 512V576H1409V512H1407ZM1408 575H1344V577H1408V575Z" fill="#D0D5DD" mask="url(#path-423-inside-211_915_24758)"/>
<mask id="path-425-inside-212_915_24758" fill="white">
<path d="M1408 512H1472V576H1408V512Z"/>
</mask>
<path d="M1472 576V577H1473V576H1472ZM1471 512V576H1473V512H1471ZM1472 575H1408V577H1472V575Z" fill="#D0D5DD" mask="url(#path-425-inside-212_915_24758)"/>
<mask id="path-427-inside-213_915_24758" fill="white">
<path d="M1472 512H1536V576H1472V512Z"/>
</mask>
<path d="M1536 576V577H1537V576H1536ZM1535 512V576H1537V512H1535ZM1536 575H1472V577H1536V575Z" fill="#D0D5DD" mask="url(#path-427-inside-213_915_24758)"/>
<mask id="path-429-inside-214_915_24758" fill="white">
<path d="M1536 512H1600V576H1536V512Z"/>
</mask>
<path d="M1600 576V577H1601V576H1600ZM1599 512V576H1601V512H1599ZM1600 575H1536V577H1600V575Z" fill="#D0D5DD" mask="url(#path-429-inside-214_915_24758)"/>
<mask id="path-431-inside-215_915_24758" fill="white">
<path d="M1600 512H1664V576H1600V512Z"/>
</mask>
<path d="M1664 576V577H1665V576H1664ZM1663 512V576H1665V512H1663ZM1664 575H1600V577H1664V575Z" fill="#D0D5DD" mask="url(#path-431-inside-215_915_24758)"/>
<mask id="path-433-inside-216_915_24758" fill="white">
<path d="M1664 512H1728V576H1664V512Z"/>
</mask>
<path d="M1728 576V577H1729V576H1728ZM1727 512V576H1729V512H1727ZM1728 575H1664V577H1728V575Z" fill="#D0D5DD" mask="url(#path-433-inside-216_915_24758)"/>
<mask id="path-435-inside-217_915_24758" fill="white">
<path d="M192 576H256V640H192V576Z"/>
</mask>
<path d="M256 640V641H257V640H256ZM255 576V640H257V576H255ZM256 639H192V641H256V639Z" fill="#D0D5DD" mask="url(#path-435-inside-217_915_24758)"/>
<mask id="path-437-inside-218_915_24758" fill="white">
<path d="M256 576H320V640H256V576Z"/>
</mask>
<path d="M320 640V641H321V640H320ZM319 576V640H321V576H319ZM320 639H256V641H320V639Z" fill="#D0D5DD" mask="url(#path-437-inside-218_915_24758)"/>
<mask id="path-439-inside-219_915_24758" fill="white">
<path d="M320 576H384V640H320V576Z"/>
</mask>
<path d="M384 640V641H385V640H384ZM383 576V640H385V576H383ZM384 639H320V641H384V639Z" fill="#D0D5DD" mask="url(#path-439-inside-219_915_24758)"/>
<mask id="path-441-inside-220_915_24758" fill="white">
<path d="M384 576H448V640H384V576Z"/>
</mask>
<path d="M448 640V641H449V640H448ZM447 576V640H449V576H447ZM448 639H384V641H448V639Z" fill="#D0D5DD" mask="url(#path-441-inside-220_915_24758)"/>
<mask id="path-443-inside-221_915_24758" fill="white">
<path d="M448 576H512V640H448V576Z"/>
</mask>
<path d="M448 576H512V640H448V576Z" fill="#F2F4F7"/>
<path d="M512 640V641H513V640H512ZM511 576V640H513V576H511ZM512 639H448V641H512V639Z" fill="#D0D5DD" mask="url(#path-443-inside-221_915_24758)"/>
<mask id="path-445-inside-222_915_24758" fill="white">
<path d="M512 576H576V640H512V576Z"/>
</mask>
<path d="M576 640V641H577V640H576ZM575 576V640H577V576H575ZM576 639H512V641H576V639Z" fill="#D0D5DD" mask="url(#path-445-inside-222_915_24758)"/>
<mask id="path-447-inside-223_915_24758" fill="white">
<path d="M576 576H640V640H576V576Z"/>
</mask>
<path d="M640 640V641H641V640H640ZM639 576V640H641V576H639ZM640 639H576V641H640V639Z" fill="#D0D5DD" mask="url(#path-447-inside-223_915_24758)"/>
<mask id="path-449-inside-224_915_24758" fill="white">
<path d="M640 576H704V640H640V576Z"/>
</mask>
<path d="M704 640V641H705V640H704ZM703 576V640H705V576H703ZM704 639H640V641H704V639Z" fill="#D0D5DD" mask="url(#path-449-inside-224_915_24758)"/>
<mask id="path-451-inside-225_915_24758" fill="white">
<path d="M704 576H768V640H704V576Z"/>
</mask>
<path d="M768 640V641H769V640H768ZM767 576V640H769V576H767ZM768 639H704V641H768V639Z" fill="#D0D5DD" mask="url(#path-451-inside-225_915_24758)"/>
<mask id="path-453-inside-226_915_24758" fill="white">
<path d="M768 576H832V640H768V576Z"/>
</mask>
<path d="M832 640V641H833V640H832ZM831 576V640H833V576H831ZM832 639H768V641H832V639Z" fill="#D0D5DD" mask="url(#path-453-inside-226_915_24758)"/>
<mask id="path-455-inside-227_915_24758" fill="white">
<path d="M832 576H896V640H832V576Z"/>
</mask>
<path d="M896 640V641H897V640H896ZM895 576V640H897V576H895ZM896 639H832V641H896V639Z" fill="#D0D5DD" mask="url(#path-455-inside-227_915_24758)"/>
<mask id="path-457-inside-228_915_24758" fill="white">
<path d="M896 576H960V640H896V576Z"/>
</mask>
<path d="M896 576H960V640H896V576Z" fill="#F2F4F7"/>
<path d="M960 640V641H961V640H960ZM959 576V640H961V576H959ZM960 639H896V641H960V639Z" fill="#D0D5DD" mask="url(#path-457-inside-228_915_24758)"/>
<mask id="path-459-inside-229_915_24758" fill="white">
<path d="M960 576H1024V640H960V576Z"/>
</mask>
<path d="M1024 640V641H1025V640H1024ZM1023 576V640H1025V576H1023ZM1024 639H960V641H1024V639Z" fill="#D0D5DD" mask="url(#path-459-inside-229_915_24758)"/>
<mask id="path-461-inside-230_915_24758" fill="white">
<path d="M1024 576H1088V640H1024V576Z"/>
</mask>
<path d="M1088 640V641H1089V640H1088ZM1087 576V640H1089V576H1087ZM1088 639H1024V641H1088V639Z" fill="#D0D5DD" mask="url(#path-461-inside-230_915_24758)"/>
<mask id="path-463-inside-231_915_24758" fill="white">
<path d="M1088 576H1152V640H1088V576Z"/>
</mask>
<path d="M1152 640V641H1153V640H1152ZM1151 576V640H1153V576H1151ZM1152 639H1088V641H1152V639Z" fill="#D0D5DD" mask="url(#path-463-inside-231_915_24758)"/>
<mask id="path-465-inside-232_915_24758" fill="white">
<path d="M1152 576H1216V640H1152V576Z"/>
</mask>
<path d="M1216 640V641H1217V640H1216ZM1215 576V640H1217V576H1215ZM1216 639H1152V641H1216V639Z" fill="#D0D5DD" mask="url(#path-465-inside-232_915_24758)"/>
<mask id="path-467-inside-233_915_24758" fill="white">
<path d="M1216 576H1280V640H1216V576Z"/>
</mask>
<path d="M1280 640V641H1281V640H1280ZM1279 576V640H1281V576H1279ZM1280 639H1216V641H1280V639Z" fill="#D0D5DD" mask="url(#path-467-inside-233_915_24758)"/>
<mask id="path-469-inside-234_915_24758" fill="white">
<path d="M1280 576H1344V640H1280V576Z"/>
</mask>
<path d="M1344 640V641H1345V640H1344ZM1343 576V640H1345V576H1343ZM1344 639H1280V641H1344V639Z" fill="#D0D5DD" mask="url(#path-469-inside-234_915_24758)"/>
<mask id="path-471-inside-235_915_24758" fill="white">
<path d="M1344 576H1408V640H1344V576Z"/>
</mask>
<path d="M1408 640V641H1409V640H1408ZM1407 576V640H1409V576H1407ZM1408 639H1344V641H1408V639Z" fill="#D0D5DD" mask="url(#path-471-inside-235_915_24758)"/>
<mask id="path-473-inside-236_915_24758" fill="white">
<path d="M1408 576H1472V640H1408V576Z"/>
</mask>
<path d="M1472 640V641H1473V640H1472ZM1471 576V640H1473V576H1471ZM1472 639H1408V641H1472V639Z" fill="#D0D5DD" mask="url(#path-473-inside-236_915_24758)"/>
<mask id="path-475-inside-237_915_24758" fill="white">
<path d="M1472 576H1536V640H1472V576Z"/>
</mask>
<path d="M1536 640V641H1537V640H1536ZM1535 576V640H1537V576H1535ZM1536 639H1472V641H1536V639Z" fill="#D0D5DD" mask="url(#path-475-inside-237_915_24758)"/>
<mask id="path-477-inside-238_915_24758" fill="white">
<path d="M1536 576H1600V640H1536V576Z"/>
</mask>
<path d="M1600 640V641H1601V640H1600ZM1599 576V640H1601V576H1599ZM1600 639H1536V641H1600V639Z" fill="#D0D5DD" mask="url(#path-477-inside-238_915_24758)"/>
<mask id="path-479-inside-239_915_24758" fill="white">
<path d="M1600 576H1664V640H1600V576Z"/>
</mask>
<path d="M1600 576H1664V640H1600V576Z" fill="#F2F4F7"/>
<path d="M1664 640V641H1665V640H1664ZM1663 576V640H1665V576H1663ZM1664 639H1600V641H1664V639Z" fill="#D0D5DD" mask="url(#path-479-inside-239_915_24758)"/>
<mask id="path-481-inside-240_915_24758" fill="white">
<path d="M1664 576H1728V640H1664V576Z"/>
</mask>
<path d="M1728 640V641H1729V640H1728ZM1727 576V640H1729V576H1727ZM1728 639H1664V641H1728V639Z" fill="#D0D5DD" mask="url(#path-481-inside-240_915_24758)"/>
<mask id="path-483-inside-241_915_24758" fill="white">
<path d="M192 640H256V704H192V640Z"/>
</mask>
<path d="M192 640H256V704H192V640Z" fill="#F2F4F7"/>
<path d="M256 704V705H257V704H256ZM255 640V704H257V640H255ZM256 703H192V705H256V703Z" fill="#D0D5DD" mask="url(#path-483-inside-241_915_24758)"/>
<mask id="path-485-inside-242_915_24758" fill="white">
<path d="M256 640H320V704H256V640Z"/>
</mask>
<path d="M320 704V705H321V704H320ZM319 640V704H321V640H319ZM320 703H256V705H320V703Z" fill="#D0D5DD" mask="url(#path-485-inside-242_915_24758)"/>
<mask id="path-487-inside-243_915_24758" fill="white">
<path d="M320 640H384V704H320V640Z"/>
</mask>
<path d="M384 704V705H385V704H384ZM383 640V704H385V640H383ZM384 703H320V705H384V703Z" fill="#D0D5DD" mask="url(#path-487-inside-243_915_24758)"/>
<mask id="path-489-inside-244_915_24758" fill="white">
<path d="M384 640H448V704H384V640Z"/>
</mask>
<path d="M448 704V705H449V704H448ZM447 640V704H449V640H447ZM448 703H384V705H448V703Z" fill="#D0D5DD" mask="url(#path-489-inside-244_915_24758)"/>
<mask id="path-491-inside-245_915_24758" fill="white">
<path d="M448 640H512V704H448V640Z"/>
</mask>
<path d="M512 704V705H513V704H512ZM511 640V704H513V640H511ZM512 703H448V705H512V703Z" fill="#D0D5DD" mask="url(#path-491-inside-245_915_24758)"/>
<mask id="path-493-inside-246_915_24758" fill="white">
<path d="M512 640H576V704H512V640Z"/>
</mask>
<path d="M576 704V705H577V704H576ZM575 640V704H577V640H575ZM576 703H512V705H576V703Z" fill="#D0D5DD" mask="url(#path-493-inside-246_915_24758)"/>
<mask id="path-495-inside-247_915_24758" fill="white">
<path d="M576 640H640V704H576V640Z"/>
</mask>
<path d="M640 704V705H641V704H640ZM639 640V704H641V640H639ZM640 703H576V705H640V703Z" fill="#D0D5DD" mask="url(#path-495-inside-247_915_24758)"/>
<mask id="path-497-inside-248_915_24758" fill="white">
<path d="M640 640H704V704H640V640Z"/>
</mask>
<path d="M704 704V705H705V704H704ZM703 640V704H705V640H703ZM704 703H640V705H704V703Z" fill="#D0D5DD" mask="url(#path-497-inside-248_915_24758)"/>
<mask id="path-499-inside-249_915_24758" fill="white">
<path d="M704 640H768V704H704V640Z"/>
</mask>
<path d="M768 704V705H769V704H768ZM767 640V704H769V640H767ZM768 703H704V705H768V703Z" fill="#D0D5DD" mask="url(#path-499-inside-249_915_24758)"/>
<mask id="path-501-inside-250_915_24758" fill="white">
<path d="M768 640H832V704H768V640Z"/>
</mask>
<path d="M768 640H832V704H768V640Z" fill="#F2F4F7"/>
<path d="M832 704V705H833V704H832ZM831 640V704H833V640H831ZM832 703H768V705H832V703Z" fill="#D0D5DD" mask="url(#path-501-inside-250_915_24758)"/>
<mask id="path-503-inside-251_915_24758" fill="white">
<path d="M832 640H896V704H832V640Z"/>
</mask>
<path d="M896 704V705H897V704H896ZM895 640V704H897V640H895ZM896 703H832V705H896V703Z" fill="#D0D5DD" mask="url(#path-503-inside-251_915_24758)"/>
<mask id="path-505-inside-252_915_24758" fill="white">
<path d="M896 640H960V704H896V640Z"/>
</mask>
<path d="M960 704V705H961V704H960ZM959 640V704H961V640H959ZM960 703H896V705H960V703Z" fill="#D0D5DD" mask="url(#path-505-inside-252_915_24758)"/>
<mask id="path-507-inside-253_915_24758" fill="white">
<path d="M960 640H1024V704H960V640Z"/>
</mask>
<path d="M1024 704V705H1025V704H1024ZM1023 640V704H1025V640H1023ZM1024 703H960V705H1024V703Z" fill="#D0D5DD" mask="url(#path-507-inside-253_915_24758)"/>
<mask id="path-509-inside-254_915_24758" fill="white">
<path d="M1024 640H1088V704H1024V640Z"/>
</mask>
<path d="M1088 704V705H1089V704H1088ZM1087 640V704H1089V640H1087ZM1088 703H1024V705H1088V703Z" fill="#D0D5DD" mask="url(#path-509-inside-254_915_24758)"/>
<mask id="path-511-inside-255_915_24758" fill="white">
<path d="M1088 640H1152V704H1088V640Z"/>
</mask>
<path d="M1152 704V705H1153V704H1152ZM1151 640V704H1153V640H1151ZM1152 703H1088V705H1152V703Z" fill="#D0D5DD" mask="url(#path-511-inside-255_915_24758)"/>
<mask id="path-513-inside-256_915_24758" fill="white">
<path d="M1152 640H1216V704H1152V640Z"/>
</mask>
<path d="M1216 704V705H1217V704H1216ZM1215 640V704H1217V640H1215ZM1216 703H1152V705H1216V703Z" fill="#D0D5DD" mask="url(#path-513-inside-256_915_24758)"/>
<mask id="path-515-inside-257_915_24758" fill="white">
<path d="M1216 640H1280V704H1216V640Z"/>
</mask>
<path d="M1216 640H1280V704H1216V640Z" fill="#F2F4F7"/>
<path d="M1280 704V705H1281V704H1280ZM1279 640V704H1281V640H1279ZM1280 703H1216V705H1280V703Z" fill="#D0D5DD" mask="url(#path-515-inside-257_915_24758)"/>
<mask id="path-517-inside-258_915_24758" fill="white">
<path d="M1280 640H1344V704H1280V640Z"/>
</mask>
<path d="M1344 704V705H1345V704H1344ZM1343 640V704H1345V640H1343ZM1344 703H1280V705H1344V703Z" fill="#D0D5DD" mask="url(#path-517-inside-258_915_24758)"/>
<mask id="path-519-inside-259_915_24758" fill="white">
<path d="M1344 640H1408V704H1344V640Z"/>
</mask>
<path d="M1408 704V705H1409V704H1408ZM1407 640V704H1409V640H1407ZM1408 703H1344V705H1408V703Z" fill="#D0D5DD" mask="url(#path-519-inside-259_915_24758)"/>
<mask id="path-521-inside-260_915_24758" fill="white">
<path d="M1408 640H1472V704H1408V640Z"/>
</mask>
<path d="M1472 704V705H1473V704H1472ZM1471 640V704H1473V640H1471ZM1472 703H1408V705H1472V703Z" fill="#D0D5DD" mask="url(#path-521-inside-260_915_24758)"/>
<mask id="path-523-inside-261_915_24758" fill="white">
<path d="M1472 640H1536V704H1472V640Z"/>
</mask>
<path d="M1536 704V705H1537V704H1536ZM1535 640V704H1537V640H1535ZM1536 703H1472V705H1536V703Z" fill="#D0D5DD" mask="url(#path-523-inside-261_915_24758)"/>
<mask id="path-525-inside-262_915_24758" fill="white">
<path d="M1536 640H1600V704H1536V640Z"/>
</mask>
<path d="M1600 704V705H1601V704H1600ZM1599 640V704H1601V640H1599ZM1600 703H1536V705H1600V703Z" fill="#D0D5DD" mask="url(#path-525-inside-262_915_24758)"/>
<mask id="path-527-inside-263_915_24758" fill="white">
<path d="M1600 640H1664V704H1600V640Z"/>
</mask>
<path d="M1664 704V705H1665V704H1664ZM1663 640V704H1665V640H1663ZM1664 703H1600V705H1664V703Z" fill="#D0D5DD" mask="url(#path-527-inside-263_915_24758)"/>
<mask id="path-529-inside-264_915_24758" fill="white">
<path d="M1664 640H1728V704H1664V640Z"/>
</mask>
<path d="M1728 704V705H1729V704H1728ZM1727 640V704H1729V640H1727ZM1728 703H1664V705H1728V703Z" fill="#D0D5DD" mask="url(#path-529-inside-264_915_24758)"/>
<mask id="path-531-inside-265_915_24758" fill="white">
<path d="M192 704H256V768H192V704Z"/>
</mask>
<path d="M256 768V769H257V768H256ZM255 704V768H257V704H255ZM256 767H192V769H256V767Z" fill="#D0D5DD" mask="url(#path-531-inside-265_915_24758)"/>
<mask id="path-533-inside-266_915_24758" fill="white">
<path d="M256 704H320V768H256V704Z"/>
</mask>
<path d="M320 768V769H321V768H320ZM319 704V768H321V704H319ZM320 767H256V769H320V767Z" fill="#D0D5DD" mask="url(#path-533-inside-266_915_24758)"/>
<mask id="path-535-inside-267_915_24758" fill="white">
<path d="M320 704H384V768H320V704Z"/>
</mask>
<path d="M384 768V769H385V768H384ZM383 704V768H385V704H383ZM384 767H320V769H384V767Z" fill="#D0D5DD" mask="url(#path-535-inside-267_915_24758)"/>
<mask id="path-537-inside-268_915_24758" fill="white">
<path d="M384 704H448V768H384V704Z"/>
</mask>
<path d="M384 704H448V768H384V704Z" fill="#F2F4F7"/>
<path d="M448 768V769H449V768H448ZM447 704V768H449V704H447ZM448 767H384V769H448V767Z" fill="#D0D5DD" mask="url(#path-537-inside-268_915_24758)"/>
<mask id="path-539-inside-269_915_24758" fill="white">
<path d="M448 704H512V768H448V704Z"/>
</mask>
<path d="M512 768V769H513V768H512ZM511 704V768H513V704H511ZM512 767H448V769H512V767Z" fill="#D0D5DD" mask="url(#path-539-inside-269_915_24758)"/>
<mask id="path-541-inside-270_915_24758" fill="white">
<path d="M512 704H576V768H512V704Z"/>
</mask>
<path d="M576 768V769H577V768H576ZM575 704V768H577V704H575ZM576 767H512V769H576V767Z" fill="#D0D5DD" mask="url(#path-541-inside-270_915_24758)"/>
<mask id="path-543-inside-271_915_24758" fill="white">
<path d="M576 704H640V768H576V704Z"/>
</mask>
<path d="M640 768V769H641V768H640ZM639 704V768H641V704H639ZM640 767H576V769H640V767Z" fill="#D0D5DD" mask="url(#path-543-inside-271_915_24758)"/>
<mask id="path-545-inside-272_915_24758" fill="white">
<path d="M640 704H704V768H640V704Z"/>
</mask>
<path d="M704 768V769H705V768H704ZM703 704V768H705V704H703ZM704 767H640V769H704V767Z" fill="#D0D5DD" mask="url(#path-545-inside-272_915_24758)"/>
<mask id="path-547-inside-273_915_24758" fill="white">
<path d="M704 704H768V768H704V704Z"/>
</mask>
<path d="M768 768V769H769V768H768ZM767 704V768H769V704H767ZM768 767H704V769H768V767Z" fill="#D0D5DD" mask="url(#path-547-inside-273_915_24758)"/>
<mask id="path-549-inside-274_915_24758" fill="white">
<path d="M768 704H832V768H768V704Z"/>
</mask>
<path d="M832 768V769H833V768H832ZM831 704V768H833V704H831ZM832 767H768V769H832V767Z" fill="#D0D5DD" mask="url(#path-549-inside-274_915_24758)"/>
<mask id="path-551-inside-275_915_24758" fill="white">
<path d="M832 704H896V768H832V704Z"/>
</mask>
<path d="M896 768V769H897V768H896ZM895 704V768H897V704H895ZM896 767H832V769H896V767Z" fill="#D0D5DD" mask="url(#path-551-inside-275_915_24758)"/>
<mask id="path-553-inside-276_915_24758" fill="white">
<path d="M896 704H960V768H896V704Z"/>
</mask>
<path d="M960 768V769H961V768H960ZM959 704V768H961V704H959ZM960 767H896V769H960V767Z" fill="#D0D5DD" mask="url(#path-553-inside-276_915_24758)"/>
<mask id="path-555-inside-277_915_24758" fill="white">
<path d="M960 704H1024V768H960V704Z"/>
</mask>
<path d="M1024 768V769H1025V768H1024ZM1023 704V768H1025V704H1023ZM1024 767H960V769H1024V767Z" fill="#D0D5DD" mask="url(#path-555-inside-277_915_24758)"/>
<mask id="path-557-inside-278_915_24758" fill="white">
<path d="M1024 704H1088V768H1024V704Z"/>
</mask>
<path d="M1024 704H1088V768H1024V704Z" fill="#F2F4F7"/>
<path d="M1088 768V769H1089V768H1088ZM1087 704V768H1089V704H1087ZM1088 767H1024V769H1088V767Z" fill="#D0D5DD" mask="url(#path-557-inside-278_915_24758)"/>
<mask id="path-559-inside-279_915_24758" fill="white">
<path d="M1088 704H1152V768H1088V704Z"/>
</mask>
<path d="M1152 768V769H1153V768H1152ZM1151 704V768H1153V704H1151ZM1152 767H1088V769H1152V767Z" fill="#D0D5DD" mask="url(#path-559-inside-279_915_24758)"/>
<mask id="path-561-inside-280_915_24758" fill="white">
<path d="M1152 704H1216V768H1152V704Z"/>
</mask>
<path d="M1216 768V769H1217V768H1216ZM1215 704V768H1217V704H1215ZM1216 767H1152V769H1216V767Z" fill="#D0D5DD" mask="url(#path-561-inside-280_915_24758)"/>
<mask id="path-563-inside-281_915_24758" fill="white">
<path d="M1216 704H1280V768H1216V704Z"/>
</mask>
<path d="M1280 768V769H1281V768H1280ZM1279 704V768H1281V704H1279ZM1280 767H1216V769H1280V767Z" fill="#D0D5DD" mask="url(#path-563-inside-281_915_24758)"/>
<mask id="path-565-inside-282_915_24758" fill="white">
<path d="M1280 704H1344V768H1280V704Z"/>
</mask>
<path d="M1344 768V769H1345V768H1344ZM1343 704V768H1345V704H1343ZM1344 767H1280V769H1344V767Z" fill="#D0D5DD" mask="url(#path-565-inside-282_915_24758)"/>
<mask id="path-567-inside-283_915_24758" fill="white">
<path d="M1344 704H1408V768H1344V704Z"/>
</mask>
<path d="M1344 704H1408V768H1344V704Z" fill="#F2F4F7"/>
<path d="M1408 768V769H1409V768H1408ZM1407 704V768H1409V704H1407ZM1408 767H1344V769H1408V767Z" fill="#D0D5DD" mask="url(#path-567-inside-283_915_24758)"/>
<mask id="path-569-inside-284_915_24758" fill="white">
<path d="M1408 704H1472V768H1408V704Z"/>
</mask>
<path d="M1472 768V769H1473V768H1472ZM1471 704V768H1473V704H1471ZM1472 767H1408V769H1472V767Z" fill="#D0D5DD" mask="url(#path-569-inside-284_915_24758)"/>
<mask id="path-571-inside-285_915_24758" fill="white">
<path d="M1472 704H1536V768H1472V704Z"/>
</mask>
<path d="M1536 768V769H1537V768H1536ZM1535 704V768H1537V704H1535ZM1536 767H1472V769H1536V767Z" fill="#D0D5DD" mask="url(#path-571-inside-285_915_24758)"/>
<mask id="path-573-inside-286_915_24758" fill="white">
<path d="M1536 704H1600V768H1536V704Z"/>
</mask>
<path d="M1600 768V769H1601V768H1600ZM1599 704V768H1601V704H1599ZM1600 767H1536V769H1600V767Z" fill="#D0D5DD" mask="url(#path-573-inside-286_915_24758)"/>
<mask id="path-575-inside-287_915_24758" fill="white">
<path d="M1600 704H1664V768H1600V704Z"/>
</mask>
<path d="M1664 768V769H1665V768H1664ZM1663 704V768H1665V704H1663ZM1664 767H1600V769H1664V767Z" fill="#D0D5DD" mask="url(#path-575-inside-287_915_24758)"/>
<mask id="path-577-inside-288_915_24758" fill="white">
<path d="M1664 704H1728V768H1664V704Z"/>
</mask>
<path d="M1728 768V769H1729V768H1728ZM1727 704V768H1729V704H1727ZM1728 767H1664V769H1728V767Z" fill="#D0D5DD" mask="url(#path-577-inside-288_915_24758)"/>
</g>
<rect x="0.5" y="0.5" width="1919" height="1407" stroke="#D0D5DD"/>
</g>
</g>
<defs>
<radialGradient id="paint0_radial_915_24758" cx="0" cy="0" r="1" gradientUnits="userSpaceOnUse" gradientTransform="translate(720 -0.000171661) rotate(90) scale(1440 751.588)">
<stop/>
<stop offset="0.953125" stop-opacity="0"/>
</radialGradient>
<clipPath id="clip0_915_24758">
<rect width="1920" height="763" fill="white"/>
</clipPath>
<clipPath id="clip1_915_24758">
<rect width="1920" height="1408" fill="white"/>
</clipPath>
</defs>
</svg>
