<svg width="410" height="471" viewBox="0 0 410 471" fill="none" xmlns="http://www.w3.org/2000/svg">
<g clip-path="url(#clip0_571_7998)">
<g filter="url(#filter0_dd_571_7998)">
<rect x="3.92383" y="0.981201" width="402.153" height="832.075" rx="51.0798" fill="black"/>
</g>
<g clip-path="url(#clip1_571_7998)">
<rect width="367.823" height="796.751" transform="translate(20.5986 18.6433)" fill="white"/>
<rect width="367" height="828" transform="translate(21 19)" fill="white"/>
<rect width="367" height="828" transform="translate(21 19)" fill="#FAFBFC"/>
<path opacity="0.35" d="M350.544 37.6545C350.544 36.7556 351.272 36.027 352.171 36.027H369.744C370.643 36.027 371.371 36.7556 371.371 37.6545V44.7687C371.371 45.6676 370.643 46.3963 369.744 46.3963H352.171C351.272 46.3963 350.544 45.6676 350.544 44.7687V37.6545Z" stroke="black" stroke-width="0.751174"/>
<path opacity="0.4" d="M372.728 39.249V43.1739C373.517 42.8415 374.03 42.0682 374.03 41.2115C374.03 40.3547 373.517 39.5814 372.728 39.249Z" fill="black"/>
<path d="M352.13 38.6153C352.13 38.0622 352.578 37.6138 353.131 37.6138H368.784C369.337 37.6138 369.785 38.0622 369.785 38.6153V43.8078C369.785 44.361 369.337 44.8094 368.784 44.8094H353.131C352.578 44.8094 352.13 44.361 352.13 43.8078V38.6153Z" fill="black"/>
<path fill-rule="evenodd" clip-rule="evenodd" d="M337.74 37.8832C339.914 37.8833 342.004 38.7188 343.58 40.2169C343.698 40.3326 343.888 40.3311 344.005 40.2136L345.138 39.0689C345.198 39.0093 345.231 38.9286 345.23 38.8446C345.23 38.7606 345.196 38.6803 345.136 38.6214C341.001 34.6578 334.479 34.6578 330.344 38.6214C330.285 38.6803 330.251 38.7606 330.25 38.8446C330.249 38.9285 330.282 39.0093 330.341 39.0689L331.476 40.2136C331.592 40.3313 331.782 40.3328 331.901 40.2169C333.476 38.7187 335.567 37.8832 337.74 37.8832ZM337.741 41.6077C338.935 41.6076 340.086 42.0517 340.971 42.8535C341.091 42.9673 341.28 42.9649 341.397 42.848L342.529 41.7032C342.589 41.6432 342.622 41.5617 342.621 41.4771C342.62 41.3924 342.585 41.3117 342.525 41.2528C339.829 38.7445 335.654 38.7445 332.959 41.2528C332.898 41.3117 332.863 41.3925 332.862 41.4771C332.862 41.5618 332.895 41.6433 332.955 41.7032L334.087 42.848C334.204 42.9649 334.392 42.9673 334.512 42.8535C335.396 42.0522 336.547 41.6082 337.741 41.6077ZM340.009 44.1136C340.011 44.1984 339.978 44.2803 339.917 44.3397L337.958 46.3175C337.901 46.3757 337.822 46.4084 337.741 46.4084C337.659 46.4084 337.581 46.3757 337.523 46.3175L335.564 44.3397C335.503 44.2802 335.47 44.1984 335.472 44.1135C335.474 44.0286 335.51 43.9482 335.573 43.8913C336.824 42.8327 338.657 42.8327 339.908 43.8913C339.971 43.9483 340.008 44.0287 340.009 44.1136Z" fill="black"/>
<path fill-rule="evenodd" clip-rule="evenodd" d="M324.338 35.9783H323.357C322.816 35.9783 322.377 36.4176 322.377 36.9595V45.4634C322.377 46.0053 322.816 46.4446 323.357 46.4446H324.338C324.88 46.4446 325.319 46.0053 325.319 45.4634V36.9595C325.319 36.4176 324.88 35.9783 324.338 35.9783ZM318.78 38.2677H319.761C320.303 38.2677 320.742 38.707 320.742 39.249V45.4634C320.742 46.0053 320.303 46.4446 319.761 46.4446H318.78C318.238 46.4446 317.799 46.0053 317.799 45.4634V39.249C317.799 38.707 318.238 38.2677 318.78 38.2677ZM315.184 40.5574H314.203C313.661 40.5574 313.222 40.9967 313.222 41.5386V45.4635C313.222 46.0054 313.661 46.4447 314.203 46.4447H315.184C315.725 46.4447 316.165 46.0054 316.165 45.4635V41.5386C316.165 40.9967 315.725 40.5574 315.184 40.5574ZM310.606 42.5197H309.625C309.084 42.5197 308.645 42.959 308.645 43.5009V45.4633C308.645 46.0053 309.084 46.4446 309.625 46.4446H310.606C311.148 46.4446 311.587 46.0053 311.587 45.4633V43.5009C311.587 42.959 311.148 42.5197 310.606 42.5197Z" fill="black"/>
<path d="M57.2053 46.3692C59.8418 46.3692 61.4079 44.3066 61.4079 40.8139C61.4079 39.4987 61.1565 38.3919 60.6752 37.5367C59.9783 36.2072 58.7786 35.4885 57.2628 35.4885C55.007 35.4885 53.4121 37.0049 53.4121 39.1322C53.4121 41.1301 54.8489 42.5818 56.8245 42.5818C58.0386 42.5818 59.0228 42.014 59.5114 41.0295H59.5329C59.5329 41.0295 59.5616 41.0295 59.5688 41.0295C59.5832 41.0295 59.6335 41.0295 59.6335 41.0295C59.6335 43.4011 58.7355 44.8168 57.2197 44.8168C56.3288 44.8168 55.6392 44.3281 55.4021 43.5448H53.5558C53.8647 45.248 55.3087 46.3692 57.2053 46.3692ZM57.2699 41.1085C56.0774 41.1085 55.2297 40.2605 55.2297 39.0747C55.2297 37.9176 56.1205 37.0337 57.2771 37.0337C58.4338 37.0337 59.3246 37.932 59.3246 39.1034C59.3246 40.2605 58.4553 41.1085 57.2699 41.1085Z" fill="black"/>
<path d="M64.4399 46.2685C65.1224 46.2685 65.5893 45.7798 65.5893 45.133C65.5893 44.4791 65.1224 43.9975 64.4399 43.9975C63.7646 43.9975 63.2905 44.4791 63.2905 45.133C63.2905 45.7798 63.7646 46.2685 64.4399 46.2685ZM64.4399 40.8785C65.1224 40.8785 65.5893 40.397 65.5893 39.7502C65.5893 39.0962 65.1224 38.6147 64.4399 38.6147C63.7646 38.6147 63.2905 39.0962 63.2905 39.7502C63.2905 40.397 63.7646 40.8785 64.4399 40.8785Z" fill="black"/>
<path d="M72.3139 46.1176H74.0884V44.1844H75.4892V42.6177H74.0884V35.7472H71.4734C69.6414 38.5069 68.1831 40.8139 67.2491 42.5315V44.1844H72.3139V46.1176ZM68.9661 42.553C70.1731 40.4258 71.2507 38.7225 72.2421 37.2564H72.3426V42.6608H68.9661V42.553Z" fill="black"/>
<path d="M79.4408 46.1176H81.2942V35.7472H79.4479L76.7396 37.6445V39.4268L79.3186 37.6158H79.4408V46.1176Z" fill="black"/>
</g>
<g clip-path="url(#clip2_571_7998)">
<path d="M406.479 213.856H407.93C408.732 213.856 409.382 214.509 409.382 215.314V310.577C409.382 311.382 408.732 312.035 407.93 312.035H406.479V213.856Z" fill="#303030"/>
<path d="M2.90234 332.448L1.45063 332.448C0.648866 332.448 -0.00108689 331.796 -0.00108682 330.99L-0.00108183 273.638C-0.00108176 272.833 0.648872 272.18 1.45063 272.18L2.90235 272.18L2.90234 332.448Z" fill="#303030"/>
<path d="M2.90234 252.739L1.45063 252.739C0.648866 252.739 -0.00108689 252.086 -0.00108682 251.28L-0.00108183 193.928C-0.00108176 193.123 0.648872 192.47 1.45063 192.47L2.90235 192.47L2.90234 252.739Z" fill="#333333"/>
<path d="M2.90234 163.308L1.45063 163.308C0.648871 163.308 -0.00108308 162.655 -0.00108301 161.85L-0.00108056 133.66C-0.00108048 132.854 0.648873 132.202 1.45063 132.202L2.90235 132.202L2.90234 163.308Z" fill="#333333"/>
<path fill-rule="evenodd" clip-rule="evenodd" d="M5.98126 43.6595C2.90234 53.1772 2.90234 64.9376 2.90234 88.4585V745.579C2.90234 769.1 2.90234 780.86 5.98126 790.378C12.2039 809.614 27.2189 824.695 46.3704 830.945C55.8463 834.038 67.5552 834.038 90.9729 834.038H318.408C341.826 834.038 353.534 834.038 363.01 830.945C382.162 824.695 397.177 809.614 403.399 790.378C406.478 780.86 406.478 769.1 406.478 745.579V88.4585C406.478 64.9376 406.478 53.1772 403.399 43.6595C397.177 24.4237 382.162 9.34257 363.01 3.09248C353.534 0 341.826 0 318.408 0H90.9729C67.5552 0 55.8463 0 46.3704 3.09248C27.2189 9.34257 12.2039 24.4237 5.98126 43.6595ZM105.491 23.8158V28.1901L105.56 28.1879L105.491 28.6761C105.491 40.2186 114.807 49.5756 126.298 49.5756H283.083C294.575 49.5756 303.891 40.2186 303.891 28.6761L303.822 28.1879L303.891 28.1901V23.8158C303.891 20.863 306.274 18.4694 309.214 18.4694L321.68 18.4694C341.167 18.4694 350.911 18.4694 358.682 21.4187C370.897 26.0546 380.539 35.7391 385.154 48.0074C388.091 55.8127 388.091 65.5995 388.091 85.1729V748.865C388.091 768.438 388.091 778.225 385.154 786.03C380.539 798.298 370.897 807.983 358.682 812.619C350.911 815.568 341.167 815.568 321.68 815.568H87.7022C68.2146 815.568 58.4708 815.568 50.6997 812.619C38.4851 807.983 28.8431 798.298 24.2276 786.03C21.2912 778.225 21.2912 768.438 21.2912 748.865V85.1729C21.2912 65.5994 21.2912 55.8127 24.2276 48.0074C28.8431 35.7391 38.4851 26.0546 50.6997 21.4187C58.4708 18.4694 68.2146 18.4694 87.7022 18.4694L100.168 18.4694C103.108 18.4694 105.491 20.863 105.491 23.8158Z" fill="#333333"/>
<path fill-rule="evenodd" clip-rule="evenodd" d="M318.796 1.94424H90.5867C67.454 1.94424 56.1171 1.95623 46.9695 4.94156C28.4073 10.9993 13.8543 25.6165 7.82308 44.2604C4.85084 53.4483 4.8389 64.8351 4.8389 88.0698V745.968C4.8389 769.203 4.85084 780.589 7.82308 789.777C13.8543 808.421 28.4073 823.038 46.9695 829.096C56.1171 832.081 67.454 832.094 90.5868 832.094H318.796C341.929 832.094 353.266 832.081 362.413 829.096C380.975 823.038 395.528 808.421 401.56 789.777C404.532 780.589 404.544 769.203 404.544 745.968V88.0698C404.544 64.8351 404.532 53.4483 401.56 44.2604C395.528 25.6165 380.975 10.9993 362.413 4.94156C353.266 1.95623 341.929 1.94424 318.796 1.94424ZM6.90264 43.96C3.87109 53.3312 3.87109 64.9108 3.87109 88.0698V745.968C3.87109 769.127 3.87109 780.706 6.90264 790.078C13.0296 809.018 27.8136 823.867 46.6704 830.021C56.0006 833.066 67.5293 833.066 90.5868 833.066H318.796C341.853 833.066 353.382 833.066 362.712 830.021C381.569 823.867 396.353 809.018 402.48 790.078C405.512 780.706 405.512 769.127 405.512 745.968V88.0698C405.512 64.9108 405.512 53.3312 402.48 43.96C396.353 25.0201 381.569 10.171 362.712 4.01707C353.382 0.972168 341.853 0.972168 318.796 0.972168H90.5867C67.5293 0.972168 56.0006 0.972168 46.6704 4.01707C27.8136 10.171 13.0296 25.0201 6.90264 43.96Z" fill="#303030"/>
<path fill-rule="evenodd" clip-rule="evenodd" d="M10.5852 45.1614C7.74316 53.947 7.74316 64.8028 7.74316 86.5144V747.523C7.74316 769.235 7.74316 780.09 10.5852 788.876C16.3293 806.632 30.1893 820.553 47.8675 826.322C56.6145 829.177 67.4227 829.177 89.0391 829.177H320.345C341.962 829.177 352.77 829.177 361.517 826.322C379.195 820.553 393.055 806.632 398.799 788.876C401.641 780.09 401.641 769.235 401.641 747.523V86.5144C401.641 64.8028 401.641 53.947 398.799 45.1614C393.055 27.4053 379.195 13.4843 361.517 7.71495C352.77 4.86035 341.962 4.86035 320.345 4.86035H89.0391C67.4227 4.86035 56.6145 4.86035 47.8675 7.71495C30.1893 13.4843 16.3293 27.4053 10.5852 45.1614ZM105.491 23.8158V28.1901L105.561 28.1879L105.491 28.6761C105.491 40.2186 114.807 49.5756 126.299 49.5756H283.084C294.576 49.5756 303.892 40.2186 303.892 28.6761L303.822 28.1879L303.892 28.1901V23.8158C303.892 20.863 306.275 18.4694 309.214 18.4694L321.68 18.4693C341.168 18.4693 350.912 18.4693 358.683 21.4187C370.897 26.0545 380.539 35.739 385.155 48.0074C388.091 55.8127 388.091 65.5994 388.091 85.1729V748.865C388.091 768.438 388.091 778.225 385.155 786.03C380.539 798.298 370.897 807.983 358.683 812.619C350.912 815.568 341.168 815.568 321.68 815.568H87.7028C68.2152 815.568 58.4714 815.568 50.7003 812.619C38.4858 807.983 28.8438 798.298 24.2283 786.03C21.2918 778.225 21.2918 768.438 21.2918 748.865V85.1729C21.2918 65.5994 21.2918 55.8127 24.2283 48.0074C28.8438 35.739 38.4858 26.0545 50.7003 21.4187C58.4714 18.4693 68.2152 18.4693 87.7028 18.4693L100.169 18.4694C103.108 18.4694 105.491 20.863 105.491 23.8158Z" fill="#121515"/>
<rect x="320.344" width="5.80683" height="4.86036" fill="#414141"/>
<rect x="401.64" y="83.5981" width="4.83912" height="5.83243" fill="#414141"/>
<rect x="2.90332" y="83.5981" width="4.83904" height="5.83243" fill="#414141"/>
<path fill-rule="evenodd" clip-rule="evenodd" d="M245.824 38.8827C250.1 38.8827 253.566 35.401 253.566 31.1062C253.566 26.8113 250.1 23.3296 245.824 23.3296C241.547 23.3296 238.081 26.8113 238.081 31.1062C238.081 35.401 241.547 38.8827 245.824 38.8827Z" fill="#262C2D"/>
<path fill-rule="evenodd" clip-rule="evenodd" d="M245.822 35.9666C248.495 35.9666 250.661 33.7905 250.661 31.1062C250.661 28.4219 248.495 26.2458 245.822 26.2458C243.15 26.2458 240.983 28.4219 240.983 31.1062C240.983 33.7905 243.15 35.9666 245.822 35.9666Z" fill="#121515"/>
<path opacity="0.4" fill-rule="evenodd" clip-rule="evenodd" d="M245.824 30.135C246.358 30.135 246.792 29.6996 246.792 29.1625C246.792 28.6254 246.358 28.1899 245.824 28.1899C245.289 28.1899 244.855 28.6254 244.855 29.1625C244.855 29.6996 245.289 30.135 245.824 30.135Z" fill="#636F73"/>
<path fill-rule="evenodd" clip-rule="evenodd" d="M180.98 31.1064C180.98 29.4958 182.286 28.1902 183.897 28.1902H225.487C227.097 28.1902 228.403 29.4958 228.403 31.1064C228.403 32.717 227.097 34.0226 225.487 34.0226H183.897C182.286 34.0226 180.98 32.717 180.98 31.1064Z" fill="#262C2D"/>
<mask id="mask0_571_7998" style="mask-type:alpha" maskUnits="userSpaceOnUse" x="-80" y="-19" width="571" height="571">
<path d="M18.2941 -6.27054C19.672 -12.7531 26.0442 -16.8913 32.5268 -15.5134L478.562 79.2944C485.045 80.6723 489.183 87.0445 487.805 93.5271L392.997 539.562C391.619 546.045 385.247 550.183 378.765 548.805L-67.2708 453.997C-73.7534 452.62 -77.8915 446.247 -76.5136 439.765L18.2941 -6.27054Z" fill="url(#paint0_radial_571_7998)"/>
</mask>
<g mask="url(#mask0_571_7998)">
<path d="M93.2776 167.623C93.2221 161.272 98.3257 156.079 104.677 156.023L304.669 154.278C311.02 154.222 316.214 159.326 316.269 165.677L318.014 365.669C318.07 372.021 312.966 377.214 306.615 377.269L106.623 379.015C100.272 379.07 95.0783 373.967 95.0229 367.615L93.2776 167.623Z" stroke="#E4E7EC"/>
<path d="M60.9992 135.904C60.9438 129.553 66.0474 124.359 72.3984 124.304L336.388 122C342.739 121.944 347.933 127.048 347.988 133.399L350.292 397.389C350.348 403.74 345.244 408.934 338.893 408.989L74.903 411.293C68.5519 411.348 63.3585 406.245 63.303 399.894L60.9992 135.904Z" stroke="#E4E7EC"/>
<path d="M28.7209 104.184C28.6655 97.8329 33.7691 92.6394 40.1201 92.584L368.108 89.7217C374.459 89.6663 379.652 94.7699 379.708 101.121L382.57 429.108C382.625 435.459 377.522 440.653 371.171 440.708L43.1831 443.571C36.8321 443.626 31.6386 438.522 31.5832 432.171L28.7209 104.184Z" stroke="#E4E7EC"/>
<path d="M-3.55741 72.4642C-3.61283 66.1131 1.49076 60.9197 7.8418 60.8643L399.827 57.4435C406.178 57.388 411.371 62.4916 411.427 68.8427L414.848 460.828C414.903 467.179 409.799 472.372 403.448 472.428L11.4633 475.848C5.11227 475.904 -0.0811821 470.8 -0.136607 464.449L-3.55741 72.4642Z" stroke="#E4E7EC"/>
<path d="M-35.8338 40.7449C-35.8892 34.3939 -30.7856 29.2004 -24.4346 29.145L431.548 25.1657C437.899 25.1103 443.093 30.2139 443.148 36.5649L447.127 492.548C447.183 498.899 442.079 504.092 435.728 504.147L-20.2546 508.127C-26.6056 508.182 -31.7991 503.079 -31.8545 496.728L-35.8338 40.7449Z" stroke="#E4E7EC"/>
</g>
<g filter="url(#filter1_ddiii_571_7998)">
<g clip-path="url(#clip3_571_7998)">
<rect x="131" y="192" width="148" height="148" rx="12" fill="#F2F4F7"/>
<rect width="148" height="148" transform="translate(131 192)" fill="url(#paint1_linear_571_7998)"/>
<g filter="url(#filter2_d_571_7998)">
<path fill-rule="evenodd" clip-rule="evenodd" d="M228.355 254.358C234.834 256.092 239.895 261.15 241.631 267.625C243.367 274.099 241.513 281.007 236.768 285.746L210.055 312.442C208.505 313.876 206.324 314.441 204.256 313.916C202.033 313.351 200.295 311.614 199.73 309.392C199.165 307.169 199.861 304.816 201.546 303.258C201.443 303.266 228.192 276.536 228.235 276.563C229.58 275.003 230.077 272.871 229.539 270.863C228.96 268.705 227.274 267.02 225.115 266.442C222.955 265.864 220.651 266.48 219.07 268.06C198.421 288.694 188.097 299.011 188.097 299.011C179.233 290.153 174.801 285.724 174.801 285.724C170.064 280.977 168.222 274.066 169.968 267.594C171.714 261.122 176.784 256.072 183.267 254.349C188.41 252.982 193.822 253.873 198.203 256.672C199.397 257.461 200.263 258.621 200.695 259.938L192.795 267.825C195.509 268.718 198.575 267.656 200.11 265.106C201.085 263.486 201.239 261.603 200.695 259.938L192.795 267.824C190.398 267.037 189.626 265.613 186.502 266.435C184.341 267.004 182.647 268.682 182.06 270.838C181.472 272.994 182.08 275.299 183.654 276.885C183.654 276.885 185.135 278.365 188.097 281.324C188.097 281.324 195.471 273.956 210.22 259.217C214.962 254.476 221.875 252.624 228.355 254.358ZM205.726 211.492C214.127 211.492 221.001 218.361 221.001 226.757C221.001 227.445 221.559 228.003 222.248 228.003C222.936 228.003 223.495 227.445 223.495 226.757C223.495 216.99 215.499 209 205.726 209C195.952 209 187.956 216.99 187.956 226.757C187.956 227.445 188.515 228.003 189.203 228.003C189.892 228.003 190.45 227.445 190.45 226.757C190.45 218.361 197.324 211.492 205.726 211.492ZM160.746 321.839H250.842C251.834 321.84 252.785 321.446 253.487 320.745C254.189 320.044 254.583 319.093 254.583 318.101L254.591 318.105L250.842 234.876C250.511 233.196 249.056 231.921 247.292 231.865L218.987 231.864C216.978 231.857 216.984 231.862 213.369 235.547L205.795 243.01L198.221 235.547C194.612 231.868 194.612 231.857 192.613 231.864L164.468 231.865C163.476 231.865 162.524 232.259 161.823 232.96C161.121 233.66 160.727 234.611 160.727 235.603L160.717 235.594L157 318.105L157.005 318.101C157.004 319.093 157.398 320.044 158.1 320.746C158.802 321.447 159.753 321.84 160.746 321.839ZM223.495 239.699C226.951 239.699 229.752 242.499 229.752 245.952C229.752 249.405 226.951 252.205 223.495 252.205C220.039 252.205 217.237 249.405 217.237 245.952C217.237 242.499 220.039 239.699 223.495 239.699ZM188.097 239.7C191.553 239.7 194.354 242.499 194.354 245.953C194.354 249.406 191.553 252.205 188.097 252.205C184.641 252.205 181.839 249.406 181.839 245.953C181.839 242.499 184.641 239.7 188.097 239.7Z" fill="#D92D20"/>
</g>
</g>
<rect x="132" y="193" width="146" height="146" rx="11" stroke="url(#paint2_linear_571_7998)" stroke-width="2"/>
</g>
<path d="M129.616 359.141V357.818H137.496V359.141H134.32V368H132.788V359.141H129.616ZM147.645 362.909C147.645 363.996 147.446 364.931 147.048 365.713C146.65 366.492 146.105 367.092 145.412 367.513C144.723 367.93 143.939 368.139 143.061 368.139C142.179 368.139 141.392 367.93 140.699 367.513C140.01 367.092 139.466 366.49 139.069 365.708C138.671 364.926 138.472 363.993 138.472 362.909C138.472 361.822 138.671 360.889 139.069 360.11C139.466 359.328 140.01 358.728 140.699 358.31C141.392 357.889 142.179 357.679 143.061 357.679C143.939 357.679 144.723 357.889 145.412 358.31C146.105 358.728 146.65 359.328 147.048 360.11C147.446 360.889 147.645 361.822 147.645 362.909ZM146.123 362.909C146.123 362.08 145.989 361.383 145.721 360.816C145.456 360.246 145.091 359.815 144.627 359.523C144.166 359.228 143.644 359.081 143.061 359.081C142.474 359.081 141.951 359.228 141.49 359.523C141.029 359.815 140.665 360.246 140.396 360.816C140.131 361.383 139.998 362.08 139.998 362.909C139.998 363.738 140.131 364.437 140.396 365.007C140.665 365.574 141.029 366.005 141.49 366.3C141.951 366.591 142.474 366.737 143.061 366.737C143.644 366.737 144.166 366.591 144.627 366.3C145.091 366.005 145.456 365.574 145.721 365.007C145.989 364.437 146.123 363.738 146.123 362.909ZM156.451 361.035C156.355 360.733 156.225 360.463 156.063 360.224C155.904 359.982 155.713 359.777 155.491 359.608C155.269 359.436 155.016 359.305 154.73 359.215C154.449 359.126 154.139 359.081 153.801 359.081C153.227 359.081 152.71 359.228 152.25 359.523C151.789 359.818 151.424 360.251 151.156 360.821C150.891 361.388 150.758 362.082 150.758 362.904C150.758 363.729 150.892 364.427 151.161 364.997C151.429 365.567 151.797 366 152.265 366.295C152.732 366.59 153.264 366.737 153.86 366.737C154.414 366.737 154.896 366.625 155.307 366.399C155.721 366.174 156.041 365.856 156.267 365.445C156.495 365.03 156.61 364.543 156.61 363.983L157.007 364.058H154.094V362.79H158.096V363.948C158.096 364.803 157.914 365.546 157.549 366.175C157.188 366.802 156.688 367.286 156.048 367.627C155.412 367.969 154.682 368.139 153.86 368.139C152.939 368.139 152.13 367.927 151.434 367.503C150.742 367.079 150.201 366.477 149.814 365.698C149.426 364.916 149.232 363.988 149.232 362.914C149.232 362.102 149.345 361.373 149.57 360.727C149.795 360.08 150.112 359.532 150.52 359.081C150.931 358.627 151.413 358.281 151.966 358.042C152.523 357.8 153.131 357.679 153.791 357.679C154.341 357.679 154.853 357.76 155.327 357.923C155.804 358.085 156.229 358.315 156.6 358.614C156.974 358.912 157.284 359.267 157.529 359.678C157.775 360.085 157.94 360.538 158.027 361.035H156.451ZM160.046 368V357.818H166.43V359.141H161.583V362.243H166.097V363.56H161.583V366.678H166.49V368H160.046ZM167.98 359.141V357.818H175.86V359.141H172.683V368H171.152V359.141H167.98ZM177.601 368V357.818H179.137V362.243H184.213V357.818H185.754V368H184.213V363.56H179.137V368H177.601ZM187.992 368V357.818H194.375V359.141H189.528V362.243H194.042V363.56H189.528V366.678H194.435V368H187.992ZM196.427 368V357.818H200.056C200.845 357.818 201.5 357.954 202.02 358.226C202.544 358.498 202.935 358.874 203.194 359.354C203.452 359.832 203.581 360.384 203.581 361.01C203.581 361.633 203.45 362.182 203.189 362.656C202.93 363.126 202.539 363.492 202.015 363.754C201.495 364.016 200.84 364.147 200.051 364.147H197.302V362.825H199.912C200.409 362.825 200.814 362.753 201.125 362.611C201.44 362.468 201.671 362.261 201.816 361.989C201.962 361.718 202.035 361.391 202.035 361.01C202.035 360.625 201.961 360.292 201.811 360.011C201.666 359.729 201.435 359.513 201.12 359.364C200.809 359.212 200.4 359.136 199.892 359.136H197.963V368H196.427ZM201.453 363.406L203.969 368H202.219L199.753 363.406H201.453ZM211.149 368L208.325 357.818H209.941L211.925 365.703H212.019L214.083 357.818H215.683L217.747 365.708H217.841L219.82 357.818H221.441L218.612 368H217.066L214.923 360.374H214.843L212.7 368H211.149ZM222.841 368V357.818H229.225V359.141H224.377V362.243H228.892V363.56H224.377V366.678H229.284V368H222.841ZM240.535 360.493C240.482 360.022 240.263 359.658 239.879 359.399C239.494 359.137 239.011 359.006 238.427 359.006C238.01 359.006 237.648 359.073 237.343 359.205C237.038 359.335 236.801 359.513 236.632 359.742C236.467 359.968 236.384 360.224 236.384 360.513C236.384 360.755 236.44 360.964 236.553 361.139C236.669 361.315 236.82 361.462 237.005 361.582C237.194 361.698 237.396 361.795 237.612 361.875C237.827 361.951 238.034 362.014 238.233 362.064L239.228 362.322C239.552 362.402 239.886 362.51 240.227 362.646C240.568 362.781 240.885 362.96 241.176 363.183C241.468 363.405 241.703 363.68 241.882 364.008C242.065 364.336 242.156 364.729 242.156 365.186C242.156 365.763 242.007 366.275 241.708 366.722C241.413 367.17 240.984 367.523 240.421 367.781C239.861 368.04 239.183 368.169 238.387 368.169C237.625 368.169 236.966 368.048 236.409 367.806C235.852 367.564 235.416 367.221 235.101 366.777C234.786 366.33 234.612 365.799 234.579 365.186H236.12C236.15 365.554 236.27 365.861 236.478 366.106C236.69 366.348 236.961 366.528 237.289 366.648C237.62 366.764 237.983 366.822 238.377 366.822C238.812 366.822 239.198 366.754 239.536 366.618C239.877 366.479 240.146 366.286 240.341 366.041C240.537 365.793 240.635 365.503 240.635 365.171C240.635 364.87 240.548 364.623 240.376 364.43C240.207 364.238 239.977 364.079 239.685 363.953C239.397 363.827 239.07 363.716 238.706 363.62L237.502 363.292C236.687 363.07 236.041 362.743 235.564 362.312C235.09 361.882 234.853 361.312 234.853 360.602C234.853 360.016 235.012 359.504 235.33 359.066C235.648 358.629 236.079 358.289 236.623 358.047C237.166 357.802 237.779 357.679 238.462 357.679C239.151 357.679 239.76 357.8 240.287 358.042C240.817 358.284 241.234 358.617 241.539 359.041C241.844 359.462 242.003 359.946 242.017 360.493H240.535ZM243.49 359.141V357.818H251.369V359.141H248.193V368H246.661V359.141H243.49ZM252.768 368H251.137L254.801 357.818H256.576L260.24 368H258.609L255.731 359.668H255.651L252.768 368ZM253.041 364.013H258.331V365.305H253.041V364.013ZM269.928 357.818V368H268.517L263.341 360.533H263.247V368H261.71V357.818H263.132L268.313 365.295H268.407V357.818H269.928ZM275.466 368H272.169V357.818H275.57C276.568 357.818 277.424 358.022 278.14 358.43C278.856 358.834 279.405 359.416 279.786 360.175C280.17 360.93 280.363 361.837 280.363 362.894C280.363 363.955 280.169 364.866 279.781 365.629C279.396 366.391 278.84 366.978 278.11 367.388C277.381 367.796 276.5 368 275.466 368ZM273.706 366.658H275.381C276.157 366.658 276.801 366.512 277.315 366.22C277.829 365.925 278.213 365.499 278.468 364.942C278.724 364.382 278.851 363.7 278.851 362.894C278.851 362.095 278.724 361.418 278.468 360.861C278.217 360.304 277.84 359.881 277.34 359.593C276.839 359.305 276.218 359.161 275.475 359.161H273.706V366.658Z" fill="#475467" fill-opacity="0.8"/>
</g>
</g>
<defs>
<filter id="filter0_dd_571_7998" x="-17.109" y="-20.0517" width="492.294" height="922.216" filterUnits="userSpaceOnUse" color-interpolation-filters="sRGB">
<feFlood flood-opacity="0" result="BackgroundImageFix"/>
<feColorMatrix in="SourceAlpha" type="matrix" values="0 0 0 0 0 0 0 0 0 0 0 0 0 0 0 0 0 0 127 0" result="hardAlpha"/>
<feMorphology radius="1.50235" operator="erode" in="SourceAlpha" result="effect1_dropShadow_571_7998"/>
<feOffset dx="12.0188" dy="12.0188"/>
<feGaussianBlur stdDeviation="12.0188"/>
<feColorMatrix type="matrix" values="0 0 0 0 0.0627451 0 0 0 0 0.0941176 0 0 0 0 0.156863 0 0 0 0.08 0"/>
<feBlend mode="normal" in2="BackgroundImageFix" result="effect1_dropShadow_571_7998"/>
<feColorMatrix in="SourceAlpha" type="matrix" values="0 0 0 0 0 0 0 0 0 0 0 0 0 0 0 0 0 0 127 0" result="hardAlpha"/>
<feMorphology radius="3.00469" operator="erode" in="SourceAlpha" result="effect2_dropShadow_571_7998"/>
<feOffset dx="24.0376" dy="24.0376"/>
<feGaussianBlur stdDeviation="24.0376"/>
<feColorMatrix type="matrix" values="0 0 0 0 0.0627451 0 0 0 0 0.0941176 0 0 0 0 0.156863 0 0 0 0.2 0"/>
<feBlend mode="normal" in2="effect1_dropShadow_571_7998" result="effect2_dropShadow_571_7998"/>
<feBlend mode="normal" in="SourceGraphic" in2="effect2_dropShadow_571_7998" result="shape"/>
</filter>
<filter id="filter1_ddiii_571_7998" x="128" y="189" width="154" height="157" filterUnits="userSpaceOnUse" color-interpolation-filters="sRGB">
<feFlood flood-opacity="0" result="BackgroundImageFix"/>
<feColorMatrix in="SourceAlpha" type="matrix" values="0 0 0 0 0 0 0 0 0 0 0 0 0 0 0 0 0 0 127 0" result="hardAlpha"/>
<feOffset dy="1"/>
<feGaussianBlur stdDeviation="0.5"/>
<feComposite in2="hardAlpha" operator="out"/>
<feColorMatrix type="matrix" values="0 0 0 0 0.162923 0 0 0 0 0.162923 0 0 0 0 0.162923 0 0 0 0.08 0"/>
<feBlend mode="normal" in2="BackgroundImageFix" result="effect1_dropShadow_571_7998"/>
<feColorMatrix in="SourceAlpha" type="matrix" values="0 0 0 0 0 0 0 0 0 0 0 0 0 0 0 0 0 0 127 0" result="hardAlpha"/>
<feMorphology radius="1" operator="erode" in="SourceAlpha" result="effect2_dropShadow_571_7998"/>
<feOffset dy="3"/>
<feGaussianBlur stdDeviation="2"/>
<feComposite in2="hardAlpha" operator="out"/>
<feColorMatrix type="matrix" values="0 0 0 0 0.164706 0 0 0 0 0.164706 0 0 0 0 0.164706 0 0 0 0.14 0"/>
<feBlend mode="normal" in2="effect1_dropShadow_571_7998" result="effect2_dropShadow_571_7998"/>
<feBlend mode="normal" in="SourceGraphic" in2="effect2_dropShadow_571_7998" result="shape"/>
<feColorMatrix in="SourceAlpha" type="matrix" values="0 0 0 0 0 0 0 0 0 0 0 0 0 0 0 0 0 0 127 0" result="hardAlpha"/>
<feOffset dy="-3"/>
<feGaussianBlur stdDeviation="1.5"/>
<feComposite in2="hardAlpha" operator="arithmetic" k2="-1" k3="1"/>
<feColorMatrix type="matrix" values="0 0 0 0 0 0 0 0 0 0 0 0 0 0 0 0 0 0 0.1 0"/>
<feBlend mode="normal" in2="shape" result="effect3_innerShadow_571_7998"/>
<feColorMatrix in="SourceAlpha" type="matrix" values="0 0 0 0 0 0 0 0 0 0 0 0 0 0 0 0 0 0 127 0" result="hardAlpha"/>
<feOffset dy="3"/>
<feGaussianBlur stdDeviation="1.5"/>
<feComposite in2="hardAlpha" operator="arithmetic" k2="-1" k3="1"/>
<feColorMatrix type="matrix" values="0 0 0 0 1 0 0 0 0 1 0 0 0 0 1 0 0 0 0.1 0"/>
<feBlend mode="normal" in2="effect3_innerShadow_571_7998" result="effect4_innerShadow_571_7998"/>
<feColorMatrix in="SourceAlpha" type="matrix" values="0 0 0 0 0 0 0 0 0 0 0 0 0 0 0 0 0 0 127 0" result="hardAlpha"/>
<feMorphology radius="1" operator="erode" in="SourceAlpha" result="effect5_innerShadow_571_7998"/>
<feOffset/>
<feComposite in2="hardAlpha" operator="arithmetic" k2="-1" k3="1"/>
<feColorMatrix type="matrix" values="0 0 0 0 0.0627451 0 0 0 0 0.0941176 0 0 0 0 0.156863 0 0 0 0.24 0"/>
<feBlend mode="normal" in2="effect4_innerShadow_571_7998" result="effect5_innerShadow_571_7998"/>
</filter>
<filter id="filter2_d_571_7998" x="154" y="208.25" width="103.591" height="119" filterUnits="userSpaceOnUse" color-interpolation-filters="sRGB">
<feFlood flood-opacity="0" result="BackgroundImageFix"/>
<feColorMatrix in="SourceAlpha" type="matrix" values="0 0 0 0 0 0 0 0 0 0 0 0 0 0 0 0 0 0 127 0" result="hardAlpha"/>
<feMorphology radius="1.5" operator="erode" in="SourceAlpha" result="effect1_dropShadow_571_7998"/>
<feOffset dy="2.25"/>
<feGaussianBlur stdDeviation="2.25"/>
<feComposite in2="hardAlpha" operator="out"/>
<feColorMatrix type="matrix" values="0 0 0 0 0.141176 0 0 0 0 0.141176 0 0 0 0 0.141176 0 0 0 0.1 0"/>
<feBlend mode="normal" in2="BackgroundImageFix" result="effect1_dropShadow_571_7998"/>
<feBlend mode="normal" in="SourceGraphic" in2="effect1_dropShadow_571_7998" result="shape"/>
</filter>
<radialGradient id="paint0_radial_571_7998" cx="0" cy="0" r="1" gradientUnits="userSpaceOnUse" gradientTransform="translate(205.646 266.646) rotate(102) scale(240 240)">
<stop offset="0.24"/>
<stop offset="1" stop-opacity="0"/>
</radialGradient>
<linearGradient id="paint1_linear_571_7998" x1="74" y1="1.83781e-06" x2="80.1667" y2="148" gradientUnits="userSpaceOnUse">
<stop stop-color="white" stop-opacity="0"/>
<stop offset="1" stop-color="white" stop-opacity="0.12"/>
</linearGradient>
<linearGradient id="paint2_linear_571_7998" x1="205" y1="192" x2="205" y2="340" gradientUnits="userSpaceOnUse">
<stop stop-color="white" stop-opacity="0.12"/>
<stop offset="1" stop-color="white" stop-opacity="0"/>
</linearGradient>
<clipPath id="clip0_571_7998">
<rect width="410" height="471" fill="white"/>
</clipPath>
<clipPath id="clip1_571_7998">
<rect width="367.823" height="796.751" fill="white" transform="translate(20.5986 18.6433)"/>
</clipPath>
<clipPath id="clip2_571_7998">
<rect width="410" height="834.038" fill="white"/>
</clipPath>
<clipPath id="clip3_571_7998">
<rect x="131" y="192" width="148" height="148" rx="12" fill="white"/>
</clipPath>
</defs>
</svg>
