<svg width="400" height="469" viewBox="0 0 400 469" fill="none" xmlns="http://www.w3.org/2000/svg">
<g filter="url(#filter0_dd_266_11363)">
<rect x="22.0049" y="21.0327" width="307.981" height="636.995" rx="51.0798" fill="black"/>
</g>
<g clip-path="url(#clip0_266_11363)">
<rect width="281.69" height="609.953" transform="translate(34.7744 34.5542)" fill="white"/>
<rect width="281.69" height="609.953" transform="translate(34.7744 58.5918)" fill="white"/>
<path opacity="0.35" d="M287.545 49.5778C287.545 48.679 288.273 47.9503 289.172 47.9503H301.692C302.591 47.9503 303.319 48.679 303.319 49.5778V54.0849C303.319 54.9837 302.591 55.7124 301.692 55.7124H289.172C288.273 55.7124 287.545 54.9837 287.545 54.0849V49.5778Z" stroke="black" stroke-width="0.751174"/>
<path opacity="0.4" d="M304.446 50.3291V53.3338C305.051 53.0793 305.444 52.4873 305.444 51.8314C305.444 51.1756 305.051 50.5836 304.446 50.3291Z" fill="black"/>
<path d="M288.671 50.0787C288.671 49.5256 289.119 49.0771 289.672 49.0771H301.19C301.744 49.0771 302.192 49.5256 302.192 50.0787V53.5842C302.192 54.1373 301.744 54.5858 301.19 54.5858H289.672C289.119 54.5858 288.671 54.1373 288.671 53.5842V50.0787Z" fill="black"/>
<path fill-rule="evenodd" clip-rule="evenodd" d="M277.651 49.2834C279.316 49.2835 280.917 49.9231 282.123 51.07C282.214 51.1585 282.359 51.1574 282.449 51.0675L283.317 50.1911C283.362 50.1455 283.388 50.0837 283.387 50.0194C283.387 49.9551 283.361 49.8936 283.315 49.8486C280.149 46.8142 275.154 46.8142 271.987 49.8486C271.941 49.8936 271.915 49.9551 271.915 50.0194C271.915 50.0836 271.94 50.1454 271.985 50.1911L272.854 51.0675C272.943 51.1575 273.088 51.1586 273.179 51.07C274.386 49.923 275.987 49.2834 277.651 49.2834ZM277.652 52.1347C278.566 52.1346 279.448 52.4745 280.126 53.0884C280.218 53.1755 280.362 53.1736 280.451 53.0841L281.319 52.2078C281.364 52.1618 281.39 52.0994 281.389 52.0346C281.388 51.9698 281.362 51.908 281.315 51.863C279.251 49.9427 276.054 49.9427 273.99 51.863C273.943 51.908 273.916 51.9699 273.916 52.0347C273.915 52.0995 273.941 52.1619 273.986 52.2078L274.853 53.0841C274.943 53.1736 275.087 53.1755 275.179 53.0884C275.856 52.4749 276.738 52.135 277.652 52.1347ZM279.389 54.053C279.39 54.118 279.365 54.1806 279.318 54.2262L277.818 55.7403C277.774 55.7848 277.714 55.8098 277.652 55.8098C277.589 55.8098 277.529 55.7848 277.485 55.7403L275.984 54.2262C275.938 54.1806 275.913 54.1179 275.914 54.053C275.915 53.988 275.943 53.9264 275.992 53.8829C276.95 53.0725 278.353 53.0725 279.311 53.8829C279.36 53.9265 279.388 53.988 279.389 54.053Z" fill="black"/>
<path fill-rule="evenodd" clip-rule="evenodd" d="M267.388 47.8252H266.637C266.222 47.8252 265.886 48.1615 265.886 48.5764V55.0865C265.886 55.5014 266.222 55.8377 266.637 55.8377H267.388C267.803 55.8377 268.139 55.5014 268.139 55.0865V48.5764C268.139 48.1615 267.803 47.8252 267.388 47.8252ZM263.131 49.5779H263.882C264.297 49.5779 264.634 49.9142 264.634 50.3291V55.0865C264.634 55.5014 264.297 55.8377 263.882 55.8377H263.131C262.716 55.8377 262.38 55.5014 262.38 55.0865V50.3291C262.38 49.9142 262.716 49.5779 263.131 49.5779ZM260.377 51.3307H259.626C259.211 51.3307 258.875 51.667 258.875 52.0819V55.0866C258.875 55.5014 259.211 55.8377 259.626 55.8377H260.377C260.792 55.8377 261.128 55.5014 261.128 55.0866V52.0819C261.128 51.667 260.792 51.3307 260.377 51.3307ZM256.871 52.833H256.12C255.705 52.833 255.369 53.1693 255.369 53.5842V55.0866C255.369 55.5014 255.705 55.8377 256.12 55.8377H256.871C257.286 55.8377 257.623 55.5014 257.623 55.0866V53.5842C257.623 53.1693 257.286 52.833 256.871 52.833Z" fill="black"/>
<path d="M62.8082 55.7799C64.8274 55.7799 66.0268 54.2009 66.0268 51.527C66.0268 50.5202 65.8342 49.6729 65.4656 49.0182C64.9319 48.0004 64.0131 47.4502 62.8523 47.4502C61.1247 47.4502 59.9033 48.6111 59.9033 50.2396C59.9033 51.7691 61.0037 52.8804 62.5167 52.8804C63.4465 52.8804 64.2002 52.4458 64.5743 51.6921H64.5908C64.5908 51.6921 64.6128 51.6921 64.6183 51.6921C64.6293 51.6921 64.6678 51.6921 64.6678 51.6921C64.6678 53.5076 63.9801 54.5915 62.8193 54.5915C62.137 54.5915 61.6089 54.2174 61.4273 53.6177H60.0134C60.2499 54.9216 61.3558 55.7799 62.8082 55.7799ZM62.8578 51.7526C61.9445 51.7526 61.2953 51.1034 61.2953 50.1956C61.2953 49.3098 61.9775 48.6331 62.8633 48.6331C63.7491 48.6331 64.4313 49.3208 64.4313 50.2176C64.4313 51.1034 63.7656 51.7526 62.8578 51.7526Z" fill="black"/>
<path d="M68.3487 55.7028C68.8714 55.7028 69.229 55.3287 69.229 54.8336C69.229 54.3329 68.8714 53.9643 68.3487 53.9643C67.8316 53.9643 67.4685 54.3329 67.4685 54.8336C67.4685 55.3287 67.8316 55.7028 68.3487 55.7028ZM68.3487 51.5765C68.8714 51.5765 69.229 51.2079 69.229 50.7127C69.229 50.2121 68.8714 49.8435 68.3487 49.8435C67.8316 49.8435 67.4685 50.2121 67.4685 50.7127C67.4685 51.2079 67.8316 51.5765 68.3487 51.5765Z" fill="black"/>
<path d="M74.3789 55.5873H75.7378V54.1073H76.8107V52.9079H75.7378V47.6483H73.7352C72.3322 49.7609 71.2154 51.527 70.5002 52.8419V54.1073H74.3789V55.5873ZM71.8151 52.8584C72.7394 51.2299 73.5646 49.926 74.3239 48.8036H74.4009V52.941H71.8151V52.8584Z" fill="black"/>
<path d="M79.8369 55.5873H81.2563V47.6483H79.8424L77.7682 49.1007V50.4652L79.7433 49.0787H79.8369V55.5873Z" fill="black"/>
</g>
<path d="M330.294 183.999H331.406C332.02 183.999 332.517 184.499 332.517 185.115V258.044C332.517 258.66 332.02 259.16 331.406 259.16H330.294V183.999Z" fill="#303030"/>
<path d="M21.2227 274.788L20.1109 274.788C19.4969 274.788 18.9991 274.288 18.9991 273.672L18.9991 229.766C18.9991 229.149 19.4969 228.649 20.1109 228.649L21.2227 228.649L21.2227 274.788Z" fill="#303030"/>
<path d="M21.2227 213.766L20.1109 213.766C19.4969 213.766 18.9991 213.266 18.9991 212.649L18.9991 168.743C18.9991 168.127 19.4969 167.627 20.1109 167.627L21.2227 167.627L21.2227 213.766Z" fill="#333333"/>
<path d="M21.2227 145.302L20.1109 145.302C19.4969 145.302 18.9991 144.802 18.9991 144.186L18.9991 122.605C18.9991 121.989 19.4969 121.489 20.1109 121.489L21.2227 121.489L21.2227 145.302Z" fill="#333333"/>
<path fill-rule="evenodd" clip-rule="evenodd" d="M23.5806 53.7053C21.2227 60.9915 21.2227 69.9948 21.2227 88.0012V591.06C21.2227 609.066 21.2227 618.07 23.5806 625.356C28.3461 640.082 39.8451 651.627 54.5118 656.412C61.7688 658.779 70.7358 658.779 88.6698 658.779H262.846C280.78 658.779 289.747 658.779 297.004 656.412C311.671 651.627 323.17 640.082 327.936 625.356C330.294 618.07 330.294 609.066 330.294 591.06V88.0012C330.294 69.9948 330.294 60.9915 327.936 53.7053C323.17 38.9793 311.671 27.4339 297.004 22.6492C289.747 20.2817 280.78 20.2817 262.846 20.2817H88.6698C70.7358 20.2817 61.7688 20.2817 54.5118 22.6492C39.8451 27.4339 28.3461 38.9793 23.5806 53.7053ZM99.7881 38.5139V41.8627L99.841 41.861L99.7878 42.2347C99.7878 51.0711 106.922 58.2344 115.723 58.2344H235.794C244.595 58.2344 251.729 51.0711 251.729 42.2347L251.676 41.861L251.729 41.8627V38.5139C251.729 36.2534 253.554 34.421 255.805 34.421L265.352 34.421C280.276 34.421 287.738 34.421 293.69 36.6789C303.044 40.2278 310.428 47.6418 313.963 57.0338C316.212 63.0092 316.212 70.5014 316.212 85.4859V593.575C316.212 608.56 316.212 616.052 313.963 622.027C310.428 631.419 303.044 638.833 293.69 642.382C287.738 644.64 280.276 644.64 265.352 644.64H86.165C71.2408 644.64 63.7787 644.64 57.8273 642.382C48.473 638.833 41.0889 631.419 37.5542 622.027C35.3054 616.052 35.3054 608.56 35.3054 593.575V85.4859C35.3054 70.5014 35.3054 63.0092 37.5542 57.0338C41.0889 47.6418 48.473 40.2278 57.8273 36.6789C63.7787 34.421 71.2408 34.421 86.165 34.421L95.7116 34.421C97.963 34.421 99.7881 36.2534 99.7881 38.5139Z" fill="#333333"/>
<path fill-rule="evenodd" clip-rule="evenodd" d="M263.143 21.77H88.3734C70.6576 21.77 61.9755 21.7792 54.9699 24.0647C40.7545 28.7022 29.6093 39.8923 24.9904 54.1652C22.7142 61.199 22.705 69.9162 22.705 87.7035V591.358C22.705 609.145 22.7142 617.862 24.9904 624.896C29.6093 639.169 40.7545 650.359 54.9699 654.996C61.9755 657.282 70.6576 657.291 88.3734 657.291H263.143C280.859 657.291 289.541 657.282 296.547 654.996C310.762 650.359 321.907 639.169 326.526 624.896C328.802 617.862 328.811 609.145 328.811 591.358V87.7035C328.811 69.9162 328.802 61.199 326.526 54.1652C321.907 39.8923 310.762 28.7022 296.547 24.0647C289.541 21.7792 280.859 21.77 263.143 21.77ZM24.2855 53.9352C21.9639 61.1094 21.9639 69.9741 21.9639 87.7035V591.358C21.9639 609.087 21.9639 617.952 24.2855 625.126C28.9777 639.625 40.2998 650.993 54.7409 655.704C61.8862 658.035 70.7153 658.035 88.3734 658.035H263.143C280.801 658.035 289.63 658.035 296.776 655.704C311.217 650.993 322.539 639.625 327.231 625.126C329.553 617.952 329.553 609.087 329.553 591.358V87.7035C329.553 69.9741 329.553 61.1094 327.231 53.9352C322.539 39.4358 311.217 28.0681 296.776 23.3569C289.63 21.0259 280.801 21.0259 263.143 21.0259H88.3734C70.7153 21.0259 61.8862 21.0259 54.7409 23.3569C40.2998 28.0681 28.9777 39.4358 24.2855 53.9352Z" fill="#303030"/>
<path fill-rule="evenodd" clip-rule="evenodd" d="M27.1062 54.855C24.9297 61.5807 24.9297 69.8914 24.9297 86.5127V592.548C24.9297 609.169 24.9297 617.48 27.1062 624.206C31.5052 637.799 42.1196 648.456 55.6581 652.873C62.3569 655.058 70.6341 655.058 87.1886 655.058H264.33C280.885 655.058 289.162 655.058 295.86 652.873C309.399 648.456 320.013 637.799 324.412 624.206C326.589 617.48 326.589 609.169 326.589 592.548V86.5127C326.589 69.8914 326.589 61.5807 324.412 54.855C320.013 41.2617 309.399 30.6045 295.86 26.1878C289.162 24.0024 280.885 24.0024 264.33 24.0024H87.1886C70.6341 24.0024 62.3569 24.0024 55.6581 26.1878C42.1196 30.6045 31.5052 41.2617 27.1062 54.855ZM99.7884 38.5138V41.8625L99.8413 41.8609L99.7881 42.2346C99.7881 51.0709 106.923 58.2342 115.723 58.2342H235.794C244.595 58.2342 251.73 51.0709 251.73 42.2346L251.676 41.8609L251.729 41.8625V38.5138C251.729 36.2533 253.554 34.4208 255.806 34.4208L265.352 34.4208C280.277 34.4208 287.739 34.4208 293.69 36.6787C303.044 40.2277 310.428 47.6416 313.963 57.0336C316.212 63.009 316.212 70.5013 316.212 85.4857V593.575C316.212 608.56 316.212 616.052 313.963 622.027C310.428 631.419 303.044 638.833 293.69 642.382C287.739 644.64 280.277 644.64 265.352 644.64H86.1653C71.2411 644.64 63.7789 644.64 57.8276 642.382C48.4733 638.833 41.0892 631.419 37.5545 622.027C35.3057 616.052 35.3057 608.56 35.3057 593.575V85.4857C35.3057 70.5013 35.3057 63.009 37.5545 57.0336C41.0892 47.6416 48.4733 40.2277 57.8276 36.6787C63.7789 34.4208 71.2411 34.4208 86.1653 34.4208L95.7119 34.4208C97.9633 34.4208 99.7884 36.2533 99.7884 38.5138Z" fill="#121515"/>
<rect x="264.33" y="20.2817" width="4.44705" height="3.72085" fill="#414141"/>
<rect x="326.588" y="84.2803" width="3.70594" height="4.46502" fill="#414141"/>
<rect x="21.2236" y="84.2803" width="3.70589" height="4.46502" fill="#414141"/>
<path fill-rule="evenodd" clip-rule="evenodd" d="M207.259 50.0483C210.534 50.0483 213.189 47.3829 213.189 44.095C213.189 40.807 210.534 38.1416 207.259 38.1416C203.985 38.1416 201.33 40.807 201.33 44.095C201.33 47.3829 203.985 50.0483 207.259 50.0483Z" fill="#262C2D"/>
<path fill-rule="evenodd" clip-rule="evenodd" d="M207.259 47.8157C209.305 47.8157 210.965 46.1498 210.965 44.0949C210.965 42.0399 209.305 40.374 207.259 40.374C205.212 40.374 203.553 42.0399 203.553 44.0949C203.553 46.1498 205.212 47.8157 207.259 47.8157Z" fill="#121515"/>
<path opacity="0.4" fill-rule="evenodd" clip-rule="evenodd" d="M207.26 43.3513C207.67 43.3513 208.002 43.018 208.002 42.6068C208.002 42.1956 207.67 41.8623 207.26 41.8623C206.851 41.8623 206.519 42.1956 206.519 42.6068C206.519 43.018 206.851 43.3513 207.26 43.3513Z" fill="#636F73"/>
<path fill-rule="evenodd" clip-rule="evenodd" d="M157.601 44.0953C157.601 42.8623 158.6 41.8628 159.833 41.8628H191.686C192.919 41.8628 193.918 42.8623 193.918 44.0953C193.918 45.3283 192.919 46.3278 191.686 46.3278H159.833C158.6 46.3278 157.601 45.3283 157.601 44.0953Z" fill="#262C2D"/>
<defs>
<filter id="filter0_dd_266_11363" x="0.97202" y="-0.000148058" width="398.122" height="727.136" filterUnits="userSpaceOnUse" color-interpolation-filters="sRGB">
<feFlood flood-opacity="0" result="BackgroundImageFix"/>
<feColorMatrix in="SourceAlpha" type="matrix" values="0 0 0 0 0 0 0 0 0 0 0 0 0 0 0 0 0 0 127 0" result="hardAlpha"/>
<feMorphology radius="1.50235" operator="erode" in="SourceAlpha" result="effect1_dropShadow_266_11363"/>
<feOffset dx="12.0188" dy="12.0188"/>
<feGaussianBlur stdDeviation="12.0188"/>
<feColorMatrix type="matrix" values="0 0 0 0 0.0627451 0 0 0 0 0.0941176 0 0 0 0 0.156863 0 0 0 0.08 0"/>
<feBlend mode="normal" in2="BackgroundImageFix" result="effect1_dropShadow_266_11363"/>
<feColorMatrix in="SourceAlpha" type="matrix" values="0 0 0 0 0 0 0 0 0 0 0 0 0 0 0 0 0 0 127 0" result="hardAlpha"/>
<feMorphology radius="3.00469" operator="erode" in="SourceAlpha" result="effect2_dropShadow_266_11363"/>
<feOffset dx="24.0376" dy="24.0376"/>
<feGaussianBlur stdDeviation="24.0376"/>
<feColorMatrix type="matrix" values="0 0 0 0 0.0627451 0 0 0 0 0.0941176 0 0 0 0 0.156863 0 0 0 0.2 0"/>
<feBlend mode="normal" in2="effect1_dropShadow_266_11363" result="effect2_dropShadow_266_11363"/>
<feBlend mode="normal" in="SourceGraphic" in2="effect2_dropShadow_266_11363" result="shape"/>
</filter>
<clipPath id="clip0_266_11363">
<rect width="281.69" height="609.953" fill="white" transform="translate(34.7744 34.5542)"/>
</clipPath>
</defs>
</svg>
