<svg width="284" height="336" viewBox="0 0 284 336" fill="none" xmlns="http://www.w3.org/2000/svg">
<g clip-path="url(#clip0_710_16638)">
<rect width="254.785" height="551.694" transform="translate(14.2681 12.9092)" fill="white"/>
<rect width="255" height="573" transform="translate(14 13)" fill="white"/>
<rect width="255" height="573" transform="translate(14 13)" fill="#FAFBFC"/>
<mask id="mask0_710_16638" style="mask-type:alpha" maskUnits="userSpaceOnUse" x="-144" y="-87" width="570" height="570">
<path d="M-46.6971 -75.2622C-45.3192 -81.7448 -38.947 -85.883 -32.4644 -84.5051L413.571 10.3027C420.054 11.6806 424.192 18.0528 422.814 24.5354L328.006 470.571C326.628 477.053 320.256 481.191 313.773 479.814L-132.262 385.006C-138.745 383.628 -142.883 377.256 -141.505 370.773L-46.6971 -75.2622Z" fill="url(#paint0_radial_710_16638)"/>
</mask>
<g mask="url(#mask0_710_16638)">
<path d="M28.2863 98.6319C28.2309 92.2809 33.3345 87.0874 39.6855 87.032L239.678 85.2867C246.029 85.2312 251.222 90.3348 251.278 96.6859L253.023 296.678C253.079 303.029 247.975 308.223 241.624 308.278L41.6316 310.023C35.2805 310.079 30.0871 304.975 30.0316 298.624L28.2863 98.6319Z" stroke="#E4E7EC"/>
<path d="M-3.99198 66.9122C-4.0474 60.5611 1.05619 55.3677 7.40723 55.3123L271.397 53.0084C277.748 52.953 282.942 58.0566 282.997 64.4077L285.301 328.398C285.356 334.749 280.253 339.942 273.902 339.998L9.91175 342.301C3.56072 342.357 -1.63275 337.253 -1.68817 330.902L-3.99198 66.9122Z" stroke="#E4E7EC"/>
<path d="M-36.2703 35.1925C-36.3257 28.8414 -31.2221 23.648 -24.8711 23.5925L303.116 20.7302C309.467 20.6748 314.661 25.7784 314.716 32.1294L317.579 360.117C317.634 366.468 312.53 371.661 306.179 371.717L-21.8081 374.579C-28.1591 374.635 -33.3526 369.531 -33.408 363.18L-36.2703 35.1925Z" stroke="#E4E7EC"/>
<path d="M-68.5491 3.47271C-68.6045 -2.87832 -63.5009 -8.07177 -57.1499 -8.1272L334.835 -11.548C341.186 -11.6034 346.38 -6.49983 346.435 -0.148795L349.856 391.836C349.911 398.187 344.808 403.381 338.457 403.436L-53.5284 406.857C-59.8794 406.912 -65.0729 401.809 -65.1283 395.458L-68.5491 3.47271Z" stroke="#E4E7EC"/>
<path d="M-100.825 -28.247C-100.881 -34.5981 -95.7773 -39.7915 -89.4263 -39.8469L366.556 -43.8262C372.907 -43.8817 378.101 -38.7781 378.156 -32.427L382.136 423.556C382.191 429.907 377.087 435.1 370.736 435.156L-85.2463 439.135C-91.5973 439.19 -96.7908 434.087 -96.8462 427.736L-100.825 -28.247Z" stroke="#E4E7EC"/>
</g>
<g filter="url(#filter0_ddiii_710_16638)">
<g clip-path="url(#clip1_710_16638)">
<rect x="66.0088" y="123.008" width="148" height="148" rx="12" fill="#F2F4F7"/>
<rect width="148" height="148" transform="translate(66.0088 123.008)" fill="url(#paint1_linear_710_16638)"/>
<g filter="url(#filter1_d_710_16638)">
<path fill-rule="evenodd" clip-rule="evenodd" d="M163.364 185.366C169.843 187.1 174.904 192.157 176.64 198.632C178.375 205.107 176.521 212.015 171.777 216.754L145.063 243.449C143.514 244.883 141.333 245.449 139.265 244.924C137.041 244.358 135.304 242.622 134.739 240.4C134.173 238.177 134.87 235.823 136.554 234.265C136.452 234.274 163.201 207.544 163.244 207.571C164.589 206.011 165.086 203.879 164.547 201.871C163.969 199.713 162.282 198.027 160.123 197.449C157.964 196.871 155.659 197.488 154.079 199.067C133.43 219.702 123.106 230.018 123.106 230.018C114.241 221.16 109.81 216.732 109.81 216.732C105.073 211.985 103.23 205.074 104.977 198.602C106.723 192.13 111.793 187.08 118.276 185.357C123.419 183.99 128.831 184.881 133.212 187.679C134.406 188.469 135.271 189.628 135.704 190.945L127.804 198.832C130.518 199.726 133.584 198.664 135.119 196.114C136.094 194.494 136.248 192.611 135.704 190.945L127.804 198.832C125.406 198.044 124.635 196.621 121.511 197.442C119.349 198.012 117.656 199.69 117.068 201.846C116.481 204.001 117.089 206.307 118.663 207.893C118.663 207.893 120.144 209.372 123.106 212.332C123.106 212.332 130.48 204.963 145.229 190.225C149.971 185.484 156.884 183.631 163.364 185.366ZM140.734 142.5C149.136 142.5 156.01 149.369 156.01 157.764C156.01 158.452 156.568 159.01 157.257 159.01C157.945 159.01 158.504 158.452 158.504 157.764C158.504 147.998 150.507 140.008 140.734 140.008C130.961 140.008 122.965 147.998 122.965 157.764C122.965 158.452 123.523 159.01 124.212 159.01C124.9 159.01 125.459 158.452 125.459 157.764C125.459 149.369 132.333 142.5 140.734 142.5ZM95.7543 252.847H185.851C186.843 252.848 187.794 252.454 188.496 251.752C189.198 251.052 189.592 250.101 189.591 249.109L189.6 249.112L185.851 165.884C185.52 164.204 184.064 162.928 182.301 162.873L153.996 162.872C151.987 162.864 151.993 162.87 148.378 166.555L140.804 174.018L133.23 166.555C129.62 162.876 129.621 162.864 127.622 162.872L99.4763 162.873C98.4847 162.873 97.5329 163.266 96.8313 163.967C96.1298 164.668 95.736 165.619 95.736 166.61L95.7254 166.602L92.0088 249.112L92.0138 249.109C92.013 250.101 92.4069 251.052 93.1085 251.753C93.8104 252.454 94.7622 252.848 95.7543 252.847ZM158.504 170.707C161.959 170.707 164.761 173.507 164.761 176.96C164.761 180.413 161.959 183.213 158.504 183.213C155.048 183.213 152.246 180.413 152.246 176.96C152.246 173.507 155.048 170.707 158.504 170.707ZM123.106 170.707C126.562 170.707 129.363 173.507 129.363 176.96C129.363 180.414 126.562 183.213 123.106 183.213C119.65 183.213 116.848 180.414 116.848 176.96C116.848 173.507 119.65 170.707 123.106 170.707Z" fill="#D92D20"/>
</g>
</g>
<rect x="67.0088" y="124.008" width="146" height="146" rx="11" stroke="url(#paint2_linear_710_16638)" stroke-width="2"/>
</g>
<path d="M64.6253 290.148V288.826H72.5052V290.148H69.3284V299.008H67.7971V290.148H64.6253ZM82.6535 293.917C82.6535 295.004 82.4546 295.939 82.0569 296.721C81.6592 297.5 81.114 298.1 80.4213 298.521C79.7319 298.938 78.948 299.147 78.0697 299.147C77.1881 299.147 76.4009 298.938 75.7082 298.521C75.0188 298.1 74.4752 297.498 74.0775 296.716C73.6798 295.934 73.4809 295.001 73.4809 293.917C73.4809 292.83 73.6798 291.897 74.0775 291.118C74.4752 290.336 75.0188 289.736 75.7082 289.318C76.4009 288.897 77.1881 288.687 78.0697 288.687C78.948 288.687 79.7319 288.897 80.4213 289.318C81.114 289.736 81.6592 290.336 82.0569 291.118C82.4546 291.897 82.6535 292.83 82.6535 293.917ZM81.1322 293.917C81.1322 293.088 80.998 292.391 80.7295 291.824C80.4643 291.254 80.0998 290.823 79.6357 290.531C79.175 290.236 78.653 290.089 78.0697 290.089C77.483 290.089 76.9594 290.236 76.4987 290.531C76.038 290.823 75.6734 291.254 75.4049 291.824C75.1398 292.391 75.0072 293.088 75.0072 293.917C75.0072 294.746 75.1398 295.445 75.4049 296.015C75.6734 296.582 76.038 297.013 76.4987 297.308C76.9594 297.599 77.483 297.745 78.0697 297.745C78.653 297.745 79.175 297.599 79.6357 297.308C80.0998 297.013 80.4643 296.582 80.7295 296.015C80.998 295.445 81.1322 294.746 81.1322 293.917ZM91.4594 292.043C91.3633 291.741 91.2341 291.471 91.0716 291.232C90.9126 290.99 90.722 290.785 90.4999 290.616C90.2778 290.443 90.0243 290.312 89.7393 290.223C89.4575 290.134 89.1476 290.089 88.8096 290.089C88.2362 290.089 87.7191 290.236 87.2584 290.531C86.7977 290.826 86.4331 291.259 86.1647 291.829C85.8995 292.396 85.767 293.09 85.767 293.912C85.767 294.737 85.9012 295.435 86.1697 296.005C86.4381 296.575 86.806 297.008 87.2733 297.303C87.7407 297.598 88.2726 297.745 88.8692 297.745C89.4227 297.745 89.905 297.632 90.316 297.407C90.7303 297.182 91.0501 296.863 91.2755 296.452C91.5042 296.038 91.6185 295.551 91.6185 294.991L92.0162 295.065H89.1029V293.798H93.105V294.956C93.105 295.811 92.9227 296.554 92.5581 297.183C92.1969 297.81 91.6964 298.294 91.0567 298.635C90.4204 298.976 89.6912 299.147 88.8692 299.147C87.9478 299.147 87.1391 298.935 86.4431 298.511C85.7504 298.086 85.2101 297.485 84.8224 296.706C84.4346 295.924 84.2407 294.996 84.2407 293.922C84.2407 293.11 84.3534 292.381 84.5787 291.734C84.8041 291.088 85.1206 290.54 85.5283 290.089C85.9393 289.635 86.4215 289.288 86.9751 289.05C87.5319 288.808 88.1401 288.687 88.7996 288.687C89.3498 288.687 89.8619 288.768 90.3358 288.93C90.8131 289.093 91.2374 289.323 91.6086 289.621C91.9831 289.92 92.293 290.274 92.5383 290.685C92.7835 291.093 92.9492 291.545 93.0354 292.043H91.4594ZM95.0551 299.008V288.826H101.439V290.148H96.5914V293.251H101.106V294.568H96.5914V297.685H101.498V299.008H95.0551ZM102.989 290.148V288.826H110.869V290.148H107.692V299.008H106.16V290.148H102.989ZM112.61 299.008V288.826H114.146V293.251H119.222V288.826H120.763V299.008H119.222V294.568H114.146V299.008H112.61ZM123 299.008V288.826H129.384V290.148H124.537V293.251H129.051V294.568H124.537V297.685H129.444V299.008H123ZM131.436 299.008V288.826H135.065C135.854 288.826 136.509 288.962 137.029 289.234C137.553 289.505 137.944 289.882 138.202 290.362C138.461 290.839 138.59 291.391 138.59 292.018C138.59 292.641 138.459 293.189 138.197 293.663C137.939 294.134 137.548 294.5 137.024 294.762C136.504 295.024 135.849 295.155 135.06 295.155H132.311V293.832H134.921C135.418 293.832 135.823 293.761 136.134 293.619C136.449 293.476 136.679 293.269 136.825 292.997C136.971 292.725 137.044 292.399 137.044 292.018C137.044 291.633 136.969 291.3 136.82 291.018C136.674 290.737 136.444 290.521 136.129 290.372C135.818 290.22 135.408 290.143 134.901 290.143H132.972V299.008H131.436ZM136.462 294.414L138.978 299.008H137.228L134.762 294.414H136.462ZM146.158 299.008L143.334 288.826H144.95L146.934 296.711H147.028L149.091 288.826H150.692L152.755 296.716H152.85L154.829 288.826H156.449L153.62 299.008H152.074L149.932 291.381H149.852L147.709 299.008H146.158ZM157.85 299.008V288.826H164.234V290.148H159.386V293.251H163.9V294.568H159.386V297.685H164.293V299.008H157.85ZM175.544 291.501C175.491 291.03 175.272 290.665 174.888 290.407C174.503 290.145 174.019 290.014 173.436 290.014C173.018 290.014 172.657 290.08 172.352 290.213C172.047 290.342 171.81 290.521 171.641 290.75C171.476 290.975 171.393 291.232 171.393 291.521C171.393 291.763 171.449 291.971 171.562 292.147C171.678 292.323 171.829 292.47 172.014 292.589C172.203 292.705 172.405 292.803 172.621 292.883C172.836 292.959 173.043 293.022 173.242 293.072L174.236 293.33C174.561 293.41 174.894 293.518 175.236 293.653C175.577 293.789 175.894 293.968 176.185 294.19C176.477 294.412 176.712 294.688 176.891 295.016C177.074 295.344 177.165 295.737 177.165 296.194C177.165 296.771 177.016 297.283 176.717 297.73C176.422 298.178 175.993 298.531 175.43 298.789C174.869 299.048 174.192 299.177 173.396 299.177C172.634 299.177 171.974 299.056 171.418 298.814C170.861 298.572 170.425 298.229 170.11 297.785C169.795 297.337 169.621 296.807 169.588 296.194H171.129C171.159 296.562 171.278 296.868 171.487 297.114C171.699 297.356 171.969 297.536 172.297 297.656C172.629 297.772 172.992 297.83 173.386 297.83C173.82 297.83 174.207 297.762 174.545 297.626C174.886 297.487 175.155 297.294 175.35 297.049C175.546 296.8 175.643 296.51 175.643 296.179C175.643 295.877 175.557 295.63 175.385 295.438C175.216 295.246 174.985 295.087 174.694 294.961C174.405 294.835 174.079 294.724 173.714 294.628L172.511 294.3C171.696 294.078 171.05 293.751 170.572 293.32C170.098 292.889 169.861 292.319 169.861 291.61C169.861 291.023 170.021 290.511 170.339 290.074C170.657 289.636 171.088 289.297 171.631 289.055C172.175 288.809 172.788 288.687 173.471 288.687C174.16 288.687 174.768 288.808 175.295 289.05C175.826 289.292 176.243 289.625 176.548 290.049C176.853 290.47 177.012 290.954 177.025 291.501H175.544ZM178.498 290.148V288.826H186.378V290.148H183.201V299.008H181.67V290.148H178.498ZM187.777 299.008H186.146L189.81 288.826H191.585L195.249 299.008H193.618L190.74 290.675H190.66L187.777 299.008ZM188.05 295.021H193.34V296.313H188.05V295.021ZM204.937 288.826V299.008H203.525L198.35 291.54H198.255V299.008H196.719V288.826H198.141L203.321 296.303H203.416V288.826H204.937ZM210.474 299.008H207.178V288.826H210.579C211.576 288.826 212.433 289.03 213.149 289.438C213.865 289.842 214.414 290.424 214.795 291.183C215.179 291.938 215.371 292.845 215.371 293.902C215.371 294.963 215.177 295.874 214.79 296.636C214.405 297.399 213.848 297.985 213.119 298.396C212.39 298.804 211.508 299.008 210.474 299.008ZM208.714 297.665H210.39C211.165 297.665 211.81 297.52 212.324 297.228C212.838 296.933 213.222 296.507 213.477 295.95C213.732 295.39 213.86 294.707 213.86 293.902C213.86 293.103 213.732 292.425 213.477 291.869C213.225 291.312 212.849 290.889 212.349 290.601C211.848 290.312 211.227 290.168 210.484 290.168H208.714V297.665Z" fill="#475467" fill-opacity="0.8"/>
<path opacity="0.35" d="M242.895 26.4983C242.895 25.6853 243.554 25.0262 244.367 25.0262H255.691C256.504 25.0262 257.163 25.6853 257.163 26.4983V30.5749C257.163 31.3879 256.504 32.047 255.691 32.047H244.367C243.554 32.047 242.895 31.3879 242.895 30.5749V26.4983Z" stroke="black" stroke-width="0.679426"/>
<path opacity="0.4" d="M258.182 27.1777V29.8954C258.729 29.6653 259.084 29.1298 259.084 28.5366C259.084 27.9434 258.729 27.4079 258.182 27.1777Z" fill="black"/>
<path d="M243.914 26.9508C243.914 26.4505 244.32 26.0449 244.82 26.0449H255.238C255.738 26.0449 256.144 26.4505 256.144 26.9508V30.1215C256.144 30.6218 255.738 31.0274 255.238 31.0274H244.82C244.32 31.0274 243.914 30.6218 243.914 30.1215V26.9508Z" fill="black"/>
<path fill-rule="evenodd" clip-rule="evenodd" d="M233.947 26.2318C235.452 26.2319 236.9 26.8104 237.991 27.8477C238.074 27.9278 238.205 27.9268 238.286 27.8455L239.071 27.0528C239.112 27.0116 239.135 26.9557 239.135 26.8975C239.134 26.8394 239.111 26.7838 239.069 26.743C236.206 23.9984 231.688 23.9984 228.824 26.743C228.782 26.7837 228.759 26.8393 228.758 26.8975C228.758 26.9556 228.781 27.0115 228.822 27.0528L229.607 27.8455C229.688 27.9269 229.82 27.928 229.902 27.8477C230.993 26.8103 232.441 26.2318 233.947 26.2318ZM233.947 28.8104C234.774 28.8104 235.572 29.1178 236.185 29.6731C236.268 29.7519 236.398 29.7502 236.479 29.6692L237.264 28.8766C237.305 28.835 237.328 28.7786 237.327 28.72C237.327 28.6614 237.303 28.6054 237.26 28.5647C235.393 26.8278 232.502 26.8278 230.634 28.5647C230.592 28.6054 230.568 28.6614 230.568 28.72C230.567 28.7786 230.59 28.835 230.632 28.8766L231.416 29.6692C231.497 29.7502 231.627 29.7519 231.71 29.6731C232.323 29.1182 233.12 28.8108 233.947 28.8104ZM235.518 30.5454C235.519 30.6042 235.496 30.6608 235.454 30.702L234.097 32.0715C234.058 32.1118 234.003 32.1344 233.947 32.1344C233.89 32.1344 233.836 32.1118 233.796 32.0715L232.439 30.702C232.397 30.6608 232.374 30.6041 232.375 30.5453C232.376 30.4866 232.402 30.4309 232.445 30.3915C233.312 29.6585 234.581 29.6585 235.448 30.3915C235.492 30.4309 235.517 30.4866 235.518 30.5454Z" fill="black"/>
<path fill-rule="evenodd" clip-rule="evenodd" d="M224.664 24.9131H223.984C223.609 24.9131 223.305 25.2173 223.305 25.5925V31.4809C223.305 31.8561 223.609 32.1603 223.984 32.1603H224.664C225.039 32.1603 225.343 31.8561 225.343 31.4809V25.5925C225.343 25.2173 225.039 24.9131 224.664 24.9131ZM220.814 26.4982H221.493C221.868 26.4982 222.173 26.8024 222.173 27.1776V31.4806C222.173 31.8559 221.868 32.1601 221.493 32.1601H220.814C220.439 32.1601 220.134 31.8559 220.134 31.4806V27.1776C220.134 26.8024 220.439 26.4982 220.814 26.4982ZM218.322 28.084H217.643C217.268 28.084 216.964 28.3881 216.964 28.7634V31.4811C216.964 31.8563 217.268 32.1605 217.643 32.1605H218.322C218.698 32.1605 219.002 31.8563 219.002 31.4811V28.7634C219.002 28.3881 218.698 28.084 218.322 28.084ZM215.152 29.4428H214.472C214.097 29.4428 213.793 29.747 213.793 30.1222V31.4811C213.793 31.8563 214.097 32.1605 214.472 32.1605H215.152C215.527 32.1605 215.831 31.8563 215.831 31.4811V30.1222C215.831 29.747 215.527 29.4428 215.152 29.4428Z" fill="black"/>
<path d="M39.625 32.1063C41.4513 32.1063 42.5361 30.6781 42.5361 28.2597C42.5361 27.349 42.362 26.5827 42.0286 25.9905C41.5459 25.0699 40.7148 24.5723 39.6648 24.5723C38.1023 24.5723 36.9976 25.6223 36.9976 27.0952C36.9976 28.4786 37.9928 29.4838 39.3613 29.4838C40.2023 29.4838 40.884 29.0907 41.2224 28.409H41.2373C41.2373 28.409 41.2572 28.409 41.2622 28.409C41.2722 28.409 41.307 28.409 41.307 28.409C41.307 30.0511 40.685 31.0315 39.635 31.0315C39.0179 31.0315 38.5402 30.6931 38.376 30.1507H37.0971C37.3111 31.33 38.3113 32.1063 39.625 32.1063ZM39.6698 28.4637C38.8438 28.4637 38.2566 27.8765 38.2566 27.0554C38.2566 26.2542 38.8736 25.6422 39.6748 25.6422C40.476 25.6422 41.093 26.2642 41.093 27.0753C41.093 27.8765 40.4909 28.4637 39.6698 28.4637Z" fill="black"/>
<path d="M44.6363 32.0367C45.1091 32.0367 45.4325 31.6983 45.4325 31.2504C45.4325 30.7976 45.1091 30.4642 44.6363 30.4642C44.1686 30.4642 43.8401 30.7976 43.8401 31.2504C43.8401 31.6983 44.1686 32.0367 44.6363 32.0367ZM44.6363 28.3045C45.1091 28.3045 45.4325 27.9711 45.4325 27.5232C45.4325 27.0703 45.1091 26.7369 44.6363 26.7369C44.1686 26.7369 43.8401 27.0703 43.8401 27.5232C43.8401 27.9711 44.1686 28.3045 44.6363 28.3045Z" fill="black"/>
<path d="M50.0905 31.9322H51.3196V30.5935H52.29V29.5087H51.3196V24.7514H49.5083C48.2393 26.6623 47.2292 28.2597 46.5822 29.449V30.5935H50.0905V31.9322ZM47.7716 29.4639C48.6076 27.991 49.354 26.8116 50.0407 25.7964H50.1104V29.5386H47.7716V29.4639Z" fill="black"/>
<path d="M55.0272 31.9322H56.311V24.7514H55.0321L53.1561 26.0651V27.2993L54.9426 26.0452H55.0272V31.9322Z" fill="black"/>
</g>
<path d="M281.561 148.08H282.566C283.121 148.08 283.572 148.532 283.572 149.09V215.053C283.572 215.61 283.121 216.062 282.566 216.062H281.561V148.08Z" fill="#303030"/>
<path d="M2.01025 230.197L1.00467 230.197C0.449309 230.197 -0.000902852 229.745 -0.000902803 229.188L-0.000899345 189.475C-0.000899297 188.918 0.449313 188.466 1.00468 188.466L2.01026 188.466L2.01025 230.197Z" fill="#303030"/>
<path d="M2.01025 175.003L1.00467 175.003C0.449309 175.003 -0.000902852 174.551 -0.000902803 173.993L-0.000899345 134.281C-0.000899297 133.723 0.449313 133.271 1.00468 133.271L2.01026 133.271L2.01025 175.003Z" fill="#333333"/>
<path d="M2.01025 113.079L1.00468 113.079C0.449312 113.079 -0.000900229 112.627 -0.000900181 112.069L-0.000898481 92.5498C-0.000898432 91.9922 0.449313 91.5402 1.00468 91.5402L2.01026 91.5402L2.01025 113.079Z" fill="#333333"/>
<path fill-rule="evenodd" clip-rule="evenodd" d="M4.14297 30.2311C2.01025 36.8214 2.01025 44.9647 2.01025 61.2513V516.261C2.01025 532.547 2.01025 540.69 4.14297 547.281C8.45331 560.6 18.8539 571.043 32.1198 575.371C38.6836 577.512 46.7942 577.512 63.0152 577.512H220.556C236.777 577.512 244.887 577.512 251.451 575.371C264.717 571.043 275.117 560.6 279.428 547.281C281.56 540.69 281.56 532.547 281.56 516.261V61.2513C281.56 44.9647 281.56 36.8214 279.428 30.2311C275.117 16.9117 264.717 6.46907 251.451 2.14132C244.887 0 236.777 0 220.556 0H63.0152C46.7942 0 38.6836 0 32.1198 2.14132C18.8539 6.46907 8.45331 16.9117 4.14297 30.2311ZM73.0715 16.4907V19.5196L73.1194 19.5181L73.0713 19.8562C73.0713 27.8485 79.5244 34.3276 87.4846 34.3276H196.087C204.047 34.3276 210.5 27.8485 210.5 19.8562L210.452 19.5181L210.5 19.5196V16.4907C210.5 14.4462 212.151 12.7887 214.187 12.7887L222.822 12.7887C236.32 12.7887 243.07 12.7887 248.453 14.831C256.914 18.0409 263.592 24.7468 266.789 33.2417C268.824 38.6464 268.824 45.423 268.824 58.9762V518.536C268.824 532.089 268.824 538.866 266.789 544.27C263.592 552.765 256.914 559.471 248.453 562.681C243.07 564.723 236.32 564.723 222.822 564.723H60.7496C47.2509 564.723 40.5015 564.723 35.1186 562.681C26.6578 559.471 19.979 552.765 16.7819 544.27C14.7479 538.866 14.7479 532.089 14.7479 518.536V58.9762C14.7479 45.423 14.7479 38.6464 16.7819 33.2417C19.979 24.7468 26.6578 18.0409 35.1186 14.831C40.5015 12.7887 47.2509 12.7887 60.7497 12.7887L69.3844 12.7887C71.4208 12.7887 73.0715 14.4462 73.0715 16.4907Z" fill="#333333"/>
<path fill-rule="evenodd" clip-rule="evenodd" d="M220.824 1.34594H62.7476C46.7239 1.34594 38.8711 1.35425 32.5347 3.42138C19.677 7.61596 9.59635 17.7373 5.41863 30.6469C3.35981 37.0089 3.35154 44.8934 3.35154 60.9818V516.53C3.35154 532.618 3.35981 540.503 5.41863 546.865C9.59635 559.774 19.677 569.896 32.5347 574.09C38.8711 576.157 46.7239 576.166 62.7476 576.166H220.824C236.848 576.166 244.701 576.157 251.037 574.09C263.895 569.896 273.975 559.774 278.153 546.865C280.212 540.503 280.22 532.618 280.22 516.53V60.9818C280.22 44.8934 280.212 37.0089 278.153 30.6469C273.975 17.7373 263.895 7.61596 251.037 3.42138C244.701 1.35425 236.848 1.34594 220.824 1.34594ZM4.78105 30.4389C2.68115 36.9278 2.68115 44.9458 2.68115 60.9818V516.53C2.68115 532.566 2.68115 540.584 4.78105 547.073C9.02509 560.187 19.2657 570.469 32.3275 574.73C38.7903 576.839 46.7761 576.839 62.7476 576.839H220.824C236.796 576.839 244.782 576.839 251.244 574.73C264.306 570.469 274.547 560.187 278.791 547.073C280.891 540.584 280.891 532.566 280.891 516.53V60.9818C280.891 44.9458 280.891 36.9278 278.791 30.4389C274.547 17.3244 264.306 7.0424 251.244 2.78123C244.782 0.672852 236.796 0.672852 220.824 0.672852H62.7476C46.7761 0.672852 38.7903 0.672852 32.3275 2.78123C19.2657 7.0424 9.02509 17.3244 4.78105 30.4389Z" fill="#303030"/>
<path fill-rule="evenodd" clip-rule="evenodd" d="M7.33243 31.2709C5.36377 37.3543 5.36377 44.8711 5.36377 59.9049V517.607C5.36377 532.64 5.36377 540.157 7.33243 546.241C11.3112 558.535 20.9118 568.175 33.1572 572.17C39.2161 574.146 46.7028 574.146 61.6761 574.146H221.898C236.871 574.146 244.358 574.146 250.417 572.17C262.662 568.175 272.263 558.535 276.242 546.241C278.21 540.157 278.21 532.64 278.21 517.607V59.9049C278.21 44.8711 278.21 37.3543 276.242 31.2709C272.263 18.976 262.662 9.33668 250.417 5.34184C244.358 3.36523 236.871 3.36523 221.898 3.36523H61.6761C46.7028 3.36523 39.2161 3.36523 33.1572 5.34184C20.9118 9.33668 11.3112 18.976 7.33243 31.2709ZM73.0724 16.4905V19.5194L73.1202 19.5179L73.0721 19.8559C73.0721 27.8483 79.5252 34.3274 87.4854 34.3274H196.088C204.048 34.3274 210.501 27.8483 210.501 19.8559L210.453 19.5179L210.501 19.5194V16.4905C210.501 14.4459 212.151 12.7885 214.188 12.7885L222.823 12.7885C236.321 12.7885 243.071 12.7885 248.454 14.8307C256.914 18.0407 263.593 24.7465 266.79 33.2415C268.824 38.6461 268.824 45.4227 268.824 58.976V518.535C268.824 532.089 268.824 538.865 266.79 544.27C263.593 552.765 256.914 559.471 248.454 562.681C243.071 564.723 236.321 564.723 222.823 564.723H60.7505C47.2517 564.723 40.5024 564.723 35.1194 562.681C26.6587 559.471 19.9798 552.765 16.7827 544.27C14.7487 538.865 14.7487 532.089 14.7487 518.535V58.976C14.7487 45.4227 14.7487 38.6461 16.7827 33.2415C19.9798 24.7465 26.6587 18.0407 35.1194 14.8307C40.5024 12.7885 47.2517 12.7885 60.7505 12.7885L69.3852 12.7885C71.4216 12.7885 73.0724 14.4459 73.0724 16.4905Z" fill="#121515"/>
<rect x="221.897" width="4.02229" height="3.36545" fill="#414141"/>
<rect x="278.209" y="57.8857" width="3.35197" height="4.03854" fill="#414141"/>
<rect x="2.01123" y="57.8857" width="3.35192" height="4.03854" fill="#414141"/>
<path fill-rule="evenodd" clip-rule="evenodd" d="M170.278 26.9238C173.24 26.9238 175.641 24.5129 175.641 21.539C175.641 18.5651 173.24 16.1543 170.278 16.1543C167.316 16.1543 164.915 18.5651 164.915 21.539C164.915 24.5129 167.316 26.9238 170.278 26.9238Z" fill="#262C2D"/>
<path fill-rule="evenodd" clip-rule="evenodd" d="M170.277 24.9047C172.128 24.9047 173.629 23.398 173.629 21.5393C173.629 19.6806 172.128 18.1738 170.277 18.1738C168.426 18.1738 166.925 19.6806 166.925 21.5393C166.925 23.398 168.426 24.9047 170.277 24.9047Z" fill="#121515"/>
<path opacity="0.4" fill-rule="evenodd" clip-rule="evenodd" d="M170.278 20.8663C170.649 20.8663 170.949 20.5648 170.949 20.1929C170.949 19.821 170.649 19.5195 170.278 19.5195C169.908 19.5195 169.607 19.821 169.607 20.1929C169.607 20.5648 169.908 20.8663 170.278 20.8663Z" fill="#636F73"/>
<path fill-rule="evenodd" clip-rule="evenodd" d="M125.362 21.5388C125.362 20.4236 126.266 19.5195 127.381 19.5195H156.191C157.307 19.5195 158.211 20.4236 158.211 21.5388C158.211 22.654 157.307 23.5581 156.191 23.5581H127.381C126.266 23.5581 125.362 22.654 125.362 21.5388Z" fill="#262C2D"/>
<defs>
<filter id="filter0_ddiii_710_16638" x="63.0088" y="120.008" width="154" height="157" filterUnits="userSpaceOnUse" color-interpolation-filters="sRGB">
<feFlood flood-opacity="0" result="BackgroundImageFix"/>
<feColorMatrix in="SourceAlpha" type="matrix" values="0 0 0 0 0 0 0 0 0 0 0 0 0 0 0 0 0 0 127 0" result="hardAlpha"/>
<feOffset dy="1"/>
<feGaussianBlur stdDeviation="0.5"/>
<feComposite in2="hardAlpha" operator="out"/>
<feColorMatrix type="matrix" values="0 0 0 0 0.162923 0 0 0 0 0.162923 0 0 0 0 0.162923 0 0 0 0.08 0"/>
<feBlend mode="normal" in2="BackgroundImageFix" result="effect1_dropShadow_710_16638"/>
<feColorMatrix in="SourceAlpha" type="matrix" values="0 0 0 0 0 0 0 0 0 0 0 0 0 0 0 0 0 0 127 0" result="hardAlpha"/>
<feMorphology radius="1" operator="erode" in="SourceAlpha" result="effect2_dropShadow_710_16638"/>
<feOffset dy="3"/>
<feGaussianBlur stdDeviation="2"/>
<feComposite in2="hardAlpha" operator="out"/>
<feColorMatrix type="matrix" values="0 0 0 0 0.164706 0 0 0 0 0.164706 0 0 0 0 0.164706 0 0 0 0.14 0"/>
<feBlend mode="normal" in2="effect1_dropShadow_710_16638" result="effect2_dropShadow_710_16638"/>
<feBlend mode="normal" in="SourceGraphic" in2="effect2_dropShadow_710_16638" result="shape"/>
<feColorMatrix in="SourceAlpha" type="matrix" values="0 0 0 0 0 0 0 0 0 0 0 0 0 0 0 0 0 0 127 0" result="hardAlpha"/>
<feOffset dy="-3"/>
<feGaussianBlur stdDeviation="1.5"/>
<feComposite in2="hardAlpha" operator="arithmetic" k2="-1" k3="1"/>
<feColorMatrix type="matrix" values="0 0 0 0 0 0 0 0 0 0 0 0 0 0 0 0 0 0 0.1 0"/>
<feBlend mode="normal" in2="shape" result="effect3_innerShadow_710_16638"/>
<feColorMatrix in="SourceAlpha" type="matrix" values="0 0 0 0 0 0 0 0 0 0 0 0 0 0 0 0 0 0 127 0" result="hardAlpha"/>
<feOffset dy="3"/>
<feGaussianBlur stdDeviation="1.5"/>
<feComposite in2="hardAlpha" operator="arithmetic" k2="-1" k3="1"/>
<feColorMatrix type="matrix" values="0 0 0 0 1 0 0 0 0 1 0 0 0 0 1 0 0 0 0.1 0"/>
<feBlend mode="normal" in2="effect3_innerShadow_710_16638" result="effect4_innerShadow_710_16638"/>
<feColorMatrix in="SourceAlpha" type="matrix" values="0 0 0 0 0 0 0 0 0 0 0 0 0 0 0 0 0 0 127 0" result="hardAlpha"/>
<feMorphology radius="1" operator="erode" in="SourceAlpha" result="effect5_innerShadow_710_16638"/>
<feOffset/>
<feComposite in2="hardAlpha" operator="arithmetic" k2="-1" k3="1"/>
<feColorMatrix type="matrix" values="0 0 0 0 0.0627451 0 0 0 0 0.0941176 0 0 0 0 0.156863 0 0 0 0.24 0"/>
<feBlend mode="normal" in2="effect4_innerShadow_710_16638" result="effect5_innerShadow_710_16638"/>
</filter>
<filter id="filter1_d_710_16638" x="89.0088" y="139.258" width="103.591" height="119" filterUnits="userSpaceOnUse" color-interpolation-filters="sRGB">
<feFlood flood-opacity="0" result="BackgroundImageFix"/>
<feColorMatrix in="SourceAlpha" type="matrix" values="0 0 0 0 0 0 0 0 0 0 0 0 0 0 0 0 0 0 127 0" result="hardAlpha"/>
<feMorphology radius="1.5" operator="erode" in="SourceAlpha" result="effect1_dropShadow_710_16638"/>
<feOffset dy="2.25"/>
<feGaussianBlur stdDeviation="2.25"/>
<feComposite in2="hardAlpha" operator="out"/>
<feColorMatrix type="matrix" values="0 0 0 0 0.141176 0 0 0 0 0.141176 0 0 0 0 0.141176 0 0 0 0.1 0"/>
<feBlend mode="normal" in2="BackgroundImageFix" result="effect1_dropShadow_710_16638"/>
<feBlend mode="normal" in="SourceGraphic" in2="effect1_dropShadow_710_16638" result="shape"/>
</filter>
<radialGradient id="paint0_radial_710_16638" cx="0" cy="0" r="1" gradientUnits="userSpaceOnUse" gradientTransform="translate(140.654 197.654) rotate(102) scale(240 240)">
<stop offset="0.24"/>
<stop offset="1" stop-opacity="0"/>
</radialGradient>
<linearGradient id="paint1_linear_710_16638" x1="74" y1="1.83781e-06" x2="80.1667" y2="148" gradientUnits="userSpaceOnUse">
<stop stop-color="white" stop-opacity="0"/>
<stop offset="1" stop-color="white" stop-opacity="0.12"/>
</linearGradient>
<linearGradient id="paint2_linear_710_16638" x1="140.009" y1="123.008" x2="140.009" y2="271.008" gradientUnits="userSpaceOnUse">
<stop stop-color="white" stop-opacity="0.12"/>
<stop offset="1" stop-color="white" stop-opacity="0"/>
</linearGradient>
<clipPath id="clip0_710_16638">
<rect width="254.785" height="551.694" fill="white" transform="translate(14.2681 12.9092)"/>
</clipPath>
<clipPath id="clip1_710_16638">
<rect x="66.0088" y="123.008" width="148" height="148" rx="12" fill="white"/>
</clipPath>
</defs>
</svg>
