<svg width="400" height="421" viewBox="0 0 400 421" fill="none" xmlns="http://www.w3.org/2000/svg">
<g filter="url(#filter0_dd_571_8109)">
<rect x="22.0049" y="21.7512" width="307.981" height="636.995" rx="51.0798" fill="black"/>
</g>
<g clip-path="url(#clip0_571_8109)">
<rect width="281.69" height="609.953" transform="translate(34.7744 35.2723)" fill="white"/>
<rect width="281" height="634" transform="translate(35 35)" fill="white"/>
<rect width="281" height="634" transform="translate(35 35)" fill="#FAFBFC"/>
<mask id="mask0_571_8109" style="mask-type:alpha" maskUnits="userSpaceOnUse" x="-110" y="-43" width="570" height="570">
<path d="M-12.6971 -31.2622C-11.3192 -37.7448 -4.94697 -41.883 1.53562 -40.5051L447.571 54.3027C454.054 55.6806 458.192 62.0528 456.814 68.5354L362.006 514.571C360.628 521.053 354.256 525.191 347.773 523.814L-98.262 429.006C-104.745 427.628 -108.883 421.256 -107.505 414.773L-12.6971 -31.2622Z" fill="url(#paint0_radial_571_8109)"/>
</mask>
<g mask="url(#mask0_571_8109)">
<path d="M62.2863 142.632C62.2309 136.28 67.3345 131.087 73.6855 131.032L273.678 129.286C280.029 129.231 285.222 134.334 285.278 140.686L287.023 340.678C287.079 347.029 281.975 352.222 275.624 352.278L75.6316 354.023C69.2805 354.079 64.0871 348.975 64.0316 342.624L62.2863 142.632Z" stroke="#E4E7EC"/>
<path d="M30.008 110.912C29.9526 104.561 35.0562 99.3674 41.4072 99.312L305.397 97.0082C311.748 96.9528 316.942 102.056 316.997 108.407L319.301 372.397C319.356 378.748 314.253 383.942 307.902 383.997L43.9117 386.301C37.5607 386.357 32.3673 381.253 32.3118 374.902L30.008 110.912Z" stroke="#E4E7EC"/>
<path d="M-2.2703 79.1922C-2.32573 72.8412 2.77787 67.6477 9.12891 67.5923L337.116 64.73C343.467 64.6746 348.661 69.7782 348.716 76.1292L351.579 404.117C351.634 410.468 346.53 415.661 340.179 415.717L12.1919 418.579C5.8409 418.634 0.647429 413.531 0.592004 407.18L-2.2703 79.1922Z" stroke="#E4E7EC"/>
<path d="M-34.5486 47.4726C-34.604 41.1216 -29.5004 35.9281 -23.1494 35.8727L368.836 32.4519C375.187 32.3965 380.38 37.5001 380.436 43.8511L383.856 435.836C383.912 442.187 378.808 447.381 372.457 447.436L-19.5279 450.857C-25.8789 450.912 -31.0724 445.809 -31.1278 439.458L-34.5486 47.4726Z" stroke="#E4E7EC"/>
<path d="M-66.825 15.7533C-66.8804 9.40232 -61.7768 4.20887 -55.4258 4.15344L400.557 0.174139C406.908 0.118715 412.101 5.22231 412.157 11.5733L416.136 467.556C416.191 473.907 411.088 479.1 404.737 479.156L-51.2458 483.135C-57.5968 483.191 -62.7903 478.087 -62.8457 471.736L-66.825 15.7533Z" stroke="#E4E7EC"/>
</g>
<g filter="url(#filter1_ddiii_571_8109)">
<g clip-path="url(#clip1_571_8109)">
<rect x="100.009" y="167.008" width="148" height="148" rx="12" fill="#F2F4F7"/>
<rect width="148" height="148" transform="translate(100.009 167.008)" fill="url(#paint1_linear_571_8109)"/>
<g filter="url(#filter2_d_571_8109)">
<path fill-rule="evenodd" clip-rule="evenodd" d="M197.364 229.366C203.843 231.101 208.904 236.158 210.64 242.633C212.375 249.108 210.521 256.016 205.777 260.755L179.063 287.45C177.514 288.884 175.333 289.449 173.265 288.924C171.041 288.359 169.304 286.623 168.739 284.4C168.173 282.177 168.87 279.824 170.554 278.266C170.452 278.274 197.201 251.544 197.244 251.571C198.589 250.012 199.086 247.879 198.547 245.871C197.969 243.714 196.282 242.028 194.123 241.45C191.964 240.872 189.659 241.488 188.079 243.068C167.43 263.702 157.106 274.019 157.106 274.019C148.241 265.161 143.81 260.732 143.81 260.732C139.073 255.986 137.23 249.074 138.977 242.602C140.723 236.13 145.793 231.081 152.276 229.357C157.419 227.991 162.831 228.882 167.212 231.68C168.406 232.47 169.271 233.629 169.704 234.946L161.804 242.833C164.518 243.727 167.584 242.664 169.119 240.114C170.094 238.495 170.248 236.611 169.704 234.946L161.804 242.832C159.406 242.045 158.635 240.621 155.511 241.443C153.349 242.013 151.656 243.691 151.068 245.846C150.481 248.002 151.089 250.307 152.663 251.893C152.663 251.893 154.144 253.373 157.106 256.333C157.106 256.333 164.48 248.964 179.229 234.225C183.971 229.485 190.884 227.632 197.364 229.366ZM174.734 186.5C183.136 186.5 190.01 193.369 190.01 201.765C190.01 202.453 190.568 203.011 191.257 203.011C191.945 203.011 192.504 202.453 192.504 201.765C192.504 191.998 184.507 184.008 174.734 184.008C164.961 184.008 156.965 191.998 156.965 201.765C156.965 202.453 157.523 203.011 158.212 203.011C158.9 203.011 159.459 202.453 159.459 201.765C159.459 193.369 166.333 186.5 174.734 186.5ZM129.754 296.848H219.851C220.843 296.848 221.794 296.454 222.496 295.753C223.198 295.052 223.592 294.101 223.591 293.11L223.6 293.113L219.851 209.884C219.52 208.205 218.064 206.929 216.301 206.873L187.996 206.872C185.987 206.865 185.993 206.87 182.378 210.555L174.804 218.018L167.23 210.555C163.62 206.876 163.621 206.865 161.622 206.872L133.476 206.873C132.485 206.873 131.533 207.267 130.831 207.968C130.13 208.669 129.736 209.62 129.736 210.611L129.725 210.603L126.009 293.113L126.014 293.11C126.013 294.101 126.407 295.053 127.109 295.754C127.81 296.455 128.762 296.849 129.754 296.848ZM192.504 214.708C195.959 214.708 198.761 217.507 198.761 220.961C198.761 224.414 195.959 227.213 192.504 227.213C189.048 227.213 186.246 224.414 186.246 220.961C186.246 217.507 189.048 214.708 192.504 214.708ZM157.106 214.708C160.562 214.708 163.363 217.507 163.363 220.961C163.363 224.414 160.562 227.214 157.106 227.214C153.65 227.214 150.848 224.414 150.848 220.961C150.848 217.507 153.65 214.708 157.106 214.708Z" fill="#D92D20"/>
</g>
</g>
<rect x="101.009" y="168.008" width="146" height="146" rx="11" stroke="url(#paint2_linear_571_8109)" stroke-width="2"/>
</g>
<path d="M98.6253 334.149V332.826H106.505V334.149H103.328V343.008H101.797V334.149H98.6253ZM116.653 337.917C116.653 339.005 116.455 339.939 116.057 340.721C115.659 341.5 115.114 342.1 114.421 342.521C113.732 342.939 112.948 343.148 112.07 343.148C111.188 343.148 110.401 342.939 109.708 342.521C109.019 342.1 108.475 341.499 108.078 340.716C107.68 339.934 107.481 339.001 107.481 337.917C107.481 336.83 107.68 335.897 108.078 335.118C108.475 334.336 109.019 333.736 109.708 333.319C110.401 332.898 111.188 332.687 112.07 332.687C112.948 332.687 113.732 332.898 114.421 333.319C115.114 333.736 115.659 334.336 116.057 335.118C116.455 335.897 116.653 336.83 116.653 337.917ZM115.132 337.917C115.132 337.089 114.998 336.391 114.729 335.824C114.464 335.254 114.1 334.823 113.636 334.532C113.175 334.237 112.653 334.089 112.07 334.089C111.483 334.089 110.959 334.237 110.499 334.532C110.038 334.823 109.673 335.254 109.405 335.824C109.14 336.391 109.007 337.089 109.007 337.917C109.007 338.746 109.14 339.445 109.405 340.015C109.673 340.582 110.038 341.013 110.499 341.308C110.959 341.6 111.483 341.746 112.07 341.746C112.653 341.746 113.175 341.6 113.636 341.308C114.1 341.013 114.464 340.582 114.729 340.015C114.998 339.445 115.132 338.746 115.132 337.917ZM125.459 336.043C125.363 335.741 125.234 335.471 125.072 335.233C124.913 334.991 124.722 334.785 124.5 334.616C124.278 334.444 124.024 334.313 123.739 334.223C123.458 334.134 123.148 334.089 122.81 334.089C122.236 334.089 121.719 334.237 121.258 334.532C120.798 334.827 120.433 335.259 120.165 335.829C119.9 336.396 119.767 337.09 119.767 337.912C119.767 338.738 119.901 339.435 120.17 340.005C120.438 340.576 120.806 341.008 121.273 341.303C121.741 341.598 122.273 341.746 122.869 341.746C123.423 341.746 123.905 341.633 124.316 341.407C124.73 341.182 125.05 340.864 125.275 340.453C125.504 340.039 125.619 339.551 125.619 338.991L126.016 339.066H123.103V337.798H127.105V338.956C127.105 339.812 126.923 340.554 126.558 341.184C126.197 341.81 125.696 342.294 125.057 342.635C124.42 342.977 123.691 343.148 122.869 343.148C121.948 343.148 121.139 342.935 120.443 342.511C119.75 342.087 119.21 341.485 118.822 340.706C118.435 339.924 118.241 338.996 118.241 337.922C118.241 337.11 118.353 336.381 118.579 335.735C118.804 335.089 119.121 334.54 119.528 334.089C119.939 333.635 120.422 333.289 120.975 333.05C121.532 332.808 122.14 332.687 122.8 332.687C123.35 332.687 123.862 332.768 124.336 332.931C124.813 333.093 125.237 333.324 125.609 333.622C125.983 333.92 126.293 334.275 126.538 334.686C126.784 335.094 126.949 335.546 127.035 336.043H125.459ZM129.055 343.008V332.826H135.439V334.149H130.591V337.251H135.106V338.569H130.591V341.686H135.498V343.008H129.055ZM136.989 334.149V332.826H144.869V334.149H141.692V343.008H140.16V334.149H136.989ZM146.61 343.008V332.826H148.146V337.251H153.222V332.826H154.763V343.008H153.222V338.569H148.146V343.008H146.61ZM157 343.008V332.826H163.384V334.149H158.537V337.251H163.051V338.569H158.537V341.686H163.444V343.008H157ZM165.436 343.008V332.826H169.065C169.854 332.826 170.509 332.962 171.029 333.234C171.553 333.506 171.944 333.882 172.202 334.363C172.461 334.84 172.59 335.392 172.59 336.018C172.59 336.641 172.459 337.19 172.197 337.664C171.939 338.134 171.548 338.501 171.024 338.763C170.504 339.024 169.849 339.155 169.06 339.155H166.311V337.833H168.921C169.418 337.833 169.823 337.762 170.134 337.619C170.449 337.477 170.679 337.269 170.825 336.998C170.971 336.726 171.044 336.399 171.044 336.018C171.044 335.634 170.969 335.301 170.82 335.019C170.674 334.737 170.444 334.522 170.129 334.373C169.818 334.22 169.408 334.144 168.901 334.144H166.972V343.008H165.436ZM170.462 338.415L172.978 343.008H171.228L168.762 338.415H170.462ZM180.158 343.008L177.334 332.826H178.95L180.934 340.711H181.028L183.091 332.826H184.692L186.755 340.716H186.85L188.829 332.826H190.449L187.62 343.008H186.074L183.932 335.382H183.852L181.709 343.008H180.158ZM191.85 343.008V332.826H198.234V334.149H193.386V337.251H197.9V338.569H193.386V341.686H198.293V343.008H191.85ZM209.544 335.501C209.491 335.031 209.272 334.666 208.888 334.407C208.503 334.146 208.019 334.015 207.436 334.015C207.018 334.015 206.657 334.081 206.352 334.214C206.047 334.343 205.81 334.522 205.641 334.75C205.476 334.976 205.393 335.233 205.393 335.521C205.393 335.763 205.449 335.972 205.562 336.148C205.678 336.323 205.829 336.471 206.014 336.59C206.203 336.706 206.405 336.804 206.621 336.883C206.836 336.96 207.043 337.023 207.242 337.072L208.236 337.331C208.561 337.41 208.894 337.518 209.236 337.654C209.577 337.79 209.894 337.969 210.185 338.191C210.477 338.413 210.712 338.688 210.891 339.016C211.074 339.344 211.165 339.737 211.165 340.194C211.165 340.771 211.016 341.283 210.717 341.731C210.422 342.178 209.993 342.531 209.43 342.79C208.869 343.048 208.192 343.177 207.396 343.177C206.634 343.177 205.974 343.056 205.418 342.814C204.861 342.572 204.425 342.229 204.11 341.785C203.795 341.338 203.621 340.808 203.588 340.194H205.129C205.159 340.562 205.278 340.869 205.487 341.114C205.699 341.356 205.969 341.537 206.297 341.656C206.629 341.772 206.992 341.83 207.386 341.83C207.82 341.83 208.207 341.762 208.545 341.626C208.886 341.487 209.155 341.295 209.35 341.049C209.546 340.801 209.643 340.511 209.643 340.179C209.643 339.878 209.557 339.631 209.385 339.439C209.216 339.246 208.985 339.087 208.694 338.961C208.405 338.835 208.079 338.724 207.714 338.628L206.511 338.3C205.696 338.078 205.05 337.752 204.572 337.321C204.098 336.89 203.861 336.32 203.861 335.611C203.861 335.024 204.021 334.512 204.339 334.074C204.657 333.637 205.088 333.297 205.631 333.055C206.175 332.81 206.788 332.687 207.471 332.687C208.16 332.687 208.768 332.808 209.295 333.05C209.826 333.292 210.243 333.625 210.548 334.049C210.853 334.47 211.012 334.954 211.025 335.501H209.544ZM212.498 334.149V332.826H220.378V334.149H217.201V343.008H215.67V334.149H212.498ZM221.777 343.008H220.146L223.81 332.826H225.585L229.249 343.008H227.618L224.74 334.676H224.66L221.777 343.008ZM222.05 339.021H227.34V340.314H222.05V339.021ZM238.937 332.826V343.008H237.525L232.35 335.541H232.255V343.008H230.719V332.826H232.141L237.321 340.304H237.416V332.826H238.937ZM244.474 343.008H241.178V332.826H244.579C245.576 332.826 246.433 333.03 247.149 333.438C247.865 333.842 248.414 334.424 248.795 335.183C249.179 335.939 249.371 336.845 249.371 337.902C249.371 338.963 249.177 339.875 248.79 340.637C248.405 341.399 247.848 341.986 247.119 342.397C246.39 342.804 245.508 343.008 244.474 343.008ZM242.714 341.666H244.39C245.165 341.666 245.81 341.52 246.324 341.228C246.838 340.933 247.222 340.508 247.477 339.951C247.732 339.391 247.86 338.708 247.86 337.902C247.86 337.104 247.732 336.426 247.477 335.869C247.225 335.312 246.849 334.89 246.349 334.601C245.848 334.313 245.227 334.169 244.484 334.169H242.714V341.666Z" fill="#475467" fill-opacity="0.8"/>
<path opacity="0.35" d="M287.545 50.2959C287.545 49.397 288.273 48.6683 289.172 48.6683H301.692C302.591 48.6683 303.319 49.397 303.319 50.2959V54.8029C303.319 55.7018 302.591 56.4304 301.692 56.4304H289.172C288.273 56.4304 287.545 55.7018 287.545 54.8029V50.2959Z" stroke="black" stroke-width="0.751174"/>
<path opacity="0.4" d="M304.445 51.047V54.0517C305.05 53.7972 305.443 53.2052 305.443 52.5493C305.443 51.8935 305.05 51.3015 304.445 51.047Z" fill="black"/>
<path d="M288.671 50.7966C288.671 50.2435 289.119 49.795 289.672 49.795H301.19C301.744 49.795 302.192 50.2435 302.192 50.7966V54.3021C302.192 54.8552 301.744 55.3037 301.19 55.3037H289.672C289.119 55.3037 288.671 54.8552 288.671 54.3021V50.7966Z" fill="black"/>
<path fill-rule="evenodd" clip-rule="evenodd" d="M277.651 50.0013C279.316 50.0014 280.917 50.641 282.123 51.7879C282.214 51.8764 282.359 51.8753 282.449 51.7854L283.317 50.909C283.362 50.8634 283.388 50.8016 283.387 50.7373C283.387 50.673 283.361 50.6115 283.315 50.5665C280.149 47.532 275.154 47.532 271.987 50.5665C271.941 50.6115 271.915 50.673 271.915 50.7373C271.915 50.8015 271.94 50.8633 271.985 50.909L272.854 51.7854C272.943 51.8754 273.088 51.8765 273.179 51.7879C274.386 50.6409 275.987 50.0013 277.651 50.0013ZM277.651 52.8526C278.566 52.8525 279.448 53.1925 280.126 53.8063C280.217 53.8935 280.362 53.8916 280.451 53.8021L281.318 52.9257C281.364 52.8797 281.389 52.8174 281.389 52.7526C281.388 52.6878 281.362 52.6259 281.315 52.5809C279.251 50.6606 276.054 50.6606 273.989 52.5809C273.943 52.6259 273.916 52.6878 273.915 52.7526C273.915 52.8174 273.94 52.8798 273.986 52.9257L274.853 53.8021C274.942 53.8916 275.087 53.8935 275.179 53.8063C275.856 53.1929 276.737 52.853 277.651 52.8526ZM279.389 54.7709C279.39 54.8359 279.365 54.8986 279.318 54.9441L277.818 56.4582C277.774 56.5027 277.714 56.5278 277.651 56.5278C277.589 56.5278 277.529 56.5027 277.485 56.4582L275.984 54.9441C275.938 54.8985 275.912 54.8359 275.914 54.7709C275.915 54.7059 275.943 54.6444 275.991 54.6008C276.95 53.7904 278.353 53.7904 279.311 54.6008C279.359 54.6444 279.387 54.706 279.389 54.7709Z" fill="black"/>
<path fill-rule="evenodd" clip-rule="evenodd" d="M267.388 48.5431H266.637C266.222 48.5431 265.886 48.8794 265.886 49.2943V55.8044C265.886 56.2193 266.222 56.5556 266.637 56.5556H267.388C267.803 56.5556 268.139 56.2193 268.139 55.8044V49.2943C268.139 48.8794 267.803 48.5431 267.388 48.5431ZM263.131 50.2959H263.883C264.297 50.2959 264.634 50.6322 264.634 51.047V55.8045C264.634 56.2193 264.297 56.5556 263.883 56.5556H263.131C262.717 56.5556 262.38 56.2193 262.38 55.8045V51.047C262.38 50.6322 262.717 50.2959 263.131 50.2959ZM260.377 52.0485H259.626C259.211 52.0485 258.874 52.3848 258.874 52.7997V55.8044C258.874 56.2193 259.211 56.5556 259.626 56.5556H260.377C260.792 56.5556 261.128 56.2193 261.128 55.8044V52.7997C261.128 52.3848 260.792 52.0485 260.377 52.0485ZM256.871 53.5509H256.12C255.705 53.5509 255.369 53.8872 255.369 54.3021V55.8044C255.369 56.2193 255.705 56.5556 256.12 56.5556H256.871C257.286 56.5556 257.623 56.2193 257.623 55.8044V54.3021C257.623 53.8872 257.286 53.5509 256.871 53.5509Z" fill="black"/>
<path d="M62.8092 56.4978C64.8284 56.4978 66.0278 54.9188 66.0278 52.2449C66.0278 51.2381 65.8352 50.3908 65.4666 49.7361C64.9329 48.7183 64.0141 48.1681 62.8532 48.1681C61.1257 48.1681 59.9043 49.329 59.9043 50.9575C59.9043 52.487 61.0046 53.5983 62.5176 53.5983C63.4474 53.5983 64.2012 53.1637 64.5753 52.4099H64.5918C64.5918 52.4099 64.6138 52.4099 64.6193 52.4099C64.6303 52.4099 64.6688 52.4099 64.6688 52.4099C64.6688 54.2255 63.9811 55.3094 62.8202 55.3094C62.138 55.3094 61.6098 54.9353 61.4283 54.3356H60.0143C60.2509 55.6395 61.3568 56.4978 62.8092 56.4978ZM62.8587 52.4705C61.9455 52.4705 61.2962 51.8213 61.2962 50.9135C61.2962 50.0277 61.9785 49.351 62.8642 49.351C63.75 49.351 64.4322 50.0387 64.4322 50.9355C64.4322 51.8213 63.7665 52.4705 62.8587 52.4705Z" fill="black"/>
<path d="M68.3497 56.4207C68.8724 56.4207 69.23 56.0466 69.23 55.5515C69.23 55.0508 68.8724 54.6822 68.3497 54.6822C67.8326 54.6822 67.4694 55.0508 67.4694 55.5515C67.4694 56.0466 67.8326 56.4207 68.3497 56.4207ZM68.3497 52.2944C68.8724 52.2944 69.23 51.9258 69.23 51.4306C69.23 50.93 68.8724 50.5614 68.3497 50.5614C67.8326 50.5614 67.4694 50.93 67.4694 51.4306C67.4694 51.9258 67.8326 52.2944 68.3497 52.2944Z" fill="black"/>
<path d="M74.3799 56.3052H75.7388V54.8252H76.8116V53.6258H75.7388V48.3662H73.7362C72.3332 50.4788 71.2164 52.2449 70.5011 53.5598V54.8252H74.3799V56.3052ZM71.816 53.5763C72.7403 51.9478 73.5656 50.6439 74.3249 49.5215H74.4019V53.6588H71.816V53.5763Z" fill="black"/>
<path d="M79.8378 56.3052H81.2573V48.3662H79.8433L77.7692 49.8186V51.1831L79.7443 49.7966H79.8378V56.3052Z" fill="black"/>
</g>
<path d="M330.294 184.717H331.406C332.02 184.717 332.517 185.217 332.517 185.834V258.762C332.517 259.379 332.02 259.879 331.406 259.879H330.294V184.717Z" fill="#303030"/>
<path d="M21.2227 275.506L20.1109 275.506C19.4969 275.506 18.9991 275.006 18.9991 274.39L18.9991 230.484C18.9991 229.867 19.4969 229.368 20.1109 229.368L21.2227 229.368L21.2227 275.506Z" fill="#303030"/>
<path d="M21.2227 214.484L20.1109 214.484C19.4969 214.484 18.9991 213.984 18.9991 213.368L18.9991 169.462C18.9991 168.845 19.4969 168.346 20.1109 168.346L21.2227 168.346L21.2227 214.484Z" fill="#333333"/>
<path d="M21.2227 146.021L20.1109 146.021C19.4969 146.021 18.9991 145.521 18.9991 144.904L18.9991 123.323C18.9991 122.707 19.4969 122.207 20.1109 122.207L21.2227 122.207L21.2227 146.021Z" fill="#333333"/>
<path fill-rule="evenodd" clip-rule="evenodd" d="M23.5806 54.4236C21.2227 61.7098 21.2227 70.713 21.2227 88.7195V591.778C21.2227 609.785 21.2227 618.788 23.5806 626.074C28.3461 640.8 39.8451 652.345 54.5118 657.13C61.7688 659.498 70.7358 659.498 88.6698 659.498H262.846C280.78 659.498 289.747 659.498 297.004 657.13C311.671 652.345 323.17 640.8 327.936 626.074C330.294 618.788 330.294 609.785 330.294 591.778V88.7194C330.294 70.713 330.294 61.7098 327.936 54.4236C323.17 39.6976 311.671 28.1522 297.004 23.3674C289.747 21 280.78 21 262.846 21H88.6698C70.7358 21 61.7688 21 54.5118 23.3674C39.8451 28.1522 28.3461 39.6976 23.5806 54.4236ZM99.7881 39.2322V42.5809L99.841 42.5793L99.7878 42.953C99.7878 51.7894 106.922 58.9526 115.723 58.9526H235.794C244.595 58.9526 251.729 51.7894 251.729 42.953L251.676 42.5793L251.729 42.5809V39.2322C251.729 36.9717 253.554 35.1392 255.805 35.1392L265.352 35.1392C280.276 35.1392 287.738 35.1392 293.69 37.3971C303.044 40.9461 310.428 48.36 313.963 57.7521C316.212 63.7274 316.212 71.2197 316.212 86.2041V594.294C316.212 609.278 316.212 616.77 313.963 622.746C310.428 632.138 303.044 639.552 293.69 643.101C287.738 645.358 280.276 645.358 265.352 645.358H86.165C71.2408 645.358 63.7787 645.358 57.8273 643.101C48.473 639.552 41.0889 632.138 37.5542 622.746C35.3054 616.77 35.3054 609.278 35.3054 594.294V86.2041C35.3054 71.2197 35.3054 63.7274 37.5542 57.7521C41.0889 48.36 48.473 40.9461 57.8273 37.3971C63.7787 35.1392 71.2408 35.1392 86.165 35.1392L95.7116 35.1392C97.963 35.1392 99.7881 36.9717 99.7881 39.2322Z" fill="#333333"/>
<path fill-rule="evenodd" clip-rule="evenodd" d="M263.143 22.4884H88.3734C70.6576 22.4884 61.9755 22.4976 54.9699 24.783C40.7545 29.4206 29.6093 40.6107 24.9904 54.8836C22.7142 61.9174 22.705 70.6345 22.705 88.4218V592.076C22.705 609.863 22.7142 618.58 24.9904 625.614C29.6093 639.887 40.7545 651.077 54.9699 655.715C61.9755 658 70.6576 658.009 88.3734 658.009H263.143C280.859 658.009 289.541 658 296.547 655.715C310.762 651.077 321.907 639.887 326.526 625.614C328.802 618.58 328.811 609.863 328.811 592.076V88.4219C328.811 70.6345 328.802 61.9174 326.526 54.8836C321.907 40.6107 310.762 29.4206 296.547 24.783C289.541 22.4976 280.859 22.4884 263.143 22.4884ZM24.2855 54.6536C21.9639 61.8278 21.9639 70.6925 21.9639 88.4218V592.076C21.9639 609.805 21.9639 618.67 24.2855 625.844C28.9777 640.344 40.2998 651.711 54.7409 656.422C61.8862 658.754 70.7153 658.754 88.3734 658.754H263.143C280.801 658.754 289.63 658.754 296.776 656.422C311.217 651.711 322.539 640.344 327.231 625.844C329.553 618.67 329.553 609.805 329.553 592.076V88.4219C329.553 70.6925 329.553 61.8278 327.231 54.6536C322.539 40.1542 311.217 28.7864 296.776 24.0753C289.63 21.7443 280.801 21.7443 263.143 21.7443H88.3734C70.7153 21.7443 61.8862 21.7443 54.7409 24.0753C40.2998 28.7864 28.9777 40.1542 24.2855 54.6536Z" fill="#303030"/>
<path fill-rule="evenodd" clip-rule="evenodd" d="M27.1062 55.5733C24.9297 62.2991 24.9297 70.6098 24.9297 87.2311V593.266C24.9297 609.888 24.9297 618.198 27.1062 624.924C31.5052 638.517 42.1196 649.175 55.6581 653.591C62.3569 655.777 70.6341 655.777 87.1886 655.777H264.33C280.885 655.777 289.162 655.777 295.86 653.591C309.399 649.175 320.013 638.517 324.412 624.924C326.589 618.198 326.589 609.888 326.589 593.266V87.2311C326.589 70.6098 326.589 62.2991 324.412 55.5733C320.013 41.9801 309.399 31.3229 295.86 26.9062C289.162 24.7208 280.885 24.7208 264.33 24.7208H87.1886C70.6341 24.7208 62.3569 24.7208 55.6581 26.9062C42.1196 31.3229 31.5052 41.9801 27.1062 55.5733ZM99.7884 39.2321V42.5809L99.8413 42.5792L99.7881 42.953C99.7881 51.7893 106.923 58.9526 115.723 58.9526H235.794C244.595 58.9526 251.73 51.7893 251.73 42.953L251.676 42.5792L251.729 42.5809V39.2321C251.729 36.9717 253.554 35.1392 255.806 35.1392L265.352 35.1392C280.277 35.1392 287.739 35.1392 293.69 37.3971C303.044 40.946 310.428 48.36 313.963 57.752C316.212 63.7274 316.212 71.2196 316.212 86.2041V594.293C316.212 609.278 316.212 616.77 313.963 622.746C310.428 632.138 303.044 639.552 293.69 643.101C287.739 645.358 280.277 645.358 265.352 645.358H86.1653C71.2411 645.358 63.7789 645.358 57.8276 643.101C48.4733 639.552 41.0892 632.138 37.5545 622.746C35.3057 616.77 35.3057 609.278 35.3057 594.293V86.2041C35.3057 71.2196 35.3057 63.7274 37.5545 57.752C41.0892 48.36 48.4733 40.946 57.8276 37.3971C63.7789 35.1392 71.2411 35.1392 86.1653 35.1392L95.7119 35.1392C97.9633 35.1392 99.7884 36.9717 99.7884 39.2321Z" fill="#121515"/>
<rect x="264.329" y="21" width="4.44705" height="3.72085" fill="#414141"/>
<rect x="326.588" y="84.9985" width="3.70594" height="4.46502" fill="#414141"/>
<rect x="21.2236" y="84.9985" width="3.70589" height="4.46502" fill="#414141"/>
<path fill-rule="evenodd" clip-rule="evenodd" d="M207.259 50.7668C210.534 50.7668 213.189 48.1014 213.189 44.8135C213.189 41.5255 210.534 38.8601 207.259 38.8601C203.985 38.8601 201.33 41.5255 201.33 44.8135C201.33 48.1014 203.985 50.7668 207.259 50.7668Z" fill="#262C2D"/>
<path fill-rule="evenodd" clip-rule="evenodd" d="M207.259 48.5344C209.305 48.5344 210.965 46.8685 210.965 44.8135C210.965 42.7585 209.305 41.0927 207.259 41.0927C205.212 41.0927 203.553 42.7585 203.553 44.8135C203.553 46.8685 205.212 48.5344 207.259 48.5344Z" fill="#121515"/>
<path opacity="0.4" fill-rule="evenodd" clip-rule="evenodd" d="M207.26 44.07C207.67 44.07 208.002 43.7366 208.002 43.3254C208.002 42.9143 207.67 42.5809 207.26 42.5809C206.851 42.5809 206.519 42.9143 206.519 43.3254C206.519 43.7366 206.851 44.07 207.26 44.07Z" fill="#636F73"/>
<path fill-rule="evenodd" clip-rule="evenodd" d="M157.601 44.8134C157.601 43.5805 158.6 42.5809 159.833 42.5809H191.686C192.919 42.5809 193.918 43.5805 193.918 44.8134C193.918 46.0464 192.919 47.046 191.686 47.046H159.833C158.6 47.046 157.601 46.0464 157.601 44.8134Z" fill="#262C2D"/>
<defs>
<filter id="filter0_dd_571_8109" x="0.97202" y="0.718358" width="398.122" height="727.136" filterUnits="userSpaceOnUse" color-interpolation-filters="sRGB">
<feFlood flood-opacity="0" result="BackgroundImageFix"/>
<feColorMatrix in="SourceAlpha" type="matrix" values="0 0 0 0 0 0 0 0 0 0 0 0 0 0 0 0 0 0 127 0" result="hardAlpha"/>
<feMorphology radius="1.50235" operator="erode" in="SourceAlpha" result="effect1_dropShadow_571_8109"/>
<feOffset dx="12.0188" dy="12.0188"/>
<feGaussianBlur stdDeviation="12.0188"/>
<feColorMatrix type="matrix" values="0 0 0 0 0.0627451 0 0 0 0 0.0941176 0 0 0 0 0.156863 0 0 0 0.08 0"/>
<feBlend mode="normal" in2="BackgroundImageFix" result="effect1_dropShadow_571_8109"/>
<feColorMatrix in="SourceAlpha" type="matrix" values="0 0 0 0 0 0 0 0 0 0 0 0 0 0 0 0 0 0 127 0" result="hardAlpha"/>
<feMorphology radius="3.00469" operator="erode" in="SourceAlpha" result="effect2_dropShadow_571_8109"/>
<feOffset dx="24.0376" dy="24.0376"/>
<feGaussianBlur stdDeviation="24.0376"/>
<feColorMatrix type="matrix" values="0 0 0 0 0.0627451 0 0 0 0 0.0941176 0 0 0 0 0.156863 0 0 0 0.2 0"/>
<feBlend mode="normal" in2="effect1_dropShadow_571_8109" result="effect2_dropShadow_571_8109"/>
<feBlend mode="normal" in="SourceGraphic" in2="effect2_dropShadow_571_8109" result="shape"/>
</filter>
<filter id="filter1_ddiii_571_8109" x="97.0088" y="164.008" width="154" height="157" filterUnits="userSpaceOnUse" color-interpolation-filters="sRGB">
<feFlood flood-opacity="0" result="BackgroundImageFix"/>
<feColorMatrix in="SourceAlpha" type="matrix" values="0 0 0 0 0 0 0 0 0 0 0 0 0 0 0 0 0 0 127 0" result="hardAlpha"/>
<feOffset dy="1"/>
<feGaussianBlur stdDeviation="0.5"/>
<feComposite in2="hardAlpha" operator="out"/>
<feColorMatrix type="matrix" values="0 0 0 0 0.162923 0 0 0 0 0.162923 0 0 0 0 0.162923 0 0 0 0.08 0"/>
<feBlend mode="normal" in2="BackgroundImageFix" result="effect1_dropShadow_571_8109"/>
<feColorMatrix in="SourceAlpha" type="matrix" values="0 0 0 0 0 0 0 0 0 0 0 0 0 0 0 0 0 0 127 0" result="hardAlpha"/>
<feMorphology radius="1" operator="erode" in="SourceAlpha" result="effect2_dropShadow_571_8109"/>
<feOffset dy="3"/>
<feGaussianBlur stdDeviation="2"/>
<feComposite in2="hardAlpha" operator="out"/>
<feColorMatrix type="matrix" values="0 0 0 0 0.164706 0 0 0 0 0.164706 0 0 0 0 0.164706 0 0 0 0.14 0"/>
<feBlend mode="normal" in2="effect1_dropShadow_571_8109" result="effect2_dropShadow_571_8109"/>
<feBlend mode="normal" in="SourceGraphic" in2="effect2_dropShadow_571_8109" result="shape"/>
<feColorMatrix in="SourceAlpha" type="matrix" values="0 0 0 0 0 0 0 0 0 0 0 0 0 0 0 0 0 0 127 0" result="hardAlpha"/>
<feOffset dy="-3"/>
<feGaussianBlur stdDeviation="1.5"/>
<feComposite in2="hardAlpha" operator="arithmetic" k2="-1" k3="1"/>
<feColorMatrix type="matrix" values="0 0 0 0 0 0 0 0 0 0 0 0 0 0 0 0 0 0 0.1 0"/>
<feBlend mode="normal" in2="shape" result="effect3_innerShadow_571_8109"/>
<feColorMatrix in="SourceAlpha" type="matrix" values="0 0 0 0 0 0 0 0 0 0 0 0 0 0 0 0 0 0 127 0" result="hardAlpha"/>
<feOffset dy="3"/>
<feGaussianBlur stdDeviation="1.5"/>
<feComposite in2="hardAlpha" operator="arithmetic" k2="-1" k3="1"/>
<feColorMatrix type="matrix" values="0 0 0 0 1 0 0 0 0 1 0 0 0 0 1 0 0 0 0.1 0"/>
<feBlend mode="normal" in2="effect3_innerShadow_571_8109" result="effect4_innerShadow_571_8109"/>
<feColorMatrix in="SourceAlpha" type="matrix" values="0 0 0 0 0 0 0 0 0 0 0 0 0 0 0 0 0 0 127 0" result="hardAlpha"/>
<feMorphology radius="1" operator="erode" in="SourceAlpha" result="effect5_innerShadow_571_8109"/>
<feOffset/>
<feComposite in2="hardAlpha" operator="arithmetic" k2="-1" k3="1"/>
<feColorMatrix type="matrix" values="0 0 0 0 0.0627451 0 0 0 0 0.0941176 0 0 0 0 0.156863 0 0 0 0.24 0"/>
<feBlend mode="normal" in2="effect4_innerShadow_571_8109" result="effect5_innerShadow_571_8109"/>
</filter>
<filter id="filter2_d_571_8109" x="123.009" y="183.258" width="103.591" height="119" filterUnits="userSpaceOnUse" color-interpolation-filters="sRGB">
<feFlood flood-opacity="0" result="BackgroundImageFix"/>
<feColorMatrix in="SourceAlpha" type="matrix" values="0 0 0 0 0 0 0 0 0 0 0 0 0 0 0 0 0 0 127 0" result="hardAlpha"/>
<feMorphology radius="1.5" operator="erode" in="SourceAlpha" result="effect1_dropShadow_571_8109"/>
<feOffset dy="2.25"/>
<feGaussianBlur stdDeviation="2.25"/>
<feComposite in2="hardAlpha" operator="out"/>
<feColorMatrix type="matrix" values="0 0 0 0 0.141176 0 0 0 0 0.141176 0 0 0 0 0.141176 0 0 0 0.1 0"/>
<feBlend mode="normal" in2="BackgroundImageFix" result="effect1_dropShadow_571_8109"/>
<feBlend mode="normal" in="SourceGraphic" in2="effect1_dropShadow_571_8109" result="shape"/>
</filter>
<radialGradient id="paint0_radial_571_8109" cx="0" cy="0" r="1" gradientUnits="userSpaceOnUse" gradientTransform="translate(174.654 241.654) rotate(102) scale(240 240)">
<stop offset="0.24"/>
<stop offset="1" stop-opacity="0"/>
</radialGradient>
<linearGradient id="paint1_linear_571_8109" x1="74" y1="1.83781e-06" x2="80.1667" y2="148" gradientUnits="userSpaceOnUse">
<stop stop-color="white" stop-opacity="0"/>
<stop offset="1" stop-color="white" stop-opacity="0.12"/>
</linearGradient>
<linearGradient id="paint2_linear_571_8109" x1="174.009" y1="167.008" x2="174.009" y2="315.008" gradientUnits="userSpaceOnUse">
<stop stop-color="white" stop-opacity="0.12"/>
<stop offset="1" stop-color="white" stop-opacity="0"/>
</linearGradient>
<clipPath id="clip0_571_8109">
<rect width="281.69" height="609.953" fill="white" transform="translate(34.7744 35.2723)"/>
</clipPath>
<clipPath id="clip1_571_8109">
<rect x="100.009" y="167.008" width="148" height="148" rx="12" fill="white"/>
</clipPath>
</defs>
</svg>
