<svg width="284" height="237" viewBox="0 0 284 237" fill="none" xmlns="http://www.w3.org/2000/svg">
<g clip-path="url(#clip0_710_16517)">
<rect width="254.785" height="551.694" transform="translate(14.2681 12.9092)" fill="white"/>
<rect width="255" height="573" transform="translate(14 13)" fill="#F9FAFB"/>
<mask id="mask0_710_16517" style="mask-type:alpha" maskUnits="userSpaceOnUse" x="-62" y="-113" width="402" height="402">
<rect width="336" height="336" transform="translate(11.2939 -112.309) rotate(12.5)" fill="url(#paint0_radial_710_16517)"/>
</mask>
<g mask="url(#mask0_710_16517)">
<path d="M43.4507 4.0708C43.4507 -2.28047 48.5994 -7.4292 54.9507 -7.4292L222.951 -7.4292C229.302 -7.4292 234.451 -2.28047 234.451 4.0708L234.451 172.071C234.451 178.422 229.302 183.571 222.951 183.571L54.9507 183.571C48.5994 183.571 43.4507 178.422 43.4507 172.071L43.4507 4.0708Z" stroke="#E4E7EC"/>
<path d="M19.4521 -19.9297C19.4521 -26.281 24.6009 -31.4297 30.9521 -31.4297L246.952 -31.4297C253.303 -31.4297 258.452 -26.281 258.452 -19.9297L258.452 196.07C258.452 202.422 253.303 207.57 246.952 207.57L30.9522 207.57C24.6009 207.57 19.4521 202.422 19.4521 196.07L19.4521 -19.9297Z" stroke="#E4E7EC"/>
<path d="M-4.54688 -43.9297C-4.54688 -50.281 0.601851 -55.4297 6.95312 -55.4297L270.953 -55.4297C277.304 -55.4297 282.453 -50.281 282.453 -43.9297L282.453 220.07C282.453 226.422 277.304 231.57 270.953 231.57L6.95313 231.57C0.601856 231.57 -4.54687 226.422 -4.54687 220.07L-4.54688 -43.9297Z" stroke="#E4E7EC"/>
<path d="M-28.5464 -67.9302C-28.5464 -74.2815 -23.3977 -79.4302 -17.0464 -79.4302L294.954 -79.4302C301.305 -79.4302 306.454 -74.2815 306.454 -67.9302L306.454 244.07C306.454 250.421 301.305 255.57 294.954 255.57L-17.0464 255.57C-23.3977 255.57 -28.5464 250.421 -28.5464 244.07L-28.5464 -67.9302Z" stroke="#E4E7EC"/>
</g>
<g filter="url(#filter0_ddiii_710_16517)">
<g clip-path="url(#clip1_710_16517)">
<rect x="87" y="56" width="108" height="108" rx="12" fill="#F2F4F7"/>
<rect width="108" height="108" transform="translate(87 56)" fill="url(#paint1_linear_710_16517)"/>
<g filter="url(#filter1_d_710_16517)">
<path fill-rule="evenodd" clip-rule="evenodd" d="M156.57 101.872C160.981 103.052 164.426 106.495 165.608 110.903C166.79 115.311 165.528 120.015 162.298 123.241L144.111 141.415C143.056 142.391 141.571 142.776 140.163 142.419C138.649 142.034 137.467 140.852 137.082 139.339C136.697 137.825 137.171 136.223 138.318 135.162C138.248 135.168 156.459 116.97 156.488 116.989C157.404 115.927 157.742 114.475 157.376 113.108C156.982 111.639 155.834 110.492 154.364 110.098C152.893 109.705 151.325 110.124 150.249 111.2C136.191 125.247 129.162 132.271 129.162 132.271C123.127 126.241 120.11 123.225 120.11 123.225C116.885 119.994 115.631 115.289 116.82 110.883C118.009 106.476 121.46 103.039 125.874 101.865C129.375 100.935 133.06 101.542 136.042 103.447C136.855 103.984 137.444 104.774 137.739 105.67L132.36 111.04C134.208 111.648 136.296 110.925 137.341 109.189C138.004 108.086 138.109 106.804 137.739 105.67L132.361 111.039C130.728 110.503 130.203 109.534 128.076 110.093C126.605 110.481 125.452 111.624 125.052 113.091C124.652 114.559 125.066 116.128 126.137 117.208C126.137 117.208 127.145 118.215 129.162 120.23C129.162 120.23 134.182 115.214 144.224 105.18C147.452 101.952 152.159 100.691 156.57 101.872ZM141.164 72.6882C146.883 72.6882 151.563 77.3646 151.563 83.0805C151.563 83.5488 151.943 83.9287 152.412 83.9287C152.881 83.9287 153.261 83.5488 153.261 83.0805C153.261 76.4314 147.817 70.9917 141.164 70.9917C134.51 70.9917 129.066 76.4314 129.066 83.0805C129.066 83.5488 129.446 83.9287 129.915 83.9287C130.384 83.9287 130.764 83.5488 130.764 83.0805C130.764 77.3646 135.444 72.6882 141.164 72.6882ZM110.541 147.813H171.879C172.554 147.813 173.202 147.545 173.68 147.068C174.157 146.59 174.426 145.943 174.426 145.268L174.431 145.27L171.879 88.6079C171.654 87.4645 170.663 86.596 169.462 86.5582L150.192 86.5577C148.824 86.5525 148.828 86.556 146.368 89.065L141.211 94.1457L136.055 89.065C133.597 86.5601 133.598 86.5525 132.237 86.5577L113.075 86.5582C112.4 86.5582 111.752 86.8261 111.274 87.3034C110.797 87.7806 110.529 88.4279 110.529 89.1028L110.521 89.0971L107.991 145.27L107.995 145.268C107.994 145.943 108.262 146.591 108.74 147.068C109.218 147.546 109.866 147.814 110.541 147.813ZM153.261 91.8918C155.614 91.8918 157.521 93.7978 157.521 96.1489C157.521 98.4998 155.614 100.406 153.261 100.406C150.908 100.406 149.001 98.4998 149.001 96.1489C149.001 93.7978 150.908 91.8918 153.261 91.8918ZM129.162 91.892C131.515 91.892 133.422 93.7978 133.422 96.1491C133.422 98.5001 131.515 100.406 129.162 100.406C126.809 100.406 124.902 98.5001 124.902 96.1491C124.902 93.7978 126.809 91.892 129.162 91.892Z" fill="#D92D20"/>
</g>
</g>
<rect x="88" y="57" width="106" height="106" rx="11" stroke="url(#paint2_linear_710_16517)" stroke-width="2"/>
</g>
<path d="M65.6165 204.141V202.818H73.4964V204.141H70.3196V213H68.7884V204.141H65.6165ZM83.6447 207.909C83.6447 208.996 83.4458 209.931 83.0481 210.713C82.6504 211.492 82.1052 212.092 81.4125 212.513C80.7231 212.93 79.9392 213.139 79.0609 213.139C78.1793 213.139 77.3921 212.93 76.6994 212.513C76.01 212.092 75.4664 211.49 75.0687 210.708C74.671 209.926 74.4721 208.993 74.4721 207.909C74.4721 206.822 74.671 205.889 75.0687 205.11C75.4664 204.328 76.01 203.728 76.6994 203.31C77.3921 202.889 78.1793 202.679 79.0609 202.679C79.9392 202.679 80.7231 202.889 81.4125 203.31C82.1052 203.728 82.6504 204.328 83.0481 205.11C83.4458 205.889 83.6447 206.822 83.6447 207.909ZM82.1234 207.909C82.1234 207.08 81.9892 206.383 81.7207 205.816C81.4556 205.246 81.091 204.815 80.627 204.523C80.1663 204.228 79.6442 204.081 79.0609 204.081C78.4743 204.081 77.9506 204.228 77.4899 204.523C77.0292 204.815 76.6646 205.246 76.3961 205.816C76.131 206.383 75.9984 207.08 75.9984 207.909C75.9984 208.738 76.131 209.437 76.3961 210.007C76.6646 210.574 77.0292 211.005 77.4899 211.3C77.9506 211.591 78.4743 211.737 79.0609 211.737C79.6442 211.737 80.1663 211.591 80.627 211.3C81.091 211.005 81.4556 210.574 81.7207 210.007C81.9892 209.437 82.1234 208.738 82.1234 207.909ZM92.4506 206.035C92.3545 205.733 92.2253 205.463 92.0629 205.224C91.9038 204.982 91.7132 204.777 91.4911 204.608C91.2691 204.436 91.0155 204.305 90.7305 204.215C90.4487 204.126 90.1388 204.081 89.8008 204.081C89.2274 204.081 88.7103 204.228 88.2496 204.523C87.7889 204.818 87.4244 205.251 87.1559 205.821C86.8907 206.388 86.7582 207.082 86.7582 207.904C86.7582 208.729 86.8924 209.427 87.1609 209.997C87.4293 210.567 87.7972 211 88.2646 211.295C88.7319 211.59 89.2638 211.737 89.8604 211.737C90.4139 211.737 90.8962 211.625 91.3072 211.399C91.7215 211.174 92.0413 210.856 92.2667 210.445C92.4954 210.03 92.6097 209.543 92.6097 208.983L93.0075 209.058H90.0941V207.79H94.0962V208.948C94.0962 209.803 93.9139 210.546 93.5494 211.175C93.1881 211.802 92.6876 212.286 92.0479 212.627C91.4116 212.969 90.6824 213.139 89.8604 213.139C88.939 213.139 88.1303 212.927 87.4343 212.503C86.7416 212.079 86.2013 211.477 85.8136 210.698C85.4258 209.916 85.2319 208.988 85.2319 207.914C85.2319 207.102 85.3446 206.373 85.57 205.727C85.7953 205.08 86.1119 204.532 86.5195 204.081C86.9305 203.627 87.4128 203.281 87.9663 203.042C88.5231 202.8 89.1313 202.679 89.7908 202.679C90.341 202.679 90.8531 202.76 91.3271 202.923C91.8043 203.085 92.2286 203.315 92.5998 203.614C92.9743 203.912 93.2842 204.267 93.5295 204.678C93.7747 205.085 93.9405 205.538 94.0266 206.035H92.4506ZM96.0463 213V202.818H102.43V204.141H97.5826V207.243H102.097V208.56H97.5826V211.678H102.49V213H96.0463ZM103.98 204.141V202.818H111.86V204.141H108.683V213H107.152V204.141H103.98ZM113.601 213V202.818H115.137V207.243H120.213V202.818H121.754V213H120.213V208.56H115.137V213H113.601ZM123.992 213V202.818H130.375V204.141H125.528V207.243H130.042V208.56H125.528V211.678H130.435V213H123.992ZM132.427 213V202.818H136.056C136.845 202.818 137.5 202.954 138.02 203.226C138.544 203.498 138.935 203.874 139.194 204.354C139.452 204.832 139.581 205.384 139.581 206.01C139.581 206.633 139.45 207.182 139.189 207.656C138.93 208.126 138.539 208.492 138.015 208.754C137.495 209.016 136.84 209.147 136.051 209.147H133.302V207.825H135.912C136.409 207.825 136.814 207.753 137.125 207.611C137.44 207.468 137.671 207.261 137.816 206.989C137.962 206.718 138.035 206.391 138.035 206.01C138.035 205.625 137.961 205.292 137.811 205.011C137.666 204.729 137.435 204.513 137.12 204.364C136.809 204.212 136.4 204.136 135.892 204.136H133.963V213H132.427ZM137.453 208.406L139.969 213H138.219L135.753 208.406H137.453ZM147.149 213L144.325 202.818H145.941L147.925 210.703H148.019L150.083 202.818H151.683L153.747 210.708H153.841L155.82 202.818H157.441L154.612 213H153.066L150.923 205.374H150.843L148.7 213H147.149ZM158.841 213V202.818H165.225V204.141H160.377V207.243H164.892V208.56H160.377V211.678H165.284V213H158.841ZM176.535 205.493C176.482 205.022 176.263 204.658 175.879 204.399C175.494 204.137 175.011 204.006 174.427 204.006C174.01 204.006 173.648 204.073 173.343 204.205C173.038 204.335 172.801 204.513 172.632 204.742C172.467 204.968 172.384 205.224 172.384 205.513C172.384 205.755 172.44 205.964 172.553 206.139C172.669 206.315 172.82 206.462 173.005 206.582C173.194 206.698 173.396 206.795 173.612 206.875C173.827 206.951 174.034 207.014 174.233 207.064L175.228 207.322C175.552 207.402 175.886 207.51 176.227 207.646C176.568 207.781 176.885 207.96 177.176 208.183C177.468 208.405 177.703 208.68 177.882 209.008C178.065 209.336 178.156 209.729 178.156 210.186C178.156 210.763 178.007 211.275 177.708 211.722C177.413 212.17 176.984 212.523 176.421 212.781C175.861 213.04 175.183 213.169 174.387 213.169C173.625 213.169 172.966 213.048 172.409 212.806C171.852 212.564 171.416 212.221 171.101 211.777C170.786 211.33 170.612 210.799 170.579 210.186H172.12C172.15 210.554 172.27 210.861 172.478 211.106C172.69 211.348 172.961 211.528 173.289 211.648C173.62 211.764 173.983 211.822 174.377 211.822C174.812 211.822 175.198 211.754 175.536 211.618C175.877 211.479 176.146 211.286 176.341 211.041C176.537 210.793 176.635 210.503 176.635 210.171C176.635 209.87 176.548 209.623 176.376 209.43C176.207 209.238 175.977 209.079 175.685 208.953C175.397 208.827 175.07 208.716 174.706 208.62L173.502 208.292C172.687 208.07 172.041 207.743 171.564 207.312C171.09 206.882 170.853 206.312 170.853 205.602C170.853 205.016 171.012 204.504 171.33 204.066C171.648 203.629 172.079 203.289 172.623 203.047C173.166 202.802 173.779 202.679 174.462 202.679C175.151 202.679 175.76 202.8 176.287 203.042C176.817 203.284 177.234 203.617 177.539 204.041C177.844 204.462 178.003 204.946 178.017 205.493H176.535ZM179.49 204.141V202.818H187.369V204.141H184.193V213H182.661V204.141H179.49ZM188.768 213H187.137L190.801 202.818H192.576L196.24 213H194.609L191.731 204.668H191.651L188.768 213ZM189.041 209.013H194.331V210.305H189.041V209.013ZM205.928 202.818V213H204.517L199.341 205.533H199.247V213H197.71V202.818H199.132L204.313 210.295H204.407V202.818H205.928ZM211.466 213H208.169V202.818H211.57C212.568 202.818 213.424 203.022 214.14 203.43C214.856 203.834 215.405 204.416 215.786 205.175C216.17 205.93 216.363 206.837 216.363 207.894C216.363 208.955 216.169 209.866 215.781 210.629C215.396 211.391 214.84 211.978 214.11 212.388C213.381 212.796 212.5 213 211.466 213ZM209.706 211.658H211.381C212.157 211.658 212.801 211.512 213.315 211.22C213.829 210.925 214.213 210.499 214.468 209.942C214.724 209.382 214.851 208.7 214.851 207.894C214.851 207.095 214.724 206.418 214.468 205.861C214.217 205.304 213.84 204.881 213.34 204.593C212.839 204.305 212.218 204.161 211.475 204.161H209.706V211.658Z" fill="#475467" fill-opacity="0.8"/>
<path opacity="0.35" d="M242.895 26.4973C242.895 25.6843 243.554 25.0253 244.367 25.0253H255.691C256.504 25.0253 257.163 25.6843 257.163 26.4973V30.5739C257.163 31.3869 256.504 32.046 255.691 32.046H244.367C243.554 32.046 242.895 31.3869 242.895 30.5739V26.4973Z" stroke="black" stroke-width="0.679426"/>
<path opacity="0.4" d="M258.182 27.1768V29.8945C258.729 29.6643 259.084 29.1288 259.084 28.5356C259.084 27.9424 258.729 27.4069 258.182 27.1768Z" fill="black"/>
<path d="M243.914 26.9503C243.914 26.45 244.32 26.0444 244.82 26.0444H255.238C255.738 26.0444 256.144 26.45 256.144 26.9503V30.121C256.144 30.6213 255.738 31.0269 255.238 31.0269H244.82C244.32 31.0269 243.914 30.6213 243.914 30.121V26.9503Z" fill="black"/>
<path fill-rule="evenodd" clip-rule="evenodd" d="M233.947 26.2314C235.452 26.2314 236.9 26.8099 237.991 27.8473C238.074 27.9273 238.205 27.9263 238.286 27.845L239.071 27.0523C239.112 27.0111 239.135 26.9552 239.135 26.897C239.134 26.8389 239.111 26.7833 239.069 26.7425C236.206 23.9979 231.688 23.9979 228.824 26.7425C228.782 26.7833 228.759 26.8389 228.758 26.897C228.758 26.9551 228.781 27.011 228.822 27.0523L229.607 27.845C229.688 27.9265 229.82 27.9275 229.902 27.8473C230.993 26.8098 232.441 26.2314 233.947 26.2314ZM233.947 28.8101C234.774 28.81 235.572 29.1175 236.185 29.6727C236.268 29.7515 236.398 29.7498 236.479 29.6689L237.264 28.8762C237.305 28.8347 237.328 28.7782 237.327 28.7196C237.327 28.661 237.303 28.6051 237.26 28.5644C235.393 26.8275 232.502 26.8275 230.634 28.5644C230.592 28.6051 230.568 28.6611 230.568 28.7197C230.567 28.7783 230.59 28.8347 230.632 28.8762L231.416 29.6689C231.497 29.7498 231.627 29.7515 231.71 29.6727C232.323 29.1179 233.12 28.8104 233.947 28.8101ZM235.518 30.5454C235.519 30.6042 235.496 30.6608 235.454 30.702L234.097 32.0715C234.058 32.1118 234.003 32.1344 233.947 32.1344C233.89 32.1344 233.836 32.1118 233.796 32.0715L232.439 30.702C232.397 30.6608 232.374 30.6041 232.375 30.5453C232.376 30.4866 232.402 30.4309 232.445 30.3915C233.312 29.6585 234.581 29.6585 235.448 30.3915C235.492 30.4309 235.517 30.4866 235.518 30.5454Z" fill="black"/>
<path fill-rule="evenodd" clip-rule="evenodd" d="M224.663 24.9121H223.984C223.609 24.9121 223.304 25.2163 223.304 25.5915V31.4799C223.304 31.8551 223.609 32.1593 223.984 32.1593H224.663C225.039 32.1593 225.343 31.8551 225.343 31.4799V25.5915C225.343 25.2163 225.039 24.9121 224.663 24.9121ZM220.813 26.4975H221.493C221.868 26.4975 222.172 26.8017 222.172 27.177V31.48C222.172 31.8552 221.868 32.1594 221.493 32.1594H220.813C220.438 32.1594 220.134 31.8552 220.134 31.48V27.177C220.134 26.8017 220.438 26.4975 220.813 26.4975ZM218.322 28.0827H217.642C217.267 28.0827 216.963 28.3868 216.963 28.7621V31.4798C216.963 31.855 217.267 32.1592 217.642 32.1592H218.322C218.697 32.1592 219.001 31.855 219.001 31.4798V28.7621C219.001 28.3868 218.697 28.0827 218.322 28.0827ZM215.151 29.4415H214.472C214.097 29.4415 213.792 29.7457 213.792 30.1209V31.4798C213.792 31.855 214.097 32.1592 214.472 32.1592H215.151C215.527 32.1592 215.831 31.855 215.831 31.4798V30.1209C215.831 29.7457 215.527 29.4415 215.151 29.4415Z" fill="black"/>
<path d="M39.6245 32.1073C41.4508 32.1073 42.5357 30.6791 42.5357 28.2607C42.5357 27.35 42.3615 26.5837 42.0281 25.9915C41.5454 25.0709 40.7143 24.5732 39.6643 24.5732C38.1018 24.5732 36.9971 25.6232 36.9971 27.0962C36.9971 28.4796 37.9923 29.4848 39.3608 29.4848C40.2018 29.4848 40.8835 29.0917 41.2219 28.4099H41.2368C41.2368 28.4099 41.2568 28.4099 41.2617 28.4099C41.2717 28.4099 41.3065 28.4099 41.3065 28.4099C41.3065 30.0521 40.6845 31.0324 39.6345 31.0324C39.0174 31.0324 38.5397 30.694 38.3755 30.1516H37.0966C37.3106 31.331 38.3108 32.1073 39.6245 32.1073ZM39.6693 28.4647C38.8433 28.4647 38.2561 27.8775 38.2561 27.0564C38.2561 26.2552 38.8731 25.6431 39.6743 25.6431C40.4755 25.6431 41.0925 26.2652 41.0925 27.0763C41.0925 27.8775 40.4904 28.4647 39.6693 28.4647Z" fill="black"/>
<path d="M44.6358 32.0376C45.1086 32.0376 45.432 31.6993 45.432 31.2514C45.432 30.7985 45.1086 30.4651 44.6358 30.4651C44.1681 30.4651 43.8396 30.7985 43.8396 31.2514C43.8396 31.6993 44.1681 32.0376 44.6358 32.0376ZM44.6358 28.3054C45.1086 28.3054 45.432 27.972 45.432 27.5242C45.432 27.0713 45.1086 26.7379 44.6358 26.7379C44.1681 26.7379 43.8396 27.0713 43.8396 27.5242C43.8396 27.972 44.1681 28.3054 44.6358 28.3054Z" fill="black"/>
<path d="M50.09 31.9331H51.3192V30.5945H52.2895V29.5097H51.3192V24.7524H49.5078C48.2388 26.6633 47.2287 28.2607 46.5818 29.45V30.5945H50.09V31.9331ZM47.7711 29.4649C48.6071 27.9919 49.3535 26.8126 50.0403 25.7974H50.1099V29.5396H47.7711V29.4649Z" fill="black"/>
<path d="M55.0267 31.9331H56.3105V24.7524H55.0316L53.1556 26.0661V27.3002L54.9421 26.0462H55.0267V31.9331Z" fill="black"/>
</g>
<path d="M281.561 148.08H282.566C283.121 148.08 283.572 148.532 283.572 149.09V215.053C283.572 215.61 283.121 216.062 282.566 216.062H281.561V148.08Z" fill="#303030"/>
<path d="M2.01025 230.197L1.00467 230.197C0.449309 230.197 -0.000902852 229.745 -0.000902803 229.188L-0.000899345 189.475C-0.000899297 188.918 0.449313 188.466 1.00468 188.466L2.01026 188.466L2.01025 230.197Z" fill="#303030"/>
<path d="M2.01025 175.004L1.00467 175.004C0.449309 175.004 -0.000902852 174.552 -0.000902803 173.994L-0.000899345 134.282C-0.000899297 133.724 0.449313 133.272 1.00468 133.272L2.01026 133.272L2.01025 175.004Z" fill="#333333"/>
<path d="M2.01025 113.08L1.00468 113.08C0.449312 113.08 -0.000900229 112.628 -0.000900181 112.07L-0.000898481 92.5503C-0.000898432 91.9927 0.449313 91.5407 1.00468 91.5407L2.01026 91.5407L2.01025 113.08Z" fill="#333333"/>
<path fill-rule="evenodd" clip-rule="evenodd" d="M4.14297 30.2311C2.01025 36.8214 2.01025 44.9647 2.01025 61.2513V516.261C2.01025 532.547 2.01025 540.69 4.14297 547.281C8.45331 560.6 18.8539 571.043 32.1198 575.371C38.6836 577.512 46.7942 577.512 63.0152 577.512H220.556C236.777 577.512 244.887 577.512 251.451 575.371C264.717 571.043 275.117 560.6 279.428 547.281C281.56 540.69 281.56 532.547 281.56 516.261V61.2513C281.56 44.9647 281.56 36.8214 279.428 30.2311C275.117 16.9117 264.717 6.46907 251.451 2.14132C244.887 0 236.777 0 220.556 0H63.0152C46.7942 0 38.6836 0 32.1198 2.14132C18.8539 6.46907 8.45331 16.9117 4.14297 30.2311ZM73.0715 16.4907V19.5196L73.1194 19.5181L73.0713 19.8562C73.0713 27.8485 79.5244 34.3276 87.4846 34.3276H196.087C204.047 34.3276 210.5 27.8485 210.5 19.8562L210.452 19.5181L210.5 19.5196V16.4907C210.5 14.4462 212.151 12.7887 214.187 12.7887L222.822 12.7887C236.32 12.7887 243.07 12.7887 248.453 14.831C256.914 18.0409 263.592 24.7468 266.789 33.2417C268.824 38.6464 268.824 45.423 268.824 58.9762V518.536C268.824 532.089 268.824 538.866 266.789 544.27C263.592 552.765 256.914 559.471 248.453 562.681C243.07 564.723 236.32 564.723 222.822 564.723H60.7496C47.2509 564.723 40.5015 564.723 35.1186 562.681C26.6578 559.471 19.979 552.765 16.7819 544.27C14.7479 538.866 14.7479 532.089 14.7479 518.536V58.9762C14.7479 45.423 14.7479 38.6464 16.7819 33.2417C19.979 24.7468 26.6578 18.0409 35.1186 14.831C40.5015 12.7887 47.2509 12.7887 60.7497 12.7887L69.3844 12.7887C71.4208 12.7887 73.0715 14.4462 73.0715 16.4907Z" fill="#333333"/>
<path fill-rule="evenodd" clip-rule="evenodd" d="M220.824 1.34643H62.7476C46.7239 1.34643 38.8711 1.35473 32.5347 3.42187C19.677 7.61645 9.59635 17.7378 5.41863 30.6474C3.35981 37.0093 3.35154 44.8939 3.35154 60.9823V516.53C3.35154 532.619 3.35981 540.503 5.41863 546.865C9.59635 559.775 19.677 569.896 32.5347 574.091C38.8711 576.158 46.7239 576.166 62.7476 576.166H220.824C236.848 576.166 244.701 576.158 251.037 574.091C263.895 569.896 273.975 559.775 278.153 546.865C280.212 540.503 280.22 532.619 280.22 516.53V60.9823C280.22 44.8939 280.212 37.0093 278.153 30.6474C273.975 17.7378 263.895 7.61645 251.037 3.42187C244.701 1.35473 236.848 1.34643 220.824 1.34643ZM4.78105 30.4394C2.68115 36.9283 2.68115 44.9463 2.68115 60.9823V516.53C2.68115 532.566 2.68115 540.584 4.78105 547.073C9.02509 560.188 19.2657 570.47 32.3275 574.731C38.7903 576.839 46.7761 576.839 62.7476 576.839H220.824C236.796 576.839 244.782 576.839 251.244 574.731C264.306 570.47 274.547 560.188 278.791 547.073C280.891 540.584 280.891 532.566 280.891 516.53V60.9823C280.891 44.9463 280.891 36.9283 278.791 30.4394C274.547 17.3249 264.306 7.04288 251.244 2.78172C244.782 0.67334 236.796 0.67334 220.824 0.67334H62.7476C46.7761 0.67334 38.7903 0.67334 32.3275 2.78172C19.2657 7.04288 9.02509 17.3249 4.78105 30.4394Z" fill="#303030"/>
<path fill-rule="evenodd" clip-rule="evenodd" d="M7.33243 31.2709C5.36377 37.3543 5.36377 44.8711 5.36377 59.9049V517.607C5.36377 532.64 5.36377 540.157 7.33243 546.241C11.3112 558.535 20.9118 568.175 33.1572 572.17C39.2161 574.146 46.7028 574.146 61.6761 574.146H221.898C236.871 574.146 244.358 574.146 250.417 572.17C262.662 568.175 272.263 558.535 276.242 546.241C278.21 540.157 278.21 532.64 278.21 517.607V59.9049C278.21 44.8711 278.21 37.3543 276.242 31.2709C272.263 18.976 262.662 9.33668 250.417 5.34184C244.358 3.36523 236.871 3.36523 221.898 3.36523H61.6761C46.7028 3.36523 39.2161 3.36523 33.1572 5.34184C20.9118 9.33668 11.3112 18.976 7.33243 31.2709ZM73.0724 16.4905V19.5194L73.1202 19.5179L73.0721 19.8559C73.0721 27.8483 79.5252 34.3274 87.4854 34.3274H196.088C204.048 34.3274 210.501 27.8483 210.501 19.8559L210.453 19.5179L210.501 19.5194V16.4905C210.501 14.4459 212.151 12.7885 214.188 12.7885L222.823 12.7885C236.321 12.7885 243.071 12.7885 248.454 14.8307C256.914 18.0407 263.593 24.7465 266.79 33.2415C268.824 38.6461 268.824 45.4227 268.824 58.976V518.535C268.824 532.089 268.824 538.865 266.79 544.27C263.593 552.765 256.914 559.471 248.454 562.681C243.071 564.723 236.321 564.723 222.823 564.723H60.7505C47.2517 564.723 40.5024 564.723 35.1194 562.681C26.6587 559.471 19.9798 552.765 16.7827 544.27C14.7487 538.865 14.7487 532.089 14.7487 518.535V58.976C14.7487 45.4227 14.7487 38.6461 16.7827 33.2415C19.9798 24.7465 26.6587 18.0407 35.1194 14.8307C40.5024 12.7885 47.2517 12.7885 60.7505 12.7885L69.3852 12.7885C71.4216 12.7885 73.0724 14.4459 73.0724 16.4905Z" fill="#121515"/>
<rect x="221.897" width="4.02229" height="3.36545" fill="#414141"/>
<rect x="278.209" y="57.8857" width="3.35197" height="4.03854" fill="#414141"/>
<rect x="2.01123" y="57.8857" width="3.35192" height="4.03854" fill="#414141"/>
<path fill-rule="evenodd" clip-rule="evenodd" d="M170.278 26.9238C173.24 26.9238 175.641 24.5129 175.641 21.539C175.641 18.5651 173.24 16.1543 170.278 16.1543C167.316 16.1543 164.915 18.5651 164.915 21.539C164.915 24.5129 167.316 26.9238 170.278 26.9238Z" fill="#262C2D"/>
<path fill-rule="evenodd" clip-rule="evenodd" d="M170.277 24.9043C172.128 24.9043 173.629 23.3975 173.629 21.5388C173.629 19.6801 172.128 18.1733 170.277 18.1733C168.426 18.1733 166.925 19.6801 166.925 21.5388C166.925 23.3975 168.426 24.9043 170.277 24.9043Z" fill="#121515"/>
<path opacity="0.4" fill-rule="evenodd" clip-rule="evenodd" d="M170.278 20.8663C170.649 20.8663 170.949 20.5648 170.949 20.1929C170.949 19.821 170.649 19.5195 170.278 19.5195C169.908 19.5195 169.607 19.821 169.607 20.1929C169.607 20.5648 169.908 20.8663 170.278 20.8663Z" fill="#636F73"/>
<path fill-rule="evenodd" clip-rule="evenodd" d="M125.362 21.5388C125.362 20.4236 126.266 19.5195 127.381 19.5195H156.191C157.307 19.5195 158.211 20.4236 158.211 21.5388C158.211 22.654 157.307 23.5581 156.191 23.5581H127.381C126.266 23.5581 125.362 22.654 125.362 21.5388Z" fill="#262C2D"/>
<defs>
<filter id="filter0_ddiii_710_16517" x="84" y="53" width="114" height="117" filterUnits="userSpaceOnUse" color-interpolation-filters="sRGB">
<feFlood flood-opacity="0" result="BackgroundImageFix"/>
<feColorMatrix in="SourceAlpha" type="matrix" values="0 0 0 0 0 0 0 0 0 0 0 0 0 0 0 0 0 0 127 0" result="hardAlpha"/>
<feOffset dy="1"/>
<feGaussianBlur stdDeviation="0.5"/>
<feComposite in2="hardAlpha" operator="out"/>
<feColorMatrix type="matrix" values="0 0 0 0 0.162923 0 0 0 0 0.162923 0 0 0 0 0.162923 0 0 0 0.08 0"/>
<feBlend mode="normal" in2="BackgroundImageFix" result="effect1_dropShadow_710_16517"/>
<feColorMatrix in="SourceAlpha" type="matrix" values="0 0 0 0 0 0 0 0 0 0 0 0 0 0 0 0 0 0 127 0" result="hardAlpha"/>
<feMorphology radius="1" operator="erode" in="SourceAlpha" result="effect2_dropShadow_710_16517"/>
<feOffset dy="3"/>
<feGaussianBlur stdDeviation="2"/>
<feComposite in2="hardAlpha" operator="out"/>
<feColorMatrix type="matrix" values="0 0 0 0 0.164706 0 0 0 0 0.164706 0 0 0 0 0.164706 0 0 0 0.14 0"/>
<feBlend mode="normal" in2="effect1_dropShadow_710_16517" result="effect2_dropShadow_710_16517"/>
<feBlend mode="normal" in="SourceGraphic" in2="effect2_dropShadow_710_16517" result="shape"/>
<feColorMatrix in="SourceAlpha" type="matrix" values="0 0 0 0 0 0 0 0 0 0 0 0 0 0 0 0 0 0 127 0" result="hardAlpha"/>
<feOffset dy="-3"/>
<feGaussianBlur stdDeviation="1.5"/>
<feComposite in2="hardAlpha" operator="arithmetic" k2="-1" k3="1"/>
<feColorMatrix type="matrix" values="0 0 0 0 0 0 0 0 0 0 0 0 0 0 0 0 0 0 0.1 0"/>
<feBlend mode="normal" in2="shape" result="effect3_innerShadow_710_16517"/>
<feColorMatrix in="SourceAlpha" type="matrix" values="0 0 0 0 0 0 0 0 0 0 0 0 0 0 0 0 0 0 127 0" result="hardAlpha"/>
<feOffset dy="3"/>
<feGaussianBlur stdDeviation="1.5"/>
<feComposite in2="hardAlpha" operator="arithmetic" k2="-1" k3="1"/>
<feColorMatrix type="matrix" values="0 0 0 0 1 0 0 0 0 1 0 0 0 0 1 0 0 0 0.1 0"/>
<feBlend mode="normal" in2="effect3_innerShadow_710_16517" result="effect4_innerShadow_710_16517"/>
<feColorMatrix in="SourceAlpha" type="matrix" values="0 0 0 0 0 0 0 0 0 0 0 0 0 0 0 0 0 0 127 0" result="hardAlpha"/>
<feMorphology radius="1" operator="erode" in="SourceAlpha" result="effect5_innerShadow_710_16517"/>
<feOffset/>
<feComposite in2="hardAlpha" operator="arithmetic" k2="-1" k3="1"/>
<feColorMatrix type="matrix" values="0 0 0 0 0.0627451 0 0 0 0 0.0941176 0 0 0 0 0.156863 0 0 0 0.24 0"/>
<feBlend mode="normal" in2="effect4_innerShadow_710_16517" result="effect5_innerShadow_710_16517"/>
</filter>
<filter id="filter1_d_710_16517" x="104.991" y="70.2417" width="72.4399" height="83.6445" filterUnits="userSpaceOnUse" color-interpolation-filters="sRGB">
<feFlood flood-opacity="0" result="BackgroundImageFix"/>
<feColorMatrix in="SourceAlpha" type="matrix" values="0 0 0 0 0 0 0 0 0 0 0 0 0 0 0 0 0 0 127 0" result="hardAlpha"/>
<feMorphology radius="1.5" operator="erode" in="SourceAlpha" result="effect1_dropShadow_710_16517"/>
<feOffset dy="2.25"/>
<feGaussianBlur stdDeviation="2.25"/>
<feComposite in2="hardAlpha" operator="out"/>
<feColorMatrix type="matrix" values="0 0 0 0 0.141176 0 0 0 0 0.141176 0 0 0 0 0.141176 0 0 0 0.1 0"/>
<feBlend mode="normal" in2="BackgroundImageFix" result="effect1_dropShadow_710_16517"/>
<feBlend mode="normal" in="SourceGraphic" in2="effect1_dropShadow_710_16517" result="shape"/>
</filter>
<radialGradient id="paint0_radial_710_16517" cx="0" cy="0" r="1" gradientUnits="userSpaceOnUse" gradientTransform="translate(168 168) rotate(90) scale(168 168)">
<stop offset="0.24"/>
<stop offset="1" stop-opacity="0"/>
</radialGradient>
<linearGradient id="paint1_linear_710_16517" x1="54" y1="1.34111e-06" x2="58.5" y2="108" gradientUnits="userSpaceOnUse">
<stop stop-color="white" stop-opacity="0"/>
<stop offset="1" stop-color="white" stop-opacity="0.12"/>
</linearGradient>
<linearGradient id="paint2_linear_710_16517" x1="141" y1="56" x2="141" y2="164" gradientUnits="userSpaceOnUse">
<stop stop-color="white" stop-opacity="0.12"/>
<stop offset="1" stop-color="white" stop-opacity="0"/>
</linearGradient>
<clipPath id="clip0_710_16517">
<rect width="254.785" height="551.694" fill="white" transform="translate(14.2681 12.9092)"/>
</clipPath>
<clipPath id="clip1_710_16517">
<rect x="87" y="56" width="108" height="108" rx="12" fill="white"/>
</clipPath>
</defs>
</svg>
