<svg width="322" height="276" viewBox="0 0 322 276" fill="none" xmlns="http://www.w3.org/2000/svg">
<g filter="url(#filter0_d_246_14588)">
<g clip-path="url(#clip0_246_14588)">
<path d="M4 12C4 5.37259 9.37258 0 16 0H306C312.627 0 318 5.37258 318 12V252C318 258.627 312.627 264 306 264H16C9.37259 264 4 258.627 4 252V12Z" fill="white"/>
<mask id="mask0_246_14588" style="mask-type:alpha" maskUnits="userSpaceOnUse" x="-116" y="-120" width="336" height="336">
<rect width="336" height="336" transform="translate(-116 -120)" fill="url(#paint0_radial_246_14588)"/>
</mask>
<g mask="url(#mask0_246_14588)">
<circle cx="52" cy="48" r="47.5" stroke="#E4E7EC"/>
<circle cx="52" cy="48" r="47.5" stroke="#E4E7EC"/>
<circle cx="52" cy="48" r="71.5" stroke="#E4E7EC"/>
<circle cx="52" cy="48" r="95.5" stroke="#E4E7EC"/>
<circle cx="52" cy="48" r="119.5" stroke="#E4E7EC"/>
<circle cx="52" cy="48" r="143.5" stroke="#E4E7EC"/>
<circle cx="52" cy="48" r="167.5" stroke="#E4E7EC"/>
</g>
<path d="M28 48C28 34.7452 38.7452 24 52 24C65.2548 24 76 34.7452 76 48C76 61.2548 65.2548 72 52 72C38.7452 72 28 61.2548 28 48Z" fill="#DCFAE6"/>
<path d="M47.5 48L50.5 51L56.5 45M62 48C62 53.5228 57.5228 58 52 58C46.4772 58 42 53.5228 42 48C42 42.4772 46.4772 38 52 38C57.5228 38 62 42.4772 62 48Z" stroke="#079455" stroke-width="2" stroke-linecap="round" stroke-linejoin="round"/>
<path d="M28.7159 97.897V95.9091H39.1605V97.897H35.1143V109H32.7621V97.897H28.7159ZM40.0522 109V99.1818H42.2958V100.818H42.3981C42.5771 100.251 42.8839 99.8146 43.3185 99.5078C43.7575 99.1967 44.2582 99.0412 44.8207 99.0412C44.9485 99.0412 45.0913 99.0476 45.2489 99.0604C45.4109 99.0689 45.5451 99.0838 45.6516 99.1051V101.234C45.5536 101.2 45.3981 101.17 45.185 101.144C44.9762 101.114 44.7738 101.099 44.5778 101.099C44.1559 101.099 43.7766 101.191 43.44 101.374C43.1076 101.553 42.8455 101.803 42.6538 102.122C42.462 102.442 42.3661 102.81 42.3661 103.228V109H40.0522ZM49.8384 109.198C49.2163 109.198 48.6559 109.087 48.1573 108.866C47.663 108.64 47.271 108.308 46.9812 107.869C46.6957 107.43 46.5529 106.888 46.5529 106.245C46.5529 105.691 46.6552 105.233 46.8597 104.871C47.0643 104.509 47.3434 104.219 47.6971 104.001C48.0508 103.784 48.4492 103.62 48.8924 103.509C49.3398 103.394 49.8022 103.311 50.2795 103.26C50.8548 103.2 51.3214 103.147 51.6793 103.1C52.0373 103.049 52.2972 102.972 52.4592 102.87C52.6254 102.763 52.7085 102.599 52.7085 102.378V102.339C52.7085 101.858 52.5657 101.485 52.2802 101.221C51.9947 100.957 51.5835 100.825 51.0465 100.825C50.4798 100.825 50.0302 100.948 49.6978 101.195C49.3697 101.442 49.1481 101.734 49.033 102.071L46.8725 101.764C47.043 101.168 47.3242 100.669 47.7163 100.268C48.1083 99.8636 48.5877 99.5611 49.1545 99.3608C49.7212 99.1562 50.3477 99.054 51.0337 99.054C51.5067 99.054 51.9776 99.1094 52.4464 99.2202C52.9151 99.331 53.3434 99.5142 53.7312 99.7699C54.119 100.021 54.43 100.364 54.6644 100.799C54.9031 101.234 55.0224 101.777 55.0224 102.429V109H52.7979V107.651H52.7212C52.5806 107.924 52.3825 108.18 52.1268 108.418C51.8754 108.653 51.5579 108.842 51.1744 108.987C50.7951 109.128 50.3498 109.198 49.8384 109.198ZM50.4393 107.498C50.9038 107.498 51.3065 107.406 51.6474 107.223C51.9883 107.036 52.2504 106.788 52.4336 106.482C52.6211 106.175 52.7148 105.84 52.7148 105.478V104.321C52.6424 104.381 52.5188 104.436 52.3441 104.487C52.1737 104.538 51.9819 104.583 51.7688 104.621C51.5558 104.66 51.3448 104.694 51.136 104.724C50.9272 104.754 50.7461 104.779 50.5927 104.8C50.2475 104.847 49.9386 104.924 49.6658 105.031C49.3931 105.137 49.1779 105.286 49.0202 105.478C48.8626 105.665 48.7837 105.908 48.7837 106.207C48.7837 106.633 48.9393 106.955 49.2504 107.172C49.5614 107.389 49.9577 107.498 50.4393 107.498ZM59.663 103.247V109H57.3491V99.1818H59.5607V100.85H59.6758C59.9016 100.3 60.2617 99.8636 60.756 99.5398C61.2546 99.2159 61.8704 99.054 62.6033 99.054C63.2809 99.054 63.8711 99.1989 64.3739 99.4886C64.881 99.7784 65.2731 100.198 65.5501 100.748C65.8313 101.298 65.9698 101.964 65.9656 102.749V109H63.6516V103.107C63.6516 102.45 63.4812 101.937 63.1403 101.566C62.8036 101.195 62.337 101.01 61.7404 101.01C61.3356 101.01 60.9755 101.099 60.6602 101.278C60.3491 101.453 60.104 101.707 59.9251 102.039C59.7504 102.371 59.663 102.774 59.663 103.247ZM76.0778 101.777L73.9684 102.007C73.9087 101.794 73.8043 101.594 73.6552 101.406C73.5103 101.219 73.3143 101.067 73.0671 100.952C72.82 100.837 72.5174 100.78 72.1594 100.78C71.6779 100.78 71.2731 100.884 70.945 101.093C70.6211 101.302 70.4613 101.572 70.4656 101.905C70.4613 102.19 70.5657 102.423 70.7788 102.602C70.9961 102.781 71.354 102.928 71.8526 103.043L73.5273 103.401C74.4563 103.601 75.1467 103.918 75.5984 104.353C76.0543 104.788 76.2844 105.357 76.2887 106.06C76.2844 106.678 76.1033 107.223 75.7454 107.696C75.3917 108.165 74.8995 108.531 74.2688 108.795C73.6381 109.06 72.9137 109.192 72.0955 109.192C70.8938 109.192 69.9265 108.94 69.1935 108.438C68.4606 107.93 68.0238 107.225 67.8832 106.322L70.1396 106.104C70.2418 106.548 70.4592 106.882 70.7915 107.108C71.1239 107.334 71.5565 107.447 72.0891 107.447C72.6388 107.447 73.0799 107.334 73.4123 107.108C73.7489 106.882 73.9173 106.603 73.9173 106.271C73.9173 105.989 73.8086 105.757 73.5913 105.574C73.3782 105.391 73.0458 105.25 72.5941 105.152L70.9194 104.8C69.9776 104.604 69.2809 104.274 68.8292 103.81C68.3775 103.341 68.1538 102.749 68.158 102.033C68.1538 101.428 68.3178 100.903 68.6502 100.46C68.9869 100.013 69.4535 99.6676 70.0501 99.4247C70.6509 99.1776 71.3434 99.054 72.1275 99.054C73.2781 99.054 74.1836 99.299 74.8441 99.7891C75.5089 100.279 75.9201 100.942 76.0778 101.777ZM80.5107 95.9091V109H78.1967V95.9091H80.5107ZM85.7154 109.198C85.0932 109.198 84.5328 109.087 84.0343 108.866C83.54 108.64 83.1479 108.308 82.8581 107.869C82.5726 107.43 82.4299 106.888 82.4299 106.245C82.4299 105.691 82.5321 105.233 82.7367 104.871C82.9412 104.509 83.2203 104.219 83.574 104.001C83.9277 103.784 84.3262 103.62 84.7694 103.509C85.2168 103.394 85.6792 103.311 86.1564 103.26C86.7317 103.2 87.1983 103.147 87.5563 103.1C87.9142 103.049 88.1742 102.972 88.3361 102.87C88.5023 102.763 88.5854 102.599 88.5854 102.378V102.339C88.5854 101.858 88.4426 101.485 88.1571 101.221C87.8716 100.957 87.4604 100.825 86.9235 100.825C86.3567 100.825 85.9071 100.948 85.5748 101.195C85.2466 101.442 85.025 101.734 84.91 102.071L82.7495 101.764C82.9199 101.168 83.2012 100.669 83.5932 100.268C83.9853 99.8636 84.4647 99.5611 85.0314 99.3608C85.5982 99.1562 86.2246 99.054 86.9107 99.054C87.3837 99.054 87.8546 99.1094 88.3233 99.2202C88.7921 99.331 89.2203 99.5142 89.6081 99.7699C89.9959 100.021 90.307 100.364 90.5414 100.799C90.78 101.234 90.8993 101.777 90.8993 102.429V109H88.6749V107.651H88.5982C88.4576 107.924 88.2594 108.18 88.0037 108.418C87.7523 108.653 87.4348 108.842 87.0513 108.987C86.6721 109.128 86.2267 109.198 85.7154 109.198ZM86.3162 107.498C86.7807 107.498 87.1834 107.406 87.5243 107.223C87.8652 107.036 88.1273 106.788 88.3105 106.482C88.498 106.175 88.5918 105.84 88.5918 105.478V104.321C88.5194 104.381 88.3958 104.436 88.2211 104.487C88.0506 104.538 87.8588 104.583 87.6458 104.621C87.4327 104.66 87.2218 104.694 87.013 104.724C86.8042 104.754 86.623 104.779 86.4696 104.8C86.1245 104.847 85.8155 104.924 85.5428 105.031C85.2701 105.137 85.0549 105.286 84.8972 105.478C84.7395 105.665 84.6607 105.908 84.6607 106.207C84.6607 106.633 84.8162 106.955 85.1273 107.172C85.4384 107.389 85.8347 107.498 86.3162 107.498ZM98.1287 99.1818V100.972H92.4846V99.1818H98.1287ZM93.878 96.8295H96.1919V106.047C96.1919 106.358 96.2388 106.597 96.3326 106.763C96.4306 106.925 96.5584 107.036 96.7161 107.095C96.8738 107.155 97.0485 107.185 97.2402 107.185C97.3851 107.185 97.5172 107.174 97.6365 107.153C97.7601 107.131 97.8539 107.112 97.9178 107.095L98.3077 108.904C98.1841 108.947 98.0073 108.994 97.7772 109.045C97.5513 109.096 97.2743 109.126 96.9462 109.134C96.3667 109.151 95.8446 109.064 95.3801 108.872C94.9157 108.676 94.5471 108.374 94.2743 107.964C94.0059 107.555 93.8738 107.044 93.878 106.43V96.8295ZM100.064 109V99.1818H102.378V109H100.064ZM101.227 97.7884C100.861 97.7884 100.545 97.6669 100.281 97.424C100.017 97.1768 99.8849 96.8807 99.8849 96.5355C99.8849 96.1861 100.017 95.8899 100.281 95.647C100.545 95.3999 100.861 95.2763 101.227 95.2763C101.598 95.2763 101.913 95.3999 102.173 95.647C102.438 95.8899 102.57 96.1861 102.57 96.5355C102.57 96.8807 102.438 97.1768 102.173 97.424C101.913 97.6669 101.598 97.7884 101.227 97.7884ZM109.04 109.192C108.081 109.192 107.25 108.981 106.547 108.559C105.844 108.137 105.298 107.547 104.911 106.788C104.527 106.03 104.335 105.143 104.335 104.129C104.335 103.115 104.527 102.227 104.911 101.464C105.298 100.701 105.844 100.109 106.547 99.6868C107.25 99.2649 108.081 99.054 109.04 99.054C109.999 99.054 110.83 99.2649 111.533 99.6868C112.236 100.109 112.779 100.701 113.163 101.464C113.551 102.227 113.744 103.115 113.744 104.129C113.744 105.143 113.551 106.03 113.163 106.788C112.779 107.547 112.236 108.137 111.533 108.559C110.83 108.981 109.999 109.192 109.04 109.192ZM109.053 107.338C109.573 107.338 110.007 107.195 110.357 106.91C110.706 106.62 110.966 106.232 111.137 105.746C111.311 105.261 111.399 104.719 111.399 104.123C111.399 103.522 111.311 102.979 111.137 102.493C110.966 102.003 110.706 101.613 110.357 101.323C110.007 101.033 109.573 100.888 109.053 100.888C108.52 100.888 108.077 101.033 107.723 101.323C107.374 101.613 107.112 102.003 106.937 102.493C106.767 102.979 106.681 103.522 106.681 104.123C106.681 104.719 106.767 105.261 106.937 105.746C107.112 106.232 107.374 106.62 107.723 106.91C108.077 107.195 108.52 107.338 109.053 107.338ZM118.022 103.247V109H115.708V99.1818H117.92V100.85H118.035C118.261 100.3 118.621 99.8636 119.115 99.5398C119.614 99.2159 120.23 99.054 120.963 99.054C121.64 99.054 122.23 99.1989 122.733 99.4886C123.24 99.7784 123.632 100.198 123.909 100.748C124.191 101.298 124.329 101.964 124.325 102.749V109H122.011V103.107C122.011 102.45 121.841 101.937 121.5 101.566C121.163 101.195 120.696 101.01 120.1 101.01C119.695 101.01 119.335 101.099 119.02 101.278C118.708 101.453 118.463 101.707 118.284 102.039C118.11 102.371 118.022 102.774 118.022 103.247Z" fill="#101828"/>
<path d="M28.6761 125.912V124.818H36.3125V125.912H33.1108V135H31.8778V125.912H28.6761ZM37.2633 135V127.364H38.3968V128.517H38.4764C38.6156 128.139 38.8675 127.833 39.2321 127.597C39.5967 127.362 40.0076 127.244 40.465 127.244C40.5512 127.244 40.6589 127.246 40.7882 127.249C40.9174 127.253 41.0152 127.258 41.0815 127.264V128.457C41.0417 128.447 40.9506 128.433 40.8081 128.413C40.6689 128.389 40.5214 128.378 40.3656 128.378C39.9944 128.378 39.6629 128.456 39.3713 128.612C39.0829 128.764 38.8542 128.976 38.6852 129.248C38.5195 129.516 38.4366 129.823 38.4366 130.168V135H37.2633ZM44.7195 135.179C44.2356 135.179 43.7964 135.088 43.402 134.906C43.0076 134.72 42.6944 134.453 42.4624 134.105C42.2304 133.754 42.1143 133.33 42.1143 132.832C42.1143 132.395 42.2005 132.04 42.3729 131.768C42.5452 131.493 42.7756 131.278 43.0639 131.122C43.3523 130.966 43.6705 130.85 44.0185 130.774C44.3698 130.695 44.7228 130.632 45.0774 130.585C45.5414 130.526 45.9176 130.481 46.206 130.451C46.4976 130.418 46.7098 130.363 46.8423 130.287C46.9782 130.211 47.0462 130.078 47.0462 129.889V129.849C47.0462 129.359 46.9119 128.978 46.6435 128.706C46.3783 128.434 45.9756 128.298 45.4354 128.298C44.8752 128.298 44.4361 128.421 44.1179 128.666C43.7997 128.911 43.576 129.173 43.4467 129.452L42.3331 129.054C42.532 128.59 42.7971 128.229 43.1286 127.97C43.4633 127.708 43.8279 127.526 44.2223 127.423C44.62 127.317 45.0111 127.264 45.3956 127.264C45.6409 127.264 45.9226 127.294 46.2408 127.354C46.5623 127.41 46.8722 127.528 47.1705 127.707C47.4721 127.886 47.7223 128.156 47.9212 128.517C48.12 128.878 48.2195 129.362 48.2195 129.969V135H47.0462V133.966H46.9865C46.907 134.132 46.7744 134.309 46.5888 134.498C46.4032 134.687 46.1563 134.848 45.848 134.98C45.5398 135.113 45.1636 135.179 44.7195 135.179ZM44.8984 134.125C45.3625 134.125 45.7536 134.034 46.0717 133.852C46.3932 133.669 46.6352 133.434 46.7976 133.146C46.9633 132.857 47.0462 132.554 47.0462 132.236V131.162C46.9964 131.222 46.8871 131.276 46.718 131.326C46.5523 131.372 46.3601 131.414 46.1413 131.45C45.9259 131.483 45.7154 131.513 45.5099 131.54C45.3078 131.563 45.1437 131.583 45.0178 131.599C44.7128 131.639 44.4278 131.704 44.1626 131.793C43.9008 131.879 43.6887 132.01 43.5263 132.186C43.3672 132.358 43.2876 132.594 43.2876 132.892C43.2876 133.3 43.4384 133.608 43.7401 133.817C44.045 134.022 44.4311 134.125 44.8984 134.125ZM51.5343 130.406V135H50.361V127.364H51.4945V128.557H51.5939C51.7729 128.169 52.0447 127.857 52.4093 127.622C52.7739 127.384 53.2445 127.264 53.8212 127.264C54.3382 127.264 54.7907 127.37 55.1784 127.582C55.5662 127.791 55.8678 128.109 56.0833 128.537C56.2987 128.961 56.4064 129.498 56.4064 130.148V135H55.2331V130.227C55.2331 129.627 55.0774 129.16 54.7658 128.825C54.4542 128.487 54.0267 128.318 53.4831 128.318C53.1086 128.318 52.7739 128.399 52.4789 128.562C52.1872 128.724 51.9569 128.961 51.7878 129.273C51.6188 129.584 51.5343 129.962 51.5343 130.406ZM63.9595 129.074L62.9055 129.372C62.8393 129.196 62.7415 129.026 62.6122 128.86C62.4863 128.691 62.3139 128.552 62.0952 128.442C61.8764 128.333 61.5964 128.278 61.255 128.278C60.7876 128.278 60.3982 128.386 60.0866 128.602C59.7784 128.814 59.6243 129.084 59.6243 129.412C59.6243 129.704 59.7304 129.934 59.9425 130.103C60.1546 130.272 60.486 130.413 60.9368 130.526L62.0703 130.804C62.7531 130.97 63.2618 131.223 63.5966 131.565C63.9313 131.903 64.0987 132.339 64.0987 132.872C64.0987 133.31 63.9728 133.701 63.7209 134.045C63.4723 134.39 63.1243 134.662 62.6768 134.861C62.2294 135.06 61.709 135.159 61.1158 135.159C60.3369 135.159 59.6922 134.99 59.1818 134.652C58.6714 134.314 58.3482 133.82 58.2124 133.17L59.326 132.892C59.4321 133.303 59.6326 133.611 59.9276 133.817C60.2259 134.022 60.6153 134.125 61.0959 134.125C61.6428 134.125 62.0769 134.009 62.3984 133.777C62.7232 133.542 62.8857 133.26 62.8857 132.932C62.8857 132.667 62.7929 132.445 62.6072 132.266C62.4216 132.083 62.1366 131.947 61.7521 131.858L60.4794 131.56C59.7801 131.394 59.2663 131.137 58.9382 130.789C58.6134 130.438 58.451 129.999 58.451 129.472C58.451 129.041 58.572 128.66 58.8139 128.328C59.0592 127.997 59.3923 127.737 59.8132 127.548C60.2375 127.359 60.718 127.264 61.255 127.264C62.0107 127.264 62.6039 127.43 63.0348 127.761C63.469 128.093 63.7772 128.53 63.9595 129.074ZM67.0382 124.818V135H65.8649V124.818H67.0382ZM71.4343 135.179C70.9504 135.179 70.5112 135.088 70.1168 134.906C69.7224 134.72 69.4092 134.453 69.1772 134.105C68.9452 133.754 68.8292 133.33 68.8292 132.832C68.8292 132.395 68.9154 132.04 69.0877 131.768C69.2601 131.493 69.4904 131.278 69.7788 131.122C70.0671 130.966 70.3853 130.85 70.7333 130.774C71.0846 130.695 71.4376 130.632 71.7923 130.585C72.2563 130.526 72.6325 130.481 72.9208 130.451C73.2125 130.418 73.4246 130.363 73.5572 130.287C73.6931 130.211 73.761 130.078 73.761 129.889V129.849C73.761 129.359 73.6268 128.978 73.3583 128.706C73.0932 128.434 72.6905 128.298 72.1502 128.298C71.5901 128.298 71.1509 128.421 70.8327 128.666C70.5146 128.911 70.2908 129.173 70.1616 129.452L69.0479 129.054C69.2468 128.59 69.512 128.229 69.8434 127.97C70.1781 127.708 70.5427 127.526 70.9371 127.423C71.3349 127.317 71.726 127.264 72.1104 127.264C72.3557 127.264 72.6374 127.294 72.9556 127.354C73.2771 127.41 73.587 127.528 73.8853 127.707C74.1869 127.886 74.4371 128.156 74.636 128.517C74.8349 128.878 74.9343 129.362 74.9343 129.969V135H73.761V133.966H73.7013C73.6218 134.132 73.4892 134.309 73.3036 134.498C73.118 134.687 72.8711 134.848 72.5629 134.98C72.2546 135.113 71.8784 135.179 71.4343 135.179ZM71.6133 134.125C72.0773 134.125 72.4684 134.034 72.7866 133.852C73.1081 133.669 73.35 133.434 73.5124 133.146C73.6781 132.857 73.761 132.554 73.761 132.236V131.162C73.7113 131.222 73.6019 131.276 73.4329 131.326C73.2672 131.372 73.0749 131.414 72.8562 131.45C72.6407 131.483 72.4303 131.513 72.2248 131.54C72.0226 131.563 71.8585 131.583 71.7326 131.599C71.4277 131.639 71.1426 131.704 70.8775 131.793C70.6156 131.879 70.4035 132.01 70.2411 132.186C70.082 132.358 70.0025 132.594 70.0025 132.892C70.0025 133.3 70.1533 133.608 70.4549 133.817C70.7598 134.022 71.146 134.125 71.6133 134.125ZM80.3968 127.364V128.358H76.4395V127.364H80.3968ZM77.5929 125.534H78.7662V132.812C78.7662 133.144 78.8142 133.393 78.9103 133.558C79.0098 133.721 79.1357 133.83 79.2882 133.886C79.444 133.939 79.608 133.966 79.7804 133.966C79.9096 133.966 80.0157 133.959 80.0985 133.946C80.1814 133.929 80.2477 133.916 80.2974 133.906L80.536 134.96C80.4565 134.99 80.3455 135.02 80.2029 135.05C80.0604 135.083 79.8798 135.099 79.661 135.099C79.3296 135.099 79.0048 135.028 78.6866 134.886C78.3717 134.743 78.1099 134.526 77.9011 134.234C77.6956 133.943 77.5929 133.575 77.5929 133.131V125.534ZM85.2814 135.159C84.5456 135.159 83.9109 134.997 83.3773 134.672C82.847 134.344 82.4377 133.886 82.1493 133.3C81.8643 132.71 81.7218 132.024 81.7218 131.241C81.7218 130.459 81.8643 129.77 82.1493 129.173C82.4377 128.573 82.8387 128.106 83.3525 127.771C83.8695 127.433 84.4727 127.264 85.1621 127.264C85.5598 127.264 85.9526 127.33 86.3404 127.463C86.7282 127.596 87.0811 127.811 87.3993 128.109C87.7175 128.404 87.9711 128.795 88.16 129.283C88.3489 129.77 88.4434 130.37 88.4434 131.082V131.58H82.557V130.565H87.2502C87.2502 130.134 87.164 129.75 86.9917 129.412C86.8226 129.074 86.5807 128.807 86.2658 128.612C85.9542 128.416 85.5864 128.318 85.1621 128.318C84.6948 128.318 84.2904 128.434 83.949 128.666C83.611 128.895 83.3508 129.193 83.1685 129.561C82.9862 129.929 82.8951 130.323 82.8951 130.744V131.42C82.8951 131.997 82.9945 132.486 83.1934 132.887C83.3955 133.285 83.6756 133.588 84.0336 133.797C84.3915 134.002 84.8075 134.105 85.2814 134.105C85.5897 134.105 85.8681 134.062 86.1167 133.976C86.3685 133.886 86.5856 133.754 86.7679 133.578C86.9502 133.399 87.0911 133.177 87.1905 132.912L88.324 133.23C88.2047 133.615 88.0042 133.953 87.7225 134.244C87.4408 134.533 87.0927 134.758 86.6784 134.92C86.2641 135.08 85.7985 135.159 85.2814 135.159ZM97.4867 127.364V128.358H93.5293V127.364H97.4867ZM94.6827 125.534H95.856V132.812C95.856 133.144 95.9041 133.393 96.0002 133.558C96.0996 133.721 96.2256 133.83 96.378 133.886C96.5338 133.939 96.6979 133.966 96.8702 133.966C96.9995 133.966 97.1055 133.959 97.1884 133.946C97.2712 133.929 97.3375 133.916 97.3873 133.906L97.6259 134.96C97.5463 134.99 97.4353 135.02 97.2928 135.05C97.1503 135.083 96.9696 135.099 96.7509 135.099C96.4194 135.099 96.0946 135.028 95.7765 134.886C95.4616 134.743 95.1998 134.526 94.9909 134.234C94.7855 133.943 94.6827 133.575 94.6827 133.131V125.534ZM100.589 130.406V135H99.4157V124.818H100.589V128.557H100.688C100.867 128.162 101.136 127.849 101.494 127.617C101.855 127.382 102.336 127.264 102.936 127.264C103.456 127.264 103.912 127.369 104.303 127.577C104.694 127.783 104.997 128.099 105.213 128.527C105.431 128.951 105.541 129.491 105.541 130.148V135H104.367V130.227C104.367 129.621 104.21 129.152 103.895 128.82C103.584 128.486 103.151 128.318 102.597 128.318C102.213 128.318 101.868 128.399 101.563 128.562C101.262 128.724 101.023 128.961 100.847 129.273C100.675 129.584 100.589 129.962 100.589 130.406ZM110.889 135.159C110.153 135.159 109.518 134.997 108.985 134.672C108.454 134.344 108.045 133.886 107.757 133.3C107.472 132.71 107.329 132.024 107.329 131.241C107.329 130.459 107.472 129.77 107.757 129.173C108.045 128.573 108.446 128.106 108.96 127.771C109.477 127.433 110.08 127.264 110.77 127.264C111.167 127.264 111.56 127.33 111.948 127.463C112.336 127.596 112.689 127.811 113.007 128.109C113.325 128.404 113.578 128.795 113.767 129.283C113.956 129.77 114.051 130.37 114.051 131.082V131.58H108.164V130.565H112.858C112.858 130.134 112.771 129.75 112.599 129.412C112.43 129.074 112.188 128.807 111.873 128.612C111.562 128.416 111.194 128.318 110.77 128.318C110.302 128.318 109.898 128.434 109.556 128.666C109.218 128.895 108.958 129.193 108.776 129.561C108.594 129.929 108.502 130.323 108.502 130.744V131.42C108.502 131.997 108.602 132.486 108.801 132.887C109.003 133.285 109.283 133.588 109.641 133.797C109.999 134.002 110.415 134.105 110.889 134.105C111.197 134.105 111.475 134.062 111.724 133.976C111.976 133.886 112.193 133.754 112.375 133.578C112.558 133.399 112.699 133.177 112.798 132.912L113.931 133.23C113.812 133.615 113.612 133.953 113.33 134.244C113.048 134.533 112.7 134.758 112.286 134.92C111.872 135.08 111.406 135.159 110.889 135.159ZM119.773 137.864V127.364H120.907V128.577H121.046C121.132 128.444 121.251 128.275 121.404 128.07C121.56 127.861 121.782 127.675 122.07 127.513C122.362 127.347 122.756 127.264 123.253 127.264C123.896 127.264 124.463 127.425 124.953 127.746C125.444 128.068 125.827 128.524 126.102 129.114C126.377 129.704 126.515 130.4 126.515 131.202C126.515 132.01 126.377 132.711 126.102 133.305C125.827 133.895 125.446 134.352 124.958 134.677C124.471 134.998 123.909 135.159 123.273 135.159C122.783 135.159 122.39 135.078 122.095 134.915C121.8 134.75 121.573 134.562 121.414 134.354C121.255 134.142 121.132 133.966 121.046 133.827H120.946V137.864H119.773ZM120.926 131.182C120.926 131.759 121.011 132.267 121.18 132.708C121.349 133.146 121.596 133.489 121.921 133.737C122.246 133.982 122.643 134.105 123.114 134.105C123.605 134.105 124.014 133.976 124.342 133.717C124.673 133.455 124.922 133.104 125.088 132.663C125.257 132.219 125.341 131.725 125.341 131.182C125.341 130.645 125.258 130.161 125.093 129.73C124.93 129.296 124.683 128.953 124.352 128.701C124.024 128.446 123.611 128.318 123.114 128.318C122.637 128.318 122.236 128.439 121.911 128.681C121.586 128.92 121.341 129.254 121.175 129.685C121.009 130.113 120.926 130.612 120.926 131.182ZM130.551 135.179C130.068 135.179 129.628 135.088 129.234 134.906C128.84 134.72 128.526 134.453 128.294 134.105C128.062 133.754 127.946 133.33 127.946 132.832C127.946 132.395 128.033 132.04 128.205 131.768C128.377 131.493 128.608 131.278 128.896 131.122C129.184 130.966 129.502 130.85 129.85 130.774C130.202 130.695 130.555 130.632 130.909 130.585C131.373 130.526 131.75 130.481 132.038 130.451C132.33 130.418 132.542 130.363 132.674 130.287C132.81 130.211 132.878 130.078 132.878 129.889V129.849C132.878 129.359 132.744 128.978 132.475 128.706C132.21 128.434 131.808 128.298 131.267 128.298C130.707 128.298 130.268 128.421 129.95 128.666C129.632 128.911 129.408 129.173 129.279 129.452L128.165 129.054C128.364 128.59 128.629 128.229 128.961 127.97C129.295 127.708 129.66 127.526 130.054 127.423C130.452 127.317 130.843 127.264 131.228 127.264C131.473 127.264 131.755 127.294 132.073 127.354C132.394 127.41 132.704 127.528 133.002 127.707C133.304 127.886 133.554 128.156 133.753 128.517C133.952 128.878 134.051 129.362 134.051 129.969V135H132.878V133.966H132.819C132.739 134.132 132.606 134.309 132.421 134.498C132.235 134.687 131.988 134.848 131.68 134.98C131.372 135.113 130.996 135.179 130.551 135.179ZM130.73 134.125C131.194 134.125 131.586 134.034 131.904 133.852C132.225 133.669 132.467 133.434 132.63 133.146C132.795 132.857 132.878 132.554 132.878 132.236V131.162C132.828 131.222 132.719 131.276 132.55 131.326C132.384 131.372 132.192 131.414 131.973 131.45C131.758 131.483 131.547 131.513 131.342 131.54C131.14 131.563 130.976 131.583 130.85 131.599C130.545 131.639 130.26 131.704 129.995 131.793C129.733 131.879 129.521 132.01 129.358 132.186C129.199 132.358 129.12 132.594 129.12 132.892C129.12 133.3 129.27 133.608 129.572 133.817C129.877 134.022 130.263 134.125 130.73 134.125ZM139.275 138.023C138.709 138.023 138.221 137.95 137.814 137.804C137.406 137.661 137.066 137.473 136.795 137.237C136.526 137.005 136.312 136.757 136.153 136.491L137.088 135.835C137.194 135.974 137.328 136.134 137.491 136.312C137.653 136.495 137.875 136.652 138.157 136.785C138.442 136.921 138.815 136.989 139.275 136.989C139.892 136.989 140.401 136.839 140.802 136.541C141.203 136.243 141.403 135.776 141.403 135.139V133.588H141.304C141.218 133.727 141.095 133.9 140.936 134.105C140.78 134.307 140.555 134.488 140.26 134.647C139.968 134.803 139.574 134.881 139.077 134.881C138.46 134.881 137.907 134.735 137.416 134.443C136.929 134.152 136.543 133.727 136.258 133.17C135.976 132.614 135.835 131.937 135.835 131.142C135.835 130.36 135.973 129.679 136.248 129.099C136.523 128.515 136.906 128.065 137.396 127.746C137.887 127.425 138.453 127.264 139.096 127.264C139.594 127.264 139.988 127.347 140.28 127.513C140.575 127.675 140.8 127.861 140.956 128.07C141.115 128.275 141.238 128.444 141.324 128.577H141.443V127.364H142.577V135.219C142.577 135.875 142.427 136.409 142.129 136.82C141.834 137.234 141.436 137.537 140.936 137.729C140.439 137.925 139.885 138.023 139.275 138.023ZM139.236 133.827C139.706 133.827 140.104 133.719 140.429 133.504C140.754 133.288 141.001 132.978 141.17 132.574C141.339 132.17 141.423 131.686 141.423 131.122C141.423 130.572 141.34 130.086 141.175 129.665C141.009 129.245 140.764 128.915 140.439 128.676C140.114 128.437 139.713 128.318 139.236 128.318C138.738 128.318 138.324 128.444 137.993 128.696C137.665 128.948 137.418 129.286 137.252 129.71C137.09 130.134 137.008 130.605 137.008 131.122C137.008 131.652 137.091 132.121 137.257 132.529C137.426 132.933 137.675 133.252 138.003 133.484C138.334 133.712 138.745 133.827 139.236 133.827ZM147.926 135.159C147.19 135.159 146.555 134.997 146.022 134.672C145.492 134.344 145.082 133.886 144.794 133.3C144.509 132.71 144.366 132.024 144.366 131.241C144.366 130.459 144.509 129.77 144.794 129.173C145.082 128.573 145.483 128.106 145.997 127.771C146.514 127.433 147.117 127.264 147.807 127.264C148.204 127.264 148.597 127.33 148.985 127.463C149.373 127.596 149.726 127.811 150.044 128.109C150.362 128.404 150.616 128.795 150.805 129.283C150.993 129.77 151.088 130.37 151.088 131.082V131.58H145.202V130.565H149.895C149.895 130.134 149.809 129.75 149.636 129.412C149.467 129.074 149.225 128.807 148.91 128.612C148.599 128.416 148.231 128.318 147.807 128.318C147.339 128.318 146.935 128.434 146.594 128.666C146.256 128.895 145.995 129.193 145.813 129.561C145.631 129.929 145.54 130.323 145.54 130.744V131.42C145.54 131.997 145.639 132.486 145.838 132.887C146.04 133.285 146.32 133.588 146.678 133.797C147.036 134.002 147.452 134.105 147.926 134.105C148.234 134.105 148.513 134.062 148.761 133.976C149.013 133.886 149.23 133.754 149.412 133.578C149.595 133.399 149.736 133.177 149.835 132.912L150.969 133.23C150.849 133.615 150.649 133.953 150.367 134.244C150.085 134.533 149.737 134.758 149.323 134.92C148.909 135.08 148.443 135.159 147.926 135.159ZM156.81 135V127.364H157.983V135H156.81ZM157.407 126.091C157.178 126.091 156.981 126.013 156.815 125.857C156.653 125.701 156.572 125.514 156.572 125.295C156.572 125.077 156.653 124.889 156.815 124.734C156.981 124.578 157.178 124.5 157.407 124.5C157.635 124.5 157.831 124.578 157.993 124.734C158.159 124.889 158.242 125.077 158.242 125.295C158.242 125.514 158.159 125.701 157.993 125.857C157.831 126.013 157.635 126.091 157.407 126.091ZM161.306 130.406V135H160.132V127.364H161.266V128.557H161.365C161.544 128.169 161.816 127.857 162.181 127.622C162.545 127.384 163.016 127.264 163.593 127.264C164.11 127.264 164.562 127.37 164.95 127.582C165.338 127.791 165.639 128.109 165.855 128.537C166.07 128.961 166.178 129.498 166.178 130.148V135H165.005V130.227C165.005 129.627 164.849 129.16 164.537 128.825C164.226 128.487 163.798 128.318 163.255 128.318C162.88 128.318 162.545 128.399 162.25 128.562C161.959 128.724 161.728 128.961 161.559 129.273C161.39 129.584 161.306 129.962 161.306 130.406ZM171.643 127.364V128.358H167.686V127.364H171.643ZM168.839 125.534H170.012V132.812C170.012 133.144 170.06 133.393 170.156 133.558C170.256 133.721 170.382 133.83 170.534 133.886C170.69 133.939 170.854 133.966 171.026 133.966C171.156 133.966 171.262 133.959 171.345 133.946C171.427 133.929 171.494 133.916 171.544 133.906L171.782 134.96C171.703 134.99 171.592 135.02 171.449 135.05C171.307 135.083 171.126 135.099 170.907 135.099C170.576 135.099 170.251 135.028 169.933 134.886C169.618 134.743 169.356 134.526 169.147 134.234C168.942 133.943 168.839 133.575 168.839 133.131V125.534ZM176.428 135.159C175.739 135.159 175.134 134.995 174.613 134.667C174.096 134.339 173.692 133.88 173.4 133.29C173.112 132.7 172.968 132.01 172.968 131.222C172.968 130.426 173.112 129.732 173.4 129.138C173.692 128.545 174.096 128.085 174.613 127.756C175.134 127.428 175.739 127.264 176.428 127.264C177.117 127.264 177.721 127.428 178.238 127.756C178.758 128.085 179.162 128.545 179.451 129.138C179.742 129.732 179.888 130.426 179.888 131.222C179.888 132.01 179.742 132.7 179.451 133.29C179.162 133.88 178.758 134.339 178.238 134.667C177.721 134.995 177.117 135.159 176.428 135.159ZM176.428 134.105C176.952 134.105 177.383 133.971 177.721 133.702C178.059 133.434 178.309 133.081 178.471 132.643C178.634 132.206 178.715 131.732 178.715 131.222C178.715 130.711 178.634 130.236 178.471 129.795C178.309 129.354 178.059 128.998 177.721 128.726C177.383 128.454 176.952 128.318 176.428 128.318C175.904 128.318 175.474 128.454 175.135 128.726C174.797 128.998 174.547 129.354 174.385 129.795C174.222 130.236 174.141 130.711 174.141 131.222C174.141 131.732 174.222 132.206 174.385 132.643C174.547 133.081 174.797 133.434 175.135 133.702C175.474 133.971 175.904 134.105 176.428 134.105ZM186.79 124.818V135H185.617V124.818H186.79ZM191.186 135.179C190.702 135.179 190.263 135.088 189.869 134.906C189.474 134.72 189.161 134.453 188.929 134.105C188.697 133.754 188.581 133.33 188.581 132.832C188.581 132.395 188.667 132.04 188.84 131.768C189.012 131.493 189.242 131.278 189.531 131.122C189.819 130.966 190.137 130.85 190.485 130.774C190.837 130.695 191.19 130.632 191.544 130.585C192.008 130.526 192.384 130.481 192.673 130.451C192.964 130.418 193.177 130.363 193.309 130.287C193.445 130.211 193.513 130.078 193.513 129.889V129.849C193.513 129.359 193.379 128.978 193.11 128.706C192.845 128.434 192.442 128.298 191.902 128.298C191.342 128.298 190.903 128.421 190.585 128.666C190.267 128.911 190.043 129.173 189.914 129.452L188.8 129.054C188.999 128.59 189.264 128.229 189.595 127.97C189.93 127.708 190.295 127.526 190.689 127.423C191.087 127.317 191.478 127.264 191.862 127.264C192.108 127.264 192.389 127.294 192.708 127.354C193.029 127.41 193.339 127.528 193.637 127.707C193.939 127.886 194.189 128.156 194.388 128.517C194.587 128.878 194.686 129.362 194.686 129.969V135H193.513V133.966H193.453C193.374 134.132 193.241 134.309 193.056 134.498C192.87 134.687 192.623 134.848 192.315 134.98C192.007 135.113 191.63 135.179 191.186 135.179ZM191.365 134.125C191.829 134.125 192.22 134.034 192.539 133.852C192.86 133.669 193.102 133.434 193.264 133.146C193.43 132.857 193.513 132.554 193.513 132.236V131.162C193.463 131.222 193.354 131.276 193.185 131.326C193.019 131.372 192.827 131.414 192.608 131.45C192.393 131.483 192.182 131.513 191.977 131.54C191.775 131.563 191.61 131.583 191.485 131.599C191.18 131.639 190.895 131.704 190.629 131.793C190.368 131.879 190.155 132.01 189.993 132.186C189.834 132.358 189.754 132.594 189.754 132.892C189.754 133.3 189.905 133.608 190.207 133.817C190.512 134.022 190.898 134.125 191.365 134.125ZM198.001 130.406V135H196.828V127.364H197.961V128.557H198.061C198.24 128.169 198.511 127.857 198.876 127.622C199.241 127.384 199.711 127.264 200.288 127.264C200.805 127.264 201.257 127.37 201.645 127.582C202.033 127.791 202.335 128.109 202.55 128.537C202.766 128.961 202.873 129.498 202.873 130.148V135H201.7V130.227C201.7 129.627 201.544 129.16 201.233 128.825C200.921 128.487 200.493 128.318 199.95 128.318C199.575 128.318 199.241 128.399 198.946 128.562C198.654 128.724 198.424 128.961 198.255 129.273C198.086 129.584 198.001 129.962 198.001 130.406ZM208.1 138.023C207.533 138.023 207.046 137.95 206.638 137.804C206.23 137.661 205.891 137.473 205.619 137.237C205.35 137.005 205.137 136.757 204.977 136.491L205.912 135.835C206.018 135.974 206.152 136.134 206.315 136.312C206.477 136.495 206.699 136.652 206.981 136.785C207.266 136.921 207.639 136.989 208.1 136.989C208.716 136.989 209.225 136.839 209.626 136.541C210.027 136.243 210.227 135.776 210.227 135.139V133.588H210.128C210.042 133.727 209.919 133.9 209.76 134.105C209.604 134.307 209.379 134.488 209.084 134.647C208.792 134.803 208.398 134.881 207.901 134.881C207.284 134.881 206.731 134.735 206.24 134.443C205.753 134.152 205.367 133.727 205.082 133.17C204.8 132.614 204.659 131.937 204.659 131.142C204.659 130.36 204.797 129.679 205.072 129.099C205.347 128.515 205.73 128.065 206.22 127.746C206.711 127.425 207.278 127.264 207.921 127.264C208.418 127.264 208.812 127.347 209.104 127.513C209.399 127.675 209.624 127.861 209.78 128.07C209.939 128.275 210.062 128.444 210.148 128.577H210.267V127.364H211.401V135.219C211.401 135.875 211.252 136.409 210.953 136.82C210.658 137.234 210.261 137.537 209.76 137.729C209.263 137.925 208.709 138.023 208.1 138.023ZM208.06 133.827C208.53 133.827 208.928 133.719 209.253 133.504C209.578 133.288 209.825 132.978 209.994 132.574C210.163 132.17 210.247 131.686 210.247 131.122C210.247 130.572 210.164 130.086 209.999 129.665C209.833 129.245 209.588 128.915 209.263 128.676C208.938 128.437 208.537 128.318 208.06 128.318C207.563 128.318 207.148 128.444 206.817 128.696C206.489 128.948 206.242 129.286 206.076 129.71C205.914 130.134 205.833 130.605 205.833 131.122C205.833 131.652 205.915 132.121 206.081 132.529C206.25 132.933 206.499 133.252 206.827 133.484C207.158 133.712 207.569 133.827 208.06 133.827ZM218.361 131.878V127.364H219.534V135H218.361V133.707H218.281C218.102 134.095 217.824 134.425 217.446 134.697C217.068 134.965 216.591 135.099 216.014 135.099C215.537 135.099 215.113 134.995 214.742 134.786C214.37 134.574 214.079 134.256 213.867 133.832C213.655 133.404 213.548 132.866 213.548 132.216V127.364H214.722V132.136C214.722 132.693 214.878 133.137 215.189 133.469C215.504 133.8 215.905 133.966 216.392 133.966C216.684 133.966 216.981 133.891 217.282 133.742C217.587 133.593 217.842 133.364 218.048 133.056C218.257 132.748 218.361 132.355 218.361 131.878ZM223.93 135.179C223.446 135.179 223.007 135.088 222.613 134.906C222.219 134.72 221.905 134.453 221.673 134.105C221.441 133.754 221.325 133.33 221.325 132.832C221.325 132.395 221.411 132.04 221.584 131.768C221.756 131.493 221.987 131.278 222.275 131.122C222.563 130.966 222.881 130.85 223.229 130.774C223.581 130.695 223.934 130.632 224.288 130.585C224.752 130.526 225.129 130.481 225.417 130.451C225.709 130.418 225.921 130.363 226.053 130.287C226.189 130.211 226.257 130.078 226.257 129.889V129.849C226.257 129.359 226.123 128.978 225.854 128.706C225.589 128.434 225.187 128.298 224.646 128.298C224.086 128.298 223.647 128.421 223.329 128.666C223.011 128.911 222.787 129.173 222.658 129.452L221.544 129.054C221.743 128.59 222.008 128.229 222.339 127.97C222.674 127.708 223.039 127.526 223.433 127.423C223.831 127.317 224.222 127.264 224.607 127.264C224.852 127.264 225.134 127.294 225.452 127.354C225.773 127.41 226.083 127.528 226.381 127.707C226.683 127.886 226.933 128.156 227.132 128.517C227.331 128.878 227.43 129.362 227.43 129.969V135H226.257V133.966H226.197C226.118 134.132 225.985 134.309 225.8 134.498C225.614 134.687 225.367 134.848 225.059 134.98C224.751 135.113 224.375 135.179 223.93 135.179ZM224.109 134.125C224.573 134.125 224.964 134.034 225.283 133.852C225.604 133.669 225.846 133.434 226.009 133.146C226.174 132.857 226.257 132.554 226.257 132.236V131.162C226.207 131.222 226.098 131.276 225.929 131.326C225.763 131.372 225.571 131.414 225.352 131.45C225.137 131.483 224.926 131.513 224.721 131.54C224.519 131.563 224.355 131.583 224.229 131.599C223.924 131.639 223.639 131.704 223.374 131.793C223.112 131.879 222.9 132.01 222.737 132.186C222.578 132.358 222.499 132.594 222.499 132.892C222.499 133.3 222.649 133.608 222.951 133.817C223.256 134.022 223.642 134.125 224.109 134.125ZM232.654 138.023C232.088 138.023 231.6 137.95 231.193 137.804C230.785 137.661 230.445 137.473 230.173 137.237C229.905 137.005 229.691 136.757 229.532 136.491L230.467 135.835C230.573 135.974 230.707 136.134 230.869 136.312C231.032 136.495 231.254 136.652 231.536 136.785C231.821 136.921 232.194 136.989 232.654 136.989C233.271 136.989 233.78 136.839 234.181 136.541C234.582 136.243 234.782 135.776 234.782 135.139V133.588H234.683C234.597 133.727 234.474 133.9 234.315 134.105C234.159 134.307 233.934 134.488 233.639 134.647C233.347 134.803 232.953 134.881 232.455 134.881C231.839 134.881 231.285 134.735 230.795 134.443C230.308 134.152 229.922 133.727 229.637 133.17C229.355 132.614 229.214 131.937 229.214 131.142C229.214 130.36 229.352 129.679 229.627 129.099C229.902 128.515 230.285 128.065 230.775 127.746C231.266 127.425 231.832 127.264 232.475 127.264C232.972 127.264 233.367 127.347 233.659 127.513C233.954 127.675 234.179 127.861 234.335 128.07C234.494 128.275 234.616 128.444 234.703 128.577H234.822V127.364H235.955V135.219C235.955 135.875 235.806 136.409 235.508 136.82C235.213 137.234 234.815 137.537 234.315 137.729C233.818 137.925 233.264 138.023 232.654 138.023ZM232.615 133.827C233.085 133.827 233.483 133.719 233.808 133.504C234.133 133.288 234.379 132.978 234.548 132.574C234.718 132.17 234.802 131.686 234.802 131.122C234.802 130.572 234.719 130.086 234.553 129.665C234.388 129.245 234.142 128.915 233.818 128.676C233.493 128.437 233.092 128.318 232.615 128.318C232.117 128.318 231.703 128.444 231.372 128.696C231.044 128.948 230.797 129.286 230.631 129.71C230.468 130.134 230.387 130.605 230.387 131.122C230.387 131.652 230.47 132.121 230.636 132.529C230.805 132.933 231.053 133.252 231.382 133.484C231.713 133.712 232.124 133.827 232.615 133.827ZM241.305 135.159C240.569 135.159 239.934 134.997 239.401 134.672C238.87 134.344 238.461 133.886 238.173 133.3C237.888 132.71 237.745 132.024 237.745 131.241C237.745 130.459 237.888 129.77 238.173 129.173C238.461 128.573 238.862 128.106 239.376 127.771C239.893 127.433 240.496 127.264 241.186 127.264C241.583 127.264 241.976 127.33 242.364 127.463C242.752 127.596 243.105 127.811 243.423 128.109C243.741 128.404 243.994 128.795 244.183 129.283C244.372 129.77 244.467 130.37 244.467 131.082V131.58H238.58V130.565H243.274C243.274 130.134 243.187 129.75 243.015 129.412C242.846 129.074 242.604 128.807 242.289 128.612C241.978 128.416 241.61 128.318 241.186 128.318C240.718 128.318 240.314 128.434 239.972 128.666C239.634 128.895 239.374 129.193 239.192 129.561C239.01 129.929 238.919 130.323 238.919 130.744V131.42C238.919 131.997 239.018 132.486 239.217 132.887C239.419 133.285 239.699 133.588 240.057 133.797C240.415 134.002 240.831 134.105 241.305 134.105C241.613 134.105 241.892 134.062 242.14 133.976C242.392 133.886 242.609 133.754 242.791 133.578C242.974 133.399 243.115 133.177 243.214 132.912L244.347 133.23C244.228 133.615 244.028 133.953 243.746 134.244C243.464 134.533 243.116 134.758 242.702 134.92C242.288 135.08 241.822 135.159 241.305 135.159ZM253.291 135.159C252.602 135.159 251.997 134.995 251.477 134.667C250.96 134.339 250.555 133.88 250.264 133.29C249.975 132.7 249.831 132.01 249.831 131.222C249.831 130.426 249.975 129.732 250.264 129.138C250.555 128.545 250.96 128.085 251.477 127.756C251.997 127.428 252.602 127.264 253.291 127.264C253.981 127.264 254.584 127.428 255.101 127.756C255.621 128.085 256.026 128.545 256.314 129.138C256.606 129.732 256.752 130.426 256.752 131.222C256.752 132.01 256.606 132.7 256.314 133.29C256.026 133.88 255.621 134.339 255.101 134.667C254.584 134.995 253.981 135.159 253.291 135.159ZM253.291 134.105C253.815 134.105 254.246 133.971 254.584 133.702C254.922 133.434 255.172 133.081 255.335 132.643C255.497 132.206 255.578 131.732 255.578 131.222C255.578 130.711 255.497 130.236 255.335 129.795C255.172 129.354 254.922 128.998 254.584 128.726C254.246 128.454 253.815 128.318 253.291 128.318C252.768 128.318 252.337 128.454 251.999 128.726C251.661 128.998 251.41 129.354 251.248 129.795C251.086 130.236 251.004 130.711 251.004 131.222C251.004 131.732 251.086 132.206 251.248 132.643C251.41 133.081 251.661 133.434 251.999 133.702C252.337 133.971 252.768 134.105 253.291 134.105ZM261.943 127.364V128.358H257.827V127.364H261.943ZM259.06 135V126.31C259.06 125.872 259.162 125.508 259.368 125.216C259.573 124.924 259.84 124.705 260.168 124.56C260.496 124.414 260.843 124.341 261.207 124.341C261.496 124.341 261.731 124.364 261.913 124.411C262.096 124.457 262.232 124.5 262.321 124.54L261.983 125.554C261.923 125.534 261.84 125.509 261.734 125.479C261.632 125.45 261.496 125.435 261.327 125.435C260.939 125.435 260.659 125.532 260.487 125.728C260.317 125.924 260.233 126.21 260.233 126.588V135H259.06ZM29.8295 157.864C29.6307 157.864 29.4534 157.847 29.2976 157.814C29.1418 157.784 29.0341 157.754 28.9744 157.724L29.2727 156.69C29.5578 156.763 29.8097 156.79 30.0284 156.77C30.2472 156.75 30.4411 156.652 30.6101 156.477C30.7824 156.304 30.9399 156.024 31.0824 155.636L31.3011 155.04L28.4773 147.364H29.75L31.858 153.449H31.9375L34.0455 147.364H35.3182L32.0767 156.114C31.9309 156.508 31.7502 156.835 31.5348 157.093C31.3194 157.355 31.0691 157.549 30.7841 157.675C30.5024 157.801 30.1842 157.864 29.8295 157.864ZM39.6957 155.159C39.0063 155.159 38.4014 154.995 37.881 154.667C37.364 154.339 36.9596 153.88 36.668 153.29C36.3796 152.7 36.2354 152.01 36.2354 151.222C36.2354 150.426 36.3796 149.732 36.668 149.138C36.9596 148.545 37.364 148.085 37.881 147.756C38.4014 147.428 39.0063 147.264 39.6957 147.264C40.3851 147.264 40.9883 147.428 41.5053 147.756C42.0257 148.085 42.43 148.545 42.7184 149.138C43.0101 149.732 43.1559 150.426 43.1559 151.222C43.1559 152.01 43.0101 152.7 42.7184 153.29C42.43 153.88 42.0257 154.339 41.5053 154.667C40.9883 154.995 40.3851 155.159 39.6957 155.159ZM39.6957 154.105C40.2193 154.105 40.6502 153.971 40.9883 153.702C41.3263 153.434 41.5766 153.081 41.739 152.643C41.9014 152.206 41.9826 151.732 41.9826 151.222C41.9826 150.711 41.9014 150.236 41.739 149.795C41.5766 149.354 41.3263 148.998 40.9883 148.726C40.6502 148.454 40.2193 148.318 39.6957 148.318C39.172 148.318 38.7411 148.454 38.4031 148.726C38.065 148.998 37.8147 149.354 37.6523 149.795C37.4899 150.236 37.4087 150.711 37.4087 151.222C37.4087 151.732 37.4899 152.206 37.6523 152.643C37.8147 153.081 38.065 153.434 38.4031 153.702C38.7411 153.971 39.172 154.105 39.6957 154.105ZM49.7594 151.878V147.364H50.9327V155H49.7594V153.707H49.6799C49.5009 154.095 49.2225 154.425 48.8446 154.697C48.4668 154.965 47.9895 155.099 47.4128 155.099C46.9355 155.099 46.5113 154.995 46.1401 154.786C45.7689 154.574 45.4772 154.256 45.2651 153.832C45.053 153.404 44.9469 152.866 44.9469 152.216V147.364H46.1202V152.136C46.1202 152.693 46.276 153.137 46.5875 153.469C46.9024 153.8 47.3034 153.966 47.7907 153.966C48.0823 153.966 48.379 153.891 48.6806 153.742C48.9855 153.593 49.2407 153.364 49.4462 153.056C49.655 152.748 49.7594 152.355 49.7594 151.878ZM53.0817 155V147.364H54.2152V148.517H54.2947C54.4339 148.139 54.6858 147.833 55.0504 147.597C55.415 147.362 55.826 147.244 56.2834 147.244C56.3696 147.244 56.4773 147.246 56.6065 147.249C56.7358 147.253 56.8336 147.258 56.8999 147.264V148.457C56.8601 148.447 56.7689 148.433 56.6264 148.413C56.4872 148.389 56.3397 148.378 56.1839 148.378C55.8127 148.378 55.4813 148.456 55.1896 148.612C54.9013 148.764 54.6726 148.976 54.5036 149.248C54.3378 149.516 54.255 149.823 54.255 150.168V155H53.0817ZM65.3304 155.159C64.6145 155.159 63.998 154.99 63.481 154.652C62.964 154.314 62.5662 153.848 62.2878 153.255C62.0094 152.662 61.8702 151.984 61.8702 151.222C61.8702 150.446 62.0127 149.762 62.2978 149.168C62.5861 148.572 62.9872 148.106 63.5009 147.771C64.0179 147.433 64.6212 147.264 65.3105 147.264C65.8475 147.264 66.3314 147.364 66.7623 147.562C67.1931 147.761 67.5461 148.04 67.8212 148.398C68.0963 148.756 68.267 149.173 68.3333 149.651H67.16C67.0705 149.303 66.8716 148.994 66.5634 148.726C66.2585 148.454 65.8475 148.318 65.3304 148.318C64.873 148.318 64.472 148.437 64.1273 148.676C63.7859 148.911 63.5191 149.245 63.3269 149.675C63.138 150.103 63.0435 150.605 63.0435 151.182C63.0435 151.772 63.1363 152.286 63.3219 152.723C63.5108 153.161 63.776 153.5 64.1174 153.742C64.4621 153.984 64.8664 154.105 65.3304 154.105C65.6354 154.105 65.9121 154.052 66.1607 153.946C66.4093 153.84 66.6197 153.688 66.7921 153.489C66.9644 153.29 67.0871 153.051 67.16 152.773H68.3333C68.267 153.223 68.1029 153.629 67.8411 153.991C67.5826 154.349 67.2395 154.634 66.812 154.846C66.3877 155.055 65.8939 155.159 65.3304 155.159ZM73.1507 155.159C72.4614 155.159 71.8565 154.995 71.3361 154.667C70.8191 154.339 70.4147 153.88 70.123 153.29C69.8347 152.7 69.6905 152.01 69.6905 151.222C69.6905 150.426 69.8347 149.732 70.123 149.138C70.4147 148.545 70.8191 148.085 71.3361 147.756C71.8565 147.428 72.4614 147.264 73.1507 147.264C73.8401 147.264 74.4434 147.428 74.9604 147.756C75.4808 148.085 75.8851 148.545 76.1735 149.138C76.4651 149.732 76.611 150.426 76.611 151.222C76.611 152.01 76.4651 152.7 76.1735 153.29C75.8851 153.88 75.4808 154.339 74.9604 154.667C74.4434 154.995 73.8401 155.159 73.1507 155.159ZM73.1507 154.105C73.6744 154.105 74.1053 153.971 74.4434 153.702C74.7814 153.434 75.0317 153.081 75.1941 152.643C75.3565 152.206 75.4377 151.732 75.4377 151.222C75.4377 150.711 75.3565 150.236 75.1941 149.795C75.0317 149.354 74.7814 148.998 74.4434 148.726C74.1053 148.454 73.6744 148.318 73.1507 148.318C72.6271 148.318 72.1962 148.454 71.8581 148.726C71.5201 148.998 71.2698 149.354 71.1074 149.795C70.945 150.236 70.8638 150.711 70.8638 151.222C70.8638 151.732 70.945 152.206 71.1074 152.643C71.2698 153.081 71.5201 153.434 71.8581 153.702C72.1962 153.971 72.6271 154.105 73.1507 154.105ZM78.402 155V147.364H79.5355V148.557H79.6349C79.794 148.149 80.0509 147.833 80.4055 147.607C80.7602 147.379 81.1861 147.264 81.6832 147.264C82.187 147.264 82.6063 147.379 82.9411 147.607C83.2791 147.833 83.5426 148.149 83.7315 148.557H83.8111C84.0066 148.162 84.3 147.849 84.6911 147.617C85.0822 147.382 85.5511 147.264 86.098 147.264C86.7808 147.264 87.3393 147.478 87.7734 147.906C88.2076 148.33 88.4247 148.991 88.4247 149.889V155H87.2514V149.889C87.2514 149.326 87.0973 148.923 86.7891 148.681C86.4808 148.439 86.1179 148.318 85.7003 148.318C85.1634 148.318 84.7474 148.481 84.4524 148.805C84.1574 149.127 84.0099 149.535 84.0099 150.028V155H82.8168V149.77C82.8168 149.336 82.6759 148.986 82.3942 148.721C82.1125 148.452 81.7495 148.318 81.3054 148.318C81.0005 148.318 80.7154 148.399 80.4503 148.562C80.1884 148.724 79.9763 148.95 79.8139 149.238C79.6548 149.523 79.5753 149.853 79.5753 150.227V155H78.402ZM93.9705 147.364V148.358H89.854V147.364H93.9705ZM91.087 155V146.31C91.087 145.872 91.1897 145.508 91.3952 145.216C91.6007 144.924 91.8675 144.705 92.1957 144.56C92.5238 144.414 92.8701 144.341 93.2347 144.341C93.5231 144.341 93.7584 144.364 93.9407 144.411C94.123 144.457 94.2589 144.5 94.3484 144.54L94.0103 145.554C93.9506 145.534 93.8678 145.509 93.7617 145.479C93.659 145.45 93.5231 145.435 93.354 145.435C92.9663 145.435 92.6862 145.532 92.5138 145.728C92.3448 145.924 92.2603 146.21 92.2603 146.588V155H91.087ZM98.4027 155.159C97.7133 155.159 97.1084 154.995 96.5881 154.667C96.071 154.339 95.6667 153.88 95.375 153.29C95.0866 152.7 94.9425 152.01 94.9425 151.222C94.9425 150.426 95.0866 149.732 95.375 149.138C95.6667 148.545 96.071 148.085 96.5881 147.756C97.1084 147.428 97.7133 147.264 98.4027 147.264C99.0921 147.264 99.6953 147.428 100.212 147.756C100.733 148.085 101.137 148.545 101.425 149.138C101.717 149.732 101.863 150.426 101.863 151.222C101.863 152.01 101.717 152.7 101.425 153.29C101.137 153.88 100.733 154.339 100.212 154.667C99.6953 154.995 99.0921 155.159 98.4027 155.159ZM98.4027 154.105C98.9264 154.105 99.3572 153.971 99.6953 153.702C100.033 153.434 100.284 153.081 100.446 152.643C100.608 152.206 100.69 151.732 100.69 151.222C100.69 150.711 100.608 150.236 100.446 149.795C100.284 149.354 100.033 148.998 99.6953 148.726C99.3572 148.454 98.9264 148.318 98.4027 148.318C97.879 148.318 97.4482 148.454 97.1101 148.726C96.772 148.998 96.5218 149.354 96.3594 149.795C96.197 150.236 96.1158 150.711 96.1158 151.222C96.1158 151.732 96.197 152.206 96.3594 152.643C96.5218 153.081 96.772 153.434 97.1101 153.702C97.4482 153.971 97.879 154.105 98.4027 154.105ZM103.654 155V147.364H104.787V148.517H104.867C105.006 148.139 105.258 147.833 105.623 147.597C105.987 147.362 106.398 147.244 106.856 147.244C106.942 147.244 107.05 147.246 107.179 147.249C107.308 147.253 107.406 147.258 107.472 147.264V148.457C107.432 148.447 107.341 148.433 107.199 148.413C107.059 148.389 106.912 148.378 106.756 148.378C106.385 148.378 106.054 148.456 105.762 148.612C105.474 148.764 105.245 148.976 105.076 149.248C104.91 149.516 104.827 149.823 104.827 150.168V155H103.654ZM112.662 147.364V148.358H108.705V147.364H112.662ZM109.858 145.534H111.032V152.812C111.032 153.144 111.08 153.393 111.176 153.558C111.275 153.721 111.401 153.83 111.554 153.886C111.71 153.939 111.874 153.966 112.046 153.966C112.175 153.966 112.281 153.959 112.364 153.946C112.447 153.929 112.513 153.916 112.563 153.906L112.802 154.96C112.722 154.99 112.611 155.02 112.469 155.05C112.326 155.083 112.145 155.099 111.927 155.099C111.595 155.099 111.27 155.028 110.952 154.886C110.637 154.743 110.376 154.526 110.167 154.234C109.961 153.943 109.858 153.575 109.858 153.131V145.534ZM116.177 153.608L116.098 154.145C116.041 154.523 115.955 154.927 115.839 155.358C115.727 155.789 115.609 156.195 115.486 156.576C115.364 156.957 115.263 157.26 115.183 157.486H114.288C114.331 157.274 114.388 156.994 114.457 156.646C114.527 156.298 114.596 155.908 114.666 155.477C114.739 155.05 114.799 154.612 114.845 154.165L114.905 153.608H116.177ZM127.752 147.617C127.706 147.183 127.511 146.845 127.166 146.603C126.824 146.361 126.38 146.24 125.833 146.24C125.449 146.24 125.119 146.298 124.844 146.414C124.569 146.53 124.359 146.687 124.213 146.886C124.067 147.085 123.992 147.312 123.989 147.567C123.989 147.78 124.037 147.964 124.133 148.119C124.233 148.275 124.367 148.408 124.536 148.517C124.705 148.623 124.892 148.713 125.098 148.786C125.303 148.858 125.51 148.92 125.719 148.969L126.674 149.208C127.058 149.298 127.428 149.419 127.782 149.571C128.14 149.723 128.46 149.916 128.742 150.148C129.027 150.38 129.252 150.66 129.418 150.988C129.584 151.316 129.667 151.701 129.667 152.141C129.667 152.738 129.514 153.263 129.209 153.717C128.904 154.168 128.463 154.521 127.887 154.776C127.313 155.028 126.619 155.154 125.804 155.154C125.011 155.154 124.324 155.031 123.74 154.786C123.16 154.541 122.706 154.183 122.378 153.712C122.053 153.242 121.878 152.668 121.851 151.992H123.666C123.692 152.347 123.802 152.642 123.994 152.877C124.186 153.112 124.436 153.288 124.745 153.404C125.056 153.52 125.404 153.578 125.789 153.578C126.19 153.578 126.541 153.518 126.843 153.399C127.148 153.277 127.386 153.107 127.559 152.892C127.731 152.673 127.819 152.418 127.822 152.126C127.819 151.861 127.741 151.643 127.588 151.47C127.436 151.295 127.222 151.149 126.947 151.033C126.675 150.913 126.357 150.807 125.993 150.714L124.834 150.416C123.996 150.201 123.333 149.874 122.846 149.437C122.362 148.996 122.12 148.411 122.12 147.682C122.12 147.082 122.282 146.557 122.607 146.106C122.935 145.655 123.381 145.305 123.944 145.057C124.508 144.805 125.146 144.679 125.858 144.679C126.581 144.679 127.214 144.805 127.757 145.057C128.304 145.305 128.734 145.652 129.045 146.096C129.357 146.537 129.517 147.044 129.527 147.617H127.752ZM133.429 155.154C132.945 155.154 132.509 155.068 132.121 154.896C131.737 154.72 131.432 154.461 131.206 154.12C130.984 153.779 130.873 153.358 130.873 152.857C130.873 152.426 130.953 152.07 131.112 151.788C131.271 151.507 131.488 151.281 131.763 151.112C132.038 150.943 132.348 150.816 132.693 150.729C133.041 150.64 133.401 150.575 133.772 150.536C134.219 150.489 134.582 150.448 134.861 150.411C135.139 150.371 135.341 150.312 135.467 150.232C135.596 150.149 135.661 150.022 135.661 149.849V149.82C135.661 149.445 135.55 149.155 135.328 148.95C135.106 148.744 134.786 148.641 134.368 148.641C133.928 148.641 133.578 148.737 133.319 148.93C133.064 149.122 132.892 149.349 132.802 149.611L131.122 149.372C131.255 148.908 131.473 148.52 131.778 148.209C132.083 147.894 132.456 147.659 132.897 147.503C133.338 147.344 133.825 147.264 134.358 147.264C134.726 147.264 135.093 147.307 135.457 147.393C135.822 147.48 136.155 147.622 136.456 147.821C136.758 148.017 137 148.283 137.182 148.621C137.368 148.96 137.461 149.382 137.461 149.889V155H135.731V153.951H135.671C135.562 154.163 135.407 154.362 135.209 154.548C135.013 154.73 134.766 154.877 134.468 154.99C134.173 155.099 133.827 155.154 133.429 155.154ZM133.896 153.832C134.257 153.832 134.571 153.76 134.836 153.618C135.101 153.472 135.305 153.28 135.447 153.041C135.593 152.803 135.666 152.542 135.666 152.261V151.361C135.61 151.407 135.514 151.45 135.378 151.49C135.245 151.53 135.096 151.565 134.93 151.594C134.765 151.624 134.6 151.651 134.438 151.674C134.276 151.697 134.135 151.717 134.015 151.734C133.747 151.77 133.507 151.83 133.295 151.913C133.082 151.996 132.915 152.112 132.792 152.261C132.67 152.406 132.608 152.595 132.608 152.827C132.608 153.159 132.729 153.409 132.971 153.578C133.213 153.747 133.522 153.832 133.896 153.832ZM145.818 147.364L143.099 155H141.11L138.39 147.364H140.309L142.064 153.036H142.144L143.904 147.364H145.818ZM153.884 147.364L151.165 155H149.176L146.457 147.364H148.376L150.131 153.036H150.21L151.97 147.364H153.884ZM156.248 157.864C156.003 157.864 155.776 157.844 155.567 157.804C155.362 157.768 155.198 157.724 155.075 157.675L155.493 156.273C155.755 156.349 155.988 156.385 156.194 156.382C156.399 156.379 156.58 156.314 156.736 156.188C156.895 156.066 157.029 155.86 157.138 155.572L157.292 155.159L154.523 147.364H156.432L158.192 153.131H158.272L160.037 147.364H161.951L158.893 155.925C158.751 156.329 158.562 156.675 158.327 156.964C158.091 157.255 157.803 157.478 157.461 157.63C157.123 157.786 156.719 157.864 156.248 157.864ZM166.267 155.149C165.522 155.149 164.875 154.985 164.328 154.657C163.782 154.329 163.357 153.87 163.056 153.28C162.757 152.69 162.608 152 162.608 151.212C162.608 150.423 162.757 149.732 163.056 149.138C163.357 148.545 163.782 148.085 164.328 147.756C164.875 147.428 165.522 147.264 166.267 147.264C167.013 147.264 167.659 147.428 168.206 147.756C168.753 148.085 169.176 148.545 169.474 149.138C169.776 149.732 169.926 150.423 169.926 151.212C169.926 152 169.776 152.69 169.474 153.28C169.176 153.87 168.753 154.329 168.206 154.657C167.659 154.985 167.013 155.149 166.267 155.149ZM166.277 153.707C166.682 153.707 167.02 153.596 167.292 153.374C167.563 153.149 167.766 152.847 167.898 152.469C168.034 152.092 168.102 151.671 168.102 151.207C168.102 150.739 168.034 150.317 167.898 149.939C167.766 149.558 167.563 149.254 167.292 149.029C167.02 148.804 166.682 148.691 166.277 148.691C165.863 148.691 165.518 148.804 165.243 149.029C164.971 149.254 164.768 149.558 164.632 149.939C164.499 150.317 164.433 150.739 164.433 151.207C164.433 151.671 164.499 152.092 164.632 152.469C164.768 152.847 164.971 153.149 165.243 153.374C165.518 153.596 165.863 153.707 166.277 153.707ZM179.451 150.088V151.182H174.996V150.088H179.451ZM188.853 147.364V148.358H184.737V147.364H188.853ZM185.97 155V146.31C185.97 145.872 186.073 145.508 186.278 145.216C186.484 144.924 186.75 144.705 187.078 144.56C187.407 144.414 187.753 144.341 188.118 144.341C188.406 144.341 188.641 144.364 188.824 144.411C189.006 144.457 189.142 144.5 189.231 144.54L188.893 145.554C188.833 145.534 188.751 145.509 188.645 145.479C188.542 145.45 188.406 145.435 188.237 145.435C187.849 145.435 187.569 145.532 187.397 145.728C187.228 145.924 187.143 146.21 187.143 146.588V155H185.97ZM193.286 155.159C192.596 155.159 191.991 154.995 191.471 154.667C190.954 154.339 190.549 153.88 190.258 153.29C189.969 152.7 189.825 152.01 189.825 151.222C189.825 150.426 189.969 149.732 190.258 149.138C190.549 148.545 190.954 148.085 191.471 147.756C191.991 147.428 192.596 147.264 193.286 147.264C193.975 147.264 194.578 147.428 195.095 147.756C195.616 148.085 196.02 148.545 196.308 149.138C196.6 149.732 196.746 150.426 196.746 151.222C196.746 152.01 196.6 152.7 196.308 153.29C196.02 153.88 195.616 154.339 195.095 154.667C194.578 154.995 193.975 155.159 193.286 155.159ZM193.286 154.105C193.809 154.105 194.24 153.971 194.578 153.702C194.916 153.434 195.166 153.081 195.329 152.643C195.491 152.206 195.572 151.732 195.572 151.222C195.572 150.711 195.491 150.236 195.329 149.795C195.166 149.354 194.916 148.998 194.578 148.726C194.24 148.454 193.809 148.318 193.286 148.318C192.762 148.318 192.331 148.454 191.993 148.726C191.655 148.998 191.405 149.354 191.242 149.795C191.08 150.236 190.999 150.711 190.999 151.222C190.999 151.732 191.08 152.206 191.242 152.643C191.405 153.081 191.655 153.434 191.993 153.702C192.331 153.971 192.762 154.105 193.286 154.105ZM198.537 155V147.364H199.67V148.517H199.75C199.889 148.139 200.141 147.833 200.506 147.597C200.87 147.362 201.281 147.244 201.738 147.244C201.825 147.244 201.932 147.246 202.062 147.249C202.191 147.253 202.289 147.258 202.355 147.264V148.457C202.315 148.447 202.224 148.433 202.081 148.413C201.942 148.389 201.795 148.378 201.639 148.378C201.268 148.378 200.936 148.456 200.645 148.612C200.356 148.764 200.128 148.976 199.959 149.248C199.793 149.516 199.71 149.823 199.71 150.168V155H198.537ZM211.004 147.364V148.358H207.047V147.364H211.004ZM208.2 145.534H209.374V152.812C209.374 153.144 209.422 153.393 209.518 153.558C209.617 153.721 209.743 153.83 209.896 153.886C210.051 153.939 210.215 153.966 210.388 153.966C210.517 153.966 210.623 153.959 210.706 153.946C210.789 153.929 210.855 153.916 210.905 153.906L211.143 154.96C211.064 154.99 210.953 155.02 210.81 155.05C210.668 155.083 210.487 155.099 210.268 155.099C209.937 155.099 209.612 155.028 209.294 154.886C208.979 154.743 208.717 154.526 208.509 154.234C208.303 153.943 208.2 153.575 208.2 153.131V145.534ZM214.107 150.406V155H212.933V144.818H214.107V148.557H214.206C214.385 148.162 214.653 147.849 215.011 147.617C215.373 147.382 215.853 147.264 216.453 147.264C216.973 147.264 217.429 147.369 217.82 147.577C218.211 147.783 218.515 148.099 218.73 148.527C218.949 148.951 219.058 149.491 219.058 150.148V155H217.885V150.227C217.885 149.621 217.728 149.152 217.413 148.82C217.101 148.486 216.669 148.318 216.115 148.318C215.731 148.318 215.386 148.399 215.081 148.562C214.779 148.724 214.541 148.961 214.365 149.273C214.193 149.584 214.107 149.962 214.107 150.406ZM224.406 155.159C223.671 155.159 223.036 154.997 222.502 154.672C221.972 154.344 221.563 153.886 221.274 153.3C220.989 152.71 220.847 152.024 220.847 151.241C220.847 150.459 220.989 149.77 221.274 149.173C221.563 148.573 221.964 148.106 222.477 147.771C222.994 147.433 223.598 147.264 224.287 147.264C224.685 147.264 225.078 147.33 225.465 147.463C225.853 147.596 226.206 147.811 226.524 148.109C226.843 148.404 227.096 148.795 227.285 149.283C227.474 149.77 227.568 150.37 227.568 151.082V151.58H221.682V150.565H226.375C226.375 150.134 226.289 149.75 226.117 149.412C225.948 149.074 225.706 148.807 225.391 148.612C225.079 148.416 224.711 148.318 224.287 148.318C223.82 148.318 223.415 148.434 223.074 148.666C222.736 148.895 222.476 149.193 222.294 149.561C222.111 149.929 222.02 150.323 222.02 150.744V151.42C222.02 151.997 222.119 152.486 222.318 152.887C222.521 153.285 222.801 153.588 223.159 153.797C223.517 154.002 223.932 154.105 224.406 154.105C224.715 154.105 224.993 154.062 225.242 153.976C225.494 153.886 225.711 153.754 225.893 153.578C226.075 153.399 226.216 153.177 226.316 152.912L227.449 153.23C227.33 153.615 227.129 153.953 226.847 154.244C226.566 154.533 226.218 154.758 225.803 154.92C225.389 155.08 224.923 155.159 224.406 155.159ZM233.291 157.864V147.364H234.424V148.577H234.563C234.65 148.444 234.769 148.275 234.921 148.07C235.077 147.861 235.299 147.675 235.588 147.513C235.879 147.347 236.274 147.264 236.771 147.264C237.414 147.264 237.981 147.425 238.471 147.746C238.962 148.068 239.344 148.524 239.619 149.114C239.895 149.704 240.032 150.4 240.032 151.202C240.032 152.01 239.895 152.711 239.619 153.305C239.344 153.895 238.963 154.352 238.476 154.677C237.989 154.998 237.427 155.159 236.791 155.159C236.3 155.159 235.907 155.078 235.612 154.915C235.317 154.75 235.09 154.562 234.931 154.354C234.772 154.142 234.65 153.966 234.563 153.827H234.464V157.864H233.291ZM234.444 151.182C234.444 151.759 234.529 152.267 234.698 152.708C234.867 153.146 235.114 153.489 235.438 153.737C235.763 153.982 236.161 154.105 236.632 154.105C237.122 154.105 237.531 153.976 237.86 153.717C238.191 153.455 238.44 153.104 238.605 152.663C238.774 152.219 238.859 151.725 238.859 151.182C238.859 150.645 238.776 150.161 238.61 149.73C238.448 149.296 238.201 148.953 237.869 148.701C237.541 148.446 237.129 148.318 236.632 148.318C236.154 148.318 235.753 148.439 235.428 148.681C235.104 148.92 234.858 149.254 234.693 149.685C234.527 150.113 234.444 150.612 234.444 151.182ZM245.024 155.159C244.288 155.159 243.653 154.997 243.119 154.672C242.589 154.344 242.18 153.886 241.892 153.3C241.606 152.71 241.464 152.024 241.464 151.241C241.464 150.459 241.606 149.77 241.892 149.173C242.18 148.573 242.581 148.106 243.095 147.771C243.612 147.433 244.215 147.264 244.904 147.264C245.302 147.264 245.695 147.33 246.083 147.463C246.47 147.596 246.823 147.811 247.142 148.109C247.46 148.404 247.713 148.795 247.902 149.283C248.091 149.77 248.186 150.37 248.186 151.082V151.58H242.299V150.565H246.992C246.992 150.134 246.906 149.75 246.734 149.412C246.565 149.074 246.323 148.807 246.008 148.612C245.696 148.416 245.329 148.318 244.904 148.318C244.437 148.318 244.033 148.434 243.691 148.666C243.353 148.895 243.093 149.193 242.911 149.561C242.728 149.929 242.637 150.323 242.637 150.744V151.42C242.637 151.997 242.737 152.486 242.936 152.887C243.138 153.285 243.418 153.588 243.776 153.797C244.134 154.002 244.55 154.105 245.024 154.105C245.332 154.105 245.61 154.062 245.859 153.976C246.111 153.886 246.328 153.754 246.51 153.578C246.692 153.399 246.833 153.177 246.933 152.912L248.066 153.23C247.947 153.615 247.746 153.953 247.465 154.244C247.183 154.533 246.835 154.758 246.421 154.92C246.006 155.08 245.541 155.159 245.024 155.159ZM253.073 155.159C252.383 155.159 251.778 154.995 251.258 154.667C250.741 154.339 250.337 153.88 250.045 153.29C249.757 152.7 249.612 152.01 249.612 151.222C249.612 150.426 249.757 149.732 250.045 149.138C250.337 148.545 250.741 148.085 251.258 147.756C251.778 147.428 252.383 147.264 253.073 147.264C253.762 147.264 254.365 147.428 254.882 147.756C255.403 148.085 255.807 148.545 256.095 149.138C256.387 149.732 256.533 150.426 256.533 151.222C256.533 152.01 256.387 152.7 256.095 153.29C255.807 153.88 255.403 154.339 254.882 154.667C254.365 154.995 253.762 155.159 253.073 155.159ZM253.073 154.105C253.596 154.105 254.027 153.971 254.365 153.702C254.703 153.434 254.954 153.081 255.116 152.643C255.278 152.206 255.36 151.732 255.36 151.222C255.36 150.711 255.278 150.236 255.116 149.795C254.954 149.354 254.703 148.998 254.365 148.726C254.027 148.454 253.596 148.318 253.073 148.318C252.549 148.318 252.118 148.454 251.78 148.726C251.442 148.998 251.192 149.354 251.029 149.795C250.867 150.236 250.786 150.711 250.786 151.222C250.786 151.732 250.867 152.206 251.029 152.643C251.192 153.081 251.442 153.434 251.78 153.702C252.118 153.971 252.549 154.105 253.073 154.105ZM258.324 157.864V147.364H259.457V148.577H259.597C259.683 148.444 259.802 148.275 259.955 148.07C260.11 147.861 260.332 147.675 260.621 147.513C260.912 147.347 261.307 147.264 261.804 147.264C262.447 147.264 263.014 147.425 263.504 147.746C263.995 148.068 264.378 148.524 264.653 149.114C264.928 149.704 265.065 150.4 265.065 151.202C265.065 152.01 264.928 152.711 264.653 153.305C264.378 153.895 263.996 154.352 263.509 154.677C263.022 154.998 262.46 155.159 261.824 155.159C261.333 155.159 260.941 155.078 260.646 154.915C260.351 154.75 260.124 154.562 259.964 154.354C259.805 154.142 259.683 153.966 259.597 153.827H259.497V157.864H258.324ZM259.477 151.182C259.477 151.759 259.562 152.267 259.731 152.708C259.9 153.146 260.147 153.489 260.472 153.737C260.796 153.982 261.194 154.105 261.665 154.105C262.155 154.105 262.565 153.976 262.893 153.717C263.224 153.455 263.473 153.104 263.638 152.663C263.808 152.219 263.892 151.725 263.892 151.182C263.892 150.645 263.809 150.161 263.643 149.73C263.481 149.296 263.234 148.953 262.903 148.701C262.575 148.446 262.162 148.318 261.665 148.318C261.188 148.318 260.786 148.439 260.462 148.681C260.137 148.92 259.892 149.254 259.726 149.685C259.56 150.113 259.477 150.612 259.477 151.182ZM268.028 144.818V155H266.855V144.818H268.028ZM273.379 155.159C272.643 155.159 272.009 154.997 271.475 154.672C270.945 154.344 270.535 153.886 270.247 153.3C269.962 152.71 269.819 152.024 269.819 151.241C269.819 150.459 269.962 149.77 270.247 149.173C270.535 148.573 270.936 148.106 271.45 147.771C271.967 147.433 272.57 147.264 273.26 147.264C273.657 147.264 274.05 147.33 274.438 147.463C274.826 147.596 275.179 147.811 275.497 148.109C275.815 148.404 276.069 148.795 276.258 149.283C276.447 149.77 276.541 150.37 276.541 151.082V151.58H270.655V150.565H275.348C275.348 150.134 275.262 149.75 275.089 149.412C274.92 149.074 274.678 148.807 274.363 148.612C274.052 148.416 273.684 148.318 273.26 148.318C272.792 148.318 272.388 148.434 272.047 148.666C271.709 148.895 271.448 149.193 271.266 149.561C271.084 149.929 270.993 150.323 270.993 150.744V151.42C270.993 151.997 271.092 152.486 271.291 152.887C271.493 153.285 271.773 153.588 272.131 153.797C272.489 154.002 272.905 154.105 273.379 154.105C273.687 154.105 273.966 154.062 274.214 153.976C274.466 153.886 274.683 153.754 274.866 153.578C275.048 153.399 275.189 153.177 275.288 152.912L276.422 153.23C276.302 153.615 276.102 153.953 275.82 154.244C275.538 154.533 275.19 154.758 274.776 154.92C274.362 155.08 273.896 155.159 273.379 155.159ZM279.181 155.08C278.936 155.08 278.725 154.992 278.55 154.816C278.374 154.64 278.286 154.43 278.286 154.185C278.286 153.939 278.374 153.729 278.55 153.553C278.725 153.378 278.936 153.29 279.181 153.29C279.426 153.29 279.637 153.378 279.812 153.553C279.988 153.729 280.076 153.939 280.076 154.185C280.076 154.347 280.034 154.496 279.952 154.632C279.872 154.768 279.764 154.877 279.628 154.96C279.496 155.04 279.347 155.08 279.181 155.08Z" fill="#475467"/>
<g clip-path="url(#clip1_246_14588)">
<path d="M28 192C28 185.373 33.3726 180 40 180H60C66.6274 180 72 185.373 72 192C72 198.627 66.6274 204 60 204H40C33.3726 204 28 198.627 28 192Z" fill="#101828"/>
<g filter="url(#filter1_dd_246_14588)">
<path d="M50 192C50 186.477 54.4772 182 60 182C65.5228 182 70 186.477 70 192C70 197.523 65.5228 202 60 202C54.4772 202 50 197.523 50 192Z" fill="white"/>
</g>
</g>
<path d="M81.2784 198V186.364H83.0341V191.42H88.8352V186.364H90.5966V198H88.8352V192.926H83.0341V198H81.2784ZM93.017 198V189.273H94.7159V198H93.017ZM93.875 187.926C93.5795 187.926 93.3258 187.828 93.1136 187.631C92.9053 187.43 92.8011 187.191 92.8011 186.915C92.8011 186.634 92.9053 186.396 93.1136 186.199C93.3258 185.998 93.5795 185.898 93.875 185.898C94.1705 185.898 94.4223 185.998 94.6307 186.199C94.8428 186.396 94.9489 186.634 94.9489 186.915C94.9489 187.191 94.8428 187.43 94.6307 187.631C94.4223 187.828 94.1705 187.926 93.875 187.926ZM98.7003 192.818V198H97.0014V189.273H98.6321V190.693H98.7401C98.9408 190.231 99.2552 189.86 99.6832 189.58C100.115 189.299 100.659 189.159 101.314 189.159C101.909 189.159 102.429 189.284 102.876 189.534C103.323 189.78 103.67 190.148 103.916 190.636C104.162 191.125 104.286 191.729 104.286 192.449V198H102.587V192.653C102.587 192.021 102.422 191.527 102.092 191.17C101.763 190.811 101.31 190.631 100.734 190.631C100.34 190.631 99.9901 190.716 99.6832 190.886C99.3802 191.057 99.1397 191.307 98.9616 191.636C98.7874 191.962 98.7003 192.356 98.7003 192.818ZM109.831 198.17C109.126 198.17 108.498 197.991 107.945 197.631C107.395 197.267 106.964 196.75 106.649 196.08C106.339 195.405 106.183 194.597 106.183 193.653C106.183 192.71 106.34 191.903 106.655 191.233C106.973 190.562 107.409 190.049 107.962 189.693C108.515 189.337 109.142 189.159 109.842 189.159C110.384 189.159 110.82 189.25 111.149 189.432C111.482 189.61 111.74 189.818 111.922 190.057C112.107 190.295 112.251 190.506 112.354 190.688H112.456V186.364H114.155V198H112.496V196.642H112.354C112.251 196.828 112.104 197.04 111.911 197.278C111.721 197.517 111.46 197.725 111.126 197.903C110.793 198.081 110.361 198.17 109.831 198.17ZM110.206 196.722C110.695 196.722 111.107 196.593 111.445 196.335C111.786 196.074 112.043 195.712 112.217 195.25C112.395 194.788 112.484 194.25 112.484 193.636C112.484 193.03 112.397 192.5 112.223 192.045C112.049 191.591 111.793 191.237 111.456 190.983C111.119 190.729 110.702 190.602 110.206 190.602C109.695 190.602 109.268 190.735 108.928 191C108.587 191.265 108.329 191.627 108.155 192.085C107.984 192.544 107.899 193.061 107.899 193.636C107.899 194.22 107.986 194.744 108.161 195.21C108.335 195.676 108.592 196.045 108.933 196.318C109.278 196.587 109.702 196.722 110.206 196.722ZM116.58 198V189.273H118.278V198H116.58ZM117.438 187.926C117.142 187.926 116.888 187.828 116.676 187.631C116.468 187.43 116.364 187.191 116.364 186.915C116.364 186.634 116.468 186.396 116.676 186.199C116.888 185.998 117.142 185.898 117.438 185.898C117.733 185.898 117.985 185.998 118.193 186.199C118.405 186.396 118.511 186.634 118.511 186.915C118.511 187.191 118.405 187.43 118.193 187.631C117.985 187.828 117.733 187.926 117.438 187.926Z" fill="#344054"/>
<g clip-path="url(#clip2_246_14588)">
<path d="M28 228C28 221.373 33.3726 216 40 216H60C66.6274 216 72 221.373 72 228C72 234.627 66.6274 240 60 240H40C33.3726 240 28 234.627 28 228Z" fill="#F2F4F7"/>
<g filter="url(#filter2_dd_246_14588)">
<path d="M30 228C30 222.477 34.4772 218 40 218C45.5228 218 50 222.477 50 228C50 233.523 45.5228 238 40 238C34.4772 238 30 233.523 30 228Z" fill="white"/>
</g>
</g>
<path d="M80.7045 223.875V222.364H89.7102V223.875H86.0795V234H84.3295V223.875H80.7045ZM92.9162 234.193C92.3632 234.193 91.8632 234.091 91.4162 233.886C90.9692 233.678 90.6151 233.377 90.3537 232.983C90.0961 232.589 89.9673 232.106 89.9673 231.534C89.9673 231.042 90.062 230.636 90.2514 230.318C90.4408 230 90.6965 229.748 91.0185 229.562C91.3404 229.377 91.7003 229.237 92.098 229.142C92.4957 229.047 92.901 228.975 93.3139 228.926C93.8366 228.866 94.2609 228.816 94.5866 228.778C94.9124 228.737 95.1491 228.67 95.2969 228.58C95.4446 228.489 95.5185 228.341 95.5185 228.136V228.097C95.5185 227.6 95.3783 227.216 95.098 226.943C94.8215 226.67 94.4086 226.534 93.8594 226.534C93.2874 226.534 92.8366 226.661 92.5071 226.915C92.1813 227.165 91.956 227.443 91.831 227.75L90.2344 227.386C90.4238 226.856 90.7003 226.428 91.0639 226.102C91.4313 225.773 91.8537 225.534 92.331 225.386C92.8082 225.235 93.3101 225.159 93.8366 225.159C94.1851 225.159 94.5545 225.201 94.9446 225.284C95.3385 225.364 95.706 225.511 96.0469 225.727C96.3916 225.943 96.6738 226.252 96.8935 226.653C97.1132 227.051 97.223 227.568 97.223 228.205V234H95.5639V232.807H95.4957C95.3859 233.027 95.2211 233.242 95.0014 233.455C94.7817 233.667 94.4995 233.843 94.1548 233.983C93.8101 234.123 93.3973 234.193 92.9162 234.193ZM93.2855 232.83C93.7552 232.83 94.1567 232.737 94.4901 232.551C94.8272 232.366 95.0829 232.123 95.2571 231.824C95.4351 231.521 95.5241 231.197 95.5241 230.852V229.727C95.4635 229.788 95.3461 229.845 95.1719 229.898C95.0014 229.947 94.8063 229.991 94.5866 230.028C94.367 230.062 94.1529 230.095 93.9446 230.125C93.7363 230.152 93.562 230.174 93.4219 230.193C93.0923 230.235 92.7912 230.305 92.5185 230.403C92.2495 230.502 92.0336 230.644 91.8707 230.83C91.7116 231.011 91.6321 231.254 91.6321 231.557C91.6321 231.977 91.7874 232.295 92.098 232.511C92.4086 232.723 92.8045 232.83 93.2855 232.83ZM99.4858 234V225.273H101.116V226.693H101.224C101.406 226.212 101.704 225.837 102.116 225.568C102.529 225.295 103.024 225.159 103.599 225.159C104.183 225.159 104.671 225.295 105.065 225.568C105.463 225.841 105.757 226.216 105.946 226.693H106.037C106.245 226.227 106.577 225.856 107.031 225.58C107.486 225.299 108.027 225.159 108.656 225.159C109.448 225.159 110.094 225.407 110.594 225.903C111.098 226.4 111.349 227.148 111.349 228.148V234H109.651V228.307C109.651 227.716 109.49 227.288 109.168 227.023C108.846 226.758 108.461 226.625 108.014 226.625C107.461 226.625 107.031 226.795 106.724 227.136C106.418 227.473 106.264 227.907 106.264 228.438V234H104.571V228.199C104.571 227.725 104.423 227.345 104.128 227.057C103.832 226.769 103.448 226.625 102.974 226.625C102.652 226.625 102.355 226.71 102.082 226.881C101.813 227.047 101.596 227.28 101.429 227.58C101.266 227.879 101.185 228.225 101.185 228.619V234H99.4858ZM113.626 234V225.273H115.325V234H113.626ZM114.484 223.926C114.189 223.926 113.935 223.828 113.723 223.631C113.515 223.43 113.411 223.191 113.411 222.915C113.411 222.634 113.515 222.396 113.723 222.199C113.935 221.998 114.189 221.898 114.484 221.898C114.78 221.898 115.032 221.998 115.24 222.199C115.452 222.396 115.558 222.634 115.558 222.915C115.558 223.191 115.452 223.43 115.24 223.631C115.032 223.828 114.78 223.926 114.484 223.926ZM119.31 222.364V234H117.611V222.364H119.31Z" fill="#344054"/>
<g clip-path="url(#clip3_246_14588)">
<path d="M182 192C182 185.373 187.373 180 194 180H214C220.627 180 226 185.373 226 192C226 198.627 220.627 204 214 204H194C187.373 204 182 198.627 182 192Z" fill="#F2F4F7"/>
<g filter="url(#filter3_dd_246_14588)">
<path d="M184 192C184 186.477 188.477 182 194 182C199.523 182 204 186.477 204 192C204 197.523 199.523 202 194 202C188.477 202 184 197.523 184 192Z" fill="white"/>
</g>
</g>
<path d="M235.278 198V186.364H242.574V187.875H237.034V191.42H242.193V192.926H237.034V196.489H242.642V198H235.278ZM246.482 192.818V198H244.783V189.273H246.413V190.693H246.521C246.722 190.231 247.036 189.86 247.464 189.58C247.896 189.299 248.44 189.159 249.095 189.159C249.69 189.159 250.211 189.284 250.658 189.534C251.105 189.78 251.451 190.148 251.697 190.636C251.944 191.125 252.067 191.729 252.067 192.449V198H250.368V192.653C250.368 192.021 250.203 191.527 249.874 191.17C249.544 190.811 249.091 190.631 248.516 190.631C248.122 190.631 247.771 190.716 247.464 190.886C247.161 191.057 246.921 191.307 246.743 191.636C246.569 191.962 246.482 192.356 246.482 192.818ZM258.004 201.455C257.311 201.455 256.714 201.364 256.214 201.182C255.718 201 255.313 200.759 254.999 200.46C254.684 200.161 254.449 199.833 254.294 199.477L255.754 198.875C255.857 199.042 255.993 199.218 256.163 199.403C256.338 199.593 256.572 199.754 256.868 199.886C257.167 200.019 257.552 200.085 258.021 200.085C258.665 200.085 259.197 199.928 259.618 199.614C260.038 199.303 260.249 198.807 260.249 198.125V196.409H260.141C260.038 196.595 259.891 196.801 259.697 197.028C259.508 197.256 259.247 197.453 258.913 197.619C258.58 197.786 258.146 197.869 257.612 197.869C256.923 197.869 256.302 197.708 255.749 197.386C255.199 197.061 254.764 196.581 254.442 195.949C254.124 195.312 253.964 194.53 253.964 193.602C253.964 192.674 254.122 191.879 254.436 191.216C254.754 190.553 255.19 190.045 255.743 189.693C256.296 189.337 256.923 189.159 257.624 189.159C258.165 189.159 258.603 189.25 258.936 189.432C259.269 189.61 259.529 189.818 259.714 190.057C259.904 190.295 260.05 190.506 260.152 190.688H260.277V189.273H261.942V198.193C261.942 198.943 261.768 199.559 261.419 200.04C261.071 200.521 260.599 200.877 260.004 201.108C259.413 201.339 258.747 201.455 258.004 201.455ZM257.987 196.46C258.476 196.46 258.889 196.347 259.226 196.119C259.567 195.888 259.824 195.559 259.999 195.131C260.177 194.699 260.266 194.182 260.266 193.58C260.266 192.992 260.179 192.475 260.004 192.028C259.83 191.581 259.574 191.233 259.237 190.983C258.9 190.729 258.483 190.602 257.987 190.602C257.476 190.602 257.05 190.735 256.709 191C256.368 191.261 256.11 191.617 255.936 192.068C255.766 192.519 255.68 193.023 255.68 193.58C255.68 194.152 255.768 194.653 255.942 195.085C256.116 195.517 256.374 195.854 256.714 196.097C257.059 196.339 257.483 196.46 257.987 196.46ZM265.919 186.364V198H264.22V186.364H265.919ZM268.205 198V189.273H269.903V198H268.205ZM269.062 187.926C268.767 187.926 268.513 187.828 268.301 187.631C268.093 187.43 267.989 187.191 267.989 186.915C267.989 186.634 268.093 186.396 268.301 186.199C268.513 185.998 268.767 185.898 269.062 185.898C269.358 185.898 269.61 185.998 269.818 186.199C270.03 186.396 270.136 186.634 270.136 186.915C270.136 187.191 270.03 187.43 269.818 187.631C269.61 187.828 269.358 187.926 269.062 187.926ZM278.729 191.403L277.189 191.676C277.125 191.479 277.022 191.292 276.882 191.114C276.746 190.936 276.56 190.79 276.325 190.676C276.09 190.562 275.797 190.506 275.445 190.506C274.964 190.506 274.562 190.614 274.24 190.83C273.918 191.042 273.757 191.316 273.757 191.653C273.757 191.945 273.865 192.18 274.081 192.358C274.297 192.536 274.645 192.682 275.126 192.795L276.513 193.114C277.316 193.299 277.914 193.585 278.308 193.972C278.702 194.358 278.899 194.86 278.899 195.477C278.899 196 278.748 196.466 278.445 196.875C278.145 197.28 277.727 197.598 277.189 197.83C276.655 198.061 276.036 198.176 275.331 198.176C274.354 198.176 273.556 197.968 272.939 197.551C272.321 197.131 271.943 196.534 271.803 195.761L273.445 195.511C273.547 195.939 273.757 196.263 274.075 196.483C274.393 196.699 274.808 196.807 275.32 196.807C275.876 196.807 276.321 196.691 276.655 196.46C276.988 196.225 277.155 195.939 277.155 195.602C277.155 195.33 277.053 195.1 276.848 194.915C276.647 194.729 276.339 194.589 275.922 194.494L274.445 194.17C273.63 193.985 273.028 193.689 272.638 193.284C272.251 192.879 272.058 192.366 272.058 191.744C272.058 191.229 272.202 190.778 272.49 190.392C272.778 190.006 273.176 189.705 273.683 189.489C274.191 189.269 274.772 189.159 275.428 189.159C276.371 189.159 277.113 189.364 277.655 189.773C278.196 190.178 278.554 190.722 278.729 191.403ZM282.466 192.818V198H280.767V186.364H282.443V190.693H282.551C282.756 190.223 283.068 189.85 283.489 189.574C283.909 189.297 284.458 189.159 285.136 189.159C285.735 189.159 286.258 189.282 286.705 189.528C287.155 189.775 287.504 190.142 287.75 190.631C288 191.116 288.125 191.722 288.125 192.449V198H286.426V192.653C286.426 192.013 286.261 191.517 285.932 191.165C285.602 190.809 285.144 190.631 284.557 190.631C284.155 190.631 283.795 190.716 283.477 190.886C283.163 191.057 282.915 191.307 282.733 191.636C282.555 191.962 282.466 192.356 282.466 192.818Z" fill="#344054"/>
<g clip-path="url(#clip4_246_14588)">
<path d="M182 228C182 221.373 187.373 216 194 216H214C220.627 216 226 221.373 226 228C226 234.627 220.627 240 214 240H194C187.373 240 182 234.627 182 228Z" fill="#F2F4F7"/>
<g filter="url(#filter4_dd_246_14588)">
<path d="M184 228C184 222.477 188.477 218 194 218C199.523 218 204 222.477 204 228C204 233.523 199.523 238 194 238C188.477 238 184 233.523 184 228Z" fill="white"/>
</g>
</g>
<path d="M235.278 222.364H237.409L241.114 231.409H241.25L244.955 222.364H247.085V234H245.415V225.58H245.307L241.875 233.983H240.489L237.057 225.574H236.949V234H235.278V222.364ZM252.041 234.193C251.488 234.193 250.988 234.091 250.541 233.886C250.094 233.678 249.74 233.377 249.479 232.983C249.221 232.589 249.092 232.106 249.092 231.534C249.092 231.042 249.187 230.636 249.376 230.318C249.566 230 249.821 229.748 250.143 229.562C250.465 229.377 250.825 229.237 251.223 229.142C251.621 229.047 252.026 228.975 252.439 228.926C252.962 228.866 253.386 228.816 253.712 228.778C254.037 228.737 254.274 228.67 254.422 228.58C254.57 228.489 254.643 228.341 254.643 228.136V228.097C254.643 227.6 254.503 227.216 254.223 226.943C253.946 226.67 253.534 226.534 252.984 226.534C252.412 226.534 251.962 226.661 251.632 226.915C251.306 227.165 251.081 227.443 250.956 227.75L249.359 227.386C249.549 226.856 249.825 226.428 250.189 226.102C250.556 225.773 250.979 225.534 251.456 225.386C251.933 225.235 252.435 225.159 252.962 225.159C253.31 225.159 253.679 225.201 254.07 225.284C254.464 225.364 254.831 225.511 255.172 225.727C255.517 225.943 255.799 226.252 256.018 226.653C256.238 227.051 256.348 227.568 256.348 228.205V234H254.689V232.807H254.621C254.511 233.027 254.346 233.242 254.126 233.455C253.907 233.667 253.625 233.843 253.28 233.983C252.935 234.123 252.522 234.193 252.041 234.193ZM252.411 232.83C252.88 232.83 253.282 232.737 253.615 232.551C253.952 232.366 254.208 232.123 254.382 231.824C254.56 231.521 254.649 231.197 254.649 230.852V229.727C254.589 229.788 254.471 229.845 254.297 229.898C254.126 229.947 253.931 229.991 253.712 230.028C253.492 230.062 253.278 230.095 253.07 230.125C252.861 230.152 252.687 230.174 252.547 230.193C252.217 230.235 251.916 230.305 251.643 230.403C251.375 230.502 251.159 230.644 250.996 230.83C250.837 231.011 250.757 231.254 250.757 231.557C250.757 231.977 250.912 232.295 251.223 232.511C251.534 232.723 251.929 232.83 252.411 232.83ZM258.611 234V225.273H260.253V226.659H260.344C260.503 226.189 260.783 225.82 261.185 225.551C261.59 225.278 262.048 225.142 262.56 225.142C262.666 225.142 262.791 225.146 262.935 225.153C263.082 225.161 263.198 225.17 263.281 225.182V226.807C263.213 226.788 263.092 226.767 262.918 226.744C262.743 226.718 262.569 226.705 262.395 226.705C261.993 226.705 261.635 226.79 261.321 226.96C261.01 227.127 260.764 227.36 260.582 227.659C260.401 227.955 260.31 228.292 260.31 228.67V234H258.611ZM267.213 234.193C266.66 234.193 266.16 234.091 265.713 233.886C265.266 233.678 264.912 233.377 264.651 232.983C264.393 232.589 264.264 232.106 264.264 231.534C264.264 231.042 264.359 230.636 264.548 230.318C264.738 230 264.993 229.748 265.315 229.562C265.637 229.377 265.997 229.237 266.395 229.142C266.793 229.047 267.198 228.975 267.611 228.926C268.134 228.866 268.558 228.816 268.884 228.778C269.209 228.737 269.446 228.67 269.594 228.58C269.741 228.489 269.815 228.341 269.815 228.136V228.097C269.815 227.6 269.675 227.216 269.395 226.943C269.118 226.67 268.705 226.534 268.156 226.534C267.584 226.534 267.134 226.661 266.804 226.915C266.478 227.165 266.253 227.443 266.128 227.75L264.531 227.386C264.721 226.856 264.997 226.428 265.361 226.102C265.728 225.773 266.151 225.534 266.628 225.386C267.105 225.235 267.607 225.159 268.134 225.159C268.482 225.159 268.851 225.201 269.241 225.284C269.635 225.364 270.003 225.511 270.344 225.727C270.688 225.943 270.971 226.252 271.19 226.653C271.41 227.051 271.52 227.568 271.52 228.205V234H269.861V232.807H269.793C269.683 233.027 269.518 233.242 269.298 233.455C269.079 233.667 268.796 233.843 268.452 233.983C268.107 234.123 267.694 234.193 267.213 234.193ZM267.582 232.83C268.052 232.83 268.454 232.737 268.787 232.551C269.124 232.366 269.38 232.123 269.554 231.824C269.732 231.521 269.821 231.197 269.821 230.852V229.727C269.76 229.788 269.643 229.845 269.469 229.898C269.298 229.947 269.103 229.991 268.884 230.028C268.664 230.062 268.45 230.095 268.241 230.125C268.033 230.152 267.859 230.174 267.719 230.193C267.389 230.235 267.088 230.305 266.815 230.403C266.546 230.502 266.33 230.644 266.168 230.83C266.009 231.011 265.929 231.254 265.929 231.557C265.929 231.977 266.084 232.295 266.395 232.511C266.705 232.723 267.101 232.83 267.582 232.83ZM277.857 225.273V226.636H273.089V225.273H277.857ZM274.368 223.182H276.067V231.438C276.067 231.767 276.116 232.015 276.214 232.182C276.313 232.345 276.44 232.456 276.595 232.517C276.754 232.574 276.927 232.602 277.112 232.602C277.249 232.602 277.368 232.593 277.47 232.574C277.572 232.555 277.652 232.54 277.709 232.528L278.016 233.932C277.917 233.97 277.777 234.008 277.595 234.045C277.413 234.087 277.186 234.11 276.913 234.114C276.466 234.121 276.05 234.042 275.663 233.875C275.277 233.708 274.964 233.451 274.726 233.102C274.487 232.754 274.368 232.316 274.368 231.79V223.182ZM281.622 228.818V234H279.923V222.364H281.599V226.693H281.707C281.912 226.223 282.224 225.85 282.645 225.574C283.065 225.297 283.615 225.159 284.293 225.159C284.891 225.159 285.414 225.282 285.861 225.528C286.312 225.775 286.66 226.142 286.906 226.631C287.156 227.116 287.281 227.722 287.281 228.449V234H285.582V228.653C285.582 228.013 285.418 227.517 285.088 227.165C284.759 226.809 284.3 226.631 283.713 226.631C283.312 226.631 282.952 226.716 282.634 226.886C282.319 227.057 282.071 227.307 281.889 227.636C281.711 227.962 281.622 228.356 281.622 228.818ZM289.548 234V225.273H291.247V234H289.548ZM290.406 223.926C290.111 223.926 289.857 223.828 289.645 223.631C289.437 223.43 289.332 223.191 289.332 222.915C289.332 222.634 289.437 222.396 289.645 222.199C289.857 221.998 290.111 221.898 290.406 221.898C290.702 221.898 290.954 221.998 291.162 222.199C291.374 222.396 291.48 222.634 291.48 222.915C291.48 223.191 291.374 223.43 291.162 223.631C290.954 223.828 290.702 223.926 290.406 223.926Z" fill="#344054"/>
</g>
<path d="M4.5 12C4.5 5.64873 9.64873 0.5 16 0.5H306C312.351 0.5 317.5 5.64873 317.5 12V252C317.5 258.351 312.351 263.5 306 263.5H16C9.64874 263.5 4.5 258.351 4.5 252V12Z" stroke="#E4E7EC"/>
</g>
<defs>
<filter id="filter0_d_246_14588" x="0" y="0" width="322" height="276" filterUnits="userSpaceOnUse" color-interpolation-filters="sRGB">
<feFlood flood-opacity="0" result="BackgroundImageFix"/>
<feColorMatrix in="SourceAlpha" type="matrix" values="0 0 0 0 0 0 0 0 0 0 0 0 0 0 0 0 0 0 127 0" result="hardAlpha"/>
<feMorphology radius="4" operator="erode" in="SourceAlpha" result="effect1_dropShadow_246_14588"/>
<feOffset dy="8"/>
<feGaussianBlur stdDeviation="4"/>
<feComposite in2="hardAlpha" operator="out"/>
<feColorMatrix type="matrix" values="0 0 0 0 0.0627451 0 0 0 0 0.0941176 0 0 0 0 0.156863 0 0 0 0.03 0"/>
<feBlend mode="normal" in2="BackgroundImageFix" result="effect1_dropShadow_246_14588"/>
<feBlend mode="normal" in="SourceGraphic" in2="effect1_dropShadow_246_14588" result="shape"/>
</filter>
<filter id="filter1_dd_246_14588" x="47" y="180" width="26" height="26" filterUnits="userSpaceOnUse" color-interpolation-filters="sRGB">
<feFlood flood-opacity="0" result="BackgroundImageFix"/>
<feColorMatrix in="SourceAlpha" type="matrix" values="0 0 0 0 0 0 0 0 0 0 0 0 0 0 0 0 0 0 127 0" result="hardAlpha"/>
<feOffset dy="1"/>
<feGaussianBlur stdDeviation="1"/>
<feComposite in2="hardAlpha" operator="out"/>
<feColorMatrix type="matrix" values="0 0 0 0 0.0627451 0 0 0 0 0.0941176 0 0 0 0 0.156863 0 0 0 0.06 0"/>
<feBlend mode="normal" in2="BackgroundImageFix" result="effect1_dropShadow_246_14588"/>
<feColorMatrix in="SourceAlpha" type="matrix" values="0 0 0 0 0 0 0 0 0 0 0 0 0 0 0 0 0 0 127 0" result="hardAlpha"/>
<feOffset dy="1"/>
<feGaussianBlur stdDeviation="1.5"/>
<feComposite in2="hardAlpha" operator="out"/>
<feColorMatrix type="matrix" values="0 0 0 0 0.0627451 0 0 0 0 0.0941176 0 0 0 0 0.156863 0 0 0 0.1 0"/>
<feBlend mode="normal" in2="effect1_dropShadow_246_14588" result="effect2_dropShadow_246_14588"/>
<feBlend mode="normal" in="SourceGraphic" in2="effect2_dropShadow_246_14588" result="shape"/>
</filter>
<filter id="filter2_dd_246_14588" x="27" y="216" width="26" height="26" filterUnits="userSpaceOnUse" color-interpolation-filters="sRGB">
<feFlood flood-opacity="0" result="BackgroundImageFix"/>
<feColorMatrix in="SourceAlpha" type="matrix" values="0 0 0 0 0 0 0 0 0 0 0 0 0 0 0 0 0 0 127 0" result="hardAlpha"/>
<feOffset dy="1"/>
<feGaussianBlur stdDeviation="1"/>
<feComposite in2="hardAlpha" operator="out"/>
<feColorMatrix type="matrix" values="0 0 0 0 0.0627451 0 0 0 0 0.0941176 0 0 0 0 0.156863 0 0 0 0.06 0"/>
<feBlend mode="normal" in2="BackgroundImageFix" result="effect1_dropShadow_246_14588"/>
<feColorMatrix in="SourceAlpha" type="matrix" values="0 0 0 0 0 0 0 0 0 0 0 0 0 0 0 0 0 0 127 0" result="hardAlpha"/>
<feOffset dy="1"/>
<feGaussianBlur stdDeviation="1.5"/>
<feComposite in2="hardAlpha" operator="out"/>
<feColorMatrix type="matrix" values="0 0 0 0 0.0627451 0 0 0 0 0.0941176 0 0 0 0 0.156863 0 0 0 0.1 0"/>
<feBlend mode="normal" in2="effect1_dropShadow_246_14588" result="effect2_dropShadow_246_14588"/>
<feBlend mode="normal" in="SourceGraphic" in2="effect2_dropShadow_246_14588" result="shape"/>
</filter>
<filter id="filter3_dd_246_14588" x="181" y="180" width="26" height="26" filterUnits="userSpaceOnUse" color-interpolation-filters="sRGB">
<feFlood flood-opacity="0" result="BackgroundImageFix"/>
<feColorMatrix in="SourceAlpha" type="matrix" values="0 0 0 0 0 0 0 0 0 0 0 0 0 0 0 0 0 0 127 0" result="hardAlpha"/>
<feOffset dy="1"/>
<feGaussianBlur stdDeviation="1"/>
<feComposite in2="hardAlpha" operator="out"/>
<feColorMatrix type="matrix" values="0 0 0 0 0.0627451 0 0 0 0 0.0941176 0 0 0 0 0.156863 0 0 0 0.06 0"/>
<feBlend mode="normal" in2="BackgroundImageFix" result="effect1_dropShadow_246_14588"/>
<feColorMatrix in="SourceAlpha" type="matrix" values="0 0 0 0 0 0 0 0 0 0 0 0 0 0 0 0 0 0 127 0" result="hardAlpha"/>
<feOffset dy="1"/>
<feGaussianBlur stdDeviation="1.5"/>
<feComposite in2="hardAlpha" operator="out"/>
<feColorMatrix type="matrix" values="0 0 0 0 0.0627451 0 0 0 0 0.0941176 0 0 0 0 0.156863 0 0 0 0.1 0"/>
<feBlend mode="normal" in2="effect1_dropShadow_246_14588" result="effect2_dropShadow_246_14588"/>
<feBlend mode="normal" in="SourceGraphic" in2="effect2_dropShadow_246_14588" result="shape"/>
</filter>
<filter id="filter4_dd_246_14588" x="181" y="216" width="26" height="26" filterUnits="userSpaceOnUse" color-interpolation-filters="sRGB">
<feFlood flood-opacity="0" result="BackgroundImageFix"/>
<feColorMatrix in="SourceAlpha" type="matrix" values="0 0 0 0 0 0 0 0 0 0 0 0 0 0 0 0 0 0 127 0" result="hardAlpha"/>
<feOffset dy="1"/>
<feGaussianBlur stdDeviation="1"/>
<feComposite in2="hardAlpha" operator="out"/>
<feColorMatrix type="matrix" values="0 0 0 0 0.0627451 0 0 0 0 0.0941176 0 0 0 0 0.156863 0 0 0 0.06 0"/>
<feBlend mode="normal" in2="BackgroundImageFix" result="effect1_dropShadow_246_14588"/>
<feColorMatrix in="SourceAlpha" type="matrix" values="0 0 0 0 0 0 0 0 0 0 0 0 0 0 0 0 0 0 127 0" result="hardAlpha"/>
<feOffset dy="1"/>
<feGaussianBlur stdDeviation="1.5"/>
<feComposite in2="hardAlpha" operator="out"/>
<feColorMatrix type="matrix" values="0 0 0 0 0.0627451 0 0 0 0 0.0941176 0 0 0 0 0.156863 0 0 0 0.1 0"/>
<feBlend mode="normal" in2="effect1_dropShadow_246_14588" result="effect2_dropShadow_246_14588"/>
<feBlend mode="normal" in="SourceGraphic" in2="effect2_dropShadow_246_14588" result="shape"/>
</filter>
<radialGradient id="paint0_radial_246_14588" cx="0" cy="0" r="1" gradientUnits="userSpaceOnUse" gradientTransform="translate(168 168) rotate(90) scale(168 168)">
<stop/>
<stop offset="1" stop-opacity="0"/>
</radialGradient>
<clipPath id="clip0_246_14588">
<path d="M4 12C4 5.37259 9.37258 0 16 0H306C312.627 0 318 5.37258 318 12V252C318 258.627 312.627 264 306 264H16C9.37259 264 4 258.627 4 252V12Z" fill="white"/>
</clipPath>
<clipPath id="clip1_246_14588">
<path d="M28 192C28 185.373 33.3726 180 40 180H60C66.6274 180 72 185.373 72 192C72 198.627 66.6274 204 60 204H40C33.3726 204 28 198.627 28 192Z" fill="white"/>
</clipPath>
<clipPath id="clip2_246_14588">
<path d="M28 228C28 221.373 33.3726 216 40 216H60C66.6274 216 72 221.373 72 228C72 234.627 66.6274 240 60 240H40C33.3726 240 28 234.627 28 228Z" fill="white"/>
</clipPath>
<clipPath id="clip3_246_14588">
<path d="M182 192C182 185.373 187.373 180 194 180H214C220.627 180 226 185.373 226 192C226 198.627 220.627 204 214 204H194C187.373 204 182 198.627 182 192Z" fill="white"/>
</clipPath>
<clipPath id="clip4_246_14588">
<path d="M182 228C182 221.373 187.373 216 194 216H214C220.627 216 226 221.373 226 228C226 234.627 220.627 240 214 240H194C187.373 240 182 234.627 182 228Z" fill="white"/>
</clipPath>
</defs>
</svg>
