<svg width="382" height="15" viewBox="0 0 382 15" fill="none" xmlns="http://www.w3.org/2000/svg">
<path d="M380.275 4.80584C380.087 4.51784 379.713 4.32584 379.152 4.22984C376.533 3.74984 373.726 3.74984 371.107 3.55784C369.61 3.46184 368.3 3.46184 366.803 3.26984C365.868 3.17384 364.745 3.07784 363.622 3.07784C362.687 3.07784 361.751 2.88584 360.816 2.88584C360.629 2.88584 360.255 2.78984 360.068 2.88584C358.758 3.07784 357.635 2.88584 356.513 2.78984C355.39 2.69384 354.454 2.69384 353.519 2.59784C352.396 2.88584 351.461 2.40583 350.525 2.50183C349.403 2.59783 348.093 2.30984 346.97 2.40584C345.661 2.50184 344.351 2.11784 343.041 2.40584C342.854 2.40584 342.293 2.30984 341.919 2.30984C341.17 2.30984 340.235 2.21384 339.486 2.11784C338.364 2.02184 337.054 1.82983 335.931 2.02183C334.622 2.21384 333.499 1.92584 332.376 1.82984L330.505 1.92584C330.318 1.92584 329.944 2.02184 329.757 1.92584C328.26 1.63784 326.95 1.82984 325.454 1.82984C324.892 1.73384 324.144 1.82984 323.583 1.73384C320.776 1.25384 317.97 1.54184 315.163 1.54184C313.666 1.54184 312.169 1.44584 310.673 1.44584C308.24 1.44584 305.808 1.25383 303.376 1.25383C301.317 1.25383 299.259 1.25384 297.014 1.06184C295.704 0.965836 294.395 0.965843 293.085 0.965843C292.711 0.965843 292.337 1.06184 291.962 0.965843C290.091 0.869843 288.22 0.965839 286.162 0.869838C282.607 0.677839 278.865 1.06184 275.31 0.581836C274.936 0.581836 274.562 0.677841 274.188 0.677841C272.691 0.677841 271.381 0.773834 269.884 0.773834C269.136 0.773834 268.2 0.485833 267.265 0.773834C266.329 0.485833 265.394 0.581833 264.271 0.773834C263.71 0.869833 263.149 0.869833 262.587 0.773834C261.091 0.485833 259.781 0.48584 258.284 0.677841C257.536 0.773841 256.6 0.485833 255.665 0.773834C254.355 0.485833 252.671 0.773841 251.174 0.677841C249.677 0.581841 248.18 0.485833 246.684 0.773834C245.374 0.485833 243.69 0.581836 242.193 0.581836C241.632 0.677836 241.071 0.677841 240.509 0.677841C240.135 0.677841 239.574 0.869833 239.2 0.773834C238.451 0.581833 237.516 0.677841 236.58 0.677841C235.832 0.677841 234.896 0.581836 233.961 0.581836C232.464 0.581836 231.154 0.677836 229.657 0.581836C228.348 0.485836 227.038 0.773837 225.728 0.581836C224.419 0.389837 222.922 0.773834 221.612 0.773834C217.122 0.773834 212.818 0.773839 208.515 0.869838C207.392 0.581838 206.27 0.869838 205.147 0.869838C204.024 0.869838 202.902 0.677839 201.779 0.869838C201.218 0.965839 200.469 0.965843 199.721 0.965843C197.289 0.965843 194.669 1.06184 192.237 0.965843C190.927 1.25384 189.43 1.15784 187.934 1.15784C184.94 1.15784 181.759 1.06183 178.579 1.25383C176.708 1.34983 175.024 1.44584 173.153 1.44584H168.849C167.352 1.44584 165.856 1.34984 164.359 1.54184C162.862 1.73384 161.552 1.44584 160.243 1.54184C158.559 1.63784 156.875 1.54184 155.378 1.73384C153.881 1.92584 152.197 1.54184 150.7 2.02183H150.139C148.268 1.63783 146.397 1.82984 144.713 1.82984C142.842 1.82984 140.971 1.82984 139.287 2.11784C138.726 2.21384 138.352 2.21384 137.79 2.11784C137.416 2.02184 136.855 2.02184 136.293 2.11784C134.797 2.11784 133.3 1.92584 131.803 2.30984C130.306 2.11784 128.809 2.21384 127.313 2.30984C125.816 2.40584 124.506 2.40584 123.009 2.40584C121.512 2.40584 120.016 2.40584 118.519 2.59784C117.022 2.40584 115.712 2.88583 114.403 2.50183C112.906 2.78983 111.596 2.50184 110.099 2.69384C108.228 2.88584 106.357 2.98184 104.486 2.88584C103.176 2.78984 102.054 2.98184 100.931 3.07784C99.8086 3.17384 98.873 3.17384 97.9375 3.17384C96.8149 3.17384 95.6923 2.98184 94.5697 3.17384C92.5116 3.55784 90.2664 3.17384 88.0211 3.55784C85.963 3.26984 83.9049 3.74984 81.8468 3.74984C80.9112 3.74984 79.7886 3.65384 78.8531 3.84584C77.5434 4.13384 76.0466 4.03784 74.5498 4.03784C73.8014 3.94184 72.8659 3.94184 71.9304 4.13384C70.9948 4.32584 69.8722 4.51784 68.7496 4.32584C68.1883 4.22984 67.627 4.32584 66.8786 4.42184C65.756 4.42184 64.6334 4.51784 63.3237 4.51784C62.201 4.51784 61.0784 4.99783 59.7687 4.70983C59.3945 4.61383 59.0203 4.80584 59.0203 4.99784C58.8332 5.28584 58.6461 5.57384 58.0848 5.09384C57.8977 4.90184 57.3364 4.90184 56.7751 4.90184C56.0267 4.90184 55.4654 5.09384 54.717 4.99784C54.1557 4.90184 53.4072 5.28584 52.6588 5.09384C52.2846 4.99784 52.2846 5.28584 52.0975 5.38184C52.0975 5.66984 51.9104 5.76584 51.3491 5.57384C49.8523 5.28584 48.5426 5.18984 47.2329 5.86184C46.8587 6.05384 46.8587 5.95784 46.6716 5.76584C46.6716 5.57384 46.8587 5.38184 46.1103 5.38184C44.6134 5.57384 43.1166 5.86184 41.6198 5.86184C39.9359 5.86184 38.4391 6.05383 36.9423 6.14983C33.7615 6.34183 30.5808 6.34184 27.213 6.72584C25.3419 6.91784 23.2838 7.01384 21.4128 7.30184C20.8515 7.39784 20.2902 7.39783 19.916 7.39783C19.1676 7.39783 18.2321 7.68584 17.4836 7.58984C16.5481 7.49384 15.7997 7.68583 14.8642 7.87783C14.3029 7.97383 13.7416 7.97384 13.1803 8.06984C10.9351 8.06984 8.87695 8.35784 7.00593 8.83784C6.63173 8.93384 6.07042 8.93384 5.50912 9.02984C4.94781 9.22184 4.57361 9.22184 3.8252 9.12584C2.51548 8.93384 1.20577 8.93384 0.0831566 9.41384C0.0831566 9.50984 -0.103946 9.60584 0.0831566 9.70184C0.0831566 9.79784 0.270258 9.79784 0.45736 9.89384C0.831565 9.89384 1.01867 9.89384 1.39287 9.79784C1.76707 9.70184 2.14128 9.60584 2.51548 9.70184C4.3865 10.1818 6.25752 9.98984 8.12855 9.79784C9.06406 9.70184 9.81246 9.89384 10.5609 9.50984C11.1222 9.22184 11.8706 9.22184 12.4319 9.22184C13.3674 9.22184 14.1158 9.12584 14.8642 9.12584C16.361 9.12584 17.4836 8.83784 18.6063 8.26184C18.9805 7.97384 19.7289 7.97384 20.2902 8.16584C21.4128 8.74184 22.5354 8.64584 24.0322 8.64584C25.1548 8.64584 26.2774 8.45384 27.5872 8.45384C27.9614 8.45384 28.3356 8.54983 28.7098 8.35783C29.6453 7.87783 31.3292 8.06984 32.4518 7.78184C32.826 7.68584 33.2002 7.78184 33.5744 7.78184C34.1357 7.87784 34.697 7.87783 35.0712 7.87783C37.8778 7.87783 40.6843 7.58983 43.4908 7.39783L44.0521 7.20584C44.4263 6.82184 44.8005 7.01384 45.549 7.01384C46.2974 7.01384 47.42 7.10984 48.1684 7.01384C49.6652 6.82184 51.162 6.53384 52.8459 6.72584C54.1557 6.34184 55.4654 6.53384 56.7751 6.43784H62.0139C62.5752 6.43784 63.3237 6.53383 63.885 6.14983C63.885 5.95783 64.0721 5.95784 64.2592 6.05384C64.8205 6.62984 65.9431 6.43784 66.6915 6.34184C68.1883 6.14984 69.498 6.05383 70.9948 5.66983C71.369 5.57383 71.5561 5.76584 71.7432 5.86184C72.1174 6.05384 72.3046 6.05384 72.4917 6.05384C73.9885 5.76584 75.4853 5.86184 76.9821 5.76584C78.666 5.66984 80.1628 5.76584 81.8468 5.76584C82.5952 5.76584 83.3436 5.86184 83.9049 5.76584C85.7759 5.47784 87.4598 5.47784 89.3308 5.47784C90.8277 5.47784 91.9503 5.57383 93.4471 5.18983C93.8213 5.09383 94.3826 5.18983 94.7568 5.18983C98.1246 5.18983 101.492 5.28584 104.673 4.90184H105.609C106.918 4.90184 108.041 4.90184 109.351 4.80584C110.66 4.70984 111.783 4.90184 113.093 4.90184C113.841 4.80584 114.59 4.90183 115.151 4.70983C116.086 4.42183 116.835 4.90183 117.583 4.70983C118.893 4.32583 120.016 4.51784 121.325 4.51784C123.009 4.51784 124.693 4.61384 126.19 4.51784C128.435 4.32584 130.68 4.22984 132.739 4.22984C133.3 4.22984 133.861 4.32584 134.235 4.22984C135.171 4.03784 135.919 4.03784 136.668 4.13384C137.416 4.22984 138.164 3.94184 139.1 4.13384C139.848 4.32584 140.784 4.03784 141.719 4.13384C142.468 4.22984 143.216 4.32584 144.152 4.13384C144.9 3.94184 145.836 4.13384 146.771 4.03784C147.707 3.94184 148.642 3.84584 149.765 3.84584C150.887 3.84584 151.823 3.94184 152.946 3.94184C154.068 3.94184 155.004 3.74984 155.939 3.84584C157.062 3.94184 158.184 3.94184 159.307 3.94184C160.991 3.94184 162.862 4.13384 164.359 3.74984C164.733 3.65384 165.107 3.74984 165.481 3.74984C167.165 3.94184 168.662 4.03784 170.346 3.74984C171.656 3.55784 172.965 3.26984 174.275 3.65384C177.456 3.65384 180.824 3.55784 184.192 3.55784C185.314 3.36584 186.624 3.46183 187.747 3.46183C188.495 3.46183 189.056 3.65384 189.805 3.36584C191.676 3.55784 193.36 3.26984 195.231 3.26984C197.663 3.26984 200.282 3.46184 202.902 3.17384H203.463C204.773 3.46184 205.895 3.26984 207.205 3.17384C207.579 3.07784 207.766 3.17384 208.141 3.17384C210.199 3.46184 212.257 3.55784 214.502 3.17384C215.063 3.07784 215.625 3.07784 216.186 3.17384C217.122 3.36584 218.057 3.36584 218.993 3.17384C219.741 2.98184 220.489 2.98184 221.238 3.17384C221.612 3.26984 222.173 3.26984 222.548 3.26984H228.722C229.47 3.36584 230.406 3.36584 231.154 3.26984C233.025 3.07784 234.709 3.26984 236.58 3.26984C237.329 3.26984 238.264 3.36584 239.2 3.07784C240.135 2.78984 240.884 2.69384 241.819 3.17384C242.193 3.26984 242.755 3.26984 243.316 3.26984C245 3.26984 246.684 3.36584 248.368 3.17384C249.864 3.46184 251.548 3.26984 253.045 3.26984C254.542 3.26984 256.039 3.36584 257.536 3.26984C259.032 3.17384 260.529 3.26984 262.026 3.26984C265.207 3.26984 268.388 3.17383 271.381 3.46183C271.568 3.55783 271.942 3.55783 272.13 3.46183C273.252 3.26983 274.375 3.46184 275.685 3.55784C277.93 3.74984 280.362 3.65384 282.794 3.26984C283.356 3.17384 283.917 3.17384 284.478 3.26984C286.162 3.55784 287.846 3.65384 289.53 3.65384C291.401 3.65384 293.085 3.74984 294.769 3.74984C295.892 3.74984 297.014 3.84584 297.95 3.84584C299.259 3.84584 300.382 3.94184 301.692 3.74984C302.814 3.55784 303.937 3.94184 305.247 3.94184H306.369C308.24 3.74984 309.737 4.03784 311.421 4.03784C311.608 4.03784 311.608 4.13384 311.795 4.13384V4.22984C311.982 4.42183 311.795 4.51784 311.608 4.51784C311.234 4.51784 310.86 4.61384 310.673 4.51784C309.924 4.13384 308.614 4.32584 307.492 4.51784C306.931 4.61384 306.369 4.61384 305.808 4.61384H298.137C297.388 4.61384 296.64 4.70984 296.079 4.80584C295.143 4.99784 294.582 4.42184 293.646 4.61384C293.085 4.70984 292.524 4.61383 291.962 4.70983C291.401 4.80583 291.027 4.80584 290.466 4.80584C289.717 4.80584 289.156 4.90183 288.407 4.70983C287.659 4.51783 286.911 4.90183 286.162 4.70983H279.801C279.052 4.70983 278.491 4.90184 277.93 4.80584C276.433 4.51784 274.936 5.09383 273.626 4.70983C271.942 4.99783 270.446 4.90184 268.762 4.90184H264.271C262.774 4.90184 261.278 4.99784 259.781 4.99784C258.097 4.99784 256.6 5.28584 254.916 4.99784C254.729 4.90184 254.355 4.99784 253.981 5.09384C253.232 5.09384 252.297 5.18983 251.361 5.18983C247.993 5.18983 244.438 5.18984 241.071 5.38184C239.012 5.47784 236.767 5.47784 234.709 5.47784C233.025 5.47784 231.154 5.66983 229.47 6.14983C229.283 6.24583 228.909 6.24584 228.722 6.34184C228.348 5.76584 227.412 6.14984 226.851 6.05384C225.541 5.86184 224.231 5.86184 222.735 6.05384C222.36 6.05384 221.986 6.14984 221.612 6.05384C220.864 5.86184 220.115 6.05384 219.554 6.05384C218.057 6.05384 216.56 6.24583 215.063 6.14983C213.941 6.05383 212.818 6.24584 211.883 6.53384C211.321 6.62984 210.947 6.62984 210.386 6.53384C209.825 6.53384 209.263 6.62984 208.515 6.62984C208.141 6.62984 207.579 6.72584 207.018 6.72584C205.895 6.53384 204.773 6.82183 203.65 6.91783C202.902 7.01383 202.34 7.10984 201.779 7.01384C201.218 6.91784 200.844 7.10983 201.031 7.39783C201.218 8.45383 202.715 8.93383 204.399 8.35783C204.96 8.16583 205.334 8.16584 205.708 8.26184C206.831 8.35784 207.579 8.64583 208.702 8.35783C209.076 8.26183 209.637 8.26184 210.199 8.26184C211.508 8.26184 212.631 8.26184 213.754 8.16584C215.063 8.06984 216.186 7.97384 217.496 7.97384H221.051C221.612 7.97384 222.36 7.97383 223.109 7.87783C224.231 7.68583 225.541 7.49384 226.851 7.68584C227.412 7.78184 227.973 7.68584 228.348 7.58984C229.096 7.39784 229.844 7.68584 230.406 7.58984C231.341 7.30184 231.903 7.58984 232.838 7.68584C233.961 7.78184 235.27 7.78184 236.393 7.58984C236.58 7.49384 236.954 7.39784 237.141 7.49384C238.077 7.68584 238.638 7.39784 239.2 7.30184C239.948 7.20584 240.884 7.39783 241.258 6.91783C241.445 6.82183 241.632 6.82184 241.819 6.82184C242.755 6.82184 243.503 7.20583 244.438 6.91783H244.626C245.187 7.49383 246.309 7.30183 247.058 7.39783C247.993 7.39783 248.742 7.30183 249.49 7.39783C250.426 7.39783 251.361 7.39784 251.735 7.01384C251.923 6.82184 252.297 6.91784 252.484 7.01384C253.045 7.30184 253.606 7.20584 254.168 7.20584C254.729 7.20584 255.29 7.10984 256.039 7.10984C256.974 7.10984 258.097 7.20584 259.032 7.01384C260.155 6.82184 261.091 7.10984 262.213 7.10984H263.149C265.02 7.10984 266.704 7.10983 268.575 6.91783C270.446 6.72583 272.317 7.10984 274.188 6.82184C274.749 6.72584 275.497 6.72583 276.059 6.91783C276.807 7.10983 277.556 7.01383 278.304 6.91783C281.298 6.53383 284.291 6.82184 287.098 6.72584C289.156 6.62984 291.401 6.72584 293.459 6.72584C294.582 6.82184 295.33 6.43784 295.704 5.95784C297.014 6.72584 297.014 6.82184 298.511 6.72584C299.821 6.62984 301.317 6.72584 302.627 6.53384H303.937C304.872 6.82184 305.995 6.72584 307.118 6.72584C309.176 6.72584 311.234 6.62984 313.292 6.82184C314.415 6.91784 315.537 6.62984 316.847 6.62984C317.034 6.62984 317.221 6.43784 317.408 6.34184C317.97 5.76584 317.97 6.14984 317.97 6.34184C318.157 6.62984 318.531 6.72584 318.905 6.72584C319.653 6.72584 320.589 6.53384 321.15 6.72584C321.899 7.01384 323.021 6.53384 323.957 6.62984C324.892 6.72584 325.828 6.82184 326.763 7.01384H327.699C329.57 7.01384 331.254 7.01384 333.125 7.01384H335.744C336.306 7.01384 336.68 6.91784 337.241 7.01384C338.925 7.10984 340.609 7.01383 342.293 6.91783C343.415 6.82183 344.538 6.82184 345.661 7.01384C346.222 7.10984 346.97 6.91783 347.719 6.91783C347.906 6.91783 348.093 6.82183 348.467 6.91783C349.777 7.20583 351.087 7.10983 352.396 6.91783L354.642 6.62984C355.577 6.53384 355.951 7.20584 356.887 7.01384C357.448 6.91784 357.822 7.01384 358.384 7.10984H361.377C362.313 7.10984 363.061 6.82184 363.997 7.01384C364.932 7.20584 366.055 7.20584 366.99 7.20584H367.926C368.3 7.20584 368.674 7.20584 368.861 7.10984C369.61 6.72584 370.358 7.01384 371.294 7.01384H378.965C379.526 7.01384 380.087 6.82184 380.275 6.43784C380.462 5.95784 380.649 5.38184 380.275 4.80584ZM199.16 6.91783C198.224 6.91783 197.476 6.82184 196.727 7.20584C196.54 7.30184 196.166 7.30184 196.166 7.20584C195.418 7.01384 194.482 7.10984 193.734 7.10984C189.805 7.10984 186.063 7.58983 182.133 7.39783C182.133 7.39783 181.946 7.39784 181.946 7.49384C181.011 7.78184 179.888 7.68584 178.953 7.68584C178.391 7.68584 177.83 7.68584 177.456 7.78184C176.333 8.06984 175.024 8.06984 173.901 7.97384C172.778 7.87784 172.03 8.26184 170.907 8.45384C170.72 8.45384 170.533 8.64584 170.533 8.74184C170.346 8.83784 170.346 9.02984 170.346 9.02984C170.159 9.12584 169.972 9.22184 169.785 9.22184C169.411 9.12584 169.411 8.93384 169.411 8.83784C169.411 8.74184 169.598 8.64584 169.785 8.54984C169.972 8.26184 169.785 8.16584 169.223 8.16584C168.662 8.26184 167.914 8.35783 167.352 8.35783C165.856 8.16583 164.172 8.35783 162.675 8.35783C161.739 8.35783 160.991 8.35784 160.243 8.45384C159.494 8.54984 158.746 8.83784 157.997 8.74184H155.565C154.442 8.83784 153.32 8.74184 152.197 8.93384C151.449 9.02984 150.7 9.22184 149.952 9.12584C148.829 9.02983 148.081 9.12584 147.145 9.31784C146.21 9.50984 145.461 9.60584 144.339 9.41384C143.778 9.31784 142.842 9.31784 142.655 9.50984C141.907 9.89384 141.158 9.70184 140.41 9.70184H137.977C137.042 9.70184 136.293 9.89384 135.358 9.89384C134.235 9.89384 133.113 9.89383 132.364 10.0858C131.429 10.2778 130.493 9.98984 129.558 10.1818C127.874 10.4698 126.003 10.4698 124.319 10.5658C122.074 10.6618 120.203 10.7578 118.706 11.5258C118.706 11.6218 118.332 11.5258 118.145 11.5258C118.145 11.4298 118.145 11.3338 118.332 11.2378C118.332 10.9498 118.145 10.8538 117.77 10.9498L116.086 11.2378C115.899 11.2378 115.712 11.4298 115.899 11.5258C115.899 11.6218 116.086 11.6218 116.274 11.6218C116.648 11.5258 117.022 11.4298 117.209 11.6218C117.209 11.7178 117.022 11.9098 116.835 12.0058C116.648 12.1018 116.274 12.1978 116.648 12.3898C116.835 12.4858 117.022 12.5818 117.396 12.5818C118.145 12.5818 119.08 12.3898 120.016 12.3898C120.951 12.3898 121.699 12.2938 122.074 11.9098C122.261 11.7178 123.009 11.7178 123.196 11.9098C123.758 12.3898 124.506 12.3898 125.254 12.1018C126.19 11.7178 127.125 11.4298 128.248 11.7178C128.622 11.8138 129.184 11.7178 129.745 11.6218C130.306 11.5258 130.493 11.3338 130.493 10.9498C130.493 10.8538 130.867 10.6618 131.055 10.6618C131.429 10.6618 131.616 10.8538 131.803 10.9498C131.803 11.0458 131.803 11.1418 131.616 11.2378C131.616 11.6218 131.803 11.7178 132.364 11.7178C133.487 11.7178 133.674 11.7178 133.674 11.2378C133.674 10.9498 133.861 10.7578 134.235 10.8538C134.797 10.9498 135.171 11.0458 135.545 11.2378C135.919 11.3338 136.293 11.4298 136.668 11.4298C137.977 11.4298 139.1 11.4298 140.223 11.3338C142.655 11.1418 144.9 10.7578 147.145 10.7578C147.707 10.7578 148.268 10.4698 148.829 10.6618C149.952 11.0458 150.887 10.5658 151.823 10.5658C152.197 10.5658 152.758 10.4698 153.133 10.5658C154.068 10.7578 154.817 10.5658 155.565 10.5658C156.875 10.5658 157.997 9.98984 159.307 10.3738C161.365 10.1818 163.61 10.1818 165.668 10.1818C166.604 10.1818 167.539 9.98983 168.101 9.60583C168.662 9.22183 168.475 9.50984 168.849 9.70184C169.036 9.79784 169.411 9.89384 169.598 9.89384L171.469 9.60583H174.088C175.024 9.60583 176.146 9.41383 177.082 9.60583C177.456 9.60583 177.83 9.60584 178.204 9.50984C180.075 9.41384 181.759 9.02983 183.63 9.12584L184.004 8.93384C184.192 8.83784 184.192 8.74184 184.379 8.93384C184.753 9.02984 184.94 9.22184 185.501 9.22184C186.437 9.22184 187.372 9.02983 188.308 9.12584C188.495 9.22184 188.682 9.02984 188.495 8.93384C188.495 8.83784 188.495 8.64584 188.682 8.74184C190.179 9.02984 191.676 8.83784 193.172 8.83784H198.037C198.786 8.83784 198.786 8.64584 198.786 8.26184C198.598 7.97384 198.598 7.87783 199.347 7.87783C199.721 7.87783 199.721 7.78184 199.908 7.58984C200.095 7.39784 200.844 7.20583 200.282 6.91783C199.908 6.72583 199.534 6.91783 199.16 6.91783ZM114.59 11.5258H112.719C111.783 11.4298 110.848 11.8138 109.912 11.7178C108.228 11.5258 107.106 11.9098 105.796 12.1018C105.235 12.1978 105.235 12.4858 105.235 12.7738V12.9658C106.544 13.0618 108.041 13.0618 109.351 13.0618C109.912 13.0618 110.473 12.9658 110.66 12.7738C111.035 12.4858 111.409 12.1978 111.783 12.0058C112.344 11.7178 113.093 12.1978 113.841 12.0058C114.028 11.9098 114.403 12.0058 114.59 12.0058C114.777 12.0058 114.964 11.8138 114.964 11.7178C114.777 11.7178 114.777 11.5258 114.59 11.5258ZM104.299 12.1978C103.925 12.1018 103.551 12.1018 103.176 12.1018C102.241 12.1018 101.305 12.1018 100.557 12.4858C100.183 12.6778 99.4343 12.7738 98.873 12.5818C98.1246 12.3898 97.3762 12.4858 96.6278 12.7738C95.8794 13.0618 95.8794 13.1578 94.7568 13.7338C94.5697 13.8298 94.5697 13.8298 94.7568 13.9258C95.3181 13.9258 95.8794 13.9258 96.2536 13.7338C97.002 13.3498 97.9375 13.2538 99.0601 13.3498C100.931 13.5418 102.989 13.2538 104.86 13.2538C105.047 13.2538 105.047 13.0618 105.235 13.0618L104.673 12.7738C104.486 12.5818 104.673 12.2938 104.299 12.1978Z" fill="#101828"/>
</svg>
