<svg width="20" height="21" viewBox="0 0 20 21" fill="none" xmlns="http://www.w3.org/2000/svg">
<path d="M10 6.28174V14.2817M6 10.2817H14M5.8 19.2817H14.2C15.8802 19.2817 16.7202 19.2817 17.362 18.9548C17.9265 18.6671 18.3854 18.2082 18.673 17.6437C19 17.002 19 16.1619 19 14.4817V6.08174C19 4.40158 19 3.5615 18.673 2.91977C18.3854 2.35528 17.9265 1.89634 17.362 1.60872C16.7202 1.28174 15.8802 1.28174 14.2 1.28174H5.8C4.11984 1.28174 3.27976 1.28174 2.63803 1.60872C2.07354 1.89634 1.6146 2.35528 1.32698 2.91977C1 3.5615 1 4.40158 1 6.08174V14.4817C1 16.1619 1 17.002 1.32698 17.6437C1.6146 18.2082 2.07354 18.6671 2.63803 18.9548C3.27976 19.2817 4.11984 19.2817 5.8 19.2817Z" stroke="white" stroke-width="2" stroke-linecap="round" stroke-linejoin="round"/>
</svg>
